/* XPM */
static char *eef0a6b807ad4ee2c257e8f6204c3be3o4ySoLbJvnOgZkHL[] = {
/* columns rows colors chars-per-pixel */
"60 60 238 2 ",
"   c #020101",
".  c #0B0200",
"X  c #040802",
"o  c #0C0A02",
"O  c #020309",
"+  c #0A0B0A",
"@  c #0A070A",
"#  c #120300",
"$  c #120C02",
"%  c #170A04",
"&  c #161203",
"*  c #1A1202",
"=  c #1A140B",
"-  c #1E1A0D",
";  c #15120B",
":  c #1A1512",
">  c #1D1B14",
",  c #171814",
"<  c #0D0B12",
"1  c #221B0D",
"2  c #261A02",
"3  c #241C14",
"4  c #221A17",
"5  c #1E2119",
"6  c #292300",
"7  c #372C01",
"8  c #26221A",
"9  c #2B231B",
"0  c #2C2A1E",
"q  c #292616",
"w  c #3A311A",
"e  c #2B2A25",
"r  c #292828",
"t  c #322A27",
"y  c #373328",
"u  c #443400",
"i  c #412F09",
"p  c #544600",
"a  c #574B17",
"s  c #574D0E",
"d  c #64591B",
"f  c #69580A",
"g  c #6B641A",
"h  c #585226",
"j  c #665C23",
"k  c #6D5E2D",
"l  c #776934",
"z  c #766C31",
"x  c #605746",
"c  c #776C4F",
"v  c #83792E",
"b  c #8D7932",
"n  c #867842",
"m  c #9F8B35",
"M  c #A28736",
"N  c #EDAB0C",
"B  c #ECAA09",
"V  c #F5AD03",
"C  c #FDAE03",
"Z  c #F5AD0C",
"A  c #FCAE0A",
"S  c #F4A606",
"D  c #EBB20B",
"F  c #EFB407",
"G  c #F4B204",
"H  c #FDB103",
"J  c #F4B30B",
"K  c #FCB20B",
"L  c #F6B90C",
"P  c #EEAD13",
"I  c #E9AB16",
"U  c #F5AE12",
"Y  c #FAAE11",
"T  c #F0AE1A",
"R  c #F5B313",
"E  c #FBB313",
"W  c #F4BA12",
"Q  c #F5B41B",
"!  c #FBB51B",
"~  c #FCBA1C",
"^  c #F5BA16",
"/  c #EFB21C",
"(  c #EDB725",
")  c #F3BB23",
"_  c #FDBC24",
"`  c #F5BD2B",
"'  c #FEBD2C",
"]  c #F5B523",
"[  c #EEBB3D",
"{  c #ECB537",
"}  c #F5BD34",
"|  c #FCBE33",
" . c #F4BC3B",
".. c #FBBE3B",
"X. c #F2B738",
"o. c #FBC41B",
"O. c #F3C323",
"+. c #FDC324",
"@. c #FECB25",
"#. c #F6C42B",
"$. c #FDC22C",
"%. c #FDCB2B",
"&. c #F1CE2A",
"*. c #FED32C",
"=. c #FAD229",
"-. c #F6C234",
";. c #FDC134",
":. c #F3CC34",
">. c #FCCC33",
",. c #F5C23B",
"<. c #FCC23B",
"1. c #F3CD3C",
"2. c #FCCB3B",
"3. c #F5D335",
"4. c #FDD335",
"5. c #F5D33C",
"6. c #FDD33B",
"7. c #FFD836",
"8. c #EED03A",
"9. c #8D8249",
"0. c #96864A",
"q. c #968C55",
"w. c #9C9359",
"e. c #A18E4C",
"r. c #A79847",
"t. c #A18F58",
"y. c #A79956",
"u. c #B29C51",
"i. c #B8A34D",
"p. c #AAA256",
"a. c #B5A45C",
"s. c #BDAA5E",
"d. c #B9A755",
"f. c #B7A948",
"g. c #AA9E66",
"h. c #ABA263",
"j. c #B7A967",
"k. c #B7AC75",
"l. c #CBB659",
"z. c #CBBB56",
"x. c #EDBC43",
"c. c #F3BD42",
"v. c #FCBE41",
"b. c #F4BD48",
"n. c #C8B767",
"m. c #D2BB67",
"M. c #C8BA78",
"N. c #CAB36E",
"B. c #DFCC55",
"V. c #F4C143",
"C. c #FCC543",
"Z. c #F5CD44",
"A. c #FCCB44",
"S. c #F5C44B",
"D. c #FBC64C",
"F. c #FCCB4B",
"G. c #F6CA4D",
"H. c #EBD14A",
"J. c #F4D343",
"K. c #FDD343",
"L. c #F6D944",
"P. c #FCD945",
"I. c #F5D44A",
"U. c #FED44B",
"Y. c #F6DB49",
"T. c #FDDA4D",
"R. c #E5CD5A",
"E. c #FCCD54",
"W. c #FDCD5C",
"Q. c #F6CB58",
"!. c #EBD35C",
"~. c #EAD659",
"^. c #F6D354",
"/. c #FED553",
"(. c #F6DC54",
"). c #FEDA55",
"_. c #F4D45B",
"`. c #FED55A",
"'. c #F4DA5C",
"]. c #FDDB5C",
"[. c #EFC741",
"{. c #FFE155",
"}. c #FEE15C",
"|. c #F6E059",
" X c #DDCC6C",
".X c #D8C567",
"XX c #D9C675",
"oX c #D2C869",
"OX c #E5CC68",
"+X c #F8CD68",
"@X c #EFDA64",
"#X c #EDDA6D",
"$X c #E7D369",
"%X c #FBD562",
"&X c #F5DC63",
"*X c #FDDB62",
"=X c #F2DC6C",
"-X c #FDDD6B",
";X c #F6D667",
":X c #E3D47C",
">X c #EADA77",
",X c #F4DD73",
"<X c #FBDD74",
"1X c #F3DD7A",
"2X c #FBDD7C",
"3X c #FDD57E",
"4X c #E6CF72",
"5X c #FEE163",
"6X c #FEE16C",
"7X c #F6E36D",
"8X c #EFE179",
"9X c #F5E271",
"0X c #FCE475",
"qX c #FDE37C",
"wX c #F5E67C",
"eX c #BAB796",
"rX c #CFBF85",
"tX c #C1BEAB",
"yX c #D8CC80",
"uX c #E8D985",
"iX c #F5DC87",
"pX c #E6DA9E",
"aX c #FAE484",
"sX c #F2E48A",
"dX c #F9E486",
"fX c #FCE896",
"gX c #EFE189",
"hX c #D6CFBC",
"jX c #EEDFBE",
"kX c #E7D5A5",
"lX c #FFEAA5",
"zX c #FCE9A8",
"xX c #FDECB1",
"cX c #FAEEBA",
"vX c #FAECC2",
"bX c #FCF4CA",
"nX c #FFFDDE",
"mX c #FFFBE1",
/* pixels */
"    O         .   O   O   X         . 3 y 1 .   . . . . . . . . . # o . X X & 0 8 .   .   .                             ",
"                . O     X         8 0   X X % k n t.j.j.a.n.n.s.j.p.e.9.j 6     X 1 8 =     o . X   O O       X         ",
"              .   O   X     X r r X   . z j.n. X#X&X}.Y.Y.)././.).)._.~..XoXp.m 7   . : e               O O         O   ",
"                      X   + t . . w q.M.uX8X0X6X].J.&.=.*.=.#.>.>.%.5.Y.{.7XwX:XoXg.h o   q 5 X X     O O               ",
"                  @     > >     t.XXiXqX6X&X].^.J.K.3.7.7.7.6.6.K.6.U.).`.'.;X-XwXgX:Xp.h     r     X   O O O O         ",
"                      5   . c yXsXaX0X!.5X).].).A.6.>.@.o.O.#.#.#.1.U./.%X*X*X`.(.(.7X1XXXw.o   e ;   X O O < O         ",
"                    e   . eXpXfXdX,X;X6X].].F.<.` T P P N B N P I ( ..S.W.W.%X*X].`._.5X9XiXn.a . q 1 .   O O O         ",
"O                 r     eXzXfXdXqX0X-X-XE.C.} I U U U A A A A R / } ..X.x.c.b.D./.].).].@X-X<X Xv   $ 3 O @   O   X     ",
"O O       O O   r     hXbXxXgXqX<X<X`.S.<.' Q A A H H H K H A Y ' ;.<.;.<... . . .S./.%X]._.&X0XuX0..   4 . .       X   ",
". @           e o y hXnXvXzXfXqX-X+XD.A.| ! Y H C C C H H A Y _ ' ;.$.$.;.;.....c.c.c.E.].*X'.'.9XgXg.. . 3   .         ",
"    O O O O 4   x hXnXbXbXlXfX<X+XD.,.<.Q A K K C C C H V J ! ' | ;.;.;.| | <.<...v. .x.G._.*X&X'.=XiXy.# 1 1         O ",
"  X     O > . c jXbXvXvXzXlXiX+XW.C.<.+.K J K C C C H H J Q ' <.-...| ;.;.| | | ..v.v.X.x.S.W.*X'.6X1XiX0.# 9 #   @     ",
"      @ $   i kXxXzXzXlXlXiXiX+XD.D.$.E K H H H H H G F ^ >.U./.C.....<.$.$.$.' ;.' ..C.v.c.c.W.%X].'.6X:Xk o 9 .       ",
"        * # k.fXiXdXfXdX3XiX+X+XD.C.] R K H H H H G F D #.P.].*XD...| ;.#.$.#.%.' ;...<.v.....X.%X`.(.`.<X.X2 . 8       ",
"      ; . b uX1X2XqXaX<X;X+XQ.E.<.' Q R E C C K H K Z Q 2./.`.]./.C...-.` -.<.$.' ..;.| | <.;.} b.%X/.].&X$Xy.o * <     ",
"    @ . 2 XX1X#X0X-X*X_.E.E.G.C.;.] Y E A C K C A E T ` U.].`.%X/.C.,.<.-.' ;.| | | | | ;.;.' ;.{ b.]./.Y.'..Xg . t   O ",
"    : # M -X~.7X-X*XE.F.F.C.C.| ! ~ A C K C C K U ) 2.U.).].].*X*X/.F.A.,.<.-.| -...<...;.| | | | { F.).5.8.|.f.# . :   ",
"X + . u OX^.'.5X*XW.C.A.C.C.| ' U K K H H V E ~ ;.K.).}.).].`.`.].`.].).).P.K.,.<.-...;.| ;.| $.-.`  .<.7.3.P.B.l . q   ",
"  o . n ;XI.).5X`.S.C.,.2.<._ Q E H K K G K +.%.6.P.).).`.].].].*X].].)././.).U.,...| | ;.| ;.| <.$.T ( 4.6.5.&Xs.$ . & ",
"X o % M.Q./.5X^.F.c.<.<.<.$.Q A L G L G L @.*.4.P.T.).].].&X&X].*X`.`.].].].).U.<.-.;.| | ;.| | ;.' I I %.4.:.(. Xd . 0 ",
"; . j >X_.).^.].,.<...<.' R E H H K J F o.7.3.K.T.).].].*X*X].*X*X*X*X*X*X*X]./. .-.;.| | | ;.| ' ! R B Q 2.4.J.@Xm o - ",
": . r.=X*X].).Z.-.<.<.<.~ J K C H H G ^ *.6.5.T.).].].].]./././.`.].`.*X].*X`.A...;.;.| ' ;.;.;.! A K V N >.6.1.|.z.2 X ",
"  % m.&X^.*X/.1.-.;.| ' K G H C K A A +.7.5.Y.{.).*X/.E.S.S.c.c. .V.G.E.`.]./.V...| | ' | ;.| _ R A H H S _ 6.3.Y.B.d . ",
". a #X].].].F.,.$.' ' ! H H C A C C U +.2.K.).).].].E.S. . ... .,.[ [ [ V.C.C.} <.;.| ' $.$._ Q Z H H K S ! %.7.5.H.0.. ",
". n 1X&X]./.F.,.;.+.~ A C H H C A A Y %.K.).).}.].`.F.V...<.<.<.C.C.......} | <.;.| | ' ' ' ! Z K C H K Z A %.6.3.'.a.. ",
"@ y.aX&X]./.Z.-.$.~ K H H H H A A A P ;.T.).].'.].]./.A.,...,.} <.....-.<.;.| | ;.;.;.$._ ~ E J H H K K A Z $.6.6.].s.$ ",
"X j.aX%X*X).,.-._ E V H H H H A A Y I 2.).).*X&X].].).).K.A.,.,.,.<.} | ;.| ;.;.;.| ;.' _ E A H H H H K A Z +.6.1.&Xm.u ",
". M.2X%X*X/.-._ ! J C C H H H K Y U I 2.).`.&X*X'.].).).).T.U.U.A.F.<.<.-.| | ;.| ;.;._ E A C H H H Z K A V ) K.A.-XuXd ",
". M.<X*X%X/.$.~ J H A C C H J K Y Q ] <./.*X%X].'.].).).).).).]./.)./.U.A.,.,.} -.$.' ! K A H H H H H K A Z ( U./.6XuXg ",
"o rX<X*X%X/.) K C H A C H H H K U ! %.{ S.%X*X-X*X).`.).).].*X*X].].].].)./.A.<.;.' _ E K H H H H H H H A Z ) U.].-X:Xg ",
"o rX<X`.*XA.W H C C C A C H H G E _ ;.X.c.b.%X%X].].].].].].*X*X*X].].&X*X*X).U.<.' R K H H H H C H H H A U #.).].<X:Xg ",
". rX<X/.).6.N H C C C C K H G K +.$.;.| v.{ b.S.`.`.].*X*X*X%X-X].*X*X|.].5X].).2._ A A H H C H C H H H K Q ,.}.`.-X Xg ",
". M.<X/.P.%.J H H H C A A A Z _ ' ;.' | <.<... .[ c.D.D.E.`.*X*X*X].).).}.`.`.).U._ K H C H C C C K C G E _ F.].`.7X.Xf ",
". j.qXT.6.@.J G H H C A A K Q _ | ;.;.;.;.;.| <. ...c.c.x.V.G.G.`.*X5X].).].).).A._ J H H H H H H C C K ~ ` F.]./.&XOXp ",
". h.0XK.2.%.W J H H C K J E +.' ' ;.$.-.-.;.| <.<.......,...[ ,.x.G.].).(.).).U.6.+.J H H H C H H V H ~ +.-.F.].Y.'.d.# ",
". q.#XJ.6.>.^ J H H A K E ~ $.$.' ;.;.| ;.-.-.| ..<...C.<.<.,. .[ x.^.].).).T.1.4.+.J H H C H C V H E _ ' -././.Z.*Xa.# ",
"  j $XJ.2.6.+.F C C A A ! _ $.$.$.;.;.| <.A.A.<.<.-.-.} } -.,...V.x.E.*X{.).L.6.7.o.G G H H C C Z E ' | } C./.U.1.'.e.# ",
"o 6 B.^.:.7.@.J A A A Y +.$.' ;.;.<.| ,.A.).]./.U.A.2.-.-.,.<.C.S.G.`.]./.Y.6.4.*.o.G G H H H C A _ | | ..C.K.1.Y.~.k . ",
"& . i.'.3.*.*.L Z A E _ $.$.' ;.<.-...D.].*X*X*X).{.).T.T.U././.`.].*X).I.6.4.*.*.L G H H H C K E ' ;.} ,.A.6.6.).l.7 # ",
"; . b @X5.*.=.o.R U ! $.' | ;.;.-. .,.E.*X-X%X&X].].).).).].].*X*X]./.U.K.2.>.7.o.G G H H H A E _ $.$.$.2.2.7.3.'.i.# # ",
". . 7 .XY.=.@.@.Q ] ~ ' ;.<.;.| <.| c.E.*X-X;X*X&X}.|.`.].&X%X*X*X).T.6.2.4.4.+.L G H H H H E ! ' ;.$.O.2.6.&.L.OXb . t ",
". * o p.(.=.*.%.$.' $.$.| ..| ;.;.}  .D.`.-X-X*X`.'.`.].5X*X*X*X].).J.7.7.*.+.E K H H H H J ! _ | ' ) #.2.6.3.(.l.# # 4 ",
". @ o a B.L.4.4.K.2.-.;...| | <.;.| .. .c.D.`.%X5X].].].*X].&X].).P.3.*.o.L E K A A H C H E _ ;.<.;.' >.6.5.L.OXn % 0 . ",
". . o o r.|.J.2.).A.,.-.;...| ;.| ;...|  . .c.V.F.^./.`.].].].].).2.O.o.G G K A A A H H J ~ ' ;.| } ` >.6.5.'.B.i # 4 . ",
"    ,   s 4X!.).].^.Z.,.-.<.<.| | ' | ;.<.<.} X.X.c.c.G./.].].).K.) D F H H H C A A A K Q _ ;.| -.#.>.4.3.I.#Xv . 8 .   ",
".     : . e.2X%X*X).).Z.-.| ;.| ;.;.| | ;.| | ..<.<.X. .F.].).T.%.^ J G H C C H C C J E _ %.;.` O.#.7.>.1.'.d.$   4   . ",
"    O @   # XX<X&X].}./.2.-.| ..| | <.<.;.| | ....<... .F.).).K.%.J Z H H H C H C K E ~ $.;.-.-.:.7.6.6.P.R.d   q     . ",
"X   O O : . j iX,X&X'.`.K.2.<.| <.;.$.' | ;.| | | C.<.X...A.K.2.~ A H C C H C H C K ~ ' ;.-.-.>.6.6.-.F.@Xm X q X   @   ",
"      O   % . q.iX>X@X*X].U.A.} <.| ..<.| | ;.| <.<.<.<.' ] T R A K A C C H C C A ! | | ..<.2.3.4.:.J.'.u.% . :         ",
"  X       . o . y.sX#X@X`.`.).A.} } ..<.| | ;.$.' | ;.;.' T Z A C C C C C H H H E ' ....A.2.6.7.3.L.+Xl..   =           ",
"      O     o   . g.sX9X'.)./.).A.,.<.<.;.;.;.$.$.$.$._ ! Z Z H H H H K K H H J W #.<.K.T.U.4.6.J.$XN.# . q X           ",
"      O       & . . y.iX7X'.5X].].U.F.<...-.;.;.%.$._ Q Z V H H H H H H K Z J / %.:.K.{.U.K.2.J.&Xl.# # 4   X       O   ",
"      O O O     + o # 0.uX8X#X&X].].}.U.A.F.<...<.' _ E H C H H H H C V V U ` <.A.).).P.5.1.I.%Xr.. . >   <             ",
"      X     O     $ o . z XXsX#X=X].&X5X]./.D.D.<.' Q U V V C C H K H ^ ~ $.A./.)./.T.Y.H.`.OXb # . 1 X O     O         ",
"    X     O         o *   6 h.uX8X@X~.'.5X).`.]./.A.;.O.o.o.o.+.+.+.@.%.7.P.).].J.{.J.H.7Xd.d . 1 $       O             ",
"            O O         =   X j oX>XaX#X@X&X]./.U.K.6.7.4.*.>.6.6.7.3.3.P.).`._.7X@X@X.Xv o . >       X     X           ",
"                  O       o $ o   l k.gX1X9X7X(.8.3.3.*.3.4.6.6.3.3.3.8.Y.].-X2XiXN.n # . * &                           ",
"                O O         . o $ . o a y.oX4X7X'.'.T.Y.Z.H.^.^.Y.I.'.5XqX1Xm.j.k # . . $ O X                           ",
"                O                 $ &     # a n g.l.m. X$X$X4XOX4Xm.n.j.q.h * . X o :   O     O                     O   ",
"                O O             @ . . $ 1 # . . . # * 7 p p p p u 2 # . o   . 3 +       X O     O     O         O O   O "
};
