/* XPM */
static char *_452978bf7a0452d8100fa363c7940e4hGaX4CZbiIiCGVhK[] = {
/* columns rows colors chars-per-pixel */
"60 60 245 2 ",
"   c #020102",
".  c #0B0201",
"X  c #040A03",
"o  c #0C0A03",
"O  c #02020A",
"+  c #090308",
"@  c #0C0A0B",
"#  c #120300",
"$  c #180100",
"%  c #130D02",
"&  c #180C05",
"*  c #0C1105",
"=  c #141203",
"-  c #1A1101",
";  c #12130C",
":  c #1B170B",
">  c #080710",
",  c #161413",
"<  c #1B1916",
"1  c #120B12",
"2  c #221C0D",
"3  c #261802",
"4  c #321B00",
"5  c #231B16",
"6  c #2C0D00",
"7  c #1C2200",
"8  c #2A230A",
"9  c #382901",
"0  c #3D330A",
"q  c #24231B",
"w  c #2B251B",
"e  c #2C291C",
"r  c #282415",
"t  c #312C19",
"y  c #171F21",
"u  c #2B2824",
"i  c #352D21",
"p  c #2B2B31",
"a  c #313230",
"s  c #473801",
"d  c #563A04",
"f  c #4E2B00",
"g  c #603E00",
"h  c #5A4803",
"j  c #5A4915",
"k  c #544C1D",
"l  c #565016",
"z  c #68500D",
"x  c #746B1E",
"c  c #564C27",
"v  c #5C5329",
"b  c #66572B",
"n  c #7B6A29",
"m  c #76692F",
"M  c #3D3A41",
"N  c #746B4C",
"B  c #787870",
"V  c #866A19",
"C  c #9B721A",
"Z  c #976E26",
"A  c #9B7B27",
"S  c #8A7B34",
"D  c #826A2B",
"F  c #A27F2B",
"G  c #967B46",
"H  c #98883D",
"J  c #A6872A",
"K  c #BB942C",
"L  c #B18937",
"P  c #B79537",
"I  c #A38636",
"U  c #DDA915",
"Y  c #ECAC0D",
"T  c #E8AB08",
"R  c #F4AD05",
"E  c #FDAE03",
"W  c #F4AD0B",
"Q  c #FCAE0A",
"!  c #EEB50D",
"~  c #F5B104",
"^  c #FDB103",
"/  c #F5B20B",
"(  c #FCB20B",
")  c #F5B90C",
"_  c #EBAD15",
"`  c #EAAC16",
"'  c #F3AD13",
"]  c #FBAE14",
"[  c #F2AE19",
"{  c #F8AB18",
"}  c #E5B312",
"|  c #EDB313",
" . c #ECB41B",
".. c #EDBD13",
"X. c #F4B313",
"o. c #FCB313",
"O. c #FABA15",
"+. c #F4B51C",
"@. c #FBB51B",
"#. c #F5BC1C",
"$. c #FCBA1D",
"%. c #F2BB14",
"&. c #C39C35",
"*. c #CDA63D",
"=. c #D1A63A",
"-. c #DCB434",
";. c #E4AD21",
":. c #ECB523",
">. c #EEBC25",
",. c #EAB827",
"<. c #FEB623",
"1. c #F5BD24",
"2. c #FCBC24",
"3. c #F4BC2B",
"4. c #FEBE2B",
"5. c #F4B624",
"6. c #EEBB36",
"7. c #ECBC3C",
"8. c #ECB637",
"9. c #F5BD35",
"0. c #FDBE34",
"q. c #F5BD3B",
"w. c #FCBD3B",
"e. c #E8AE30",
"r. c #F5C21C",
"t. c #FEC41C",
"y. c #FAC417",
"u. c #FEC424",
"i. c #FDC22C",
"p. c #FECB2C",
"a. c #F8C526",
"s. c #FED22D",
"d. c #FFD122",
"f. c #E9C13A",
"g. c #F5C234",
"h. c #FDC234",
"j. c #F7CB34",
"k. c #FECC33",
"l. c #F6C23B",
"z. c #FBC23B",
"x. c #F5C93D",
"c. c #FCCC3C",
"v. c #F4D235",
"b. c #FED234",
"n. c #F5D43C",
"m. c #FDD33B",
"M. c #FFD93E",
"N. c #EEC931",
"B. c #958649",
"V. c #B89948",
"C. c #A49455",
"Z. c #AA944F",
"A. c #B9A549",
"S. c #B5A758",
"D. c #958B6A",
"F. c #BEB563",
"G. c #BFB06B",
"H. c #BDAF76",
"J. c #B4A76E",
"K. c #C3A141",
"L. c #D5AD44",
"P. c #DFB343",
"I. c #C7AE58",
"U. c #C6B459",
"Y. c #D8B854",
"T. c #D3B04B",
"R. c #E9BB49",
"E. c #F5BE42",
"W. c #FCBE40",
"Q. c #F3BD4A",
"!. c #C8BD6D",
"~. c #D3B665",
"^. c #DAC75C",
"/. c #E8C34E",
"(. c #F4C343",
"). c #FBC343",
"_. c #F5CB42",
"`. c #FCCB43",
"'. c #F4C349",
"]. c #FBC54B",
"[. c #F5CB4A",
"{. c #FDCC4B",
"}. c #EFD346",
"|. c #F6D344",
" X c #FDD344",
".X c #F5D44C",
"XX c #FDD44C",
"oX c #F5DA4E",
"OX c #FDDA4C",
"+X c #FFD844",
"@X c #E7C356",
"#X c #F3C454",
"$X c #FCCC53",
"%X c #F6C65B",
"&X c #FCCA5B",
"*X c #F7C854",
"=X c #EDD65B",
"-X c #F3D655",
";X c #FED453",
":X c #F5DA53",
">X c #FEDA55",
",X c #F5D55D",
"<X c #FDD65B",
"1X c #F6DB5B",
"2X c #FEDB5C",
"3X c #FFE156",
"4X c #FEE05B",
"5X c #DAC767",
"6X c #DACA73",
"7X c #E5CC68",
"8X c #F7CD68",
"9X c #EBD568",
"0X c #FDD761",
"qX c #F6DB62",
"wX c #FEDB62",
"eX c #FED56C",
"rX c #F9DB6C",
"tX c #E8CD73",
"yX c #F2CD75",
"uX c #FADA76",
"iX c #E8D374",
"pX c #FFE362",
"aX c #FDE26C",
"sX c #F5E168",
"dX c #FAE376",
"fX c #8B8E85",
"gX c #CBBE9E",
"hX c #D2C590",
"jX c #FAD88A",
"kX c #F2DB8C",
"lX c #FAE388",
"zX c #F9E499",
"xX c #E9DAA1",
"cX c #FDEBA4",
"vX c #FAE7A9",
"bX c #FBECB4",
"nX c #FFF2BE",
"mX c #D3C8AA",
"MX c #E3DFC4",
"NX c #FDF3C4",
"BX c #FEF5CE",
"VX c #F9F9D8",
"CX c #F3EDCD",
"ZX c #FBFEE7",
"AX c #F1F7EA",
/* pixels */
"          .     X     O O         .   : 5 # . # . # . % - * * 7 o . . . . # . e r     O     . . .           O           ",
"                      O O         5 w . . . s j B.C.S.G.6XF.F.F.F.S.S.C.m j - .   i u     X                 O           ",
"                    +   O     o q . # $ V F K.@X7XuXdXdXaXaX1X:X-X1X>X1XqX^.S.B.8     p y   X @                         ",
"                        +   = : . $ S V.T.#X&X>XwXwX0X1XXX_.m.c.c.m.v.v.|.:XdXkXhXD.r     a   + .                       ",
"O                 . + .   2 - & z *.R.,X[.{.2X;X2X<XwX2X>X Xm.m.m.m.m.m.n.}.1XuXlXzXhXD..   a 1     X     X             ",
"                + . +   : . $ V =.6.l.c. X>X>X>XwXwX2X;Xc.i.u.#.i.i.k.j.+X3XpXaXdXlXcXvXgXi   p < X                     ",
"O                 +   : . # P R.g.>.j.x.OX>XpX>X>X;X{.3.| X./ T W { [ ;.l.$XeXuXlXlXzXbXNXMXB   < < X   O O             ",
"O O             +   : . # V.#X6.a.k.M.|.4X>X>X-X_.l.5.` W ( ~ ~ ] { { :.q.Q.#XeXuXlXzXvXNXZXAXfX  y <     X             ",
"    O     X     X % . # J f.,.g.v.v.m.OX3X;X_.g.h.1.+.o.] Q Q E Q Q ] 2.0.).].R.8XyXzXbXCXVXZXAXfXO p   O               ",
"    O O           . # Z._.}  .m.n.+XOX>X`.l.z.0.4.@.o.( ^ Q E Q Q ( @.4.h.z.).{.%X8XjXvXNXVXVXZXCXN . a   + O O         ",
"      O O X O X ; # A Q.3.u.s.b.c.XX>X{.(.q.z.h.4.@./ ~ ^ E E E ~ / 2.h.z.z.).{.*X8XyXzXbXnXbXNXBXmX-   u   O O         ",
"    O   O     o   j -.,.5.p.d.b. XXX{.).w.w.z.i.@./ ~ ~ ~ ~ ^ ~ ! r.a.i.z.z.z.{.$X&XuXjXjXzXcXcXvXNXJ.# r   +   O       ",
".       O O   . 6 Y.,.T u.b.s.j.XX`.l.z.z.c.i.#.~ ~ ^ ^ ^ ~ O.u.k.k.h.g.0.z.).*X*X8XeXeXyXyXlXzXzXvXxXv   e             ",
"        O X % . I /.1.t.s.s.M.+X`.z.g.g.h.i.$.( ~ ^ ^ ^ ~ / u.m. XXXx.g.h.z.W.W.Q.&XQ.8X8X8XeXjXlXlXzXH.X = ;     O     ",
".     O O X # f -.,.} s.b.j.m.XXl.g.h.h.i.2.@.] ^ ^ ^ Q R | a.+XOX>X).q.z.W.w.W.].].].*X&X*X8X8XaXuXlXxXG X e X         ",
"          = $ L q.` a.j.b.m. X{.h.g.h.h.4.$.o.E Q ^ Q ( _ | j.>X2X2X[.7.).w.w.).).z.{.].].Q.*XQ.rXrXuXlXJ..   ,         ",
"    O     . f R.g.t.p.m.c.c.m.g.g.h.h.i.2.o.Q ( Q E R O.t.h.XX2X0XwX2X;X[.).(.q.).).).z.).).).].%XrXrXuXiXn X p   X     ",
"+       , $ C 8.} ..b.m. X Xc.g.l.h.h.i.$.( Q E E ( t.d.p.+X2XwX<X2X<X2X<X>X;X`.l.w.z.z.z.).).).Q.&X0X1X1XP %   ,       ",
"  .       . L.,.| r.m.m. XXXg.i.h.4.h.i.o.( ( R / t.s.s.b.OXwX2XwXwX0XwX2XwX2X;X).z.z.z.z.z.).l.q.'.>X|.oX^.k   w       ",
"      % . j #X1.r.s.m.c.XX`.3.h.h.h.i.$.X.( o./ u.b.b.v.n.>X2X1X<X<X2X2X<X0X2X>Xz.z.0.0.0.z.z.z.w.g._.+X}.=XH X 8 .     ",
"      % . H q.| r.b.M.OXXXl.g.i.0.h.2.X.( Q X.#.b.b.v.n.oX3X4X2X2X<XwXwXwXwX2X;Xz.z.0.0.h.h.z.z.h.:.:.m.v.oXS.X o =     ",
"  .   . $ V.;.X.r.b.|.OXXX9.i.h.h.h.@./ ( / X.p.M.v.n.oX3X>X>X;X;X;X<X2XwXwX<X{.z.0.4.0.0.0.g.h.k.Y ` k.s.oX^.s   r     ",
"      . d R.i.t.p.m.OX>Xc.g.h.0.i.2.( ~ ( Q X.k.m.n.XX>X<X{.).W.q.q.(.[.$X2X;X`.w.0.0.4.4.0.i.i.@.Y [ i.b.M.@Xx . u +   ",
"    @ . z R. .X.p.M.>X>Xl.h.z.4.4.@.~ ^ ^ W $.c.m.|.XX2X;X].W.q.q.q.7.7.7.l.(.g.h.h.0.h.h.i.4.4.X.] ' 5.s.n.=XH . 5 + O ",
"    1 . A 6._ X.c.XX4X.Xg.h.0.0.<.( ~ ^ ^ R 2.m.c.XX>X2X;X(.q.w.z.).z.g.q.9.q.z.h.h.h.4.4.4.i.@.Q ] ' { p.m.1XV.. : 1   ",
"O   , # L c.#.u.XX>X2XXXj.h.0.4.o.^ ^ ^ E R 2.c. XOX2X2X<X].W.w.w.9.w.h.z.h.h.h.9.w.z.h.4.u.$.X.Q Q { { p.b.3XA.# . < + ",
"    , . K 3.X.p.>X2X2X Xi.i.4.<.W E ^ ^ E R +. XXX:X2X4X2X;X{.`.).q.9.0.h.h.i.h.z.w.w.h.h.2.o.Q Q Q ] { p.b.oXU.0   q . ",
"  + X . K 3.| i.2XwX>X|.h.2.<.] ] E ^ ^ E R _  X>X2X1X1X>X2X>X;XXXXX{.z.h.0.w.h.g.z.h.4.i.O.R Q ^ ^ Q W u.b.n.^.v . w   ",
"      % *.z.#.m.2XwX>X_.i.<.o.Q Q E E ^ E W ` `.2X2X1X1X1X1X2X2X2X2X;XXX{.c.z.g.9.z.h.4.$.X.Q ^ ( ^ Q Y u.m.}.^.k   e . ",
"+     % *.,.} c.2X2X>X|.4.$.( E E E ^ E ( X. .g.;X0XwX2X4X1X2X2XwX2X2X>X>X>X{.z.g.h.h.4.@.Q E E Q ^ Q R u.m.oX7Xc + r . ",
".   O % *. .` c.2X2X>X`.1.o.^ ^ E ^ ^ Q ( @.4.9.].&X<X0X2X2XwX2XwX<X1X<X2X2X>XXXl.h.i.$.( Q Q ( ^ ^ Q W i. X3X5Xb o t   ",
"  .     L.g.a.k.>X2X2X`.+.Q E ^ E ^ ( Q X.+.h.w.8.Q.$X<X2X2X0X0X<XwXwXwX2X2X2X>X{.h.2.o.E ^ ^ ^ ~ ^ Q W i. XpXiXv   e   ",
"  .   . &.1. .h.>X1X>Xg.X.E ^ E E ^ ( R @.i.0.z.w.W.q.E.).$X&X2XwX2X0X<X2X>X2XwX>Xz.@.( E E ^ ^ ^ ( ( _ g.>XaX5Xc   e   ",
"    ; . K 5.T j.2X2X>Xg.Q E ^ ^ E E Q o.2.i.0.z.z.w.w.q.q.E.E.E.*X;X<X2X2X2X1X1X<Xz.o.Q E ^ ^ ^ ~ ^ Q ` _.2XaX~.0   q   ",
"    , . P m.1.h.>X>XXXh.W ^ ^ ^ ^ E Q $.u.i.4.h.w.q.w.w.w.w.9.q.8.R.[.;X2X2XpX2X>X4.' Q ^ ^ ^ ^ E ( ' 5.XXwXrXU.o   : X ",
"  + ; . J 6.+.a.OXXX+Xp.W E ^ ^ ^ Q ( $.4.4.0.h.0.0.0.w.w.w.z.).'.7.7.;XwX2X1X2XXXa./ ^ ^ ^ ^ ^ ~ ( [ 9.;XwXrXU.. * ; X ",
"O   + o V -.` %.+X Xm.k.( R ^ ^ R Q $.i.i.4.h.z.).`.l.l.g.9.w.9.).7.f.;X2X1X<X>X+Xr./ ^ ^ E E ^ ~ (  .).2XaX9XZ.  < *   ",
"O   . . h R.4.O.b.m.b.p.O.Q ^ ~ R @.4.i.0.w.z.).;XXXXX X`.l.g.w.(._.[..X2XwX>XXXk.#.~ ^ ^ Q Q ^ R X.9.XX2XqXiXS X r     ",
"O O + . # K.g.O.u.s.b.k.t./ Q / X.1.h.h.w.q.).$X2X>X2X2X>X;X;XXX$X>X2X2X2X2X>Xm.p.) ~ ^ ^ E E Q ( $.h.XXXX1X6Xj . e   X ",
"O     - . I 8.T r.d.b.b.p./ / X.1.i.h.w.w.q.].wX<X2X>X1X2X2X2X<X2X>X<X2X<X>XXXc.t.( ~ ^ ^ ^ Q Q @.i.l.>X>XqXF.+ . :   O ",
"      -   n [.#.t.d.b.k.p.#.T O.i.h.h.z.w.W.].0X2X2X1X1XqX0X<XwX2X2XwXwX>XXX+Xp./ ) ^ ^ ^ E Q ] <.h.`.3XOX=XC.  3 .     ",
"      . . 9 L.1.y.t.b.m.b.u.| #.4.h.h.w.w.E.E.$XwXwXwXqXwXwX0XwX2X<X<X2X>X Xp.O.~ ^ ^ ^ E ^ Q @.h.q.OX|.>X^.m . r . . O ",
"      . . # J 7.} ..v.k.k.p.a.a.i.4.0.0.w.w.w.q.{.XX<X2X2XwXwX<X2X2X2X>X`.a.O./ ~ ( ^ ^ ^ Q o.4.0.{.XX.X-XA..   2 .   O ",
"      X @ . h Y.r.r.m.c.m.m.m.g.h.4.0.0.w.w.0.q.9.q._.{.XX2X2X<X2X>X>X).1.| T ( ~ ^ ^ E ^ ( @.0.).{.OX}.9XH . u .   +   ",
"        @ . $ A.f. .a.b.m. XXX`.h.0.0.0.0.w.w.0.0.9.q.q.7.'.>X2X2X>Xl.+.X.( ~ ~ ^ ^ ^ E ( X.3.9.{.>XXX1XU.9 . 5         ",
"  +     O % . z P.:. .j. X:X>XXXz.4.0.h.h.h.h.0.w.0.0.9.7.(.;X2X2X>Xg.Y R ^ ^ ^ Q Q E Q o.2.9._.>X:X_.9XB.X e   X       ",
"          # . # P l.#.a.OX2XwX2X{.z.z.z.h.h.h.0.0.z.z.z.z.(.[.2X2XXX#.R ^ ^ E ^ ^ ^ Q Q @.i.x.oXoX}..X^.3   q           ",
"    O       o . d R.3.>. X2X<X2X>X`.l.z.g.w.z.0.0.0.0.z.q.7.(.;XXXz./ R ^ E E ^ ^ ^ Q o.1.z. X3X|.-X,XV X u   X   O     ",
"    O       O % $ Z R.U N. X>X2X>X<X{.q.0.h.w.w.w.h.i.h.h.h.q.0.0.@.~ ^ ^ E E ^ ^ ^ / #.h.`.3X.X}.qXV.. - ,             ",
"            O X # $ P {.,.k.>X>XwX2X;X`.3.h.z.w.w.z.h.i.h.z.0.0.+.( ^ ^ ^ ^ ^ ^ ( R X.i.{.>XOX[.1X^.f . u               ",
"      O O O     . # 4 I.f.r.j.OX>X-XwX4X|.N.g.h.0.w.0.0.w.0.4.#.Q ~ ~ ~ ^ ^ ^ Q ~ | h.>X2X<XXX-X5Xz . i   O   X         ",
"        O O     X o # s T.-.U |.3X>X1X2X>XXXx.g.w.w.w.w.w.0.2.O.~ ^ ^ ^ ^ ^ ~ W X.h.{.>X2X,XqX7Xn . r .     X           ",
"    O   O   O     X * X h Y.(.9.|.>XwX<X2X2XXX{.l.l.q.w.0.4.o.E ^ ^ Q R E R ~ O.k.XX>X>X=X9X6Xn . 8 X + O O             ",
"+ O           O >   X X . z T.Q.f._.2XwXwX2X2X>XXX.X`.l.0.4.o.R ( Q Q ' X.O.t.b.+XoX>X=XsX5Xm . 2 @ O O O     X         ",
"                    X X % # 6 V.8.8.'.;X>X>X>X:X4X>X>XOX Xj.a.r.y.y.u.k.k.b.b.+XoX3X9XdX!.l . w   O   O X   X           ",
"                      O   & # $ Z T.%X#X>X>X>X2X1X:X>X3XOX Xm.b.s.s.b.m.b.v.n.oXqXdXkXC.#   5   O   O             O     ",
"          O               O . o $ d Z.Y./.[.>X>X<X2X2X>X|.m.c.k.s.s.j.b.v.v.:XaXkXH.v . . ;                       O     ",
"          O O           O     X , . & d J K.Y.8XeXrXuX<X*X-XXXXX|.oXoXoXqXsX5XS.b .   < o   X                           ",
"          O O           O O       % - . . 3 b G V.~.tXyX9X9X7XtXtX6X5XI.Z.m 9 . . & :                   .               ",
"        O O O O         O     X     X % & . # $ $ 6 f h h h h h h h 4 # # . . < & . .     .                 O           "
};
