/* XPM */
static char *f6dfc74572244d7ae4a7ad0a50828ef4CTD7DSqs9dgbFgAO[] = {
/* columns rows colors chars-per-pixel */
"60 60 239 2 ",
"   c #010101",
".  c #0B0200",
"X  c #060802",
"o  c #0C0A04",
"O  c #030209",
"+  c #0C0C0B",
"@  c #0B0509",
"#  c #120200",
"$  c #120C04",
"%  c #140D0A",
"&  c #1A0B04",
"*  c #0E1106",
"=  c #161205",
"-  c #1B1502",
";  c #14120D",
":  c #1A180A",
">  c #141412",
",  c #191714",
"<  c #1D1A15",
"1  c #1B1A19",
"2  c #1A1418",
"3  c #060610",
"4  c #231C04",
"5  c #2F1500",
"6  c #221C15",
"7  c #211F1A",
"8  c #2E1000",
"9  c #1D2019",
"0  c #2A2609",
"q  c #372A01",
"w  c #22221B",
"e  c #2A2715",
"r  c #312E19",
"t  c #32301C",
"y  c #292826",
"u  c #322E23",
"i  c #333225",
"p  c #34342C",
"a  c #32323C",
"s  c #472900",
"d  c #473804",
"f  c #4D390D",
"g  c #564206",
"h  c #524B1D",
"j  c #694C09",
"k  c #735707",
"l  c #624D13",
"z  c #654919",
"x  c #6B5418",
"c  c #7A5E12",
"v  c #755E1B",
"b  c #7C6310",
"n  c #514E31",
"m  c #685823",
"M  c #6F5E30",
"N  c #7C5720",
"B  c #6B6436",
"V  c #746835",
"C  c #797132",
"Z  c #7B7A78",
"A  c #9B761C",
"S  c #906C1E",
"D  c #89752A",
"F  c #987E29",
"G  c #867539",
"H  c #967C38",
"J  c #857444",
"K  c #827E65",
"L  c #93863D",
"P  c #A38438",
"I  c #BC9635",
"U  c #A98723",
"Y  c #EDAC03",
"T  c #EDAB0C",
"R  c #EFA600",
"E  c #F4AD04",
"W  c #FAAD05",
"Q  c #F3AC0B",
"!  c #FAAE0B",
"~  c #F6A70B",
"^  c #ECB20C",
"/  c #EFB102",
"(  c #F5B205",
")  c #FCB205",
"_  c #F4B30C",
"`  c #FCB30C",
"'  c #F3B90E",
"]  c #FBBB0C",
"[  c #F3B806",
"{  c #ECAC15",
"}  c #EDAD1B",
"|  c #F4AD13",
" . c #F0AC1B",
".. c #EEB114",
"X. c #EEBB12",
"o. c #EDB31D",
"O. c #ECB717",
"+. c #F3B313",
"@. c #FCB413",
"#. c #F6BD13",
"$. c #FEBB14",
"%. c #F4B41A",
"&. c #FBB41A",
"*. c #F5BB1C",
"=. c #FCBB1A",
"-. c #C09932",
";. c #CEA835",
":. c #D2A737",
">. c #DAB13B",
",. c #DFB432",
"<. c #EDB524",
"1. c #EEB923",
"2. c #EBB528",
"3. c #EDBB2E",
"4. c #F4B423",
"5. c #FCB525",
"6. c #F5BC24",
"7. c #FBBA23",
"8. c #F5BC2B",
"9. c #FEBC2C",
"0. c #EEBA3B",
"q. c #E9B738",
"w. c #F2B632",
"e. c #F5BD34",
"r. c #FBBE33",
"t. c #F5BD3A",
"y. c #F9BE3B",
"u. c #F1B73A",
"i. c #F1AD26",
"p. c #FEC11A",
"a. c #F7C118",
"s. c #F6C225",
"d. c #FDC224",
"f. c #F4C12A",
"g. c #FCC22C",
"h. c #FECB2C",
"j. c #F8C826",
"k. c #FFD22B",
"l. c #FFD025",
"z. c #EDC03D",
"x. c #F4C434",
"c. c #FDC235",
"v. c #FECC34",
"b. c #F5C23C",
"n. c #FBC23B",
"m. c #F4CA3E",
"M. c #FDCC3C",
"N. c #F5CC33",
"B. c #FFD235",
"V. c #F6D53C",
"C. c #FED33B",
"Z. c #EBD23A",
"A. c #97864A",
"S. c #9A8B52",
"D. c #95894E",
"F. c #B28E40",
"G. c #B79744",
"H. c #B69B5B",
"J. c #A28C53",
"K. c #B2A65B",
"L. c #BBA765",
"P. c #BFB67F",
"I. c #98956C",
"U. c #C9A549",
"Y. c #D1AA47",
"T. c #CDAB4C",
"R. c #ECBC42",
"E. c #E2B64D",
"W. c #E6B846",
"Q. c #F3BC44",
"!. c #F6BE48",
"~. c #EABB51",
"^. c #C3AE64",
"/. c #CDB169",
"(. c #CBB666",
"). c #D2B168",
"_. c #C4B274",
"`. c #D3CB5E",
"'. c #ECC345",
"]. c #EFC149",
"[. c #F4C443",
"{. c #FBC542",
"}. c #F3C945",
"|. c #FDCB44",
" X c #FCC44B",
".X c #F6CB4B",
"XX c #FDCB4C",
"oX c #F2C24D",
"OX c #EFDF4E",
"+X c #FFD344",
"@X c #FED44C",
"#X c #FFDA4C",
"$X c #F5D148",
"%X c #FDC652",
"&X c #F4CB52",
"*X c #FDCC53",
"=X c #FBCC5B",
"-X c #F3C655",
";X c #FED554",
":X c #FFDA54",
">X c #FED55B",
",X c #FFDA5B",
"<X c #F6D758",
"1X c #EFC65D",
"2X c #FFE04A",
"3X c #DAC77D",
"4X c #F7CD63",
"5X c #ECD769",
"6X c #FEDB63",
"7X c #F7D667",
"8X c #E6CC76",
"9X c #F4CF77",
"0X c #FFDC74",
"qX c #FCDB79",
"wX c #F6D678",
"eX c #E7CC6D",
"rX c #FFE264",
"tX c #FFE36B",
"yX c #FEE37B",
"uX c #EAE067",
"iX c #A5A395",
"pX c #DBC981",
"aX c #EAD887",
"sX c #F6D682",
"dX c #E2D897",
"fX c #F7DC97",
"gX c #F9E385",
"hX c #F8E596",
"jX c #D0CBA1",
"kX c #FADEAE",
"lX c #FDEDA4",
"zX c #FAEAB8",
"xX c #DEDBD6",
"cX c #FFEEC3",
"vX c #FEF2D4",
"bX c #FEF2DC",
"nX c #F4EFCA",
"mX c #FFFCEC",
"MX c #FBF8E4",
/* pixels */
"                                  O     @ O   , : X # . . # # .     X 7 2 .                   X                         ",
"                                O       . O ; . # d l l x z l m B B X   % , X     O                                     ",
"                                    X X O & # & A :.>.>.>.Y.eX8XdXdXjXK   1 > O O O O     X                             ",
"                                @       % . # F..X8.j.g.M.;XtXyXgXlXcXnXiX  y 3 O   O O                         .       ",
"                                O @   o   # F !.<.Q _ O.|.tX>X7XgXhXzXmXMXZ O a   O O   .     O                 O       ",
"                                O   X o . m W.2...#._ *.:X6X:XtXgXlXcXvXmXxX@   y   O . .     O                         ",
"                                  O % . & U. X$.p.#.s.@XrX7X<X<XwXfXzXvXbXMXiX  p   X     . O                 @         ",
"                                  @ . # c W.%.` ] #.N.<XrX<X}.[.4X9XfXkXnXvXnXp   e                         X ;         ",
"                                  % . # I 2.+._ E ^ m.rX:Xm.n.n. X=XwXsXfXzXzXI.  t   X                       1         ",
"                                  . # z R.p.=.=.$.d.;X,X|.8.9.r.r.XX6X4XsXfXlXP.X w *   @ X                   ,         ",
"                                $ . # H x.' ' _ +.c.,X;Xr.5.5.5.6.{.*X=X4X9XhXaXf O 9   O         O           +         ",
"                                o . 8 G.<./ [ / { M.:X|.4. .&.&.8.|.XX*X-X1XwXfXD.. p     O                 o X         ",
"                                  # j E.g.] ] a.f.#X:Xr.{ _ [ +.n.XX X%X%X-X4XfXL.O 6 @   O                 ;           ",
"                              O   # S q.*.) [ ' N.:X+X7.+.) ( _ |.>X X X X!.oXqX3X.   9     O O             1           ",
"                              @   . U i.Q ! Y ..b.;Xv.| ` $._  .@X,X X Xn.y.R.7XaXm X w   X   O O           w           ",
"                              +   $ ;.g.&.$.$.*.@X,Xg.Q W `  .4.XX;XQ.{.n.n.0.4XwXH X i   X .               y           ",
"                  .           X   g ,.#.! @.+.*.#X@X5.W ) ` { b.:X>X.Xb.n.c.Q.!.wXH.# w     O               < .         ",
"                            X . . x 3._ E ! / O.#X@X&.~ ) W 8.XX,X6X>XXXc.x.y.Q.wX).O : *   @   O       . . ,           ",
"                              . . D b.$.$.$.#.k.#XM.+.! W _ x.,X,X6X,X;Xm.e.y.Q.4X8X4   :   O             . ;       O   ",
"                            X   . P t.^ $.@.+.v.#Xx.! ` ! +.+X:X,X>X>X;X|.x.{.R.4X9Xh   e .             . . %           ",
"                            o . # F.8.Y _ Q ..h.+X6.! ` Q 6.;X:X,X,X,X:X{.n.Q.u.%X9XV X r   .             $ @           ",
"                            o . # U.c.' $.$.j.C.C.%.W ! | c.:X;X:X;X,X,X{.e.n.t..X4XC X e   .           . % .           ",
"                      X     @ . 5 Y.9.) ` +.6.C.B.^ ) !  .|.,X:X.X}..X@Xm.e.n.y.[.4XA.X r   . .           ;             ",
"                            o . d Y.} E ( T o.+XB.T ` !  .@X:X<Xz.0.u.{.n.r.r.e.3.&XK.  0 X             . ;   O         ",
"              X               . j ~.7.] $.#.f.C.d.' ) ` i.>X>X.Xb.n.y.n.y.r.n.9.<..XL.. 4 o               ,             ",
"                              # j ~.6.) ` #.f.+Xp.( ( ! w.>X,X<Xb.y.t.n.r.r.r.9.o..X^.. 4 $               6   .         ",
"              O             X . k W. .( ( ! 1.B.p.) _ | y.>X>X:X|.y.y.n.c.r.9.5.{ .X^.. : %   O         . ,             ",
"              X               . c ~.7.] ] #.s.B.p.( _ &.y.*X,X,X;XXXn.n.r.9.g.&.T XX/.. & %               6   .       O ",
"              O               . c '.*.` ` ` s.B.p.W +.7.w.%X6X,X>X,XXXb.9.9.9.| T  X/.. $ &               6             ",
"              @           .   . k q...E E ! *.l.=.E &.9.w.[.,X>X,X6X:X@Xx.d.9.| T {./.. & %             . 6 .           ",
"              @               . b '.*.$.` ] j.k.p.E &.g.e.t.;X>X7X,X,X:Xm.g.7.| T n.).# # ;               6             ",
"              X           X   . b R.*.$.@.] a.k.$.( 4.c.n.q. X,X6X6X,X,XM.7.&.| T  X).. $ :               6 .           ",
"              @           X   . k q.{ _ E E a.j.a.! 9.r.c.r.t.Q.=X6X6X;X+X*.` ` T  X/.. = =               w             ",
"              O               . k ].4.7.=.] a.k.] @.r.y.c.c.t.!.!.%X6X,X+X&.` ` { %X^.. - o   O           7             ",
"              X               . k W.4.$.] ] a.k.=.&.r.n.r.c.Q.[.R.'.<X,X|.+.` _ { %X^.. 4 $               <             ",
"                            X . j W. .! ! ^ X.h.d.7.r.r.r.n.n.[.[.'.&X,XM.+.! ! } %XL.. 0 X .             <             ",
"                          . X . g E.9.` $.#.*.k.v.s.r.c.r.n.}.[.0.0.&X,XB.+.` ~ } =XH.. 0                 ,         O   ",
"                            .   q Y.9.) $.#.*.v.v.c.r.n.e.|.@X.X'.}.,X:Xv.Q ! Q 1.=XJ.. r                 ;             ",
"                  X         o . # I %.E W +.+.h.C.x.r.n.t.@X,X:X<X:XrX@Xd.E ` Q 8.7XA.. t     X           ;             ",
"                  O         o   # G.r.) $.$.%.v.#Xm.e.r.t.XX,X;X,X,X:X+Xd.W W T f.4XJ . i                 ;             ",
"                            o   . G.g.) p.=.&.v.#X'.r.y.Q.;X,X;X,X;X,X|._ ( ( T m.5XV . u               X X ;           ",
"                            .   . D 2.E Y _ T s.#X@Xy.y.u.*X6X,X,X:X:Xc._ ( ( ^ $XeXq . 6   O O   O       @ +           ",
"                            X   . v t.#.` $.$.g.:X@Xe.n.t.Q.*X,X6X:X+X%.` ) W { <X`.. $ >   O O           + +           ",
"                            X . . l R.&.#.=.$.=.#X@Xt.n.!.u.Q..X,X;X8.Q ) ) E 2.5XL.. 6 .     O O         o 1           ",
"                              o   q :.o.Y _ Y +.+X:Xm.n.y.y.t.q.;X+Xo.W ) ) Q b.wXS.. u     O   O       X   y           ",
"                              $ . # -.r.+.=.( &.M.:X{.t.c.n.n.0.;X|...) ) W Q XXaXB . u           O         y           ",
"                              @ . . A {.7.p.] @.v.#X|.b.r.c.e.n.|.M.^ ) W W %.>XpXq . w O                   y           ",
"                              X   # k >.} Y ! T 6.@X:X{.e.c.9.9.c.j.( ) W Q r.yX_.X 4 $   X         X       y         O ",
"                                X . q T.3.X.=.| *.+X:X*Xb.n.c.9.%.+.W ` W T +XqXJ.. r .     .               1           ",
"                                ;   . G.b.*.d.5.&.v.,X;X[.b.c.7.$.E @.! E 4.6X8XM X e   .                   +           ",
"                                  # # N q.^ Q ~ Q %.#X;X.Xb.c.9.@.! ` ! +.b.yX/.. . :   O   O O             O +         ",
"                                  & # 5 ;.9.&.@.@.%.C.2X#X}.x.7.Q ! ! +.1.,XsXA.X i         O                 1         ",
"                                  o   . F z.d.p.=.=.j.2X,X;Xx.4.=.` Y #.v.rX3Xq X <   X                   O   1         ",
"                                    o X s Y.<.T _ _ ^ B.>X6X@Xg.{ =.a.B.,XwXS.* t         @   O               + O       ",
"                                O   o   . G E.2.%._ ' j.;X6X#XV.C.d.B.V.tX3X0   w   O         @       O         >     O ",
"                                O X   + . . U.oX8.&.p.d.|.:X+XV.B.C.$XOX8XG   y   O O   O X                     1 X     ",
"                                O       $ # s T.w.{ _ Q o.v.B.N.V.Z.OXuXA.X e     O O O                                 ",
"                                  . O   o # # s I R.q.w.t.z.:X<X<XuX`.D o - $ X .   O                           O       ",
"                                          O   . . x D H P H L A.D.J 0 X = . .   .   .                                   ",
"                                    O 3 O   @ + ; . . # # . $ . . X X ,   O X   . . .                                   "
};
