/* XPM */
static char *dollar31674067988[] = {
/* columns rows colors chars-per-pixel */
"60 60 234 2 ",
"   c #010101",
".  c #0A0201",
"X  c #060902",
"o  c #0B0905",
"O  c #020109",
"+  c #09040A",
"@  c #070A08",
"#  c #0C0A0A",
"$  c #130200",
"%  c #1A0300",
"&  c #130B02",
"*  c #180E06",
"=  c #110E0B",
"-  c #0B1103",
";  c #141202",
":  c #1B1404",
">  c #1C1A03",
",  c #14120D",
"<  c #1B150C",
"1  c #0C0D11",
"2  c #151412",
"3  c #1B1916",
"4  c #1D1B15",
"5  c #200E00",
"6  c #241805",
"7  c #201B15",
"8  c #211F1A",
"9  c #1D2019",
"0  c #292506",
"q  c #362903",
"w  c #24211C",
"e  c #292719",
"r  c #29261B",
"t  c #211F22",
"y  c #2A2626",
"u  c #2C2822",
"i  c #312E26",
"p  c #302A2A",
"a  c #333125",
"s  c #323229",
"d  c #373531",
"f  c #4E2B00",
"g  c #4A3903",
"h  c #553C00",
"j  c #443D2B",
"k  c #4F430D",
"l  c #584207",
"z  c #554813",
"x  c #634600",
"c  c #674806",
"v  c #6C4E00",
"b  c #6B5009",
"n  c #695915",
"m  c #55502A",
"M  c #715F24",
"N  c #675B37",
"B  c #786938",
"V  c #6F6E45",
"C  c #786F46",
"Z  c #886C28",
"A  c #957427",
"S  c #837435",
"D  c #917432",
"F  c #86774A",
"G  c #847A49",
"H  c #86796F",
"J  c #99843B",
"K  c #AD8A32",
"L  c #A78C38",
"P  c #B7963A",
"I  c #ECA60D",
"U  c #E8AA09",
"Y  c #ECAA0C",
"T  c #F5AD04",
"R  c #FCAE04",
"E  c #F0A70C",
"W  c #F4AE0C",
"Q  c #FAAE0C",
"!  c #EBB206",
"~  c #EDB20C",
"^  c #F3B106",
"/  c #FCB106",
"(  c #F4B20C",
")  c #FCB20B",
"_  c #F8B90E",
"`  c #ECAC13",
"'  c #E9AB17",
"]  c #F6AC16",
"[  c #F9AD12",
"{  c #EDB312",
"}  c #EEB31B",
"|  c #F4B314",
" . c #FBB313",
".. c #F5BB15",
"X. c #FDBC15",
"o. c #F4B41B",
"O. c #FBB41B",
"+. c #F4BA1B",
"@. c #FDBC1C",
"#. c #C8A637",
"$. c #DCB333",
"%. c #EAB324",
"&. c #EAB729",
"*. c #F4B523",
"=. c #FBB621",
"-. c #F3BB24",
";. c #FCBB24",
":. c #F4B62D",
">. c #FFB629",
",. c #F5BD2C",
"<. c #FCBD2C",
"1. c #EAB733",
"2. c #EBB935",
"3. c #E5B53C",
"4. c #ECBB3D",
"5. c #F0B734",
"6. c #F5BD34",
"7. c #FCBE33",
"8. c #F2B63D",
"9. c #F4BC3B",
"0. c #FCBD3C",
"q. c #F7C019",
"w. c #FBC41D",
"e. c #F7C324",
"r. c #FCC423",
"t. c #F7CB27",
"y. c #FECB25",
"u. c #F5C12A",
"i. c #FDC32C",
"p. c #FECC2B",
"a. c #FFD22C",
"s. c #EBC23A",
"d. c #ECC639",
"f. c #F6C235",
"g. c #FDC233",
"h. c #F5CE33",
"j. c #FDCC32",
"k. c #F5C23C",
"l. c #FCC33B",
"z. c #FDCC3C",
"x. c #EDD03F",
"c. c #FDD334",
"v. c #FAD735",
"b. c #F5D33C",
"n. c #FED33C",
"m. c #988A4D",
"M. c #9E924F",
"N. c #9C8C56",
"B. c #A98D48",
"V. c #A59648",
"C. c #B69A4A",
"Z. c #A59559",
"A. c #B8A658",
"S. c #AA9E7F",
"D. c #BFAE61",
"F. c #C39E47",
"G. c #CAA545",
"H. c #D3AB42",
"J. c #D9AA47",
"K. c #C6B64D",
"L. c #DBB349",
"P. c #E7B745",
"I. c #EDBD43",
"U. c #F3BD42",
"Y. c #F1BE49",
"T. c #E8BE52",
"R. c #C2AB65",
"E. c #C9B769",
"W. c #D3BE69",
"Q. c #C8B975",
"!. c #D6C555",
"~. c #EBC344",
"^. c #F5C244",
"/. c #FCC542",
"(. c #F4CB44",
"). c #FDCC44",
"_. c #F4C54C",
"`. c #FDC74C",
"'. c #F5CD4D",
"]. c #FDCB4C",
"[. c #FED342",
"{. c #FFD945",
"}. c #F5D44C",
"|. c #FED34B",
" X c #FEDB4D",
".X c #E5C95C",
"XX c #F5C551",
"oX c #F6CB55",
"OX c #FDCD53",
"+X c #F7C85A",
"@X c #EFD75C",
"#X c #FED553",
"$X c #F6D956",
"%X c #FEDA54",
"&X c #FDD65C",
"*X c #F3DB5D",
"=X c #FEDB5B",
"-X c #FEE157",
";X c #DDC967",
":X c #DBC875",
">X c #F2CB6E",
",X c #ECD767",
"<X c #EDD46F",
"1X c #F3D564",
"2X c #FDD563",
"3X c #F5DC61",
"4X c #FEDB63",
"5X c #FAD76C",
"6X c #FEDD6B",
"7X c #E4CF76",
"8X c #EBD77B",
"9X c #F6D677",
"0X c #FEDE73",
"qX c #F2DC7E",
"wX c #FDDC7B",
"eX c #FFE164",
"rX c #F9E26B",
"tX c #F9E477",
"yX c #FCE47E",
"uX c #A39F94",
"iX c #D8BF90",
"pX c #D5C598",
"aX c #EBD582",
"sX c #F6DC80",
"dX c #F7D788",
"fX c #E1CE94",
"gX c #FCDB97",
"hX c #F8E386",
"jX c #FBE89A",
"kX c #FEEBB6",
"lX c #DFD4C5",
"zX c #F8EAC8",
"xX c #FFF2C7",
"cX c #FFFFE7",
/* pixels */
"                                      O O O @   . < *     X X   X   = = .     X     O O                                 ",
"                        .             O       : . o .   q > > 0 q : $ $ . 6 .   @     O                                 ",
"                          .   O     O O   3   & k M.Q.:X:X7X;X!.K.#.P A f $ . = X O                                     ",
"                        . O O O     O O 8 . $ N.aXhXtXtXtX3X-X Xx.$.9.P.J.D $ . @   O       X                           ",
".                         O O O O X X w   q Q.hXrX*XeX2X2X2X=X%X%X(.:.&.1.XXK : . #         O                           ",
"                          + O O     w   g Q.hX,X*X%X$X4X&X&X%X%X%X=X|.<.+.u._.P $ . -   X                               ",
"                              X X < X $ A.rX3X6X&X=X#X(.#X$X%X=X*X=X%Xz.~ ! ` 3.P $   #                                 ",
"+                               X 6 . M.,X-X%X#X`.^.9.(.2.d.(.}.=X&X%X Xt.! ..+.P.A $ . o                               ",
"                                e & n ;X3X%X{.f.9.l.l.,.,.g.9.5.).&X%X%X[.i._ X.u.L.h . o                               ",
"                              2 ; o A.3X4X#Xj.<.l.l.i.g.j.g.0.0.9.).#X|.[.i.^ ^ U 4.B.$ . o                             ",
"  .                           a . B ,X*X&XOX,.<.l.0.g.i.i.>.0./.7.f.z.{.[.j.y.! q.%.P.c .                               ",
"      .                     , > $ A.,X=XOX8.l.g.7.7.7.g.7.l.0.7.g.g.u.j.c.c.p.@.q.q.).K $ . +                           ",
".                           y . M ;XeX}.k.k.l.7.<.7.f./.9.6.7.7.<.i.@.@.p.v.p.+.Y ( { $.g . $   O O     O             X ",
"<   .   .             O   @ w . L rX#Xl.6.g.7.7.g.g./.#X`.U.g.<.i.i.O.W e.a.c.e.(  .| 1.Z . . +   O O                   ",
"3   o o           O       9   6 W.6X%X6.g.g.7.7.7.7.`.=XOXU.7.g.g.>. .W | p.v.j.X.@.X.g.G.% . = X   O                   ",
".   . =                   e o B ;X4X^.f.g.g.g.l.f.6.).4XOXI.2.g.g.@.] ) ( r.c.j.+.( ^ %.H.l .   X X                     ",
"  < . 8 .         O   X X >   A.<X&X9.g.g.g.7.f./.^.].=X2X_.4.6.6.o.Q ) W ..c.c.r.| ( } U.A .   X   .       X     O     ",
"  7   8                 , ; . D.tX|.^.g.i.g.g.9./.OX#X=X4X&X}.^.%.' Q ) ) ..c.n.c.@.X.w.g.P % X X     .                 ",
"  7 . 7   .             e X z ;XrX`.5.g.i.g.g.^.OX&X=X=X=X4X=X|.,.U Q / / ~ u.{.n.} ~ ~ -.#.q . X X .                 O ",
"  <   4                 a   S 8X2XU./.0.g.i.k.).&X4X=X%X=X=X%X%Xz.| R R ) Y i. X{.-.| | ` 8.z   X X   .     X           ",
"  o   , =   .           u . B.wX2XU.9.7.7.<.l.%X=X2X=X%X=X=X%X[.n.| Q R Q | g.|. Xj.@.@.@.U.D . X X   .                 ",
"  .   o =             # 2 . R.tX+XU.0.l.g.6.).%X2X=X%X=X%X X{.z.j.( R / W @.g.|.%Xf.` [ W 9.D .   X .       O X       O ",
"    .   <             , . . E.0XXXU.0.0.g.6.).&X4X=X].}.{.[.[.n.y.^ R )  .;.7.).%Xz.+...Q :.B.$   +   .                 ",
"    =   7             w   q W.0XXX9.l.7.7.g.|.%X4X4Xs.s.f.,.-.i.X./ /  .O.<.7.).-X{.;.@.X.7.F.5 . =     O               ",
"    ,   8             u   N 7X6X^.9.l.g.f.l.#X#X&X&XI.k.g.*.` | Q / / ] ;.g.f.).%X[.o.W Q :.G.q . +       O             ",
".   =   w .           i   C qX4X9.9.7.g.0.l.|.%X&X&X^.6.i.o.O. .R R ( | <.g.f.l. Xn.+.( E :.$.h $       O               ",
"    o   8 . .   .     s   C 9X=X^.6.u.g.g.k.|.=X&X&X`.6.} I [ [ R R ) ;.g.0.7.z.{.n.w.X.w.;.P.x $ +     O O           O ",
"    .   y         .   a   G qX$Xs.6.l.7.7.k.].=X&X4X=X].:.I I Q R ) | i.g.7.6.l.[.a.+.( _ ` 3.x . . X                   ",
"        8             i   G sX&X4.l.0.l.l.f.z.%X4X&X%X Xz.j.-.Y Q [ >.<.i.g.9.g.n.v.q.( ( o.3.v . o     . O             ",
"        4             a   G sX&X4.U.U.l.g.f.z.|.4X4X}.[.z.n.c.-.E ] <.7.f.g.g.<.a.a.w.@.X.<.I.b . #       .             ",
"        8             i . F sX2X9.U.l.l.g.f.f.).&X=X Xn.z.c.v.c.} *.g.g.g.g.;.=.a.a..._ Q | 3.v .                       ",
"        4             a . F sX&X8.0.0.7.g.f.u.f.).|.n.v.v.j.v.[.g.:.l.g.g.i.@.| p.a. .W ) o.3.v . . +       X           ",
"        3             i   F qX2X8.0.0.7.<.g.7.6.l.g.p.p.c.a.v.b.|.9.7.g.7.i.O.| y.a.X.X.X.;.I.b $ X         X           ",
"        2             i   F qX2XU.0.7.7.<.<.g.g.i.=.| X.w.a.v.b.#X9.7.7.7.;. ...p.a.@. .) O.3.x .                       ",
"        2             i   V 8X4XY.0.g.<.g.g.g.g.>.O.( ( _ w.v.b.#X^.0.7.g.O.( ..a.a.| W R o.J.h . o   +   O             ",
"        2             a X V 8X4XU.0.7.<.g.<.7.7.O.] ) ) ^ X.v. X=X^.0.0.>.o.~ q.a.c.;.;.X.;.L.l . .                     ",
"        o             w   m :XeXY.U.0.<.i.7.l.<.o.I Y ) W q.n.%X=X^.U.7.O.[ ~ q.a.a.o.| ) :.G.q .                       ",
"        o             3   o E.6XY.8.7.g.g.7.7.g.;.o.Y Y | i.{.-X%X^.0.7.O. .~ r.y.t.| ] W :.P %   o                     ",
"        #             , * . W.tX+XU.7.g.g.g.<.g.j.p.p.e.j.).%XeX#X^.7.>.Q R | y.a.y.@.@.;./.C.. . #                     ",
"        #             o 7 $ R.sX+XI.7.g.g.,.-.j.n.c.n.n.[.#X=X4X'.^.7.] [ R ..p.a.w.( O.O.I.J . . O                     ",
"  #   = .             X u . m.9X5X9.6.g.g.<.+.i.c.p.h.n.}.#X&X=X(.f.>.[ ) ) @.j.v.r.| | *.P.M                           ",
"  , . 4                 s . S aXwXI.6.7.g.=...p.v.c.v.b.{.=X=X#X/.<.O.Q Q ] i.n.[.p.i.i.g.T.k   # + O .     .           ",
"  7   w   X             4 . g :XwX_.6.7.<.o.) X.i.a.c.n.|.%X|.).f.+.) ) ) O.j.[.|.f.,.u.9.H.6   + O O                   ",
". 7   w                 , ; . Q.hXoX2.g.;. .) T ..y.j.[.|.#Xz.6.g.O.) )  .;.c.|.|.4.2.9.oXL . X 2   + .                 ",
"    . 3                 X e   N.sX2XU.:.O.Q ) / W { u. X#X5.6.7.<.=.[ O.| g.{.-XoX#X+X+X8XF . . . O               O     ",
".   o #                   s o N aX0X`.:. ./ / / ( ~ u. XOX9.g.i.O.O.O.>.-.[. X%X2X+X>X>XfXN . & .                       ",
"=   o @                 X , . . E.9X&X%.Y ) R / ( | l.=X#X9.g.e.~ | O.=.z.#XeX1X.X<XdXgXpX: . &   .                     ",
"#                           i . Z.hX2X&.U ) / / ^ ..l.#X`.^.i.+._ _ o.*.|.=XtXhXtXjXgXkXuX.   #   O O                   ",
"                        X   u . z ;X*Xh.} ` [ ) Q @.g.l.0.7.;. ._ _ | g.#X5X5XyXjXkXxXzXj O & + O O O                   ",
"  o                           a . A.eXn.i.I I [ O.<.<.<.<.i.O.Q ) ^ +.).=XtX1X<XjXxXcXuX  . + O O O O                   ",
"  .                           r   z !. Xz.*.I E >.g.i.i.i.@. ./ / _ p.{.&X2X5XdXgXxXlXd   # O O O O   O                 ",
"    @                           p . V.*X}.z.} ' 7.0.g.i.i.O.) ) ) q.[.{.|.OX+X5XgXkXH + 1 +   O O O                     ",
"                        O       t . q W.%Xh.b.f.8.8.U.k.d.} ` +.i.n.|.|.|.4.(..XdXpX7 + 1                   X           ",
"                            X   @ 8 . S .X{.(.#XOX`.9.2.&.%.-.j.z.).).|.z.[.~.1XdXB . # +       X                     O ",
"                            X X   + e . J <X3X&X4X&X=X Xb.h.c.c.n.[.z.i.u.f.~.<Xm..   #       X                       O ",
"                                @   4 ; o V.tX<X3X-X}. Xn.c.c.v.c.j.e.} ' 3..XJ . - -         O X                       ",
"      X                               r . . M.8XtX*X*X Xh.p.v.v.a.w.w.t.9.T.F $ o o X                                   ",
"                          O O O     @   9   . B D.8XrX@X$X%X}.(.d.d.s.$.#.Z $ . , X                     O               ",
"                        O     O   X   @   3 7   $ B M.A.C.C.C.L L L D n $ . 6 <         O               O               ",
"                            O           X X 1 y   . & o % $ % % $ % $ . . e .   . + O O O             O O               "
};
