/* XPM */
static char *dollar71674067988[] = {
/* columns rows colors chars-per-pixel */
"60 60 234 2 ",
"   c #010000",
".  c #0B0200",
"X  c #050A02",
"o  c #0B0A03",
"O  c #020109",
"+  c #09040B",
"@  c #0C0C0B",
"#  c #120200",
"$  c #1D0100",
"%  c #130C03",
"&  c #1B0C03",
"*  c #13070C",
"=  c #120D0A",
"-  c #0E1009",
";  c #191405",
":  c #13130C",
">  c #150D12",
",  c #0D1112",
"<  c #141511",
"1  c #181317",
"2  c #1B1C15",
"3  c #1A1C1A",
"4  c #210000",
"5  c #271B03",
"6  c #311B00",
"7  c #241E15",
"8  c #1F201C",
"9  c #2E2100",
"0  c #26260E",
"q  c #352A00",
"w  c #3F2900",
"e  c #373100",
"r  c #272716",
"t  c #22221B",
"y  c #2E2A1C",
"u  c #312B19",
"i  c #2A2A22",
"p  c #292825",
"a  c #2F312B",
"s  c #333327",
"d  c #2F3030",
"f  c #452800",
"g  c #493609",
"h  c #543B03",
"j  c #5C3900",
"k  c #464403",
"l  c #594000",
"z  c #4E4113",
"x  c #694300",
"c  c #704700",
"v  c #675115",
"b  c #765C18",
"n  c #4E482F",
"m  c #5F5730",
"M  c #6B5527",
"N  c #6E5B2E",
"B  c #6E5F3E",
"V  c #756327",
"C  c #7E6D3A",
"Z  c #595D4A",
"A  c #796641",
"S  c #75766D",
"D  c #83691B",
"F  c #957726",
"G  c #8C793F",
"H  c #917E3F",
"J  c #8A7543",
"K  c #957E45",
"L  c #957E4A",
"P  c #9E833A",
"I  c #B6902B",
"U  c #AA8533",
"Y  c #A6893A",
"T  c #EEAC05",
"R  c #E5AA0E",
"E  c #EDAD0C",
"W  c #F4AD05",
"Q  c #F3AD0B",
"!  c #F8AE08",
"~  c #ECB208",
"^  c #F3B203",
"/  c #F7B906",
"(  c #F4B30B",
")  c #FBB50C",
"_  c #FDBB0E",
"`  c #E7A715",
"'  c #E5AC14",
"]  c #ECAC13",
"[  c #ECA61C",
"{  c #E4AC1C",
"}  c #EBAD1B",
"|  c #F5AE14",
" . c #FBAF13",
".. c #F8AD1D",
"X. c #EBB516",
"o. c #ECB31B",
"O. c #F4B215",
"+. c #FAB413",
"@. c #FEBC14",
"#. c #F4B41B",
"$. c #FCB51C",
"%. c #F4B81C",
"&. c #FDBB1C",
"*. c #C79D36",
"=. c #C7A03C",
"-. c #D3A935",
";. c #DAAB34",
":. c #D8AA3A",
">. c #D9B13D",
",. c #EAAE22",
"<. c #E3AE2E",
"1. c #EDB324",
"2. c #EDB924",
"3. c #EDB42B",
"4. c #EEBB2D",
"5. c #F2B521",
"6. c #FBB423",
"7. c #F4BA24",
"8. c #FDBC23",
"9. c #F4B42A",
"0. c #F4BC2B",
"q. c #FCBC2B",
"w. c #E6B637",
"e. c #EDB531",
"r. c #EDBC33",
"t. c #ECBC3A",
"y. c #F1B533",
"u. c #F3BC34",
"i. c #F5BC3B",
"p. c #FABB39",
"a. c #FDBB3C",
"s. c #FFC10E",
"d. c #FCC214",
"f. c #F6C01E",
"g. c #FFC31B",
"h. c #FEC324",
"j. c #FFC826",
"k. c #F6C22A",
"l. c #FDC32B",
"z. c #FECC2D",
"x. c #EDC23A",
"c. c #F4C134",
"v. c #FBC334",
"b. c #FDCC33",
"n. c #F3C23B",
"m. c #FDC33C",
"M. c #F6CB3A",
"N. c #FDCB3C",
"B. c #F2D135",
"V. c #FFD334",
"C. c #F6D63B",
"Z. c #FFD43D",
"A. c #948041",
"S. c #978646",
"D. c #9D8D58",
"F. c #A7974C",
"G. c #BC9946",
"H. c #B99B4C",
"J. c #A58E54",
"K. c #B29E53",
"L. c #B9A857",
"P. c #BBA669",
"I. c #C9A748",
"U. c #D3AA47",
"Y. c #DAB541",
"T. c #C6A957",
"R. c #E3B547",
"E. c #E7BA45",
"W. c #ECBC43",
"Q. c #E7B94C",
"!. c #F3BC42",
"~. c #FABD42",
"^. c #F2BE4A",
"/. c #F9BD4B",
"(. c #E7B855",
"). c #F4BF54",
"_. c #C3AB6B",
"`. c #D2AE61",
"'. c #C6B768",
"]. c #D5B567",
"[. c #DABC6C",
"{. c #CEB874",
"}. c #E5BE63",
"|. c #EDC343",
" X c #EEC74B",
".X c #F4C344",
"XX c #FCC644",
"oX c #F3CA46",
"OX c #FDCB42",
"+X c #F4C44C",
"@X c #FCC34A",
"#X c #FECD4B",
"$X c #FFD345",
"%X c #FFD34B",
"&X c #FBD84A",
"*X c #EBCF52",
"=X c #F2C453",
"-X c #F2CA54",
";X c #FDCC52",
":X c #F6C758",
">X c #F9CB5A",
",X c #FFD355",
"<X c #F4DA57",
"1X c #FFDA54",
"2X c #FFD55B",
"3X c #FFDA5C",
"4X c #DBC368",
"5X c #DAD06E",
"6X c #E8C768",
"7X c #F2CC64",
"8X c #FBCE69",
"9X c #F6D865",
"0X c #FFDB62",
"qX c #FBD168",
"wX c #ECC879",
"eX c #F6D475",
"rX c #F5D675",
"tX c #FBD379",
"yX c #F7E26C",
"uX c #A09787",
"iX c #CCB989",
"pX c #C3B497",
"aX c #F8D485",
"sX c #FDDA85",
"dX c #F0D58B",
"fX c #FFE290",
"gX c #FFDEA3",
"hX c #E0D4B0",
"jX c #FEE6A8",
"kX c #FFEBC1",
"lX c #F3E9CE",
"zX c #FFF3CD",
"xX c #FFF0D7",
"cX c #FFF8E3",
/* pixels */
"                                        X     O + * ; .       X X X o X O O O       X                                   ",
"                                  O       X X   * . . 9 e e q 9 q ; X   . O O       X                                   ",
"                                O O O     X   7 % g '.4XY.-.Y.>.-.U.P # . . .         O                                 ",
"                                  O O       % 7 # L.9X<XB.o.o.#.1.e.E.D # . . X     O O                                 ",
"                                O O O       y # b 5X&XB.Z.k.%.%.&.5.w.T.6 . :       . O                                 ",
"                                    O O     p . K.9XB.V.&XN.&.@.&.q.N.*XV   o X   .                                     ",
"                                          3   # 4X<Xb.z.&X$X5.|  . .X.W.F.#   @   O                                     ",
"                                        X s . A aX|.' o.$X1Xv.6.8.&.%.n.T.5   , X O                                     ",
"                            O             y . D.9Xc.o.#.M.1XZ.0.h.b.l.%X6Xv . *   O .                                   ",
"                          O O O         X 0 & _.*X' +.8.c.1X$X2.2.c.e.+XwXS..   +   .                                   ",
"                              O         ; X . {.oXR ~ 8.p.#X%Xr.c.M.:X7XrXP.  O ,                                       ",
"                                        0 X z 4Xx.~ O.q.a.@X1XOXOX,XqXtXjXiXo   <                                       ",
"                              O O   .   i o G 6X7.T q.a.~.@X3XoXr.+XqXdXjXhXn   - .                                     ",
"                                O O .   s   J 7X#.W m.~.~.@X1X&XoX>XtXdXlXlXZ X o X                                     ",
"                                O O     a . F.7X] Q OX/.).^.2X3X2XtXfXjXzXcXS   @   +                                   ",
"                                      o 3 . _.Q.] | XX+X@X+X0X0X>X8XsXjXkXxXS X O +                                     ",
"                              .       @ : . ].^.] O.XX;X+X^.2X0X+X>XtXaXgXkXuX  O >                                     ",
"                        O O     .     < O # `.^.E %.&X0X^.!.>X2XXX;XqXtXaXjXpX.   2   O                                 ",
"                        X       X     3   & `.i.] h.1X0X;X!.;X,Xn.m.XX:X:XsXiX. . >                                     ",
"                        O O .         3 O f (.y.O.z.&X0X2X.X+X%X0.k.i.XX+X8X_.# . : .                                   ",
"                        O X   .       p   m (.9.] V.3X0X,X|.+X&Xb.l.N.N.m.0X_.# . =   X                                 ",
"                          O           i   M (.1.X.$X1X0X2XW..X%X0.5.7.0.2.+XL.$   :                                     ",
"                                  X   i   C (.9.o.&X%X-X#Xi.i.OXq.%.7.q.5..XT.5 . =                                     ",
"                            . .       y . G Q.} 2.$X.X+X#Xn.v.N.h.8.h.h.8.m.U.f . %                                     ",
"                            O         y . G E.,.k.$X!.!.XXm.q.l.&.+.) +.( q.U.f . %                                     ",
"                            .         y   G E.o.c.%X~.!.a.a.6.h.&.) ( _ ) 9.:.h # #                                     ",
"                            X O     . u . H E.{ c.$X@Xi.~.m.0.j.h.@.s.s._ h.>.l . .   O                                 ",
"                              O   .   u . H E.{ c.1X,X!.!.XX5.g.d./ ^ ^ W %.;.h . o   O                                 ",
"                        O           . u . H E.,.u.1X,X2XW.p.$.&.d.~ / ( Q %.<.x . o   O                                 ",
"                        O             u . K E.3.u.1X1X2X^.i.O.g.g.d.d.&.&.h.e.c # o                                     ",
"                                    . u . A.R.3.u.$X1X0X+Xu.| @.@.~ ( ( ( #.<.x # O                                     ",
"                          O     X     u . S.R.9.c.OX,X0X;Xi...g.d.( ( ( W %.<.x # @                                     ",
"                                      u . K R.y.u.M.%X2X>Xu.| g.h.d.@.@.&.j.w.x # .                                     ",
"                                X   . u . K R.u.p.v.XX,X,Xe.R &.g.( ( ) ( 6.;.j . @                                     ",
"                                .     u . J Q.u.v.v.n.;X,Xy.` h.g.~ ( ( T 5.-.j # =                                     ",
"                                      y . J (.i.v.v.t.;X#X3.' j.h.@.@.@.&.q.:.j . .                                     ",
"                          X         . u   J (..Xc.v.t.#X#X,.' z.h.( ( ) ( 0.=.f # o                                     ",
"                            O   .     u . A }.!.c.OXt.%X#X,.] z.&.Q ) ^ T 9.=.6 . =                                     ",
"                                      y   A }..Xn.$XXX3XXX} o.b.h.$.@._ @.v.I.$ . = X                                   ",
"                              O     . y   B }.|.n.&X2X3Xm.} o.b.8.+.) ) Q e.G.# . =                                     ",
"                                  .   t   n [.+Xn.%X3X2Xm.` o.b.&.| ! ) W y.G.# . @   X                                 ",
"                              O       2   6 [.=Xx.&X3X2Xq.` 7.V.8.+.@.@.+.XXH.# . @                                     ",
"                            O     .   < X . [.=X|.%X3X,X9.` k.b.6.+.) ) ( u.S.# . =                                     ",
"                              O   o   < @ . ].=Xt.n.3XXX,.] v.b.| +.! W ( w.F .   .   X                                 ",
"                  X         O       o + 3 . T.:X.Xt.1Xr.] ] N.$Xk.%.g.&.7.XXb . . .                                     ",
"              X   :     O               i . H.:X!.i.%X4.( Q OXN.X./ +.$.X.w.b .     O O                                 ",
"                  3     O               d   J.7X^.~.#X0.W Q Z.v.~ ^ ! ! #.w.v . o   O         X                         ",
"                  8                     d . L wX).i.XX#.W ) $Xz._ _ _ ) 8.;.w . -                                       ",
"                  t             X       i X N wX=Xy.m...| &.$X0.Q ) ) ) 7.*.%   =                 X                     ",
"                  3     O               t . q wX:Xy.q.$.| v.$X2.W ! W E 0.I #   o                                       ",
"                  <                     o ; . {.7Xi.6.6.} b.Z.k.&.@.@.&.c.F .   X                                       ",
"                  @             O   O   X r   P.rXi.9...1.Z.z.X.@.+._ %.|.b . . +               X                       ",
"                                O O O     s   S.dX X` [ u.&Xf.~ ( ( W 1.I.h . o   +                                     ",
"                                O O O     r   m dX9X{ ` #X$Xd.s.+.@.+.p.H.& . >     +                                   ",
"                                  O   O   : o . 4XyXb.h.OXN./ / / ) +.XXH . . > X                                       ",
"                                            s X F.yXC.V.$Xv.T ^ / T } :.h . & O                                         ",
"                                            0 X k 5X<XB.&Xk./ s.d.X.oX=.#   = O   +                                     ",
"                              O           o   u X S.rX<X X|.x.x.n.|.Y.v X X @ .                                         ",
"                                              : X o D.K.Y U U U U Y V #   X   O X     X                                 ",
"                            .           O O X   1   . . # $ $ 4 4 $ # % X           X                                   "
};
