/* XPM */
static char *_62c57b83bc74ceaa4a1ad49272f223coUyN7aAwvm9hZCuL[] = {
/* columns rows colors chars-per-pixel */
"60 60 113 2 ",
"   c #000000",
".  c #0A0502",
"X  c #0D0901",
"o  c #03000F",
"O  c #0C0609",
"+  c #090908",
"@  c #110D03",
"#  c #140D09",
"$  c #181503",
"%  c #11100C",
"&  c #000014",
"*  c #00061B",
"=  c #06101F",
"-  c #2A1F02",
";  c #2B2003",
":  c #2C2209",
">  c #614D26",
",  c #6F6428",
"<  c #94771F",
"1  c #8F6F23",
"2  c #936D24",
"3  c #936F2A",
"4  c #8F7027",
"5  c #8F7129",
"6  c #937027",
"7  c #967D24",
"8  c #997D23",
"9  c #92712B",
"0  c #947F29",
"q  c #987E2B",
"w  c #81683F",
"e  c #997437",
"r  c #9A7B3F",
"t  c #9A7B43",
"y  c #B7950D",
"u  c #AD8D14",
"i  c #BB8A1F",
"p  c #968026",
"a  c #96842F",
"s  c #978836",
"d  c #A58D26",
"f  c #B78825",
"g  c #B19E38",
"h  c #F7AC00",
"j  c #FAAE01",
"k  c #FBAF0C",
"l  c #F7B301",
"z  c #FCB303",
"x  c #FCB40B",
"c  c #FDBA0E",
"v  c #EEAF1D",
"b  c #F1AE1C",
"n  c #EEB11C",
"m  c #FCB512",
"M  c #FCBA13",
"N  c #F1B11E",
"B  c #FEB41F",
"V  c #FCBB1B",
"C  c #EFB525",
"Z  c #F2B523",
"A  c #F6BB27",
"S  c #FDBD25",
"D  c #F2B529",
"F  c #F5BB2A",
"G  c #FABC2C",
"H  c #F4B334",
"J  c #F6BE30",
"K  c #FFBD31",
"L  c #F6C12D",
"P  c #FAC12D",
"I  c #F6C333",
"U  c #FAC333",
"Y  c #F7C53D",
"T  c #FBC63C",
"R  c #99874C",
"E  c #9C8B58",
"W  c #A1864B",
"Q  c #848378",
"!  c #A39269",
"~  c #C4A04C",
"^  c #CDAD52",
"/  c #F6BF4A",
"(  c #F4BE55",
")  c #CBAF64",
"_  c #FBCA45",
"`  c #F8CE4E",
"'  c #F0C457",
"]  c #FAC658",
"[  c #F6CD59",
"{  c #FACB59",
"}  c #FFD058",
"|  c #FAD15F",
" . c #FFCD64",
".. c #FAD065",
"X. c #F9D366",
"o. c #FFDD65",
"O. c #FCD66F",
"+. c #FCD275",
"@. c #FFDF7F",
"#. c #878381",
"$. c #AAA389",
"%. c #CDBA91",
"&. c #C4BDAE",
"*. c #F4D485",
"=. c #FAD481",
"-. c #FCDA83",
";. c #FDE09D",
":. c #FCE3A2",
">. c #F7E6B2",
",. c #FFEFB4",
"<. c #FFF7CD",
"1. c #EFEBD8",
"2. c #FFFDDD",
/* pixels */
"                                                  +       * = * &   .                                                   ",
"                                                +   o #.&.%.) ^ ~ w   $                                                 ",
"                                              +     Q 1.2.,.@.o.| W   :                                                 ",
"                                              %     $.<.>.:.-...' r   :                                                 ",
"                                              %     ! ;.*.=.+. .( t   :                                                 ",
"                                              X     E -...| [ } ] t   :                                                 ",
"                                              X     R O._ _ Y T / t   :                                                 ",
"                                              X     R { G K G S H e   -                                                 ",
"                                              X     s ` G G S G F e   -                                                 ",
"                                              X     a _ S S V M F 9   -                                                 ",
"                                              X     p I j V m x Z 3   -                                                 ",
"                                              X     p U x M M M Z 6   ;                                                 ",
"                                  .           X     7 U z M c c Z 6 . -                                                 ",
"                                              X     8 J h x h x Z 2   -                                                 ",
"                                              X     8 U z M x M Z 6   ;                                                 ",
"                                              @     8 P z x z c Z 2   -                                                 ",
"                                              X     p A h x l l v 2   -                                                 ",
"                                              X     p L z M x c Z 3   ;                                                 ",
"                                              X     8 P z m x c Z 6   ;                                                 ",
"  o                               .           X     8 A h x h z b 2   -                                                 ",
"  o                               .           X     0 P z m z x Z 2   -                                                 ",
"                      .             .         X     8 P l V x M D 3   ;                                                 ",
"                                              X     7 S h x h z b 2   -                                                 ",
"                                  .           X     7 G j M z z N 2   -                                                 ",
"                                              X     7 I z m m c D 3   -                                                 ",
"                                              X     7 G h x l l b 2   -                                                 ",
"                                              X     8 S h x x x Z 2   -                                                 ",
"                                              X     8 U z M c c Z 6   ;                                                 ",
"                                              X     8 G h x h x n 1   -                                                 ",
"                                              X     8 G z x x x N 2   -                                                 ",
"                                  .           X     p P z M c c D 4   ;                                                 ",
"  +                                           @     < G h x z z b 2   -                                                 ",
"                                              X     p P z c x x Z 6   ;                                                 ",
"                                              X     p U z M c M C 4   ;                                                 ",
"                                              X     p A h k x z n 2   ;                                                 ",
"                                              X     p P z x x x C 4   ;                                                 ",
"                                              X     p U z M x M Z 6   ;                                                 ",
"                                              @     < G j x j x b 2   -                                                 ",
"                                              X     8 P j x x z N 2   -                                                 ",
"                              o               X     q U z M c c D 6   ;                                                 ",
"                              .               X     8 F h x j x v 2   -                                                 ",
"                                              X     8 G j k x z N 2   ;                                                 ",
"                              .               X     8 U z M M M D 6   ;                                                 ",
"                                              X     7 G h x x z n 4   -                                                 ",
"                              . .             X     7 A h x j z n 6   ;                                                 ",
"                                              X     p U z M M M Z 6   ;                                                 ",
"                                              X     8 S j x j x v 2   -                                                 ",
"                          +   .               X     p L h x j x n 1   ;                                                 ",
"                                +             X     p U x V M M A 3   ;                                                 ",
"                                              X     7 G h x j j b 2   -                                                 ",
"                        .                     X     0 F h x h z v 6   -                                                 ",
"                                              X     0 I z M c M D 5   ;                                                 ",
"                                              X     8 G j k z z Z 2   -                                                 ",
"                                              X     q G h m j z b 2   -                                                 ",
"                                              X     0 U z B c M D 6   ;                                                 ",
"                                              X     < G j x j j b 2   -                                                 ",
"                                              X     q Y z S m x D 3   -                                                 ",
"                                              .     , g u f i y d >   $                                                 ",
"                  .                               .                 O                                                   ",
"                                                    O # X @ @ @ @ .                                                     "
};
