/* XPM */
static char *dollar81674067988[] = {
/* columns rows colors chars-per-pixel */
"60 60 233 2 ",
"   c #010101",
".  c #0B0200",
"X  c #080706",
"o  c #0B0A04",
"O  c #030209",
"+  c #0C0C0A",
"@  c #120200",
"#  c #120C04",
"$  c #1A0A01",
"%  c #130D0B",
"&  c #0E1106",
"*  c #1B1501",
"=  c #14120D",
"-  c #181509",
";  c #141412",
":  c #191614",
">  c #1D1A15",
",  c #1B1A19",
"<  c #2D1100",
"1  c #2F1500",
"2  c #221C04",
"3  c #221C15",
"4  c #231F1B",
"5  c #1D2018",
"6  c #2A2609",
"7  c #3A2700",
"8  c #362C02",
"9  c #2A2815",
"0  c #22221A",
"q  c #312E18",
"w  c #31301C",
"e  c #292826",
"r  c #322D23",
"t  c #333325",
"y  c #34342B",
"u  c #31323C",
"i  c #462A00",
"p  c #473804",
"a  c #4C390E",
"s  c #564206",
"d  c #524B1D",
"f  c #694B09",
"g  c #6E500C",
"h  c #735707",
"j  c #624D14",
"k  c #654918",
"l  c #6B5418",
"z  c #795D17",
"x  c #7C6310",
"c  c #514E32",
"v  c #685823",
"b  c #6F5E30",
"n  c #6B6437",
"m  c #756835",
"M  c #797032",
"N  c #7B7A78",
"B  c #906C1D",
"V  c #9A761D",
"C  c #8B722B",
"Z  c #997D29",
"A  c #89783A",
"S  c #997C35",
"D  c #857443",
"F  c #817E65",
"G  c #93863D",
"H  c #A98722",
"J  c #A38439",
"K  c #BC9635",
"L  c #EFA600",
"P  c #EDAC03",
"I  c #EDAB0B",
"U  c #F3AD04",
"Y  c #FAAD04",
"T  c #F6A60B",
"R  c #F4AC0B",
"E  c #FAAE0B",
"W  c #EFB102",
"Q  c #EDB10D",
"!  c #F5B204",
"~  c #FCB305",
"^  c #F2B806",
"/  c #F4B30B",
"(  c #FCB30B",
")  c #F2B90E",
"_  c #FCBB0D",
"`  c #ECAC14",
"'  c #ECAE1A",
"]  c #F4AD14",
"[  c #F0AC1C",
"{  c #EDB114",
"}  c #EEBB15",
"|  c #EDB31C",
" . c #F3B313",
".. c #FCB413",
"X. c #F4BB14",
"o. c #FDBB14",
"O. c #F5B41B",
"+. c #FBB41A",
"@. c #F5BB1C",
"#. c #FDBC1A",
"$. c #C09933",
"%. c #CEA834",
"&. c #D2A737",
"*. c #DFB433",
"=. c #DAB03B",
"-. c #F1AD26",
";. c #ECB523",
":. c #EEB922",
">. c #EBB528",
",. c #ECBC2D",
"<. c #F3B424",
"1. c #FBB524",
"2. c #F5BB23",
"3. c #FBBB23",
"4. c #FAB52C",
"5. c #F5BC2C",
"6. c #FDBD2C",
"7. c #EAB837",
"8. c #EDB935",
"9. c #E3B63C",
"0. c #EEB73D",
"q. c #EDBB3B",
"w. c #F1B736",
"e. c #F5BD34",
"r. c #FBBE33",
"t. c #F4BD3B",
"y. c #FABE3B",
"u. c #FCC116",
"i. c #F4C219",
"p. c #FDC11C",
"a. c #F6C324",
"s. c #FDC224",
"d. c #F4C12A",
"f. c #FCC32C",
"g. c #FECB2B",
"h. c #FFD026",
"j. c #FFD22A",
"k. c #EDC13F",
"l. c #F4C434",
"z. c #FDC235",
"x. c #F6CC32",
"c. c #FECC34",
"v. c #F5C23C",
"b. c #FBC23B",
"n. c #F4CA3E",
"m. c #FECC3C",
"M. c #EBD13B",
"N. c #FED234",
"B. c #F6D53C",
"V. c #FED33C",
"C. c #958A4E",
"Z. c #98894A",
"A. c #978E52",
"S. c #9A8A52",
"D. c #B79745",
"F. c #B0934F",
"G. c #AE9C59",
"H. c #B7AB5F",
"J. c #98946C",
"K. c #BAA765",
"L. c #BEB67F",
"P. c #C9A54A",
"I. c #CEAA4C",
"U. c #D1AA48",
"Y. c #E2B345",
"T. c #EBBC42",
"R. c #E2B64D",
"E. c #E8BC4A",
"W. c #F3BD44",
"Q. c #F6BD48",
"!. c #E9BB52",
"~. c #C3AE64",
"^. c #CBB566",
"/. c #CDB169",
"(. c #D1B168",
"). c #C4B174",
"_. c #D3CB5E",
"`. c #EDC046",
"'. c #F3C443",
"]. c #FBC442",
"[. c #F3C945",
"{. c #FDCB44",
"}. c #F4C34C",
"|. c #FBC44B",
" X c #F6CB4B",
".X c #FCCC4B",
"XX c #EFDE4E",
"oX c #FFD343",
"OX c #F5D248",
"+X c #FED44C",
"@X c #FFDA4C",
"#X c #EFC55D",
"$X c #FDC651",
"%X c #F3C854",
"&X c #FCCB52",
"*X c #FBCC5B",
"=X c #FED554",
"-X c #FEDA55",
";X c #F4D75A",
":X c #FED55B",
">X c #FFDB5B",
",X c #FFE04A",
"<X c #D8C57B",
"1X c #E4CA68",
"2X c #F7CD65",
"3X c #EBD968",
"4X c #F8D667",
"5X c #FEDB62",
"6X c #E4C976",
"7X c #F2CF78",
"8X c #E6D075",
"9X c #FFDC75",
"0X c #F7D778",
"qX c #FFE164",
"wX c #FFE36A",
"eX c #FEE37B",
"rX c #A4A396",
"tX c #DEC981",
"yX c #EAD887",
"uX c #F7D682",
"iX c #E2D897",
"pX c #F8DD96",
"aX c #F8E385",
"sX c #F9E697",
"dX c #D0CBA1",
"fX c #FDEDA4",
"gX c #F9EAB8",
"hX c #DEDBD5",
"jX c #FFEEC4",
"kX c #F4EFCA",
"lX c #FEF2D4",
"zX c #FFF2DB",
"xX c #FCF9E8",
/* pixels */
"      O                           .   .   .     : . X . . # @ . @ .   - X O   O O O                                     ",
"                                    .     . X - . 6 M C.Z.G S J S C l @ . X X   O O                                     ",
"                                O     . . o * & G _.3X3X-X=Xk.t.w.8.T.K i @ @ o   X                                     ",
"      X                         O O O     9 o A.XXXXM.M.x.V.c.| I E ` 8.I.i @ #       X                                 ",
"      ,   O                   O O   X   r   M 8X;XB.N.V.B.OX=XoX@.p.o.5.!.P.@   #     O                                 ",
"      =                 X       O O   5   6 <XwXOXN.g.V.B.@X5X=Xh.} ) O.5.Y.A .   o   X                                 ",
"O     X +               O   .         w o S.0X-Xj.p.#.I d.+X5X>XN.Q / ( I >.U.p . &                                     ",
"        ,   O           O           5   8 6XqXn.X.! ( +.@.b.&X>X,Xa.#.#.o.3.k.Z .   o                                   ",
"        ,               O O         t . C.0X>X:. .E E T 3.z.[.=X-XV.X.......2.%.1 @ #                                   ",
"        + X             O     X   - . . ).9Xb. .E ( ( ..f.r.v. X=X+X@.R T T Q 9.z @ @ .                                 ",
"          +                   .   q . b 8X5X:.U E o.L #.3.r.l.[.=X>Xm.O.1.s.@.n.F.@   -                                 ",
"          ,               .       q . S.9X{.R Y ( Y / O.6.z.b.v..X=XoX@.] #.X.,.I.7   o                                 ",
"          e       O   O         % 2 . ).9Xr.R Y ~ ! f.z.6.r.z.e.'.=X+X2.I ( P | 9.h @       .                           ",
"          e                     4 . 6 tX:X[ Y Y ~ Q m.oXb.e.z.r.b.{.@Xc.o.o.#.@.].V @ X o                               ",
"          e   .                 r . n yX.XI E ~ ( Q {.=Xq.y.b.z.t.{.-Xm...! o. .r.$.@ . o                               ",
"          e   .       O O O     r . A.eXb.R ~ ~ / { +X=X7.t.y.y.y.n.-XoX] U / I | &.7   o                               ",
"          : o         O O O   o 3 . H.4X>.P ~ ~ Q 5.=X-X XW.q.].].t.+X@X3.o.u.o.@.T.j   .                               ",
"          & +         O O O   = # . _.>X' ! ~ ! O.oX>X5X:X&XW.t.b.t.+X=Xf.o.o.( ..v.z . .                               ",
"          + +             O   9 . 7 6XOXI ! ~ / z.+X>X>X>X>X&Xw.y.y.OX@X3.I R U P ,.C .   o                             ",
"          =   .     O         t   m 1Xn.I ~ ~ / oX>X=X>X-X:X=XW.b.e.[.@Xc.X.p.u.! f.D..   o                             ",
"            =                 t . D 4Xd.I Y ! s.oX>X>X>X:X>X&Xt.r.r.[.+Xc.X.o.o.~ z.D.. . o                             ",
"            =             X   w . Z.4X5.R ( U s.+X>X-X-X=X>X+Xt.b.6.l.V.f.{  .Y Y +.K @   o         X                   ",
"            =                 9 . S.2XO.R E R z.-X>X[.[..X=X{.e.b.r.d.c.c.@.o...( 6.U.7 . X                             ",
"            :                 6 . G.*X[ R E  .c.-X;X9.k.'.].b.e.b.r.f.c.j.i.X.o.( 6.R.s . X                             ",
"            :             . o 6 . K.*X' E (  .c.>X%XT.`.'.b.b.r.y.z.+.s.g.} Q Y R | Y.f .                               ",
"O           ,               & * . ~.$X` E E  .V.>X;XW.T.'.W.z.z.y.r.+.p.j.i._ o.+.<.`.h . .             X               ",
"            0           O . # * . ~.$X` E ( O.oX>X>X%XQ.Q.t.r.z.y.r...o.j.i.u._ #.1.`.h .   .           X               ",
"            0               # * . /.|.` E ( 2.oX-X5X5X:XQ.t.r.z.e.r.E o.h.} W U E ' 7.h .               X               ",
"            3               = @ @ /.].I E +.5.m.>X:X5X5X-X|.8.b.z.1.E u.j.i._ ( o.1.T.x .               X               ",
"          . 3 .         .   = @ @ /.].I ] 3.f.m.=X-X5X5X5X&Xq.y.f.O.U o.N.s.( ( _ @.`.x   . .           X               ",
"          . 3               = $ @ /.].I ] 3.6.l..X-X5X>X>X>X}.w.5...Y o.j.} U Y U ` *.h .               X               ",
"            3               % $ . /.|.I ..6.6.e.m..X=X>X>X5X.Xw.3. ./ u.N.a.o.( _ 2.`.x . .             X               ",
"            3               % * . ^..X` +.6.6.r.b.b..X=X-X>X&Xt.O./ ~ #.V.d.o._ o.3.}.z .   .           X               ",
"          . 3           O   % * . ~. X` 1.6.r.z.b.y.b.{.>X:X:Xy.] Y / #.N.:./ ! U { Y.f .               X               ",
"            3           O   % 2 . H. X' 6.r.r.r.b.t.y.v.=X>X:X4.( ~ / p.V.d..._ _ O.E.g .   .           O               ",
"            3               o 2 . K.%X;.6.b.r.r.Q.b.t.'.%X>X:X-.E ~ / g.V.d...o._ 3.!.g . .                             ",
"            = .           . . 6 X G.;X,.r.b.e.b.b.t.t.q.=X-X.X[ E ( Q j.oX| I ! U ` U.p . X     X                       ",
"O           =             .   9   G ;X'.y.b.e.v.+X.X X[.-X>X].' E ( { N.V.2. ._ / 6.U.< . o                             ",
"        . . % .           . . 9 X M 2X Xt.b.w.{.>X:X=X-X-X-Xc.] Y E  .V.V.s.o.o./ z.P.@ . o                             ",
"          o o             .   q   M 7X%X0.y.l.{.-X>X:X5X-X@X2.] ( E 2.oXc.{ I ( P d.D.@   o           O                 ",
"          % .                 9   d 7X*XW.Q.l.{.=X>X:X>X>XoX .E ( ] f.@Xg. .( o./ l.J @ . .                             ",
"          : . .           O . -   * 6X4XW.y.e.m.=X>X5X>X>Xl.R Y E  .m.@Xc.o.#.....v.C . . O                             ",
"          > .           O O   & =   (.9XQ.y.r.b..X-X5X>X+X2.! ~ Y +.+X@X} P ( R ) 7.g   X                               ",
"          >           O   X     0 . K.0XQ.Q.e.b.'.}.:X=Xt.' ( ~ T 1.+X@X@./ ..E X.*.s   X .                             ",
"          e           O     .   t X G 0X*X0.b.b.].W.=X+X<. .( Y E f.>X+X@.o.o.+.g.%.@   o                               ",
"          0               . X   0 . l yX4XW.W.].|.Q.>X+X[ E ..(  .z.=Xm.Q P E R ;.H . X X                               ",
"          :               O     5   % (.uX}.Q.Q.|.|.:X{.Q ! / / 2.oX=Xx.^ ^ / @.q.B .   X                               ",
"          =               O O   o 3 o K.pX2X%X$X$X|..Xb.X.~ / { z.=X@Xd.u.u._ 5.R.f .                                   ",
"        . X                 O O   y . C.pX0X#X#X$X|.{.5.+.+.+.<.{.=Xm.' Q ^ ! ;.D.< . #                                 ",
"        &               O         5   d iXaX7X2X*X=Xm.5.1.1.<.e.=X-Xz.O./ ) ) l.S . . #                                 ",
"        :                   X X   & 0 . L.fXpX7X2X2X|.e.r.4.r.oX>X+Xs.o.#.#.@.T.k @ o                                   ",
"        ,                       o   w   J.gXgXpXuX0X*X|.Q.r.'.=XqXn.Q ! /  .>.$.$ . #                                   ",
"        ; .                         w   c hXjXjXgXpX7X2X`.[.;XqX-Xl.) _ ( O.R.z . . o                                   ",
"        X                 O .     .   t   rXxXzXlXgXpX0X;X-X4XwX+Xa.u.u.o.{.P.$ . % O                                   ",
"    O                   O     .   X   e O O hXxXlXjXfXeXqX-XqX=X@.) / { 1.Y.v O # .   O                                 ",
"                        O     .   O X   u O N xXxXgXsXaX4X;X5X{. ./ ] ;.|.S @   o   X                                   ",
"      .                         O O O   O e   rXkXlXsXaXeXwX=Xm.f.a.f. XD.@ . %     O X                                 ",
"                            o     O O O O ; ,   F dXiXyX8X1XY.U.=.=.%.V $ . $   O .                                     ",
"                                    X   . X ; =     n n v j k l j j a . . - .         O                                 ",
"                                O             : 0 X   X . . @ @ . o . - ;   O X . O                                     "
};
