/* XPM */
static char *a62b71a60e88400cfebe2821581676f0xPNhSe22OvsH5pAT[] = {
/* columns rows colors chars-per-pixel */
"60 60 240 2 ",
"   c #010101",
".  c #0B0201",
"X  c #050803",
"o  c #0B0A02",
"O  c #030109",
"+  c #0A050A",
"@  c #0B0B0B",
"#  c #070908",
"$  c #120200",
"%  c #130A01",
"&  c #170904",
"*  c #141403",
"=  c #1D1301",
"-  c #1D1A03",
";  c #15120C",
":  c #1A170C",
">  c #0F0B13",
",  c #1D1A12",
"<  c #181415",
"1  c #081005",
"2  c #260D00",
"3  c #221400",
"4  c #2B1B00",
"5  c #261C0D",
"6  c #241C14",
"7  c #2C2200",
"8  c #3C2A00",
"9  c #372805",
"0  c #252215",
"q  c #24221D",
"w  c #2B251C",
"e  c #2B291D",
"r  c #2A2816",
"t  c #30291F",
"y  c #2B2524",
"u  c #2E2A24",
"i  c #343127",
"p  c #302D24",
"a  c #433400",
"s  c #473A02",
"d  c #473805",
"f  c #5B4A00",
"g  c #564605",
"h  c #564716",
"j  c #5E521B",
"k  c #674C09",
"l  c #6F5614",
"z  c #676119",
"x  c #796419",
"c  c #54492C",
"v  c #685A29",
"b  c #795D2A",
"n  c #76692A",
"m  c #766D36",
"M  c #716C2C",
"N  c #646058",
"B  c #8E741B",
"V  c #846B25",
"C  c #92793A",
"Z  c #86742D",
"A  c #877A45",
"S  c #998225",
"D  c #A98B29",
"F  c #BC9B36",
"G  c #B79233",
"H  c #EEAB0C",
"J  c #EEAD07",
"K  c #F4AE05",
"L  c #FDAE03",
"P  c #F4AD0C",
"I  c #FCAE0B",
"U  c #EDB10C",
"Y  c #F5B204",
"T  c #FCB104",
"R  c #F5B30B",
"E  c #FCB20B",
"W  c #FCBA0B",
"Q  c #EBAD14",
"!  c #EDAD1B",
"~  c #EBA713",
"^  c #F5AE14",
"/  c #FBAE12",
"(  c #F5AE1C",
")  c #EDB213",
"_  c #EDB41B",
"`  c #E7B316",
"'  c #F4B414",
"]  c #FBB313",
"[  c #F4BA15",
"{  c #FBBC15",
"}  c #F4B41A",
"|  c #FCB51B",
" . c #F4BA1C",
".. c #FDBA1B",
"X. c #C89C30",
"o. c #CBA535",
"O. c #D3A937",
"+. c #DAB63C",
"@. c #EEAF26",
"#. c #ECBB22",
"$. c #EEBC2B",
"%. c #EBB627",
"&. c #F4B523",
"*. c #FBB623",
"=. c #F4BC24",
"-. c #FDBC24",
";. c #F5BC2C",
":. c #FEBD2B",
">. c #F8B52F",
",. c #ECBB3B",
"<. c #EAB837",
"1. c #F4BD35",
"2. c #FEBE34",
"3. c #F4BD3C",
"4. c #FCBD3A",
"5. c #F6B73B",
"6. c #F6AF23",
"7. c #FDC21D",
"8. c #F7CD1F",
"9. c #F4C323",
"0. c #FBC325",
"q. c #FFC926",
"w. c #F5C22B",
"e. c #FDC32D",
"r. c #FDCC2C",
"t. c #F7C92E",
"y. c #FCD22D",
"u. c #FAD72A",
"i. c #EEC539",
"p. c #F5C334",
"a. c #FDC234",
"s. c #F4CD33",
"d. c #FCCC33",
"f. c #F5C33B",
"g. c #FCC23B",
"h. c #FDCB3D",
"j. c #F6CA3C",
"k. c #F5D133",
"l. c #FED334",
"z. c #FDD33C",
"x. c #F9D63C",
"c. c #EFD43F",
"v. c #9A8843",
"b. c #968852",
"n. c #AB9545",
"m. c #B99542",
"M. c #A99A59",
"N. c #B29C54",
"B. c #A58A49",
"V. c #B4A549",
"C. c #B9A85C",
"Z. c #B5A956",
"A. c #AB9C6A",
"S. c #BAA867",
"D. c #B8AB72",
"F. c #92886D",
"G. c #C29F41",
"H. c #CAAA4A",
"J. c #D7B549",
"K. c #C2A857",
"L. c #C8B656",
"P. c #D8B95B",
"I. c #D6AD48",
"U. c #EAB944",
"Y. c #F4BC42",
"T. c #FABD43",
"R. c #F3BD4A",
"E. c #F1B640",
"W. c #C9B667",
"Q. c #D2BD66",
"!. c #D0BB7A",
"~. c #D8C35B",
"^. c #ECC34A",
"/. c #EFC748",
"(. c #F4C342",
"). c #FCC442",
"_. c #F4CA44",
"`. c #FBCC43",
"'. c #F4C54B",
"]. c #FCC54A",
"[. c #F4CA4C",
"{. c #FBCB4B",
"}. c #ECD344",
"|. c #F3D442",
" X c #FDD443",
".X c #FDD946",
"XX c #FED44C",
"oX c #FEDA4C",
"OX c #F6D64C",
"+X c #E7C758",
"@X c #FCCC53",
"#X c #F7CA57",
"$X c #EFD354",
"%X c #EAD45B",
"&X c #FED554",
"*X c #F4DC55",
"=X c #FEDB54",
"-X c #F4D45B",
";X c #FED45A",
":X c #F5DB5B",
">X c #FEDB5C",
",X c #F3D453",
"<X c #FFE15C",
"1X c #D6C865",
"2X c #DBC977",
"3X c #ECCE6D",
"4X c #E7CD67",
"5X c #F4CD61",
"6X c #EBD868",
"7X c #FDD562",
"8X c #F4DB63",
"9X c #FEDB62",
"0X c #FDDC6B",
"qX c #FED56C",
"wX c #E4CE7A",
"eX c #E7D577",
"rX c #FDDD73",
"tX c #F3DA76",
"yX c #FDE163",
"uX c #FFE26C",
"iX c #F6E366",
"pX c #FEE173",
"aX c #FCE37C",
"sX c #FDE97D",
"dX c #EDE173",
"fX c #C7B682",
"gX c #EAD887",
"hX c #F6D986",
"jX c #FEE482",
"kX c #FFE68B",
"lX c #FFE986",
"zX c #F9E598",
"xX c #E8D7A7",
"cX c #F3DFA4",
"vX c #FDEAAA",
"bX c #FBEAB9",
"nX c #D8CDB9",
"mX c #FFF4D5",
"MX c #F4ECCE",
"NX c #FFF5E3",
/* pixels */
"        O + .     X               .   . o 0 .   . $ . . = - * * $ $ % . .     u <     X     X       O   O O             ",
"          O .       X   o         . . 0 - X . h Z v.n.N.Z.L.C.W.K.S.S.Z.b.j X X   i     X         O                     ",
"            O           O O #     % , .   f D X.O.R.@X&X=X=XoX=X:X8XiX6XtXeXZ.A . X r , X X   O                         ",
"              O     . O O O     % 5 $ s n.+.i.p.g. Xz.d.d.y.r.r.k.s.|.=X:XiXlXgXD.v $ . q                               ",
"                O O O   O     : * $ k H.[.j.$.`.&XoX Xz.l.l.x.x.l.l. X<X>X$X:X8XjXwXb.  . u X     X                 O   ",
"            X     O + . O   ; . . V J.<._ _  X=X&XoX Xl.r.r.d.e.0.a. X@X;X9XyX-X:XsXgXA.$   0                   O O   O ",
"  . O O   X       O   O o o & $ S J.i._ ;.h.&X=XoX.Xx.t.=.} ) Q ! @.4.T.T.@X;X;X=X$XaXzXD.% o q X             O O O   O ",
"                        X = $ V ^.w._ t.`.>X;X;X.Xk.9.) Q ^ R P 6.4.4.5.T.Y.E.@X>X>X-XtXgXA.O % < > O           O   O   ",
"    O               X X ; . k I.>._ _ x.>X;X;X>Xa.[ K Y K E E I :.2.2.a.g.T.4.E.R.;X9X9XtXgXb.. q +   O     X       O   ",
"    O       O O       X   4 H.3.6.! s..X<XyX;X`.] T T T T L L ] e.a.2.a.:.a.4.T.E.R.[.9X8XrXgXm X i                     ",
"            O O O O   . . n._.=.&.a..X<X=XoXj._ P E L L T Y Y 7.e.w.1.2.a.a.a.g.4.3.3.&X>X8XsXQ.& . y   #             O ",
"            O X O   & . k J.` U &.`.=X=XoX.X=.) E E L L T E ..e.p.p.p.h.g.a.e.a.a.2.1.,.;X7X-XhXM.. w O             .   ",
"        O       + + . $ o.<. .` p.oX;X&XoXa.} | / L T T T ] 2.4.XXXXh.p.p.a.a.:.0.:.g.3.R.qX7XrX2Xj . w     X       O   ",
"        O O       o $ b ^.e.[ 7.oX*X>X=Xa.&.] / I L L T I | 4.].=X=X{.g.1.g.a.:.e.2.g.4.<.@X7XqXtXV.$ 0 .     X         ",
"        O O   X 1   $ G.<.H ) a.>X>X=X.X-.' W T L L L T E *.4.].;X;X&X(.3.g.4.2.2.4.2.4.3.,.@X>XiXL.h . q #         O O ",
"                  X k U.&.' _ h.>X>X=Xd.{ K Y T T T Y R -.p.Y.'.>X;X;X].f.3.g.2.4.4.g.g.1.1.{.OX}.8Xv.o w             O ",
"        X     o $ $ G g.-.7.p.>X>X>X X .R T T L T T R ) f.{.{.&X>X>X>X;X{.'.g.1.a.2.a.:.a.a.,.`. X$XP.9   q             ",
"              o . 2 X.&.U ` `.=X>X=Xh. .Y L T L T Y ' ;.{.&X=X>X>X>X;X>X;X&X{.`.g.p.a.e.a.2.%.&.z.XX+Xn . u   X     O   ",
"              o . l R.! ) ` XX>X>XXX=.{ T L T L Y R =.`.&X>X>X>X9X9X9X9X>X>X=XXXg.a.2.:.:.:.6.~ e.OX%Xn.. , o           ",
"              . . B.]. .7.t.oX&X&Xh._ ] L L L L E ) p.oX=X&X=X>X;X>X>X>X=X=X=X&Xj.a.a.:.:.*.( ~ -.z.:XL.= . ,           ",
"            . X $ m.<.| ` w.<XXXoX2.^ E L L T T Q =. X>X=X=X=X>X>X9X9X>X>X=X>XXXf.g.a.e.*.| I I } d.oX~.h . e           ",
"            . . a I.%.R Q t.=X=X`...P E L L L E ) p.;X>X=X=X>X=X;X;X;X&X>X>X=X`.f.1.a.:.*.I I K P t.x.%XA   r           ",
"X         . . . l +Xe.{ 0..X&X&Xa.R E L L T L P &.{.>X9X=X<X=X[.Y.Y.Y.(.{.oXXXj.f.a.p.:.] P E L P 0.x.$XM.  - X         ",
"          O o . B <.) ' ) oX=XoX0.J ] L L L L ] 1.&X9X8X<X>X[.f.4.T.3.3.1.f.h.3.a.a.:...I Y W T P  .u.<XS.. o *         ",
"          . + . D <.U J =.oX&X X[ R I T L L E *.4.@X9X9X9X>X[.i.4.g.g.g.4.1.2.g.2.2.-.| R W Y T J ' l.*XW.5 X ,         ",
"O         + O $ F p.7.{ r.oXoX X[ T I I T L ] -.5.;X0X;X;X9X&X(.3.4.3.a.g.g.2.2.2.:.| ] T T Y T P ( r.<X2X9 X e         ",
"        . O O $ F #.U R e..XXXs.R Y L E L T | 2.E.&X7X9X9X9X&XXX`.j.f.f.f.g.2.2.:.*.] I Y T T T P ! d.yX2Xv . u         ",
"  O       .   & o. .H R e..X Xd.Y T I L K ] -.a.Y.@X;X9X7X7X>X&XoXoX X_.f.3.a.a.:...I I T T L E P ! j.9XgXM   u         ",
"              3 O.0.{ ..d. Xz.r.Y T E K I ..:.g.1.(.;X7X;X9X9X&X=X=X<X=X&X{.g.:.*.] L L T L L E ^ ! XX0XwXm X u         ",
"          X   4 O. .E ' 0.l.l.q.P T E L ] -.a.g.3.,.[.9X9X;X>X>X*X=X>X>X>X&X`.a.] R K T T L I E P _ &XuXeXm   u   .     ",
"          o   7 o.' H P 0.l.l.q.I L L E ..a.a.2.g.1.(.&X9X;X:XyX>X9X9X;X>X>XoXh.[ R T T T L I E ^ =.;XtXeXM X r         ",
"          .   4 +.0...{ q.l.l.q.E L L E -.2.a.1.;.h.3.<.@X>X>X>X;X>X9X9X7X>X=Xx.[ Y Y T T L I / | 1.=XpX1XM . t         ",
"        . .   3 o.=.[ U 8.y.l.q.E L Y ..:.e.2.a.p.a.a.1.5.3.].@X;X7X9X9X:X>XoXd.q.Y R T T L L ] >.4.&X<X1Xz   t     O   ",
"          .   $ F  .U J [ y.l.y.E K ] -.0.2.g.a.2.a.a.a.4.1.5.5.T.{.;XyX<X=X Xh.q.[ Y E T L E { 4.T.oX*X1Xz . u .     O ",
"          .   . F s.....q.l.y.q.R ' ..0.2.2.g.a.a.a.a.a.g.4.4.T.,.Y.^.,X=XOXx.l.y.{ R T L T ] :.4.T.OX*X1Xg o q       O ",
"          . . . D t.} |  .d.y.l. .| :.a.2.a.2.2.a.p.1.a.f.g.).).).i.<./.oX Xl.l.r.' E T T E | a.4.j. X*XC.7 X q     O   ",
"          X o . B ,.! ( ' r.l.l.=.=.:.2.2.2.g.4.a.f.j.`.g.g.3.1.f.,.,.`.XXz.y.l.r.' R E Y ] -.4.4.4.|.:XC.$ . <         ",
"    . O     . . x '.>.-.-.l.l.l.j.2.4.a.4.2.4.4.1.).XXoXXX`.j.f.i.(.).`.z.l.u.l.q.{ P I ] ..:.g.2.p.x.8XM.. : .         ",
"            X . s U.>.] ^ q.z.x.`.j.1.2.a.4.4.g.3.{.=X>X=X=X&X=X&X&XXXz.l.l.l.y.7.R Y I | :.2.2.;.a..X%Xv.  q X         ",
"    X       X   4 G.@.] P  .l. XoX`.f.g.2.2.2.2.3.{.;X>X>X>X=X=X9X=X Xl.l.l.l.r.W Y R ] *.2.:.:.=.s..X+Xv . u           ",
"      .   X   % . G )...7.7.z.oX=X`.f.g.1.2.4.4.T.@X9X9X>X9X>X;X>X=X Xl.d.y.y.q.Y Y E | 2.2.a.} =.d.oXL.8 o q           ",
"              . O V E.} W ..z.<X=X&X(.g.a.2.4.4.1.@X9X9X9X:X>XyX>X Xz.l.l.l.r.] T T R -.a.2.-.' r.z.:XV.% * o           ",
"        O     o . a o._ U ` h.<X>X=X`.f.g.g.4.).3.Y.'.,X9X9X>X;X=X|.z.l.l.q.{ K T I ] 0.a.a.| } t.oX%XZ . e             ",
"          O   X . & F '.9.7.`.yX9X9X&X(.).g.g.g.).Y.,.U.'.#X;X>XXXz.z.t. .' K E Y K -.e.:.:.! 0.z.*X~.g . e X           ",
"                . . V P.$.w.f.;XuX0X;X@X(.'.).4.g.g.3.3.3.<.(.XXz.z.d. .U E Y E / ' :.e.0.} _ h.x.-XN.$ - o             ",
"                + . 2 H.,.#.<.#XpXrXuX7X'.(.{.g.g.g.4.g.g.g.3.1.z.l.r.) Y E T I ^ :.:.0.-.` e.z.=X4Xv . i   @           ",
"                % . . C ;X`.'.5XrXpXpX0X;X#X`.).g.g.2.:.2.2.1.;.l.l.q.R L L L I *.a.:.-. . .l. X$XV.$ % *     O         ",
"                O + . a P.#X5X5XtXjXlXaX0X#X].).g.g.2.2.a.2.*.Q r.y.{ R L L E / :.:.a.=._ r.l.OX4Xx $ w                 ",
"              O O > . $ C wXwX3XtXhXlXlXlX8X[.'.4.g.4.2.e.-.| ~ ' ^ E T T L I | -.a.:.#.w.z.t.*XZ.. % ;       O         ",
"              O O O + . $ fXvXgXzXzXvXzXjX0X9X[.'.).4.a.:.| P I P E E T L I | :.g.2.=.9.x.s.oX~.j   r                   ",
"                O O O % . c xXMXbXbXbXzXkXjXpX-X/.f.j.g.:.^ I T L T T Y K E | :.>.a.t.y.k.OX4XB.. r .                   ",
"                    O X ; . c nXNXmXbXzXkXaXrXpX-X[.f.a.*.' ] T T T T E R ] -.2.2. Xz.x.c.8XC.$ $ :   X     O           ",
"O               X X     + <   N MXmXcXhXkXrXrXrXuX&X`.w.} P L L L L I ^ } -.e.h. X Xl.s.:XP.2 $ 5   .         O         ",
"                    O O   O >   N MXvXgXrXrXrXrX0X9XoXh.=.R E K I K P _ =.a.z..X.Xc.c.*XP.h . y . o     o               ",
"                X     X     @ # + F.cXhX+X5XqXrX0X0XoXx.u.8.9.9.-...0.e.z.=X>X>Xc.}.8X~.8 o u       o O                 ",
"                              @ O + A.hX3X#X#XqXuX<Xx.k.u.y.l.z.l.l.l. X=X>X9X%X%X6XV.- X r     . O   O                 ",
"        O                       @     m 2X5X+Xi.`.oXk.l.l.r.l.l.y.u.x.&X7XqX0XtX2XS + O 6   .     O                     ",
"            O                     @ o . . Z L.J.U.^./.|.XX`.{. Xx.}.$XrXkXhXQ.M.s X - =   +   O O     O O               ",
"          O               O   O O     *   . $ b B.N.W.1X3X3X3X3X3XeXgX!.D.A 9 . o * X   X                               ",
"          O     .         O O O O     X   < . $ $ 2 a s s f k g f s a $ $ $ . ; o     O   X   X     O                   "
};
