/* XPM */
static char *_f5677169a0c4289b11841b63465d7b6oNISeKMb4ICujhW4[] = {
/* columns rows colors chars-per-pixel */
"60 60 237 2 ",
"   c #010101",
".  c #0A0201",
"X  c #060A02",
"o  c #0B0A04",
"O  c #02020A",
"+  c #09040A",
"@  c #0C0A0B",
"#  c #130200",
"$  c #1A0200",
"%  c #130C03",
"&  c #1B0B00",
"*  c #110E0B",
"=  c #0E1208",
"-  c #151302",
";  c #14120D",
":  c #1B140C",
">  c #1C1703",
",  c #151412",
"<  c #1D1B15",
"1  c #1C1915",
"2  c #0C0D11",
"3  c #241805",
"4  c #211E1A",
"5  c #211A12",
"6  c #1D2019",
"7  c #292506",
"8  c #362903",
"9  c #24221C",
"0  c #29271A",
"q  c #211F22",
"w  c #2C2A24",
"e  c #2A2626",
"r  c #322E25",
"t  c #312D29",
"y  c #343125",
"u  c #323229",
"i  c #373531",
"p  c #4B3903",
"a  c #553D00",
"s  c #4D2C00",
"d  c #443D2B",
"f  c #4E430D",
"g  c #584206",
"h  c #574913",
"j  c #6C4E00",
"k  c #634702",
"l  c #695915",
"z  c #715305",
"x  c #7D601C",
"c  c #54512A",
"v  c #675A37",
"b  c #725F24",
"n  c #796937",
"m  c #766A2C",
"M  c #756E45",
"N  c #797248",
"B  c #886C29",
"V  c #957427",
"C  c #837435",
"Z  c #917432",
"A  c #847A49",
"S  c #87764B",
"D  c #867970",
"F  c #99843A",
"G  c #A68B38",
"H  c #B7963A",
"J  c #AE8B34",
"K  c #ECA60C",
"L  c #EDAA0C",
"P  c #E8AA09",
"I  c #F4AD05",
"U  c #FCAE04",
"Y  c #F5AE0C",
"T  c #FAAE0C",
"R  c #F0A70C",
"E  c #EDB10C",
"W  c #EBB106",
"Q  c #F3B105",
"!  c #FCB105",
"~  c #F4B20C",
"^  c #FCB20B",
"/  c #F9B80D",
"(  c #EBAB13",
")  c #E9AC18",
"_  c #FAAD12",
"`  c #F6AC16",
"'  c #EDB313",
"]  c #EEB31B",
"[  c #F4B314",
"{  c #FBB313",
"}  c #F5BB14",
"|  c #FCBC15",
" . c #F4B41B",
".. c #FCB51B",
"X. c #F4BB1A",
"o. c #FCBC1B",
"O. c #C8A637",
"+. c #DAAD3C",
"@. c #DDB633",
"#. c #EBB323",
"$. c #EDB42E",
"%. c #E7B726",
"&. c #F4B522",
"*. c #FBB622",
"=. c #F3BB24",
"-. c #FCBB24",
";. c #F4B62D",
":. c #F5BD2C",
">. c #FCBD2C",
",. c #FFB629",
"<. c #ECB835",
"1. c #E5B53B",
"2. c #ECBB3C",
"3. c #ECB738",
"4. c #F4BC35",
"5. c #FCBE33",
"6. c #F4BC3B",
"7. c #FCBD3C",
"8. c #F2B639",
"9. c #F6C11A",
"0. c #FBC31D",
"q. c #FAC017",
"w. c #F6C224",
"e. c #FCC423",
"r. c #FECA25",
"t. c #F4C12B",
"y. c #FCC32C",
"u. c #FECC2C",
"i. c #F6CB27",
"p. c #FFD22D",
"a. c #FFD227",
"s. c #EBC33A",
"d. c #ECC539",
"f. c #F6C234",
"g. c #FCC233",
"h. c #FDCC33",
"j. c #F5C33C",
"k. c #FCC33B",
"l. c #FDCC3C",
"z. c #F5CE33",
"x. c #FDD334",
"c. c #F6D33B",
"v. c #FED33C",
"b. c #FAD735",
"n. c #EEC025",
"m. c #988A4D",
"M. c #9C8C56",
"N. c #9E9355",
"B. c #A59648",
"V. c #B29445",
"C. c #B99E4E",
"Z. c #A79558",
"A. c #A08B4C",
"S. c #B6A25A",
"D. c #BDB054",
"F. c #A99E7E",
"G. c #BFAD61",
"H. c #C39E46",
"J. c #CBA644",
"K. c #D4A949",
"L. c #DBB44A",
"P. c #D0BF53",
"I. c #C7B74D",
"U. c #EDBC43",
"Y. c #E7B745",
"T. c #F3BC42",
"R. c #F5BE45",
"E. c #E8BE52",
"W. c #C8B669",
"Q. c #D2BC6A",
"!. c #C8B975",
"~. c #C2AB65",
"^. c #DBCA58",
"/. c #ECC643",
"(. c #F4C243",
"). c #FCC442",
"_. c #F3CB44",
"`. c #FDCC43",
"'. c #F3C54C",
"]. c #F5CD4D",
"[. c #FCCB4B",
"{. c #FDC74B",
"}. c #FED443",
"|. c #FFD945",
" X c #FED44B",
".X c #FEDB4C",
"XX c #F5D44B",
"oX c #E5C95B",
"OX c #F5C551",
"+X c #F6CA54",
"@X c #FDCD53",
"#X c #F3CB5C",
"$X c #FCC759",
"%X c #FDD453",
"&X c #FEDA54",
"*X c #FDD65D",
"=X c #F3DC5D",
"-X c #FEDB5B",
";X c #F6DA53",
":X c #EFD75D",
">X c #FEE158",
",X c #DDC967",
"<X c #DBC874",
"1X c #EBD56E",
"2X c #EDD666",
"3X c #F3D564",
"4X c #FDD662",
"5X c #FEDB63",
"6X c #FEDD6B",
"7X c #F7DA67",
"8X c #E4CF76",
"9X c #EDD574",
"0X c #EBD77D",
"qX c #FFDE73",
"wX c #F3DC7E",
"eX c #FDDC7B",
"rX c #F6D676",
"tX c #F3CB6E",
"yX c #FFE064",
"uX c #F9E26B",
"iX c #FCE47E",
"pX c #F9E477",
"aX c #A39F94",
"sX c #D7BF8F",
"dX c #D4C699",
"fX c #EAD684",
"gX c #F6D885",
"hX c #FCDB97",
"jX c #E1CE94",
"kX c #F9E286",
"lX c #F9E598",
"zX c #FCE8A2",
"xX c #FEEBB6",
"cX c #E0D4C6",
"vX c #F8EBC9",
"bX c #FFF2C7",
"nX c #FFFFE8",
/* pixels */
"              O             O O O O +     % 0 . . # # $ $ $ # $ % # .   t 2           X O O                             ",
"            O   O             O     .   5 : . # l V G G G V.C.C.S.N.n #   < 6   @         O                             ",
"                                      ;   # x J.+.s.d.d._.XX%X&X:XuX0XW.n X   9   X     O O                             ",
"              O                     = o # Z oXd.u.w.i.a.b.b.i.z.XX;X=XpXfXN.. . 0   X       +                           ",
"O               X     X           = o . F oX1.] ' -.h.x.b.x.x.v.&X].-X=X2XkXB.X - 1   o                                 ",
"                                =     M.9X/.f.:.g.v.v.v.x.x.x.v..X&X&X5X=X5X2XF . 0 +   X                               ",
"  O                           + @ # n gX2Xs. Xf. X`.`.l.z.n.%.%.<.U.{.$X-X_..XoXC . 4 +                                 ",
"                            + @   5 sXgX#X'.s. X%X Xv.y.X.) ] f.7.T.8.T.5.l.z.;XQ.8 . q   o   O                         ",
"                  O O O   O + + + D xXhXtX#X%X%X}.}.e.^ ^ ^ o.y.y.g.7.5.( ] l..X=XB.. t                           X     ",
"                    O O +   2   i cXbXlXgX6X4X&X}.u./ ! ! { -.e.e.y.g.,.R K &.l.XX^.h . 0     X                         ",
"                  O O O   + .   aXnXxXlXrX3X6X4Xv.X.~ ! T ..>.>.>.>.>..._ R K y.c.yXS.. 0 X X                       o   ",
"                  O O   + * . d vXbXxXzXgX6X6X%Xg. ./ / { ,.5.k.k.g.o.~ _ { ( ] f.-XQ.h . 0                             ",
"                  O +   *   . F.vXzXhXgXiXpX-X}.&.} / / X.y.j.{.%Xk.{ Q ! ! T P :.5XgXZ.. r                       .   @ ",
"                        % . & dXzXgX9XoX3XuX&Xl.&. .} E w.h.T.@X-Xk.[ / ! U ^ R %.*XeXW.. . *                   o o   * ",
"      O O             . # . c jXtXtX#X*X&X.X}.*.,.......y.g.6.@X&Xt.E Q ! ! T _ ;.R.qXfXv + u                   @     . ",
"                    + .   . m.fX$X@X+X+X&X}.h. ..._ ..,.g.4.8. X.Xi.' ~ ! ! U ..4.).4XgXN.X 0                   1 X .   ",
"                  +   @ X . J +X6.4.2. X Xv.*.{ ^ ^ ..g.4.l. X%X}.u.y.} ! ! { >.g.$.#XiX!.. - ;             X   4   4   ",
"                  O O @   3 J.j.g.:.4. X}.h...^ ^ ^ X.f.`.%X&X.X}.x.x.r.o.~ { >.g.4.OXqX<Xp . <                 4   5   ",
"          .       + + o   f E.g.y.>.h.}.v.y.{ T ^ ..:.).%X-X-X Xc.x.x.x.r.o.*.g.>.4.U.eXfXC . u                 5 . :   ",
"                    +   . b Y.&.[ [ w.x.h.o.^ ^ _ ,.g._.-X&X%X Xc.x.i.x.u. .:.g.g.6.T.6XrXA.. w               X *   o   ",
"                + +     . F U...{ [ 0.p.a.} T ^ ` 5.(.+X5X-X%X}.v.b.x.x.h.=.>.y.g.7.T.$XgX~.. 5 o             @     .   ",
"                    @ . # V.{.o.o.X.r.p.r.[ T T ,.5.(.%XyX&X}.y.=.u.h.x.k.t.g.k.g.5.T.$XeXQ.. - ;             o         ",
"                    o   # H ;.Y [ [ i.a.0.E ^ ..5.7.(.&X-X.Xy.[ L '  .*.>.g.5.g.g.5.6.OX6XW.%   <             o         ",
"                      . 8 J.;.^ {  .a.p.0.E [ ..7.7._.-X.X}.X.I ^ R ( ] >.g.>.g.>.g.7.R.6X<Xc   9             o         ",
"                    . . g L.,.| o.-.p.p.9.E { ,.5.7.(.&X.Xx.} Q ^ { { *.5.g.>.g.>.5.T.T.yX0XM   u             ;         ",
"                +   o   g +. .T Y  .u.x.} E ..5.5.7.(.&Xc.x.0./ ! ~ ` ,.g.g.5.y.5.5.7.T.7X0XM   u             ,         ",
"                      . k L.[ ^ { o.p.a.} { ,.g.5.6.T.%Xc.b.a.r.| [ *.>.g.g.y.y.>.7.7.6.-XwXN   r             ,         ",
"                    . . z U.o.| o.o.a.u./ ..y.5.5.5.6. Xc.b.a.x.u.r.k.k.5.4.f.g.>.7.R.8.*XwXS . y             1         ",
"                  + . . j 1. .! ! [ p.a. ...g.g.g.g.;.g.}.b.z.v.x.v..X`.f.t.g.g.g.7.7.8.*XgXS . r             1         ",
"              +     X . j 1. .! ~ | p.p.X.,.g.g.g.5.&.#.x.v.x.x.c..X-X-X}.f.f.g.7.k.).8.*XwXS . r             <         ",
"              +     o . z U.>.| q.0.x.u.>.5.g.f.5.>.` R =.h.v.l.}.XX5X5X.Xj.f.g.7.).R.8.4XwXA . y             4         ",
"O             +     o . k 1.&.~ ~ 9.x.v.g.g.g.g.y.,.T T P =.h.v..X&X*X4X&Xl.4.k.k.k.k.2.-XwXA   r             9         ",
"  O           O     . # k 1.) / ~ X.z.}.l.5.5.g.y.{ ^ U T K R ;.[.-X4X*X&X[.k.g.4.k.4.j.*XwXN   u         . . 4   .     ",
"            +       + # k Y.>.q.| 9.v.|.f.4.k.g.-.[ U U { Y K #.5.{.*X5X-X[.j.g.g.>.4.j.*X9XN X u     .       9   @     ",
"            O       X . a K.=.I / X.v..Xl.5.g.>.[ ~ U U { .. .y.8./.*X*X&X%X(.5.g.5.4.2.5XwXM   w             9   *     ",
"              O     o   8 J.:.I Y } v.>X`.g.g.,.Y ! ! U ..(  .g.j.2.*X*X-X.Xk.5.g.l.6.(.6X8Xv   w         . . 4 . ;     ",
"            O       *   $ H.5.| o.*.}.>X`.g.5...{ ! ! | y.=.:.f.f./.-X5X-X Xf.g.7.k.6.OX6XQ.7   4       .     1   %     ",
"                .   @   # V.;.T .. .`.&X`.g.,.{ ^ I ~ r.v.}.}.}.[.].5X4X&X`.5.g.7.7.R.OXqXQ.# . ,             :         ",
"                + . . . $ S 8.Y Y ] f.&X Xg...~ T U ~ u.v. X.X&X>X&X*X*X&X`.4.>.k.5.T.+XqXW.. ; o             * .   .   ",
"                  . X X . B j.o.0.o.h..X|.f. .! U ! [ v.}.&X-X&X;X-X-X5X-Xk.>.g.7.8.8.4XwXA.. w .             % ;   %   ",
"O               . . X X   h 1.Y [ [ =.|..Xi.L ^ U U [ l.-X&X-X-X-X&X5X-X[.g.y.y.k.k.U.4X9XC X y               . 1   :   ",
"  +     X         .   X X 8 O.=.L E ] v.|.y.E ! ^ Y ( :. X-X5X-X-X-X*X@X).4.g.g.5.8.[.6X<Xh . 0               . 4   5   ",
"                .     =   # H g.0.| -.x.|.h.[ ^ ^ T ) #.j.%X*X4X-X%X[.[.j.f.g.y.g.).].qXG.. - -                 4 . 5   ",
"                  +     X . V U.] ~ / e.x.x.} ~ ^ ^  .:.<.2.'.4X-X[.(.7.k.5.g.g.k.6.-X9XS.  7 X   O             9 . :   ",
"                +     X   . g K.] ~ ~ X.x.x.w.~ ^ _ *.g.g.<.U.%X-X[.8.g.k.g.5.g.f.j.yX8Xn X 0 X       O         ;     o ",
"                  O     * . $ J.k.q.| o.u.x.u.} Y _ -.g.g.7.T.@X5X`.5.5.g.5.g.g.f.&X7XW.>   <     O             X .   1 ",
"    O         O O       + . . B $.^ { ~ w.x.x.0.Y ..y.y.>.5.R.{.%Xl.5.y.5.5.g.f.`.%X7XG   9 X     O         .     .   : ",
"                  O O +   . # p +.( ~ W X.u.x.u.X.-.y.>.>.5.4.6.k.k.5.5.5.k.k.6.}.yXoXb . e                           . ",
"                          + X # J ).X.9.9.a.v.v.h.y.f.g.5.7.k.y.g.5.>.5.5.l.8.@X=X2XG.. > ;   +                 .       ",
"                          +   . k Y.%.} W 0.h.v.}.l.f.g.R.7.>.y.y.y.k.k.>.;.{.4X>X1Xn   y                             + ",
"                              . # V.2.E Q Q g.}. X.X`.6.7.7.g.g.k.5.k.k.y.g.-X*X=XI.. % ;   .                           ",
"                            o X . a K.f.| / y.}.&X-X&X[.8.5.k.t.:.g.k.6.h.|.;X7X,Xl o w                                 ",
"                              X . # V E.X.} W w..X&X-X5X]._.d.<.j.6.R.@X%X.X>X2Xm.. 7 X                           +   . ",
"                              + @   $ J 1.( W E l.&X-X-X>X&X;X&X'.%X-X-X6X3XuXD.& . :                                   ",
"                                  - . # H ].i.X.:. X-X%X&X-X*X4XyX%X>X-X3XlX!.8 X <     O O + +                         ",
"                                    = . & G OX$.$.$.l.&X&X&X5X4X3X5X:XuXkX!.8 X 9 X   X O O                             ",
"                                  +   o . # Z K.Y.3.%./.XX=X7XuXrXiXiXfXN.. . 4 O     O O O + +                         ",
"                                    O   * . # s V H.O.I.^.2X<X<X<X!.N.f &   1   O O     +                               ",
"                                O O   X   X : . # # & 8 7 > > 8 . . X X - X     O O                                     ",
"                                O O   X       o * * X     X X   . - : X   + O O O           .                           "
};
