/* XPM */
static char *_2084e8cb4e34ed4ed7df04257ee03c0FqCvXKCDTtFsR1vF[] = {
/* columns rows colors chars-per-pixel */
"60 60 237 2 ",
"   c #010000",
".  c #0B0200",
"X  c #060902",
"o  c #0B0B03",
"O  c #020109",
"+  c #09040B",
"@  c #0C0C0B",
"#  c #120200",
"$  c #1C0200",
"%  c #140B02",
"&  c #120C0A",
"*  c #180B0A",
"=  c #0F100D",
"-  c #0C1002",
";  c #13130C",
":  c #18100D",
">  c #1A1502",
",  c #140D12",
"<  c #0D1112",
"1  c #141313",
"2  c #1B1C15",
"3  c #1B1A19",
"4  c #200000",
"5  c #291D02",
"6  c #261904",
"7  c #311B00",
"8  c #251E14",
"9  c #1F201B",
"0  c #2E2100",
"q  c #26260E",
"w  c #342900",
"e  c #3F2A00",
"r  c #373100",
"t  c #22221B",
"y  c #2C2A1D",
"u  c #272814",
"i  c #322B1A",
"p  c #2B2B23",
"a  c #292724",
"s  c #323328",
"d  c gray19",
"f  c #432800",
"g  c #4D3805",
"h  c #543B03",
"j  c #5C3900",
"k  c #443110",
"l  c #594100",
"z  c #4E4114",
"x  c #454403",
"c  c #694300",
"v  c #674200",
"b  c #704700",
"n  c #765C18",
"m  c #685114",
"M  c #5F5730",
"N  c #4E482F",
"B  c #6E5B2F",
"V  c #6E5F3E",
"C  c #6C5627",
"Z  c #756426",
"A  c #7E6D3A",
"S  c #5A5D4A",
"D  c #796641",
"F  c #75766C",
"G  c #84691C",
"H  c #8C793F",
"J  c #917D3E",
"K  c #957725",
"L  c #8A7543",
"P  c #947E45",
"I  c #8A7D51",
"U  c #9B823B",
"Y  c #A88736",
"T  c #B6902B",
"R  c #EEAC05",
"E  c #EDAD0B",
"W  c #E6AB0D",
"Q  c #F3AC05",
"!  c #F4AD0B",
"~  c #F9AE08",
"^  c #ECB209",
"/  c #F2B303",
"(  c #F4B30C",
")  c #FBB50C",
"_  c #FDBB0D",
"`  c #F7B906",
"'  c #E6A712",
"]  c #E5AC14",
"[  c #ECAC13",
"{  c #EBAD1B",
"}  c #E8A91B",
"|  c #F4AE13",
" . c #F8AE19",
".. c #ECB214",
"X. c #ECB31B",
"o. c #EAB718",
"O. c #F4B215",
"+. c #FAB413",
"@. c #FEBC14",
"#. c #F2B51C",
"$. c #FCB51C",
"%. c #F4B81C",
"&. c #FDBB1C",
"*. c #C69D36",
"=. c #C7A03C",
"-. c #D9AC34",
";. c #D6AA39",
":. c #DCB43E",
">. c #E4AE2E",
",. c #EAAE21",
"<. c #EDB324",
"1. c #ECB924",
"2. c #ECB22B",
"3. c #EDBD2D",
"4. c #F3B520",
"5. c #FBB424",
"6. c #F4BA24",
"7. c #FDBD24",
"8. c #F3B42C",
"9. c #F4BC2B",
"0. c #FCBB2B",
"q. c #EDB631",
"w. c #EDBC34",
"e. c #EBBD3A",
"r. c #E5B637",
"t. c #F1B633",
"y. c #F3BC34",
"u. c #FDBE34",
"i. c #F5BC3B",
"p. c #FDBC3B",
"a. c #F5B43E",
"s. c #FEC10E",
"d. c #FEC31B",
"f. c #FBC117",
"g. c #FEC324",
"h. c #FFC826",
"j. c #FDC42C",
"k. c #FECC2D",
"l. c #F5C12A",
"z. c #ECC23B",
"x. c #F3C133",
"c. c #FAC335",
"v. c #FDCC34",
"b. c #F3C33C",
"n. c #FDC33B",
"m. c #FDCB3C",
"M. c #F4CB39",
"N. c #FFD434",
"B. c #FFD33C",
"V. c #F7D539",
"C. c #998143",
"Z. c #938847",
"A. c #9D8E57",
"S. c #A78A47",
"D. c #B99C4C",
"F. c #BB9A46",
"G. c #A59752",
"H. c #B29E53",
"J. c #A68E52",
"K. c #B9A856",
"L. c #B29D64",
"P. c #BBA66A",
"I. c #C9A848",
"U. c #D2AB46",
"Y. c #D7B648",
"T. c #C5A756",
"R. c #D3AB56",
"E. c #CBB059",
"W. c #E3B546",
"Q. c #E7B945",
"!. c #ECBB44",
"~. c #E6BA4B",
"^. c #F4BC42",
"/. c #FABD42",
"(. c #F2BE4B",
"). c #F9BD4B",
"_. c #EBBB52",
"`. c #E4B757",
"'. c #C3AB6B",
"]. c #D2AE60",
"[. c #C8B568",
"{. c #D9BA6A",
"}. c #CEB874",
"|. c #E0BC64",
" X c #EDC242",
".X c #EEC64D",
"XX c #F4C344",
"oX c #FAC545",
"OX c #FDCB42",
"+X c #F4C34C",
"@X c #FDC44A",
"#X c #FECD4B",
"$X c #F4CB4A",
"%X c #FFD344",
"&X c #FFDB46",
"*X c #FFD34B",
"=X c #FFD94E",
"-X c #F4D54A",
";X c #F3C354",
":X c #F2CA54",
">X c #FDCC52",
",X c #F6CB5A",
"<X c #F7C658",
"1X c #FED354",
"2X c #FFDA54",
"3X c #FFD45B",
"4X c #FFDA5C",
"5X c #F4D958",
"6X c #EBCF52",
"7X c #DCC468",
"8X c #DAD06E",
"9X c #E8C666",
"0X c #F2CC64",
"qX c #FFCD67",
"wX c #FFDB62",
"eX c #FBD169",
"rX c #F6D666",
"tX c #E7C67C",
"yX c #F8D476",
"uX c #F6D675",
"iX c #F3E270",
"pX c #FBE168",
"aX c #A09786",
"sX c #CCB989",
"dX c #C3B497",
"fX c #FDDA84",
"gX c #F8D486",
"hX c #EFD58B",
"jX c #FFE28F",
"kX c #FFDDA3",
"lX c #E1D4B1",
"zX c #FEE7A8",
"xX c #FFEBC1",
"cX c #F3E9CE",
"vX c #FFF3CE",
"bX c #FFF0D7",
"nX c #FFF8E4",
/* pixels */
"                                      X       X % # 4 4 4 4 $ # # . X ,   + O                                           ",
"                                X     .     @   . Z S.Y Y Y Y Y G.A.. X ;     X         .     +                         ",
"                                          o o . m Y. Xz.x.M. X6X5XiXZ.X u   o                                           ",
"                                    +   + &   . =.b.%.f.` ^ j.%XV.5X8Xx X q                                             ",
"                                        + & . h ;.[ R ` / / j.%XN.V.iXG.X s X                                           ",
"                                      X , . . C.XX@.) ` ` _ m.#Xg.v.wX}.. - ;   O   O                                   ",
"                                  +     , . $ D.i.+.@.) s.d.%X#X} } wXhXM   u     O O                                   ",
"                                X       . . l I.<.Q ( ( ^ 6.&Xt.' } .XfXI   s   O O O O                                 ",
"                                      X X . n Q.#.@.+.@...k.B.<. .5.!.yXP.+ u X   O O               @                   ",
"                                      X X . K b.%.@.@.&.g.B.B...5.5.i.0X}.. > -                     1                   ",
"                                      o   . T 6.E Q ~ ! 6.%Xj.{ $.5.y.<XtX0   2             O       3                   ",
"                                X     &   $ *.6.) ) ) ) 9.%X&.| #.c.q.<XhXC . a   +   X       O     t   X               ",
"                                      & . f ;.7.) _ s._ c.%X+.Q 4.#Xi._.tXP   d       X             9                   ",
"                        X             .   m r.#.Q / / ^ v.B.! Q 6.#Xi.).0XJ.. d             O       2                   ",
"                                  +   X . n e.{ $.@.( o.m.OX! ( 3.*Xi.^.<XD.. a X             O     =                   ",
"                                      . # n XX&.&.&.@.l.OXm.E { w.3Xy.XX,XE.  3 X +         O       o                   ",
"                                    @   . K r.! ! ! | O.v.j.[ ,.oX4Xb.e.:X[.. @ ;   .     O                             ",
"                                    & . # Y i.E _ ) +.5.N.j.' 8.1X4X=Xz.<X{.#   1   .   O                               ",
"                      X             @ . . D.OX@.@._ $.7.B.6.' 0.3X4X2Xz..X{.5   8     +   O                             ",
"                                    @ . # F.2.R ) Q ! &.v.X.} p.3X4X%X X+X{.N   t       O                               ",
"                                    & . # F.q.( ) ) +.7.v.X.} n.4X1X*XM.(.|.V   y       +                               ",
"                                    & . $ =.p.@._ @.@.g.v...,.OX4XoX%Xc./.9XD   i                                       ",
"                                    ; . 7 =.8.Q Q ( ! &.k.] ,.#X1Xe.m.c.^.9XD   y     .                                 ",
"                                    o # f =.9.) ) ) ( 7.k.] ,.#X#Xw.c.y.b.`.L . i +         X                           ",
"                                    o . j ;.0.&.@.@.@.h.h.' 2.>X#Xw.n.c.i.`.L . i .                                     ",
"                                    & # j ;.4.R ( ( ^ d.h.[ q.1X>Xb.c.x.i.W.L . i     X     O                           ",
"                                    + . j -.6.) ( +.( d.&.' q.1X1XoXc.y.y.W.P . i                                       ",
"                                    . # v r.j.@.@.@.f.d.d.[ t.3X4X#Xm.x.y.W.P . i             O                         ",
"                                    o # c >.#.! ( ( ^ f.d.O./.>X4X1XOXc.8.W.C.. i     X                                 ",
"                                    . # c >.#.( ( ( ( s.@.O.a.+XwX2X*Xx.2.W.C.. i .         O                           ",
"                                O   + . b q.g.d.f.f.f.d.f. .i.+X4X2X1Xx.2.W.P . i             O                         ",
"                                    o . c >.#./ ( ( / @.d.$.i.!.3X1X=Xy.<.~.U . i .                                     ",
"                                  O . # l -.%./ ` / / f.d.4.oX^./.>X1Xx.} Q.U X i       .                               ",
"                                  + X . l :.0._ s.s.@.d.h.0.n./.^.).*Xx.{ Q.L X i       O +                             ",
"                                    . # h ;.5.) ) ` ) @.g.6.n.p.i./.*Xl.{ Q.H   i .     O                               ",
"                                    % . g U.8.| +.+.+.7.j.0.n.oX^.i.*X3.{ !.H   i         X                             ",
"                                    & . f R.n.7.g.g.7.g.m.n.b.#X+XXX%X1.,.(.H   y X     . +                             ",
"                                    & . 6 T.XX4.0.6.%.0.OXb.e.#X,X#X&XX.<._.H   p .       .                             ",
"                                X   ; . $ T.+X1.6.6.1.6.%XXX X3XwX2X&X..8.`.C   a         +   O                         ",
"                                    @   . '.wXm.m.m.j.v.1X$X X1XpX2XN.[ 8.`.C   a             X                         ",
"                                    : . # '.eX+XoXp.j.9.*X$X^.3XwX2Xk.| t.`.k   3     .     +                           ",
"                                    : . . sXfX<X<XXXn.n.1X>X!.>XwX1Xg.[ ^.R.6   3         .                             ",
"                                    3 .   dXzXgXyXqX>X@X3X3X^.(.4X=X%.E ).].. X 1         + O O                         ",
"                                O   ,     aXxXkXgXyX<X;X3X3X(.+X<XOXO.| (.'.. ; =     X       X                         ",
"                                X   + O   F bXxXkXfXeX,XrX4X;X<XXXOX! [ _.P.. t X                                       ",
"                                  +   @ X F nXbXzXjXuXqX4X4X+X).@XOXQ { 9XG.  s     + +                                 ",
"                                      o   S cXxXhXyX3XXX-X3X@X)./.n.Q #.0XU   d   . O O O                               ",
"                                    . =   N lXzXgXrX+Xz.OX2X@X/.p.5.R 6.7XH o y   +   O                                 ",
"                                      1   . sXzXyXeX1XOXOX2X#Xp.u. .^ x.7Xz   u                                         ",
"                                      < X . L.uX0X+XXXx.w.*X#Xn.7.~ W $X}.. X >         O O                             ",
"                                  .   + + . Z.uX.X3.c.1.1.%X=Xx.7.O.] 6X'.% q X           O                             ",
"                                  . O   +   C 9X#Xj.k.j.9.m.2XM.#.O.x.rXA.  u X           O   O                         ",
"                                    O   <   5 T. X%.&.$.$.c.=X*Xo.]  XgXD . s                                           ",
"                                X   O   @   . S. Xo. .+. .4.*X=Xk.M.4X7X# . 3                                           ",
"                                    .   X X . Z 6Xb.7.&.+.&.v.&XN.V.5XH.. p X   O O                                     ",
"                                  .       :   w I.e.4.%.%.%.l.V.V.-X9XZ # a       O O     X                             ",
"                                O O       . . # G  Xr.X.#...1.M.-XiXK.X 5 ;     X O O                                   ",
"                                O O     + . . . $ U U.;.:.:.-.Y.7XK.x o t   X     O O O                                 ",
"                                  X       O + X   X 6 w 0 w r r 5 # # *     X                                           ",
"                                    X       O O X - X     X     . * & + +           O                                   "
};
