/* XPM */
static char *dollar111674067989[] = {
/* columns rows colors chars-per-pixel */
"60 60 240 2 ",
"   c #020101",
".  c #0B0201",
"X  c #040A03",
"o  c #0C0B03",
"O  c #02010A",
"+  c #0A0508",
"@  c #060A0B",
"#  c #0E0A0C",
"$  c #120300",
"%  c #190200",
"&  c #130C01",
"*  c #180C05",
"=  c #0C1105",
"-  c #141203",
";  c #1A1101",
":  c #13130B",
">  c #1A140D",
",  c #1C1A09",
"<  c #0F0A11",
"1  c #141413",
"2  c #1B1916",
"3  c #2D0D00",
"4  c #231906",
"5  c #341900",
"6  c #241B15",
"7  c #1C2200",
"8  c #2B2206",
"9  c #382901",
"0  c #38300F",
"q  c #2B2514",
"w  c #24231A",
"e  c #2B261A",
"r  c #2C291C",
"t  c #181F21",
"y  c #292824",
"u  c #352D21",
"i  c #31322F",
"p  c #2B2B31",
"a  c #4D2B00",
"s  c #473801",
"d  c #533805",
"f  c #5D4502",
"g  c #594903",
"h  c #584916",
"j  c #565015",
"k  c #674B08",
"l  c #68530F",
"z  c #756B1E",
"x  c #564D25",
"c  c #5C522A",
"v  c #66572B",
"b  c #776B27",
"n  c #7B6A28",
"m  c #796935",
"M  c #3E3A40",
"N  c #736C4C",
"B  c #78786F",
"V  c #856A19",
"C  c #9B721A",
"Z  c #836621",
"A  c #976F26",
"S  c #9B7C27",
"D  c #8A7B35",
"F  c #967B46",
"G  c #9E8A3C",
"H  c #A4862A",
"J  c #BB942C",
"K  c #A78534",
"L  c #B99335",
"P  c #B0963D",
"I  c #DDA914",
"U  c #E8AB08",
"Y  c #ECAD0C",
"T  c #F5AD05",
"R  c #FDAE03",
"E  c #F4AD0B",
"W  c #FCAE0A",
"Q  c #E8B70E",
"!  c #F6B104",
"~  c #FDB203",
"^  c #F4B20B",
"/  c #FCB20B",
"(  c #F5B90B",
")  c #E7AC17",
"_  c #ECAD14",
"`  c #EBAD19",
"'  c #F4AC13",
"]  c #F9AD17",
"[  c #EDB313",
"{  c #E8B415",
"}  c #ECB41B",
"|  c #F4B313",
" . c #FBB213",
".. c #F4BB15",
"X. c #FABA14",
"o. c #F4B51C",
"O. c #FBB51B",
"+. c #F6BC1D",
"@. c #FCBA1C",
"#. c #C49B2E",
"$. c #C29C38",
"%. c #DCB72A",
"&. c #CDA73D",
"*. c #D1A63A",
"=. c #DDB33A",
"-. c #E8AD2B",
";. c #EBB624",
":. c #ECBD24",
">. c #EBB729",
",. c #F2B622",
"<. c #FEB622",
"1. c #F4BC24",
"2. c #FCBC23",
"3. c #F4BD2C",
"4. c #FDBE2B",
"5. c #EBB837",
"6. c #ECBC35",
"7. c #EDBD3B",
"8. c #F5BD35",
"9. c #FDBE34",
"0. c #F5BD3B",
"q. c #FCBD3B",
"w. c #FAC417",
"e. c #F4C11C",
"r. c #FEC41C",
"t. c #F5C323",
"y. c #FEC324",
"u. c #FECB25",
"i. c #F7C22D",
"p. c #FDC22C",
"a. c #FECB2C",
"s. c #FFD123",
"d. c #FED22D",
"f. c #EEC931",
"g. c #EAC13A",
"h. c #F6C235",
"j. c #FDC234",
"k. c #FDCC33",
"l. c #F6C23B",
"z. c #FCC23B",
"x. c #F5CA3C",
"c. c #FCCB3B",
"v. c #F5D234",
"b. c #FED234",
"n. c #F4D43C",
"m. c #FDD33B",
"M. c #FFD93E",
"N. c #958648",
"B. c #968B4B",
"V. c #AA934F",
"C. c #B89948",
"Z. c #A79753",
"A. c #B9A548",
"S. c #B5A659",
"D. c #958B6A",
"F. c #AC9F7A",
"G. c #BBAD63",
"H. c #BEB463",
"J. c #BFB16B",
"K. c #BEAF76",
"L. c #D6AC44",
"P. c #DEB344",
"I. c #D2B04A",
"U. c #C7AE58",
"Y. c #C6B458",
"T. c #D8B755",
"R. c #E8BB48",
"E. c #F5BE42",
"W. c #F7BE46",
"Q. c #C8BD6D",
"!. c #D3B565",
"~. c #DAC75C",
"^. c #EDC44F",
"/. c #F4C343",
"(. c #FBC343",
"). c #F5CC42",
"_. c #FCCB43",
"`. c #F5C54A",
"'. c #FBC44B",
"]. c #F5CA4A",
"[. c #FCCC4B",
"{. c #EED346",
"}. c #F6D444",
"|. c #FDD344",
" X c #F6D44C",
".X c #FDD44C",
"XX c #F8D949",
"oX c #FDDA4C",
"OX c #F3C554",
"+X c #F7C756",
"@X c #FCCC53",
"#X c #FCCA5B",
"$X c #EDD65B",
"%X c #F4D655",
"&X c #FED453",
"*X c #F5DB52",
"=X c #FEDA55",
"-X c #F4D45C",
";X c #FDD65B",
":X c #F6DB5B",
">X c #FEDB5C",
",X c #FFE056",
"<X c #FFE15C",
"1X c #D9C667",
"2X c #DACA73",
"3X c #E4CD67",
"4X c #F6CD68",
"5X c #EBD567",
"6X c #FBD767",
"7X c #F6DB62",
"8X c #FEDB62",
"9X c #FDDC6E",
"0X c #E8CD73",
"qX c #F3CD75",
"wX c #E8D374",
"eX c #FAD976",
"rX c #FFE262",
"tX c #F6E068",
"yX c #FDE26B",
"uX c #FCE374",
"iX c #F8E478",
"pX c #8B8E86",
"aX c #D3C590",
"sX c #EDDB85",
"dX c #FAD88A",
"fX c #F8DC94",
"gX c #FAE389",
"hX c #F9E499",
"jX c #D3C8AB",
"kX c #E9DAA1",
"lX c #FBE9A7",
"zX c #FBECB4",
"xX c #FFF2BE",
"cX c #E3DFC4",
"vX c #F3EDCD",
"bX c #FDF3C4",
"nX c #FEF4CE",
"mX c #F9F9D9",
"MX c #EFF3E3",
"NX c #F9FDE9",
/* pixels */
"          O                 .       . * 2 . . $ % 8 s g g g g g d d 3 % % $ . * o .         O O         O O O           ",
"        O                         > * . . 9 m V.U.1XwX0X3X5X5X5X0X0X!.C.F v 4 . . - o                   O O O           ",
"                              o 2 + . v S.1XtX:X*XXX|.}.[..X X@X6X9X9X9X4XT.&.H f * . >     O             O O O         ",
"                            : o . x Q.sXtX,Xf.v.m.v.v.d.b.c.|.}.%X>X>X>X;X&X`.^.T.V.d $ & . O O         +               ",
"O                 O       6 . . Z.sXiXtXXXn.v.m.b.d.d.d.b.b.|.oX,X>X:X*X>X*X=X&XOX+XL.A % % *   X                       ",
"              X O O O   q . j Q.iX5X*XoX|.b.b.b.k.y.w.w.e.t.k.|.|.=X>X<X=X=X>X>X@X`.5.=.C.5 $ o X O                     ",
"        X X   O O   # 4 . b 1XiX5X*X=X|.b.r.X. .' E W / T  .2.q.l._.[.*X=X>X>X8X8X>X).g.W.I.k + X X   @ O         O   + ",
"              O + + 6 $ m 1X5X$X=X,X|.k.X.( ! T W W ~ ~ R O.4.9.q.q.h.l.|.&X>X>X>X8X=X|.0.W.T.f   = X     O     O       ",
"        X X   O   q . n 3X:X-X8X=X[.j.| T ! ~ ~ ~ ~ ~ ! X.2.j.q.q.q.q.q.h.x.}.=X>X>X>X,X|.I %.I.s . o .   O O O         ",
"                u $ l ~.%X X;X>X&Xj.| ! / ~ ~ R ! ~ ! E +.p.q.q.9.j.9.z.h.h.h.}.<X8X%X=XXXv.:.g.U.9 . o     O O O       ",
"              r . 9 ~.:X X.X=X.X4.| T ~ ~ R ~ ~ ~ ~ / O.9.9.j.j.p.j.j.W.q.z.9.4.).&X>X8X=X=Xk.:.@XL $ $ X O     O       ",
"            1 ; % C.7X{. X,X_.j.@.^ ~ ~ / R R ~ ~ ! O.4.9.8.q.j.j.p.9.q.z.q.j.j.q.[.>X&X>X=X|.3.) R.A $ & .             ",
"        X   y o V 5X*X{.,X|.z.2. ./ ~ ~ ~ R ~ ~ T | c.&X&X/.7.q.z.9.9.9.9.z.9.q.h.l._.;X>X;X=X|.+.:.R.d . o       O     ",
"          w   , T.*X{.=XXX).p.<./ R ~ R ~ R ~ ~ T @..X>X>X]./.l.z.j.j.9.9.j.j.l.l.j.z._.>X>X<X=Xa.:.l.L $ $ .   O       ",
"          r . N.7X).*X=X).8.,. .W R R ~ ~ ~ / ! Y 3.&X>X>X&X/.7.0.q.9.z.9.j.j.j.j.9.j.z..X>X.X|.i.{ ;.P.g . . +     O   ",
"  +     6 + 9 Y.-X X>X_.h.1.| / R R / ~ ~ ! / ^ ;.z.&X>X>X&X`.7.8.q.8.9.j.q.9.9.9.j.4.j._.oX|.m.b.i.} g.U.$ . #         ",
"O   . . y   G 5X XoX[.l.9.O./ ~ ~ ~ ~ ! ! Y [ 1.c.&X>X=X>X8X;X X[.).l.0.8.q.9.9.9.9.4.j.i.m.m.c.m.b...f.R.k . # .       ",
"O   . 4   . A.%X}.oX[.q.2.O.R ~ R ~ ~ T ^ | i.|.>X>X>X>X;X8X8X>X>X=X@X[.0.0.q.q.q.9.4.4.i.t.a.m.k.b.Q Q 5.H $ . o       ",
"O   . q . m 3X=X}.oXq.9.<.W R ~ ~ ~ ~ ! @.a.|.=X>X;X;X>X8X8X8X8X8X8X>X>X@XW.E.W.q.j.j.4.+.[ t.b.m.m.w.e.:.L.9   .       ",
"    . 4 + B.$XXX=X|.q.<.] W ~ ~ ~ ~ ! ^ u.|.oX;X>X8X>X>X8X-X>X8X:X:X8X;X8X'.E.q.z.j.j.p...T +.k.k.b.s.w.1.].n . ;     O ",
"O   4 + . G.7X=XoXc.4.O.W W ~ R ~ ! ( r.m.|.=X>X=X>X>X;X>X>X>X>X>X<X:X>X;X`.E.q.9.9.j.2.^ ! ^ u.b.b.u.w.U >.K . &     O ",
"X   e . j 2X$X.X.Xh.@.W W W R / ~ ! X.u.|.&X>X8X>X>X&X.X[..X&X=X=X>X>X>X@X(.0.9.j.p.1.| | ! ! r.b.b.a.u.X.j.A.* . o   O ",
"    w . D wX8X>X&X3.| T ~ R R / ~ ! w.k..X&X8X>X*X].`./.l.j.l._._..X.X.X(.z.9.9.p.2.O.E ! ~ W @.b.b.M.k.+.4.R.f $ +   O ",
"  = 2   Z.eX8X>X(.;.! ! ~ R R ~ ~ ^ e.|.=X=X>X>X X7.7.(.0.8.8.8.z.z._._.z.z.9.p.4.@./ ! R ~ T | k.m.|.|.} ) =.V . + O O ",
"X : = . H.9X8X&X8.` / ! ~ ~ R ~ / E 2.oX>X>X>X>X&X7.5./.(.z.q.9.q.q.q.q.9.4.4.2.2./ R ~ ~ ~ R E a.|..XoXp.o.6.H . : +   ",
"X ,   o Y.8X>X.X,. ./ R ! ~ ~ ~ R ^ h.=XrX8X>X>X&X`.R.5.0.0.q.q.q.q.9.q.9.8.p.y.@.W R ~ ~ ~ R E j.oX=X=Xa.,.c.$.. 1     ",
"  w X 0 !.yX8X_._ E / R ~ ~ ~ R W O.z.>X:X:X>X>X>X;X;X@XE.0.E.0.q.q.q.q.9.j.p.2. .T ~ R R ~ R E h.=X=X=Xk.U ;.J . =     ",
"  r   x 3XrX=Xh._ / / ~ ~ ~ ~ R W O.z.&X8X>X>X>X>X;X;X8X8X;X@XW.E.0.E.E.z.9.4.O.E W ~ R R ~ R  .h.,X>X>Xk.| 3.#.o   .   ",
". r O c 0XrX Xp.E W ! ~ ~ ~ ~ T  .2.j._.&X>X>X>X8X8X8X;X6X6X;X&X;X@XW.5.q.j.o. .W W ~ R ~ R R o.c.=X>X>Xx.i.i.=..   .   ",
"  r X v 3X>X_.p.E W / R ~ ~ W / <.p.j.z..X=X>X>X>X-X8X>X;X8X>X>X8X;X#X'.8.4.O.^ T ~ ~ R R ~ O.<.).>X>X=Xx.) } &.& O .   ",
". q . x 1X*Xm.y.E W / ~ / R / O.2.j.z.h.(.[.&X=X>X>X>X>X>X>X>X>X>X8X8X&X8.} | / R R ~ R R / O.4.|.>X8X>Xm.) >.&.;       ",
". r . x ~.}.b.y.E W R ~ R R  .<.p.j.z.h.h.z.c._..X=X>X>X>X>X*X:X:X>X>X>Xc.) E ~ ~ R R / R O.2.p.|.*X8X>Xb.+.z.&..     + ",
"  e . c ~.n.b.u.E W R R R E O.y.p.8.z.9.j.j.4.j.l._..X.X&X=X>X>X:X:X>X=X|.[ E R ~ R R W ] <.4.j.|.=X8X>Xp.[ >.J . + +   ",
". w . 0 Y.XXb.u.' ] W W W  .2.p.j.8.j.l.9.j.j.j.8.8.0.(._.[.*X>X<X>X*X|.|.o.T R ~ ~ W W O.<.p.j.}.>X8X&Xa.| >.J $ 1   O ",
"+ 2 . $ A.*Xm.u.] ] W W  .@.p.p.j.q.q.q.z.j.j.z.j.h.0.q.q.W.'.;X<X>X=X|.c.2.T ~ ~ ~ ~ ] 4.9.j.h. X<X=X|.y.@.c.L $ 1     ",
"+ < > . A.:Xm.d.o.' ] W O.p.j.2.p.j.j.9.z.q.8.8.l.(.z.z.q.q.(.@X>X>X|._.c.2.T ~ ~ ! / 2.9.j.p.h. X>XoXm.| _ 7.S . <     ",
"  O 6 . G :Xn.d.,.'  . .2.4.p.9.j.j.9.z.h./.0.7.7.0.0.0.q.q.`.&X=XXX}.c.m.@.T ~ ~ ! O.p.4.z.j.x.=X,X|.a.| o.7.k . #     ",
"O + e . z ~.n.b.4.` Y @.p.j.j.4.4.9.9.l.[.&X;X&X]./.l.0.E.(.@X=X=XXXm.M.k.o.W / / / <.p.9.j.8.c.=X.Xm.a.r.h.R.d .       ",
"    q   g ~.{.d.k.` _ a.j.j.9.9.4.4.9.q.].;X8X8X8X;X@X@X&X&X>X,XXXn.v.b.a.| E / ^ X.p.j.j.4.8..XoXn.b.t.[ ;.C.$     .   ",
"    * o   S.*Xv.c.;.o.j.l.l.j.j.9.j.z.z.&X>X8X8X8X8X>X>X>X>X,XXXn.v.m.b.@.^ E  .| 2.j.9.p.3.x..X.XM.b.e.[ 7.K . *       ",
"    o 4 X N.$X{.|._.0.8.l.l.z.j.j.j.z.(.&X8X>X-X;X8X>X;X>X<X,Xn.v.b.d.u.^ / W W @.4.j.j.p.i._..Xm.m.a.t.t.OXh . &       ",
"      e   j ~.*X].&X`.E.(.z.z.z.q.q.z.l..X>X8X>X8X>X8X8X>X,XoXm.d.d.r. .E  ./ O.4.j.j.z.p.h..X|.m.b.e.{ 3.&.. .     .   ",
"      1   & P <X:X8X#XW.(.(.(.z.z.z.z.l.[.&X=X=X;X>X;X;X6X>XM.a.u.w./ T ~ / / @.p.j.9.j.8.c.|.|.M.k.Q { 5.C $ 1 O       ",
"X   X   p . n 5XeX9X9XOXW.(.(.(.(.(.(.z.0.(./.].&X>X8X>X>X.Xj.t.X.T R W / R  .2.p.j.j.h.j.|.c.k.m.d.t.i.R.a .       + . ",
"        1 . o H.gXeX6X8XW.+XW.'.[.(.z.(.(.W.l.q.7.`.>X>XoXk.} Y / W R W W W 2.4.j.j.h.h._.|.m.b.b.t.) 0.K % -         X ",
"        X e . N kXgXiXuX4X4X#X#X'.'.'.'.W.q.q.z.0._.=X&XoXt.[ E R R R R / @.2.j.j.h.h.z..X|.k.d.d.{ ;.=.a $ X O O       ",
"          : - . K.hXgXgXgXqX4X4X4X+X#XW.(.W.z.j.8.x.|..Xm.y.^ ! ~ ~ ~ ! / +.p.j.h.h.z.|.|.|.a.b.w.t.^.K $ & @ O         ",
"        O   r   c kXlXgXhXgXqXqXeX4X4X@X'.z.z.j.i.k.k.a.y.X.! ~ ~ ~ ! ! @.p.k.z.l.l._.oXd.d.b.y.U >.T.3 .   O         . ",
"      O   +   e $ F.bXlXlXlXhXfXdXeX#X@X'.z.z.z.j.y.e.Q ~ ! ! ~ ! ! ^ @.4.z.q.q.(.[..X|.b.u.d.o.;.=.f . o       O       ",
"        O O   y . ; jXnXbXzXxXzXfXqX4X+X[.(.z.z.9.2.^ ! ! R R ~ ! ( O.2.j.q.q.W.[.=X&Xc.b.b.t.i.OXS % : X @ O O O       ",
"        O O O   i   N vXNXMXmXbXlXdX4X+X[._.z.j.4.O.W W R W R W /  .@.p.q.l.l._.oXoXXXv.b.} { x.V.$ .           O O     ",
"              +   p   pXNXNXmXbXzXfXqX4XR.`.(.j.<.] ] W R R W  . .o.1.q.h.).oX,XoXm.v.m.h.>.g.H . . & +     X X O O     ",
"            O     2 w O pXMXNXbXlXhXgXeXeXW.W.W.` ] ] W T T ! E ' 1.z.). X>X*X,X|.M.k.i.6.OXC.$ . >                     ",
"              O   X 1 t . B cXvXzXgXhXgXeX6X#XE.-.` ` ' ! [ [ } 3._.=X&X>X<X=X=X}.h.1.h.R.P $ . 4 . +               O O ",
"                    @ 2 p   u aXzXlXgXiXyXrX=X|.b.k.j.y.2.t.p.c.&X>X>X>X=X=XoX.Xl.x.3.*.Z % . >   .   +                 ",
"          X             < M   . D.aXhXgXtX:X{.n.m.m.m.M.b.m.|.=X8X8X;X;X&X=X.X[.;XR.$.l % 4 4   + + +           +       ",
"        O                   i     q D.aXfXiX*Xn.v.v.v.m.c.c.n. X-X8X8X8X&X@XOXL.A.D % + ; - . +                         ",
"                      . X     t p     8 N.A.1X$X,X:X-X-X$X,X9XyXuXiX9X3X3XC.S Z % $ . w X   O X   O                     ",
"          O       + .       X     w u   . * h m Z.S.S.H.H.H.J.1XJ.S.Z.N.l s . . $ e 2         + O                       ",
"          O             . .     @     w r . $ . . . . o 7 = : ; & . $ . . . $ 6 >     .       O O   X       O           "
};
