/* XPM */
static char *dollar101674067989[] = {
/* columns rows colors chars-per-pixel */
"60 60 238 2 ",
"   c #010101",
".  c #0B0201",
"X  c #050903",
"o  c #0B0A02",
"O  c #030109",
"+  c #0A050A",
"@  c #060808",
"#  c #0B0B0B",
"$  c #0D0D0E",
"%  c #120300",
"&  c #130B01",
"*  c #170904",
"=  c #151403",
"-  c #1D1401",
";  c #1D1A04",
":  c #15120B",
">  c #1B160C",
",  c #181413",
"<  c #1D1B13",
"1  c #250D00",
"2  c #241705",
"3  c #2B1B00",
"4  c #241D15",
"5  c #2C2200",
"6  c #372805",
"7  c #3C2A00",
"8  c #262316",
"9  c #282714",
"0  c #25211D",
"q  c #2B241C",
"w  c #2C281C",
"e  c #30271A",
"r  c #2B2523",
"t  c #2D2A23",
"y  c #302B23",
"u  c #343127",
"i  c #453601",
"p  c #473806",
"a  c #584703",
"s  c #564715",
"d  c #5F5318",
"f  c #674C09",
"g  c #6E5710",
"h  c #76581F",
"j  c #676019",
"k  c #796419",
"l  c #564B29",
"z  c #675A29",
"x  c #775F33",
"c  c #766729",
"v  c #726D2C",
"b  c #766D37",
"n  c #646059",
"m  c #8E741A",
"M  c #846B25",
"N  c #86742E",
"B  c #92793B",
"V  c #877A45",
"C  c #988226",
"Z  c #A88C29",
"A  c #B79133",
"S  c #BD9C35",
"D  c #EEAA0A",
"F  c #EEAC0C",
"G  c #F4AE06",
"H  c #FDAE03",
"J  c #F4AD0C",
"K  c #FCAE0A",
"L  c #ECB007",
"P  c #ECB20E",
"I  c #F6B204",
"U  c #FCB103",
"Y  c #F5B20B",
"T  c #FCB20B",
"R  c #FAB90A",
"E  c #E8A716",
"W  c #EBAC13",
"Q  c #ECAD1A",
"!  c #F5AE14",
"~  c #FCAE12",
"^  c #F5AE1B",
"/  c #E7B316",
"(  c #EDB313",
")  c #ECB41A",
"_  c #F4B414",
"`  c #FBB313",
"'  c #F4B915",
"]  c #FBBC15",
"[  c #F3B41B",
"{  c #FCB51B",
"}  c #F4BA1C",
"|  c #FDBA1B",
" . c #CC9C2F",
".. c #D0A62F",
"X. c #CAA536",
"o. c #D3A936",
"O. c #D9B63C",
"+. c #EEAF27",
"@. c #F5AF23",
"#. c #ECBB22",
"$. c #ECB828",
"%. c #F5B623",
"&. c #FBB623",
"*. c #F4BC24",
"=. c #FDBC24",
"-. c #F9B52D",
";. c #F5BB2A",
":. c #FEBD2B",
">. c #E9B737",
",. c #ECBB34",
"<. c #EDBC3C",
"1. c #F4BD34",
"2. c #FDBE34",
"3. c #F7B73B",
"4. c #F3BD3B",
"5. c #FCBD3A",
"6. c #F4C017",
"7. c #FDC21D",
"8. c #F3C325",
"9. c #FCC324",
"0. c #F7CB27",
"q. c #FFC925",
"w. c #F5C22C",
"e. c #FCC32C",
"r. c #FDCC2C",
"t. c #F7D72C",
"y. c #FBD32D",
"u. c #EEC637",
"i. c #F6C334",
"p. c #FDC234",
"a. c #F3CB36",
"s. c #FCCC33",
"d. c #F5C23B",
"f. c #FDC23B",
"g. c #FCCB3C",
"h. c #F5D034",
"j. c #FED334",
"k. c #F4D33E",
"l. c #FDD33C",
"z. c #FDD93B",
"x. c #998846",
"c. c #958953",
"v. c #A38A44",
"b. c #AB9545",
"n. c #B99542",
"m. c #A78B52",
"M. c #A99A59",
"N. c #B39C53",
"B. c #B4A54A",
"V. c #B3A656",
"C. c #B9A85B",
"Z. c #91886D",
"A. c #AB9C6A",
"S. c #BAA867",
"D. c #B8AB73",
"F. c #C29F40",
"G. c #C7AA4B",
"H. c #D3AC48",
"J. c #D8B549",
"K. c #C7B656",
"L. c #D6BB5B",
"P. c #EAB945",
"I. c #F4BC42",
"U. c #FBBD42",
"Y. c #F3BC48",
"T. c #C6B365",
"R. c #D1BD67",
"E. c #D1BB7A",
"W. c #D7C35D",
"Q. c #EFC545",
"!. c #ECC34A",
"~. c #F4C343",
"^. c #FCC442",
"/. c #F4CA44",
"(. c #FCCC43",
"). c #F4C64B",
"_. c #FCC54A",
"`. c #F4CA4C",
"'. c #FBCC4B",
"]. c #EDD344",
"[. c #F4D442",
"{. c #FDD444",
"}. c #FCD945",
"|. c #F7D64C",
" X c #FED44C",
".X c #FEDA4D",
"XX c #E7C758",
"oX c #FCCC52",
"OX c #FACB55",
"+X c #F5CB5B",
"@X c #ECD455",
"#X c #ECD45D",
"$X c #F3D453",
"%X c #FED454",
"&X c #F4DB55",
"*X c #FEDA54",
"=X c #F4D45B",
"-X c #FED45A",
";X c #F5DB5B",
":X c #FEDB5B",
">X c #FFE15C",
",X c #D7C965",
"<X c #DBC978",
"1X c #E8CC66",
"2X c #ECCE6D",
"3X c #EBD867",
"4X c #FCD561",
"5X c #F4DC62",
"6X c #FEDC61",
"7X c #FFD56C",
"8X c #FDDB6B",
"9X c #E4CD78",
"0X c #E6D577",
"qX c #F3DC75",
"wX c #FDDD73",
"eX c #F8D478",
"rX c #FDE264",
"tX c #FBE26A",
"yX c #EDE173",
"uX c #FEE172",
"iX c #FDE37A",
"pX c #FFE97D",
"aX c #C7B582",
"sX c #EBD887",
"dX c #F6D986",
"fX c #FDE482",
"gX c #FEE888",
"hX c #FAE597",
"jX c #D8CDBA",
"kX c #E9D7A6",
"lX c #F3DFA4",
"zX c #FDEAAA",
"xX c #FAE9B8",
"cX c #FFF0B3",
"vX c #F6EAC6",
"bX c #F6ECCF",
"nX c #FEF5D5",
"mX c #FFF5E2",
/* pixels */
"                        X   X       X o : . % % % i a a a a a a p i 1 % % . : X         O O O   +           O           ",
"                O   O         @   X = X . 6 V D.E.sX0X2X1X2X2X1X,XT.N.m.x % .   =     +                                 ",
"              O     +       + . : ; . i V.R.gXgX7X=X].k.(. X/.|.|././.J.J.K.N . X o #                   O   O           ",
"                +             4 . + C <X0XqX8X-X$Xl.y.y.j.j.y.j.j.h..X(.d.!.1X<Xb .   #                     O       X   ",
"              O +           9 o 2 B.3X@X@XrX:X*X{.j.s.j.l.j.t.t.h.[.:X8X7X+X+X2XsXA.+   $     X     X                   ",
"                  .       t X 7 W.5X].[.>X>X*Xg.e.9.9.=.9.8.0.y.z..X6XwXwX7X+X+XeXlXZ.O + $     X     O                 ",
"              @     . . r . s L.@X[.a.}.}.{.p.;._ J K H I Y R } s.*X6X8X7XwXwXwXsXzXvXn   $ O O       X                 ",
"                  o   4 . 1 L.;Xh.h.{.'.s.e.*._ ! J H H H H J _ i.(.-XtXwX7XwXgXhXkXnXbXn   , +   O   X             O   ",
"                .   > % + S.5Xk.l.j.(.f.p.=.` T K I U U U T ! &.p.d.`.=XuXwXfXhXhXxXnXmXjXl . :   +                     ",
"        O         . 9 . Z 1X|.h.h.s.p.-.:.&.Y G I U I H U T { :.f.f.u.`.=XuXfXgXlXcXxXvXbXkXl % * + O O                 ",
"                  8   d W..Xa.z.8.%.2.p.:.{ H H U T K J J J { :.2.5.U.^.).8XwXfXhXhXhXhXsXzXaX% % + O O O               ",
"                : & o C.;Xh.j.8.8.;.2.-.{ K H H T T _ ! ! ` =.:.2.2.^.f.~.`.8XpXgXgXdXeX2X9X9XB % . $ O O               ",
"                q % k 1X|.j.s.) *.p.e.:.~ T H H I ] y.s.W %.:.p.:.2.f.f.(.).+X8XpXfXfXwX1X+X`.L.7 . +                   ",
"        O     = * % B.$X[.j.} } =.:.p.&.K H H H ' q.j.s.1.1.2.2.2.2.f.f.f._.oX=XtXiXiXwX4X).(.-XB . % +                 ",
"          #   u . h 1X*Xg.r./ 9.:.:.=.! K U T I _ r.j.l.1.4.f.^.f.5.5.f.f.'.).).6X8XwXwX+X>.#.<.G.1 . o                 ",
"            o ; . N.3Xk.s.[ [ :.e.e.` K T I T L ) s.j.{. X~.>.4.I.5.f.5.5.^.~.~.oX4X6XtX=Xd.w.;.XXh . .                 ",
"          . q . s W.$Xl.e.W :.e.e.=.J U U G _ } 0.l.l. X:X%X`.).P.<.4.^.U.f.f.^.~.%X:X6XrX(.8.8./.n.* . @ O O           ",
"X           w . N #X.Xr.{ [ :.p.:.` T U G ' q.s.j.l.[..X-X6X8X6X-X).~.4.f.5.f.f.d._.:X:X:Xg.P ( )  .i . .               ",
"        X o > % B.|.[.r._ :.2.2.=.Y I U R r.j.l.l.g. X:X6X:X:X6X6X6XoX4.5.2.5.2.f.~. X*X*Xz.] ] | P.c . o X       .     ",
"          0 o 7 W.|.s.=.[ e.2.2.` T I I q.j.j.r.j.z.*X:X;X:X6X4X4X:XoX5.5.f.2.2.f.d.'.*X.Xl.7.7.| f.A . o   X   .       ",
"          r . z XX}.h.*.=.2.p.=.` Y I R r.j.j.s.j.{.%X6X:X*X*X:X6X:X'.4.5.2.2.f.f.i./. X{.j.| J ` +.F.3   @       .     ",
"          q . V @Xk.s.;.2.2.:.` T J T 7.y.j.j.l.{. X%X%X.X%X*X:X*X%X'.4.5.5.2.2.2.1.g.{.z.j.9.! ` -.J.a . X             ",
"        o > X M.rXl.d.2.f.:.| T G T _ r.j.t.j.z.g.(./.u.d.~.(. X.X'.^.1.5.f.5.2.p.1.f.i.h.j.j.=.&.:.Y.k . @ X           ",
"        , o . C.;Xk.f.3.5.:.` U U J _ r.t.y.z.}.^.<.<.d.4.1.d.g.(.g.i.5.2.f.2.2.p.:.;.*.j.j.s._ ^ Q <.m . o           X ",
"        4 . 5 K.@X}.^.5.2.{ T U U K ' r.j.h.{.|.Q.P.~.~.^.^.d.f.i.1.p.p.2.f.2.p.e.:.| ) j.r.y.} { ^ i.Z . o .           ",
"O       r . s ,X&X{.~.f.:.` K H T Y ] y.j.l.|.*X$XQ.4.4.U.5.1.f.p.p.p.p.2.p.2.p.e.| _ Y r.j.j.q.| =.r.S .   .           ",
"O     . w   j ,X&X|.^.5.| T H H U I Y r.j.{.:X>X;X-X_.U.I.I.3.2.f.p.p.e.p.p.2.e.=.` H T y.j.y.6.L P ) S *   .     X     ",
"O O     w   j ,X:X.X4.-.` H H U T I I q.g..X:X:X6XrX:X-XoX_.3.1.1.2.p.p.p.2.:.:.| T H I r.r.j.7.Y ' 8.X.1   .           ",
"      . y   c ,XwX-Xi.[ K K H U U I R ' l..X-X4X5X4X:X:X-X:X6XoX>.<.f.1.2.p.p.=.T H H T q.j.y.q.] ] 9.O.3   X           ",
"        e . v 0XwX%X;.! ` H H U U I L ' g..X:X6X4X:X:X>X6X:X;X6X%XI.<.d.1.p.2.| T U H K q.j.j.9.F J [ ..5   .           ",
"        t   b yXwX%X%.J T K H U U I Y ' p.(.%X:X:X:X*X:X*X:X-X6X6X'.,.4.f.p.=.` H T H K q.j.j.9._ ` } ..3   X           ",
"        t X b 0X8X'.Q ! K H H U H T ` | p.f.(.%X*X>X*X*X;X6X4X-X6X-X~.1.f.:.| J G U U J r.l.{.s.| ] 9.o.2               ",
"        t   v <X5Xa.Q J T U H U K K { :.p.p.f.d./.{. X.X*X-X-X7X:X-XoX3.p.=.` G K U I I s.{.}.e.F F #.X.%               ",
"        t . z sXtXs.Q J U U U H K ~ &.:.2.2.5.i.d.d.d.(..X%X6X6X6X6X-X4.2.{ I H K K I ' s. X.Xw.Y Y *.S %   + .     O   ",
"        r X 6 <X>Xr.[ J U U I T ` { :.2.2.2.f.f.f.1.1.4.~.%X6X:X4X8X-X3.=.` H H U H I ' {..X.Xr.] 7.a.S % . +         O ",
"        < @ 2 T.&Xy.[ J I U I Y { =.:.p.p.f.1.5.f.5.^.f.<.'.;X:X6X6XoX4.{ T H H K K T ' {.*X.X%.L P >.Z . + .           ",
"        = X . S.>Xt.} J U R U Y | :.p.f.d.f.d.4.4.5.U.U.d.`.*X;X4X6X%X1.! H U H H T J 9..X:X}.) ' _ >.m . . . .         ",
"        X ; o M.@Xj.e.D I U I ` :.:.f.i.~. X.X'./.I.I.I.'.&X>X:X6X6X_.%.Y H H H H T ! s.%X.X{.9.] w.!.g . o             ",
"X         9 . V @Xk.e.F K K J =.e.p.i.d.{.*X:X*X-X-X-X-X:X*X*X*X:X-Xd.) T H H H K J %.g.*X*Xw.( Y $.H.i . .           X ",
"          9   s W..Xp.{ K K { =.:.2.d.d. X*X*X:X:X:X-X6X:X*X*X*X*X X*.Y H U H U T ! p. X.X>Xw.P [ ,.n.% .               ",
"        X < . - K.;Xl.=.W ^ &.:.:.2.p.d..X*X*X;X;X:X:X-X:X*X*X*X.Xi.( T H H H U ` ) g.*X-X.Xw.7.&._.v.. .               ",
"          . > . b.#X{.w.E ^ :.:.:.2.p.d. X*X:X:X6X6X6X6X:X*X-X*X{.%.Y I H U H I ] ;. X:X:X X/ ' ^ Y.h . . X             ",
"        X   r o c XX*Xl.$.$.2.p.e.p.p.f.(. X%X%X:X;X:X:X:X%X%X'.w._ I U H U I I [ g.*X:X*X(.P P @. .1   X               ",
"O           r   6 L.$X[.(.1.i.p.:.2.2.p.1.5._.'.-X-X:X:X%X%X'.d.( Y U U U U U Y %.{.*X:X*X;.8.9.3. .%   X X             ",
"O O     X     q o v.3X].'.'.;.1.f.f.2.5.2.f.4.4._.%X:X:X).I.1.=.Y H U U U I I { s.*X6X:X'.) _ %.P.f . X X     O O       ",
"O         X @ 4 . s K.tX6XoX<.4.5.2.5.2.2.p.f.d.~.%X:X-X_.5.&.T G U U U T ` Y =.{.*X;X:Xe.( F ,.n.% . # X   O O         ",
"O             . 8 . B.qX7X4XOX>.5.f.2.e.:.f.f.1.f.'.*X-X_.5.{ G U H H K J ` &.f.*X:X*X.X7.' r.!.h % o         O       X ",
"          X     q . d <XwX7X7XY.4.f.:.e.:.p.p.1.i.(.{. X5.2.` H U H H ~ ` [ p..X*X*X|.u.P ) >.X.% . + @     O           ",
"                  e . M.iX4X4X-XI.1.1.p.e.p.p.p.p.i.i.w.e.{ T U H H T T _ *.{.>X.X.X{.#._ / J.f . * +   +               ",
"            X @ O 0 . * R.iX5X:XoX<.3.5.f.p.p.p.p.1.i.w.7.Y I U H H K J ) a..X*X>X.Xp.&.%.Q.b.% X     . O O O           ",
"+                   u . x sXyX5X6X'.Y.I.U.5.1.e.2.p.p.e.R H U T U U U ` (.:X>X>X.Xi.Q @.<.G.3 . X X     O O       +     ",
"    +           O O @ q . c.gX0X5X6X-XY.P.U.5.f.p.2.5.:.K T T K I G _ s.-X-X;X:Xk.) Q ,.H.f . : X                     . ",
"    O O             $ , o . A.hXqX=X:X:X_.P.U.U.3.5.5.&.J J W W / 8.j.}.-X-X-X{.w.8.w.!.M % -                   +       ",
"O   O O       X     O O 4 X . D.hXiX@X*X4X-XOXY.U.5.+.E W ( [ 9.0.l.}..X*X%X(.-.) >.O.C % & o @ .         X X           ",
"  O O O                 X 8   % A.sXiX@X&X>X7XoXoX{.s.9.e.s.y.s.l.{..X$X*X{.[ Q >.H.M o . :   +   + O O   X             ",
"O     O           X   X   X t . . c.sXfX5X;X$X:X*X{.l.j.z.z.j.h.j.{.%X.X/.w.d.`.H.g . = >   O +   +   O                 ",
"                          O   8   % z D.sXgXtX&X&X].h.t.s.r.r.s.s.{.{.g.w.O.O.A p % 2 & X   O O +     O O               ",
"                        O O X X > w . . b C.yXyXyX5X5X5X*X*X*X*X%XoXI.o. .Z a o X < *     X   O         O O             ",
"                O                   u   . . l c.V.S.C.C.K.C.K.C.N.b.x.N s . . 2 4 o           +   X   X   . +           ",
"    X           O                     < r   . . . & % & = = ; - o . % . . o 4 o .   %               X   .   +         X "
};
