/* XPM */
static char *door_o1674209831[] = {
/* columns rows colors chars-per-pixel */
"60 60 237 2 ",
"   c #020101",
".  c #0B0101",
"X  c #050509",
"o  c #0C0A0B",
"O  c #0C0807",
"+  c #150401",
"@  c #190500",
"#  c #160804",
"$  c #1B0904",
"%  c #140B09",
"&  c #1B0C09",
"*  c #110708",
"=  c #18110E",
"-  c #151314",
";  c #1C1413",
":  c #1A1B1F",
">  c #230901",
",  c #3B0D00",
"<  c #28170B",
"1  c #3E1100",
"2  c #3D1D03",
"3  c #361B08",
"4  c #241613",
"5  c #261815",
"6  c #2A1A13",
"7  c #251B19",
"8  c #281918",
"9  c #321D16",
"0  c #38220A",
"q  c #2C221A",
"w  c #332213",
"e  c #3B2718",
"r  c #3C311F",
"t  c #292625",
"y  c #352B24",
"u  c #3C2D23",
"i  c #332B2B",
"p  c #382C29",
"a  c #3D332D",
"s  c #3B342A",
"d  c #343234",
"f  c #3B3432",
"g  c #3B3A3B",
"h  c #37363B",
"j  c #302F2F",
"k  c #431300",
"l  c #471C02",
"z  c #44240C",
"x  c #4A250B",
"c  c #482308",
"v  c #432916",
"b  c #422B1C",
"n  c #452716",
"m  c #54331C",
"M  c #4A2C14",
"N  c #442D23",
"B  c #433225",
"V  c #4B3425",
"C  c #42342C",
"Z  c #4A362B",
"A  c #4C3A2E",
"S  c #44392C",
"D  c #533523",
"F  c #413632",
"G  c #4C3B33",
"H  c #453C39",
"J  c #513D34",
"K  c #653F32",
"L  c #3B443E",
"P  c #4B423D",
"I  c #47423D",
"U  c #574439",
"Y  c #7B4C2D",
"T  c #744929",
"R  c #6B4E3C",
"E  c #654C39",
"W  c #7A4D31",
"Q  c #734D37",
"!  c #68503D",
"~  c #7C5135",
"^  c #78543A",
"/  c #71482B",
"(  c #3C3D43",
")  c #3D3540",
"_  c #423E44",
"`  c #443E4D",
"'  c #3D4144",
"]  c #3E434B",
"[  c #3D4747",
"{  c #434245",
"}  c #4B4242",
"|  c #43444B",
" . c #494549",
".. c #44494B",
"X. c #4B4A4C",
"o. c #464A46",
"O. c #564947",
"+. c #4A4B56",
"@. c #595454",
"#. c #5D534A",
"$. c #664E42",
"%. c #655144",
"&. c #6A5242",
"*. c #69554D",
"=. c #7A5B44",
"-. c #795D4B",
";. c #775945",
":. c #665A55",
">. c #725D52",
",. c #77635A",
"<. c #736153",
"1. c #746464",
"2. c #766963",
"3. c #7B6B6B",
"4. c #796965",
"5. c #736965",
"6. c #8B573A",
"7. c #855A3B",
"8. c #8A5C3C",
"9. c #875836",
"0. c #965C39",
"q. c #8A562F",
"w. c #84623C",
"e. c #A3623B",
"r. c #AA653C",
"t. c #AC663B",
"y. c #B66A3A",
"u. c #BB7039",
"i. c #C46E33",
"p. c #CA7439",
"a. c #D27433",
"s. c #DD7B33",
"d. c #D3763B",
"f. c #D57B3D",
"g. c #DB7C3C",
"h. c #D67834",
"j. c #CE6F2D",
"k. c #E37D37",
"l. c #835B43",
"z. c #8C5E45",
"x. c #876248",
"c. c #996849",
"v. c #936B52",
"b. c #A76B46",
"n. c #B36E44",
"m. c #A9724B",
"M. c #B57449",
"N. c #A67454",
"B. c #B67C57",
"V. c #A06A50",
"C. c #82726B",
"Z. c #857874",
"A. c #937E76",
"S. c #907468",
"D. c #CC7B44",
"F. c #C97A49",
"G. c #D47C43",
"H. c #D87E46",
"J. c #C37E51",
"K. c #DD823C",
"L. c #DF8335",
"P. c #E4833C",
"I. c #EB853B",
"U. c #ED8A3C",
"Y. c #E88639",
"T. c #F08B3E",
"R. c #BB815E",
"E. c #8D817D",
"W. c #97847D",
"Q. c #AE8A73",
"!. c #CD824E",
"~. c #CC8044",
"^. c #DD8444",
"/. c #D3814B",
"(. c #DC874A",
"). c #CA8456",
"_. c #D48A56",
"`. c #E48644",
"'. c #EB8642",
"]. c #E58A44",
"[. c #EB8B43",
"{. c #E58C4B",
"}. c #EA8D4A",
"|. c #E2874E",
" X c #F18D43",
".X c #E99046",
"XX c #C88B62",
"oX c #CE9A77",
"OX c #988C87",
"+X c #968A88",
"@X c #A7958E",
"#X c #A69996",
"$X c #B39E95",
"%X c #A99088",
"&X c #B9A49B",
"*X c #AFA19E",
"=X c #BBABA5",
"-X c #B9B2AC",
";X c #D5AF98",
":X c #C2AEA5",
">X c #C5B4AC",
",X c #C9B6AD",
"<X c #CBB9AE",
"1X c #C5B2A7",
"2X c #D2BAAE",
"3X c #D1B4AC",
"4X c #CABAB3",
"5X c #D4BDB4",
"6X c #D8BDB5",
"7X c #E3BFA5",
"8X c #D5C1B6",
"9X c #DBC2B6",
"0X c #D6C2BA",
"qX c #DBC4BC",
"wX c #DCC9BC",
"eX c #DFC3AE",
"rX c #E4C8BA",
"tX c #EBC1A9",
"yX c #DCC6C0",
"uX c #DCCBC4",
"iX c #D7C8C3",
"pX c #DFD0CB",
"aX c #E2CCC3",
"sX c #E4CBC3",
"dX c #EBD3C5",
"fX c #EAD5CD",
"gX c #E7D6CD",
"hX c #F5D8C7",
"jX c #EED7D1",
"kX c #EDDAD2",
"lX c #E5D7D2",
"zX c #F2DDD4",
"xX c #F4E3DB",
"cX c #F8E4D8",
"vX c #EFE0D8",
"bX c #FAE9E2",
"nX c #F9E7E3",
/* pixels */
"      X         .                               .       X -   o o   X X                                             X   ",
"                  .                   .               o     - X   -       X                 .   X                     X ",
"    X                               X               -     E.-XOX.   ; O           X                                   X ",
"                                                o % . q #XlXbXvX-XI . O =                                               ",
"    O O                           o     X X X - o   5.>XvXcXcXkXvXuX3.O   ; .                                     O O   ",
"    . .     X X                 X           ;   . E.uXbXvXdXwXrXcXvXlX#XF   = o               X                   .     ",
"  q &.U = X   X                     X   o ;   } =XpXbXvX9X8XwX8X8XcXxXkX=X:.  . o                             . . P :.q ",
". s <.! y - X                         - .   3.uXbXxXgX9X8XwX,XwX8X8XgXxXkXpX+X  + o o                       . . y *.<.u ",
"  u l.Q y d     X       X           : . t OX1XzXcXwX9X8XqX&X2.@X6X0X8XgXcXbXxX*Xf O =   X                     i B %.-.v ",
". b ~ Q w g d     X       X     X - . H 2XzXdXhXrX8X5X9XOX. + . 4.>XdX0X8XkXxXnX0X:..   O X   O     X   X   t S u E -.z ",
". b 8.~ S L j d X X         X o =   3.uXzXcXdXrXrXeX8XZ.. + ; 4 . %.$X0X0X0XlXkXbXlXE.    O               t g a Z ! =.x ",
"+ z 6.Y P @.L h t   o         O . 3.iXzXcXsX5XrXrX&X*.. $ ; % % 4 + + A.0X0X5XyXkXvX<XE.  O   .     X   : h f S U ;.=.x ",
". r 0.Y N | @.' ) :   O   O o O 3.=XfXvXyX4XwX2XA.+ + 6 $ + * . * 4 + + A.>X9X5XgXkXxX0X3.. % .   *   - h h d P A ! ^ x ",
"  b 6.T F ' ' +.( ( % . . ;   3.uXvXdXdX5X6X:X>.+ + $ @ $ $ + $ + $ & 4 . %.:X9XaX0XxXxXlXZ.. - .   . d d ' d H G &.=.z ",
"  e 0.Y s ..' ] ( ) ( . ; . :.uXcXzXwX0XiX1X%.. 4 & $ + + @ @ @ & . $ $ 6 + A $XwX4XwXxXnXlX3.. ; . d h h ' | H G &.;.M ",
"  r 9.W S [ ] ' ] ( { P . B ,XxXzXrX5X0X1X2.. 8 $ + + @ @ + > + + * % + + 9 . $ &XqX0X0XxXbXiXO.. F X.f [ ] | } G %.;.x ",
"O b w.Y s o.| | ..{ s :.E $XvXcXsX3XwX:XU . 4 + @ @ @ @ @ @ @ @ + @ @ @ # + @ $ U =X5X4XwXcXcX=XJ :.g h ' [  .} J &.9.c ",
". b 9.T B { ' | | | g I Q.rXcXvX6XsX,X>.+ 6 . @ + @ @ @ @ @ + @ @ + @ + + # $ $ . #.>XrX2XrXcXcX%XU a L [ L | ` G Q l.x ",
". r w.T P I { ` ` +.} u -.tXhXrX5X6XA.. 5 $ $ + @ @ @ @ @ + @ + @ @ @ @ + # @ @ 8 . Z.4XrXeXhXfXS.9 P o.L o.| _ G $.l.l ",
"  e q.T L I _ o.` ) I P c oXhXtX6X:X6 . 5 . + + @ @ @ @ @ @ @ @ @ @ @ @ + @ @ @ 4 . y $X5X3XhX;XD D P I I L | ` H &.^ c ",
". N 7.Q y [ ' o._ i 4 3 Y R.;XtX3X*.. 9 . & # $ @ @ @ @ @ @ @ @ @ @ @ $ + @ @ @ . 5 . O.=XdXtXB.K 2 3 C s H _ h F %.-.l ",
"+ n 9.Q t j : = 9 D x.V.XXM.oXtX%X+ 4 $ + @ $ + @ @ @ @ @ @ + @ @ @ # # + @ > @ @ # 8 . W.eXoXM.).m.~ m 1 , q f p E -.e ",
"  e 8.T 4 7 =.V.m.B._._.(.u.XX3X*.+ ; @ $ @ + + @ @ @ @ @ @ @ @ @ @ # + + @ > @ + + 7 . J ;XoXy.|.|._.F.n.V./ w e E =.0 ",
". 0 9.Y B Z N.J.D.K.Y.L.].p.B.%X9 + @ $ + + $ + @ @ @ @ @ @ @ @ @ @ # + @ @ > @ @ % . ; * Q.).p.k.'.`.|.D.J.z.v V ! =.0 ",
". w 7.W y S N.!.a.s.U.U.Y.p.B.v.+ & * # + # @ @ + @ @ + @ @ @ @ @ @ + # @ @ @ > @ # * 4 . =.M.j.K.[.P.^.p.!.l.B V ! -.0 ",
"  e w.W q s b./.a.s.T.U.Y.h.M./ . & + # $ @ + @ @ @ @ @ @ @ @ @ @ @ * # @ @ > > @ + * & . x n.a.L. XP.K.d.!.^ 3 V ! =.0 ",
"  w 9.Y u U n.K.j.s.T.U.I.g.y.l + & + # + @ @ + + @ + # @ @ @ @ @ @ # + @ @ @ @ $ @ # * # @ t.a.Y.U.U.'.g.D.8.V A ! ^ 2 ",
"  w 9.Y e B t./.h.L..XU.I.g.y.k + & + @ @ + @ @ @ + @ + @ @ @ @ @ @ + # + @ @ @ @ @ @ * $ @ r.d.s.[. X'.s./.7.0 V ! =.0 ",
"  q 9.Y t s b./.d.g.{.].P.g.n.k . & + + @ @ @ @ # # + + @ + @ @ @ @ @ # @ @ @ @ + @ @ @ * @ r.d.H..X}.].d./.l.6 Z %.-.2 ",
"  w 9.W s I m.H.G.^.{.{.].f.n.k + & + @ @ @ @ @ @ # + + + @ @ @ @ @ @ + @ @ * @ @ @ @ > + @ e.G.^.].[..Xg.F.x.r Z $.;.3 ",
"  0 0.Y t p b.H.d.K..X].I.f.n.k + & + + @ @ @ @ + @ # # # + @ @ @ @ @ + @ + * @ @ @ > > * + e.G.K.[.U.Y.L._.w.< V $.=.2 ",
". 0 q.Y p F b.H.h.P.[.U.I.f.n.1 + & + @ @ @ @ @ @ # + # @ @ @ @ @ @ + + @ @ # @ @ @ > @ . + b.D.P.[.U.Y.h.K.^ 0 V R =.2 ",
". w 9.W a F m._.f.`..X.XY.G.m.1 + $ + $ + @ @ # @ @ + @ + @ @ @ # + @ @ @ @ @ @ @ @ > @ * + e.F.^.].}.}.g.).x.M D Q ^ l ",
"  0 9.W e B c.y.D.a.(.h.^.p.r.l + & + + + + @ @ @ @ @ @ @ @ + @ + # # @ @ @ @ + @ @ @ @ * > c.i./.G.{.i.p.n.l.< D R ^ 2 ",
"  3 9.Y y A N.y.F.u.|.i.(.i.b.x + & + + + + @ @ @ @ @ @ + @ + @ + @ # @ @ @ @ @ + $ @ > @ > 0.y.~.p.(.p.D.M.v.e D R =.0 ",
"  9 7.9.u G m.t.p.i.(.a.`.p.e.l + & + @ + @ @ @ @ @ @ @ @ @ @ @ @ # + @ @ @ @ + + @ @ > + > 0.i.(.p.^.j.p.t.l.u Z R ^ 0 ",
". e w./ q u V.!.f.P. XI.}.H.n.l + & @ + # @ @ @ @ @ @ @ @ + @ + @ + @ + @ @ @ # @ @ > > + > e.G.^.{.].'.a.).l.< Z ! =.2 ",
"  q ^ ~ s Z m./.h.'.I.T.'.g.n.k + & @ $ # # @ # @ @ @ @ @ @ @ @ @ @ @ @ @ @ + + # + @ @ @ > e.H.{.}. Xs.s.F.c.n Z %.=.0 ",
"  w ^ ~ u S m.D.a.Y.I.T.k.H.n., + & # @ + + @ @ @ @ @ @ + @ + + @ @ @ @ @ + @ # + + @ @ @ @ e.H.`.}.I.I.j.H.z.9 Z %.-.0 ",
"  w 8.9.w e m.G.a.k. XI. Xd.n., + & + @ + @ @ @ @ @ @ @ @ @ @ @ @ @ @ @ @ @ + # + @ @ > @ @ r.H.`. XT.k.a.H.z.3 V $.;.3 ",
". 0 9.Y r U m.!.p.H.}.].'.G.n.k + $ + + + @ @ + @ @ @ @ # @ + @ @ @ @ @ @ @ + + # + @ > @ @ r.H.`..X[.P.a.D.x.V G %.-.2 ",
". e 9.T e B c._.p.K..XU.P.p.n., + & + + + @ # @ @ @ @ @ @ @ @ @ @ @ @ @ @ @ # + # + @ @ @ @ e.G.`.].[.P.a.).x.< V E ;.z ",
". w 7.~ e s m.!.a.s.U.I.I.d.n., + $ @ + + @ @ @ @ @ @ @ + @ + @ @ @ @ @ @ @ @ + + @ @ > + @ b.d.P.T.U.K.a.!.z.n D R -.2 ",
". e 7.Q f S V.!.i.s.U.Y.k.d.r., + & + @ + + + @ @ @ @ @ @ @ @ # @ @ @ @ @ @ @ @ + @ @ $ + + r.G.P. XP.K.p.J.l.M m Q =.l ",
"  w x.Q t s N.R.K.^.{.P.k.G.n.k + * @ + + + @ + @ @ @ @ @ @ + @ @ @ @ @ @ @ @ @ @ + @ > # + e.D.g.K.(._.M.XXx.3 D / =.c ",
"+ r ~ Q { +.>.9.w.m.)._./.F.b.k + $ @ + + @ @ @ @ @ @ @ # @ @ @ @ @ @ @ @ @ @ @ # @ @ $ + + b.F.)._.XXB.z.l.>.U U ^ 7.0 ",
". e 8.~ a ( G B y S U -.N.B.V.k + % + @ + @ + @ @ @ @ @ + @ + @ @ + @ @ @ > @ @ @ @ @ @ + + b.J.B.z.J Z J H {  .Z E =.z ",
". v q.Y f ..o.O.' +.( i Z l.v.1 + $ @ + + @ @ @ @ @ @ + @ @ @ @ @ + @ @ @ @ @ @ + $ @ + * + z.c.D N _ X.+.+.+...G R =.z ",
". e 6.Y s [ { _ { { o.X.U u Z 9 + + @ @ @ @ @ @ @ @ @ @ @ @ $ @ + @ @ @ + @ @ @ @ $ @ * + & N Z O.O.+.] ] ] ] _ A R ^ x ",
"  v 6.Y S [ {  .| I _  .X.X.f . @ @ @ @ @ @ $ @ @ @ @ @ @ @ @ @ @ @ + @ @ @ @ @ + + + $ $ . p _ _ _ | ] ] ]  ._ J R l.l ",
". e 6.Y S [ { | _ { ( |  .X.d * $ + @ + @ @ @ # + # @ + @ + + + @ + + # @ # @ @ @ $ $ . * * p H H _ { [ ] ] { H J &.=.c ",
". v 6.Y a [ | { | +.( | | { d % # # @ + @ + # + + # @ # @ # @ # # # # @ # @ @ @ + + % % * . i ` O.I  .{ | |  .} J &.=.z ",
". n 6.W a o.' | _ | ] ..| ) j * . + + + + + + + + + + . + + + + . * + + + # # + $ + . . * . p _ I { { ' ] ( | } G &.;.x ",
"+ n l.Q F ..{ o. ._ | ( | ` h 7 7 4 4 4 4 4 5 7 8 4 4 4 4 4 4 4 4 5 5 4 4 4 4 4 4 5 8 8 ; ; C O.} } | | ] ] | H G &.;.x ",
". n l.Q F o.{ {  .`  .| ..` : . . . . + . . .   . . . . . . . . . . . . + . . . . . .   . . t _ {  .X.| | |  .} G &.;.z ",
". e l.Q f o.H H F _ d d t g O.1.1.1.1.Z.Z.3.1.2.1.1.1.1.3.3.3.3.C.,.,.2.C.3.,.2.C.Z.2.1.1.1.@.i i d h h ( { } H H %.-.z ",
". B -.$.d g f S O.O.@.1.E.#X=X:X4X>X>X4X,X1X>X,X>X>X,X,X<X,X,X<X>X>X4X0X4X<X,X,X4X>X4X,X>X,X-X@XZ.:.@.@.` i F p F :.>.e ",
". 6 ;.*.; :.#X@X%X$X-XiXpXsXsXyXwXwXwXwXsXyXyXwXwXwXwXwXqXqXwXsXuXqXuXuXyXyXyXuXyXiXyXyXiXuXgXiXuX,X*X#X#X#X#X1.* U *.w ",
"    + $   Z.=X&X6XsXdXkXjXjXzXhXjXjXzXjXjXjXzXjXjXjXjXjXjXjXjXjXzXfXjXzXzXjXzXzXjXjXjXkXjXgXkXzXjXjXdX6X=X*X=XA.. O .   ",
"  . * # . +X8X6XsXsXwXiXqXqXrX9X6XyX0XwX6XqXsXqXyX6XyXwXyXqXyXsX6X,X5X6X6X0X6X0XqXrXyXuXuXqX0XwXrX6X6XrX6X,X>X%X  . O   "
};
