/* XPM */
static char *door_s_o1674209831[] = {
/* columns rows colors chars-per-pixel */
"60 60 237 2 ",
"   c #010101",
".  c #0B0201",
"X  c #03050A",
"o  c #0C0B0B",
"O  c #0C0804",
"+  c #140301",
"@  c #1B0401",
"#  c #140802",
"$  c #1B0B03",
"%  c #120D0B",
"&  c #1C0D0A",
"*  c #14110E",
"=  c #1D110A",
"-  c #130F14",
";  c #151312",
":  c #1A1514",
">  c #18171A",
",  c #0D1110",
"<  c #220400",
"1  c #230B02",
"2  c #2A0A00",
"3  c #29160A",
"4  c #361D0A",
"5  c #271B16",
"6  c #341C14",
"7  c #3C220C",
"8  c #2B211D",
"9  c #392517",
"0  c #2A2323",
"q  c #372925",
"w  c #3D3128",
"e  c #392E33",
"r  c #3C3233",
"t  c #3D3A3B",
"y  c #472A17",
"u  c #54331C",
"i  c #472B17",
"p  c #673C1E",
"a  c #753810",
"s  c #4C2F22",
"d  c #452F23",
"f  c #443224",
"g  c #4C3325",
"h  c #44342C",
"j  c #4B382C",
"k  c #533424",
"l  c #563B28",
"z  c #433C3B",
"x  c #493E3B",
"c  c #483A34",
"v  c #533D32",
"b  c #6A3E24",
"n  c #663F26",
"m  c #411B04",
"M  c #3F413F",
"N  c #4C413E",
"B  c #47423F",
"V  c #5A4538",
"C  c #654125",
"Z  c #64432C",
"A  c #6C452A",
"S  c #6B4428",
"D  c #72482B",
"F  c #6B4B33",
"G  c #664B38",
"H  c #714E37",
"J  c #6E543E",
"K  c #6A5035",
"L  c #72543D",
"P  c #7B5036",
"I  c #3C3E44",
"U  c #443E42",
"Y  c #3C4245",
"T  c #3D434A",
"R  c #3E4751",
"E  c #444245",
"W  c #4B4444",
"Q  c #43444A",
"!  c #49454C",
"~  c #4B494B",
"^  c #4A4846",
"/  c #554945",
"(  c #464953",
")  c #554E53",
"_  c #595553",
"`  c #6D5544",
"'  c #6B5948",
"]  c #725542",
"[  c #725942",
"{  c #785946",
"}  c #665A55",
"|  c #664E42",
" . c #6D625D",
".. c #786255",
"X. c #6F6560",
"o. c #726662",
"O. c #756A64",
"+. c #786C67",
"@. c #7E736B",
"#. c #7D7067",
"$. c #7D7472",
"%. c #5C5C66",
"&. c #855A3B",
"*. c #895C3D",
"=. c #865634",
"-. c #8E552E",
";. c #A86537",
":. c #BC6D32",
">. c #B56A38",
",. c #B8713A",
"<. c #B9682D",
"1. c #995324",
"2. c #C97639",
"3. c #DD7B34",
"4. c #D27A3B",
"5. c #D87937",
"6. c #D27330",
"7. c #E27D35",
"8. c #835C43",
"9. c #8A5D43",
"0. c #855F48",
"q. c #99694A",
"w. c #8F6A53",
"e. c #AB6D45",
"r. c #AB724B",
"t. c #B9784A",
"y. c #A77857",
"u. c #BB7D54",
"i. c #B67C58",
"p. c #86746A",
"a. c #877B76",
"s. c #977B6D",
"d. c #A67E65",
"f. c #C47A44",
"g. c #CB7D44",
"h. c #C87B49",
"j. c #D47C42",
"k. c #C47C52",
"l. c #DD813B",
"z. c #E4843C",
"x. c #E7843A",
"c. c #F18A3D",
"v. c #BE835C",
"b. c #8E827A",
"n. c #A78C7B",
"m. c #CD814B",
"M. c #D58143",
"N. c #DA8649",
"B. c #C98656",
"V. c #DA8B51",
"C. c #E48642",
"Z. c #E58944",
"A. c #EB8B44",
"S. c #E48B4A",
"D. c #EA8C47",
"F. c #F18B46",
"G. c #EE924C",
"H. c #EA9353",
"J. c #C68C64",
"K. c #C69570",
"L. c #998C87",
"P. c #9D9794",
"I. c #978F8A",
"U. c #A7948C",
"Y. c #B59D8D",
"T. c #A39593",
"R. c #A99B96",
"E. c #B69D94",
"W. c #AFA29C",
"Q. c #B5A39E",
"!. c #BBA49A",
"~. c #BDA38D",
"^. c #BDA6A2",
"/. c #BCABA3",
"(. c #B7ABA6",
"). c #BFB1AB",
"_. c #B7ACAC",
"`. c #D9A78A",
"'. c #C4A99C",
"]. c #DCAE94",
"[. c #D6A893",
"{. c #D6B198",
"}. c #CEB19C",
"|. c #E3AB8A",
" X c #E7B28D",
".X c #E4B597",
"XX c #E6AF90",
"oX c #C2ABA4",
"OX c #C5ABA5",
"+X c #C5B3AB",
"@X c #C9B6AC",
"#X c #D7BBAA",
"$X c #CCBBB4",
"%X c #CABBB4",
"&X c #D4BEB4",
"*X c #DDBDB2",
"=X c #E3BEAA",
"-X c #E6BFB0",
";X c #DBC4B5",
":X c #D5C3BB",
">X c #DCC5BB",
",X c #DBC8BF",
"<X c #D6C2B5",
"1X c #DBC0AB",
"2X c #E3C1AD",
"3X c #E9C2AB",
"4X c #E2C3B5",
"5X c #E1C4BA",
"6X c #E2CBBE",
"7X c #EAC8B6",
"8X c #F3D0B9",
"9X c #DBCBC4",
"0X c #D8C6C1",
"qX c #DED1C9",
"wX c #D4D0CD",
"eX c #D3CCC8",
"rX c #E4CDC2",
"tX c #E7CEC5",
"yX c #E5D3CB",
"uX c #EAD5CC",
"iX c #ECD9CE",
"pX c #E7D3C6",
"aX c #F5D9CB",
"sX c #E5DAD3",
"dX c #EBDAD3",
"fX c #E9DAD6",
"gX c #F2DDD4",
"hX c #F7DFD5",
"jX c #FCE3D5",
"kX c #F5E4DB",
"lX c #FAE5DC",
"zX c #FAE8DC",
"xX c #F6E3D7",
"cX c #ECE4DF",
"vX c #FCEAE1",
"bX c #FBEAE4",
"nX c #F8EDE6",
/* pixels */
"                                      .   X     X   X X %       ,         X     X           .                           ",
"                                    .         X   X X - . q } 0 . ; X   X           X                                   ",
"                                  X         X   X ;     W W.qX_.W   o O X   X .         X   .                           ",
"                                      X     .   %   . +.:XbXfXbXeX$..   % .       X                                     ",
"                              X X X   X     . . . q R.9XgXdXpXyXbXqXU.= . . O .                                         ",
"                                X       o . . 8 ../.gXnXiX<X<X9XuXvXgX/.' .   * X       X     X                         ",
"                          X       X   O o . 3 ' ..pXvXrX<X;X>X&X<XuXkX}...G =   O X       X                             ",
"                                  X X o   z c G [ 7X6X<X<X$XoX<X;X#XrXU.Z V  .~ O O O X                                 ",
"                          X     . o   X p.+.3 J { #X>X&X&Xb.j L.#X;XrXn.H n r P.+.    ,                                 ",
"                            O   % .   R._.8 6 ] L }.5XoX+.+ . + ..'.rXn.D F . O.wXI.    %                               ",
"                  X           o . 5 P.wX_ h | G L }.E.h . 5 3 5 + v U.s.P A /   P.cXb.e . o .                           ",
"                            * . q L.sXI.. _ g H 8.w.4 + 5 . & + 3 @ 6 ] =.A c t , _.eXI.0 . % .                         ",
"                O         =   8 U.:X(.O %.x k ] H @ @ 3 + & + & + 6 . y &.D N Q > _ cXsXP.8 . %                         ",
"                        * . . P.hXdX_ t ~ z j ] { < < + $ + . + + + . v &.p N W ~   I.cXdXL.  * o                       ",
"                      O *   a.fXzXT.  ~ U ! d ] L @ 1 @ # + @ $ $ # + f *.D B Y ^ M O :XnXdXb.. % X                     ",
"                      * . } qXzX:Xw B ~ Q U j L L @ + @ # $ @ + # = . k *.C N Y M ^ :  .sXkX0X_ . O X                   ",
"                X   O . 0 <XxXgXs.3 B M E ^ f [ J + @ @ @ $ # # @ 1 + s &.A / I E M B 3 Y.xXzX).% . O                   ",
"    X X             % . a.6XjX1XN w B ~ Q ^ j K L + < @ @ @ # # @ @ + k *.C U I Y Q W r ..1XxXcXa.. :     X             ",
"        .       X ; . / :XuXaXn.w ^ ^ ( T E h ' ] @ @ @ @ @ @ # % & . k &.Z U ( R T Q c C ~.xXpXW./ . ;   X X           ",
"    X             ; . R.jXjX3X0.= B Y ~ ( ^ h [ H @ < @ @ @ # + + & . f 8.F x Q Y z B c 3 w.8XaXdXP.. * X               ",
"    X           , X N ,XjXjXK.q.K 1 4 9 q B w K ` + @ & @ @ % + + & . f &.n h r h 9 4 4 -.r.{.aXzXeXN . : .             ",
"        .     X >   L.xXhX3XJ.B.v.v.P C f 6 4 [ ] + @ @ + + O + @ $ . k 9.n 6 q i p P v.B.v.J.8XxXyXb.. %   X           ",
"        .     , . O R.zXaX.Xv.f.V.V.m.v.y.u 4 K J + $ # + + # # @ 1 + k *.p 7 l r.t.V.V.Z.:.J.8XjXvX).. . o             ",
"      X     X ;   / qXjXaX].,.M.z.z.l.2.v.K i J J + @ @ + @ # @ < < . k *.S i F v.6.l.z.A.2.B.=X6XkX9X} . % X           ",
"    X         >   a.dXhXtX`.:.3.F.F.5.j.u.b 7 ` ] + @ @ < @ < @ @ 1 + g 8.n 9 n t.4.7.c.x.4.u..X7XvXgXa.. *   .         ",
"            X o . U.kXhX7X|.:.l.F.7.5.j.u.b 7 [ ] @ < < @ < @ < @ $ + d 0.A 4 F f.5.z.A.A.5.t..X4XxXlXW.  % .           ",
"      X     o X 5 +XbXgX=X|.2.3.7.G.j.j.i.D m [ ] @ < @ @ @ @ @ # & . j 9.b g G t.4.Z.D.A.4.t..X2XpXlXoX.               ",
"            ,   x 0XvXuX*X].<.7.H.F.5.j.k.b 4 J L @ < < @ @ @ # + $ . s 9.b 6 G k.3.S.D.Z.6.,. X=XuXnX:X0 . o           ",
"            ;   } 0XvXtX4X].<.7.F.G.7.j.u.b m [ L @ < @ + + + + # $ + u 9.b 9 F k.j.D.D.C.4.,. X2XpXzX).r   o           ",
"        .   ; . o.yXbX0X*X`.<.7.C.F.7.4.u.D y ] L + < $ @ % # + + $ . k *.b g F B.4.Z.A.Z.4.,.|.1X6XzX:XW . ;           ",
"    X   .   , . +.tXkX0X;X[.2.3.F.F.7.j.k.n 3 ' ] + < @ @ # # # @ & + y 9.b 3 F m.6.Z.D.Z.j.e.].2X6XkXqX)   >           ",
"            %   +.@X0XyXaX[.>.C.D.G.j.h.i.H 9 ' ` + @ @ @ @ @ @ @ < + k 9.D f G k.2.S.S.S.M.e.].2X,XzXyX .  *           ",
"            : . +.yXzXrX5X[.>.j.S.H.;.a d.| 7 ` ` + @ + @ $ # @ @ @ + k 8.C f | q.a f.V.V.m.;.].7XpXuX%X .. %           ",
"    O       : . #.uXlX,X*X[.;.2.M.:.1.q.w.V 4 ` ` + & @ @ @ @ @ $ $ + s &.F 3 V 0.r.;.h.g.,.;.].2XtXlX9X .. *           ",
"            ;   @.sXzX>X*X`.;.6.V.2.;.i.0.n s ] ] @ < < @ @ @ @ + $ + s 8.A c c w.r.;.h.l.,.e.{.2X>XbXyX .  ;           ",
"            : . p.fXzX<X5X`.;.j.M.N.1.1.q.H 4 L H @ < < @ @ @ @ @ @ + g &.S 9 J q.1.;.m.m.t.;. X4X;XzXyXX.  %           ",
"O           ;   @.dXzX;X;X`.>.N.S.H.m.;.i.b 4 [ L @ < < @ @ # + # & . g *.b 3 K r.<.N.S.H.N.,. X3X>XlXqXX.. %           ",
".           >   @.iXzX;X*X`.:.l.G.C.N.m.v.D i J L < < @ @ @ + + + & + s 9.b f Z B.4.Z.A.Z.l.>.`.=X6XkX:X} . ;           ",
"            >   @.sXzX;X8XK.:.l.C.G.3.4.i.S 3 ' L @ < < # + + % + & + s 9.D 3 K h.6.x.c.C.M.,..X=XrXkX0X}   ;           ",
"        X   >   O.pXxX6X2X`.:.l.D.A.5.4.u.D 7 ' ` @ < < @ # + $ + $ + s 9.C 9 K f.7.7.F.D.4.t.`.2X>XkXdX+.  ;           ",
"            -   O./.hX4X3XK.2.z.A.A.3.4.u.A 9 ' ] @ < < @ # @ @ + 1 + g { Z w V f.6.z.A.Z.g.r.].=X6XlXyXo.  * .         ",
"          . -   O.<XzX4X3X].2.3.c.c.3.2.u.S 4 ' ] @ < < @ @ @ @ @ < + g 0.Z 3 G B.3.z.A.C.m.r.].4X;XlXdXo.. ;           ",
"            - . O.<XxX7X-X`.<.5.x.c.3.2.u.D m ' ` @ < < @ + @ @ @ 1 + l 8.C h G h.6.7.c.A.j.e.XX2X>XvXdXo.  >           ",
"            - . @.iXzX6X*X|.>.j.Z.z.3.f.i.b 7 [ J @ < @ @ # + + $ 1 . g 0.S q G v.g.N.Z.x.3.>.|.=XrXdX:X .  ; .         ",
"            ; . a.iXgXrX5X[.>.h.V.V.B.t.y.H u J L + < @ + & O + + $ + g 9.A h / y.u.k.V.S.M.>.|.7XpXiX$X}   %           ",
"  X       . ; . +.>XfXfXtX[.;.k.B.y.*.Z V V l ` J @ < @ # + + % . = + k =.D | / v H e.i.B.m.t.|.7X6XlXiX+.. ;           ",
"X           ; . p.yXkX0X0X{.e.e.H h q e ! U w ` J @ < < @ @ @ # # $ + u *.D h ) ) U d s 8.y.d.}.#X5XkXsX+.  *           ",
"          . *   p.sXbX0X0X}.D u h T ( R ( ( f ` ` @ < @ @ @ @ # # # + k *.b U ( ! %.) U f l ..@X5XuXdX:XX.. ;           ",
"X           >   $.cXgX6X>X/.= N ) Q T R T E h ] L @ < & @ @ + @ @ $ . k -.p V ! T T ( ! W w x +X;XtXxXqXO.  ;           ",
"            >   $.yXzX;X,X(.0 ~ ! E Y T Q ^ f L ] @ < 1 + . $ @ @ $ + i *.D x T T Q I T ^ t x %X&XrXvXyXX.  :           ",
"            ;   $.qXiX>X>XQ.8 Q ! Q Y T E ^ g ` H @ @ @ # # @ + $ $ + s -.S z ( T T ( Q I W U +X&XrXkXqXO.O ;     X     ",
"X           ;   $.,XaXaX9X(.> ~ Q E Y Y Y W f J L @ 1 @ & # + $ + + . l &.S N Y T T Q I W z h %X>X5XlXdX .  ;           ",
"X     O     :   $.dXxX>X,XQ.8 E W Q Q T E N j J L + @ . + # . + # $ + g &.A B Q Q Q Y Q U U U OX<X6XzXyX+.  ;         X ",
"            5   a.pXzX6X,XW.8 W U Q Q ! E N f J { < 6 0 5 5 5 5 5 5 $ k 9.A h ( I U Q ! U / U %X<X,XzXyX .O ;           ",
"            ; O p.pXvX<X,XQ.. z ! U ! ! U W j ' | @ + . . . + . . . + 9 L F N W ) U U U ! c q OX0X;XzXdX .. :           ",
"      X   *   8 W.qXpX<X,X).#.N h I e e e c f { ..s.T.T.T.P.T.T.U.L.Y.p.8.A N r e 0 e e e / b.&X&XrXqX,XT.8 % *         ",
"        ;   . W.+X+X+XOX+X+X+X(.T.a.o. .' v 6 l F ~.;X$X@X$X$X$X&X+X0Xn.l u k / } X.+.b.T._.$X+X+XOX+X+X%XT.X . -       ",
"X     o ,   I.sXyXyXpXpXyXiXsXpXfX$XOXE.E.E.Y.=X}.7XaX6XpXtXuXuXtXrXuX&X#X}.U.E.E.^.+X0XuXuXuXfXtXuXuXtXyXfXa.. , X     ",
"    X ;   P.dXsXdXdXdXiXyXdXdXdXfXfXiXrXOX'.*XaXaXaXuXdXuXuXgXiXpXuXuXaXjXaXOXoX%XtXfXfXuXfXfXyXuXyXyXyXfXfXcXa.. o     ",
"      ,   a.:X).oXoXoX/././.oX!.Q.^.E.^.^.!.!.!.'.!.oX+X^.^.OXoXE.E.E.Y.E.'.E.oXoXOXOXOX^.^.OXOXE.^.^.^._.W._.$.  ;     "
};
