/* XPM */
static char *door1674209831[] = {
/* columns rows colors chars-per-pixel */
"60 60 237 2 ",
"   c #010001",
".  c #0A0202",
"X  c #0D0B0B",
"o  c #070609",
"O  c #120D0D",
"+  c #150705",
"@  c #14110D",
"#  c #19110E",
"$  c #120E14",
"%  c #0F1316",
"&  c #151212",
"*  c #1A1413",
"=  c #19181A",
"-  c #0F0B12",
";  c #241D1B",
":  c #251916",
">  c #241109",
",  c #29231D",
"<  c #38251A",
"1  c #1A1E21",
"2  c #201E21",
"3  c #2A2526",
"4  c #352D2C",
"5  c #372A26",
"6  c #3C312B",
"7  c #36322C",
"8  c #332D31",
"9  c #353535",
"0  c #3C3534",
"q  c #35353A",
"w  c #353A3C",
"e  c #3B3B3D",
"r  c #393739",
"t  c #2E3237",
"y  c #1C2021",
"u  c #502F18",
"i  c #76360D",
"p  c #47362A",
"a  c #533523",
"s  c #5A3D2A",
"d  c #573926",
"f  c #493C34",
"g  c #443C3C",
"h  c #463B37",
"j  c #553D36",
"k  c #633C26",
"l  c #3A403E",
"z  c #47413D",
"x  c #594439",
"c  c #6A4B35",
"v  c #71482D",
"b  c #3E3D42",
"n  c #383C46",
"m  c #413F43",
"M  c #3D4245",
"N  c #3D434A",
"B  c #3A464A",
"V  c #3C4852",
"C  c #434344",
"Z  c #4B4444",
"A  c #44444A",
"S  c #4A464A",
"D  c #45494B",
"F  c #4A4A4B",
"G  c #484947",
"H  c #564C4A",
"J  c #564944",
"K  c #5B514D",
"L  c #575048",
"P  c #4C4C51",
"I  c #434952",
"U  c #534E51",
"Y  c #585354",
"T  c #4F5254",
"R  c #66534A",
"E  c #655955",
"W  c #795844",
"Q  c #72625C",
"!  c #6C6260",
"~  c #776A65",
"^  c #7D726E",
"/  c #89461B",
"(  c #984918",
")  c #994711",
"_  c #A7521A",
"`  c #964D23",
"'  c #985429",
"]  c #975B39",
"[  c #89522F",
"{  c #A55627",
"}  c #AD582C",
"|  c #9D623D",
" . c #BA672D",
".. c #A4643A",
"X. c #BA6A36",
"o. c #AA622E",
"O. c #C56829",
"+. c #D46D26",
"@. c #CE702E",
"#. c #D7742E",
"$. c #CA7438",
"%. c #D37334",
"&. c #DB7A35",
"*. c #D2773A",
"=. c #D47A3B",
"-. c #DB7D3B",
";. c #D77835",
":. c #C76D34",
">. c #E37E36",
",. c #8D5E47",
"<. c #89654B",
"1. c #9C6545",
"2. c #936D55",
"3. c #A56946",
"4. c #B26D43",
"5. c #A7724B",
"6. c #BB794C",
"7. c #B87445",
"8. c #AA7957",
"9. c #B17953",
"0. c #B47957",
"q. c #84736D",
"w. c #897C76",
"e. c #9E7B65",
"r. c #A57A66",
"t. c #CC7C44",
"y. c #C87B49",
"u. c #D67E42",
"i. c #C27F52",
"p. c #DD813C",
"a. c #D7823F",
"s. c #E4833A",
"d. c #EB863B",
"f. c #EC893E",
"g. c #E58538",
"h. c #F08B3B",
"j. c #B8825E",
"k. c #8D817C",
"l. c #93827C",
"z. c #9D877D",
"x. c #BE896B",
"c. c #BA8B76",
"v. c #AF8C79",
"b. c #CC814B",
"n. c #D88447",
"m. c #C78757",
"M. c #D98A53",
"N. c #D7915D",
"B. c #E48542",
"V. c #EA8744",
"C. c #E58A45",
"Z. c #EB8B43",
"A. c #E48B4C",
"S. c #EB8C49",
"D. c #F18C42",
"F. c #EC9149",
"G. c #E48D52",
"H. c #EC914E",
"J. c #C38A6A",
"K. c #C99577",
"L. c #998B84",
"P. c #9E928B",
"I. c #9D9B9B",
"U. c #9C9795",
"Y. c #A28E88",
"T. c #A3948C",
"R. c #A8958E",
"E. c #A39D9A",
"W. c #A79994",
"Q. c #B39D94",
"!. c #B4A39C",
"~. c #BAA59E",
"^. c #BBA497",
"/. c #ADA29B",
"(. c #AAA4A2",
"). c #BBA6A1",
"_. c #BDABA4",
"`. c #B7AAA7",
"'. c #BFB1AC",
"]. c #CF9B86",
"[. c #D6AB94",
"{. c #D8AB96",
"}. c #D7AE95",
"|. c #E1B59B",
" X c #C3ADA5",
".X c #C5AEA8",
"XX c #C3B3AB",
"oX c #CAB5AC",
"OX c #C8B5A9",
"+X c #D4BBAD",
"@X c #DBBCAD",
"#X c #DBB8A6",
"$X c #CCBBB3",
"%X c #C6BAB6",
"&X c #D4BEB3",
"*X c #DABEB2",
"=X c #D0BFB8",
"-X c #E3BDAB",
";X c #E3BBA5",
":X c #E3BEB2",
">X c #D8C1AE",
",X c #D5C1B4",
"<X c #DBC2B5",
"1X c #D4C3BB",
"2X c #DBC5BA",
"3X c #DBCAB9",
"4X c #CDC0BD",
"5X c #E1C1AC",
"6X c #E2C1B3",
"7X c #E1CABE",
"8X c #E4C6B8",
"9X c #DBCBC3",
"0X c #D8C9C3",
"qX c #DDD0CB",
"wX c #E3CEC4",
"eX c #E7CDC6",
"rX c #E4D1C5",
"tX c #E9D2C5",
"yX c #E4D2CB",
"uX c #EAD5CC",
"iX c #ECD9CF",
"pX c #EED9C4",
"aX c #F1DACE",
"sX c #ECD7D0",
"dX c #EDDBD3",
"fX c #E8DAD3",
"gX c #F3DED3",
"hX c #F2DFD8",
"jX c #EFE1D8",
"kX c #F4E2D6",
"lX c #F5E4DB",
"zX c #F9E6DC",
"xX c #FBE8DE",
"cX c #F8E7D9",
"vX c #F2E1CF",
"bX c #FCEAE2",
"nX c #F6E7E1",
/* pixels */
"          o                                 .     X   . %     % -     o   o   o                                         ",
"      o                                         .   . X . e Y     =   o o                                               ",
"                                o           o     & . . ! =XqXE.o . & .             o                                   ",
"o                                     o       o = . # k.0XnXzXlX'.K . @ =     .                                         ",
"                                    o       X *   Y '.dXnXuXaXkXxXyXq.  . O .                                           ",
"                                          $   . ^ XXkXbXuX6X#X7XaXlXjX).f . : X o       o                               ",
"                                      X =   0 (.fXjXzX3X+X,X8X>X<XvXlXlX).Q . X X .                                     ",
"                                    & X . J XXlXxXfX1X,X3X+X X<X,X,XtXkXbXyXL.. . X X                                   ",
"                                  X . . k.,X&XgXuX<X1X2XoX^ K R.&X<X7XrXgXzXdX`.Z   @ o                                 ",
"                              . O . , /.fXxXaXaX,X,X+X!.E . : 3 w. XrX$X1XsXlXnX1X~ . . &                               ",
"                  o       . . X . g `.nXxXuXwX*X7X+XY.6 . 0 m 3 . Q ~.0X1X2XyXgXbX9X^ : . X .                           ",
"                          . & . J W.dXkXuX<X=X*X~.q.. , S n m m 0 . h L.$X=X1X1XdXyX%Xw.. . . .                         ",
"            o             *   h !.2XsXyX&X=X&XR.K . H U Y P P P e g ; # w..X+X9XdXlXkX9Xw.. X                           ",
"                        # . 4 XXlXlX9XwX0X=Xw.5 * Y U S m m m I A b r 8 . E  X2X+X2XzXlXqXw.. & o .                     ",
"                o     O #   (.dXlXtX2X&X&XL.. 8 U S m m P m P b n I P g 0 . c Q.8X+X<XdXbX0XE . X X                     ",
"          o         . * . k.dXxXtX*X&X1Xw.. 8 m S m m S b m m S n I b Z h h . J ~.<X,X7XhXnX%X3 o                       ",
"                    X . E 0XxXdX@X8X&XL.. 6 h S M D M C C m C A N N m m j m g . K .X*X*XwXlXlXT.. #         o           ",
"                  o . ; T.iXxX2X7X&XR.< 5 z Z g M A C C C C C S I I Z g Z Z C b . Q +X&X3XiXbXyXE . # .                 ",
"                  = . ~ 9XdXpX2X=X.XK # g H z D P A A M C m C N n B C C Z m n V 9 . L.$X>X3XcX3XL.3 . . -               ",
"                X   ; XXbXcX7XrX&Xq.. h Z r M D I B N D C C Z C I B A C m I I V z > < Q.8X8X7XkXfXq.. =                 ",
"                = . ~ fXzXrX+X#X].k a u # : e B V V V I N w m Z B B M B e 9 9 , # u u 8.#XeXwXdXnX`..   X               ",
"              X . . (.nXgX2X6X|.0.] J.8.2.c j : & 3 y 9 w e b r w 9 , > : < x c 5.X.4.[ ].:XoXyXnX0X! . &     o         ",
"              - . g %XnXuX6X-XK.(  .A.n.M.N.7...| ] c < 3 3 3 3 , < c ] ..o.b.n.A.A.$._ 0.|.8XaXjXnXP.. * o             ",
"            o = . w.fXlXwX@X-X0.) #.V.>.s.B.-.%.b.6.j.a 6 q n b 6 u 9.b.*.-.Z.>.g.h.C._ } K.8X<XiXlX%X4 . o             ",
"            o - . Q.jXjX,X>X{.3._ ;.V.f.V.S.&.@.=.b.9.s z r e C h u 4.u.%.#.D.V.V.H.S.} ` J.6X*XiXlXqX!   &             ",
"            - o 4 oXlXjX>X>XK.' _ p.S.Z.V.S.&.@.a.y.9.a 5 t b r < a 4.u.&.#.>.V.V.>.G.X.` 9.|.:X9XlXfXk.. @             ",
"o           -   K rXcXrX>X5XJ.`  .n.C.V.S.S.-.@.;.b.9.s Z e r Z h a 4.u.%.-.H.S.V.S.G.u._ ..{.:X&XkXlX/.. X             ",
"            $ . ~ vXcX3X>X;X0.` $.p.Z.Z.S.C.&.#.;.t.9.a 0 w b g p d 7.*.&.-.S.S.H.>.>.%.} { ].-X<XuXxX!.. .             ",
"            = o q.uXcX3X<X{.3.{ @.p.h.d.Z.V.>.#.&.t.9.d 0 q b e 8 d 4.u.&.g.d.f.D.D.S.*. .( K.5X<XtXxX!..               ",
"          o $ o l.vXcX>X+X{.3.{ *.p.h.h.Z.Z.V.#.&.u.9.j Z n e Z g a 7.-.%.g.D.d.>.D.V.:. .( K.>X>XtXcX_.O .             ",
"o         o - o Y.gXvX3X>X[.3._ *.-.D.f.V.S.V.%.&.u.0.d 8 t m 0 < a y.u.*.-.C.D.d.D.V.%.:.( x.5X>XtXxX%X6   X           ",
"            o . l.+X3XrXpX}...} *.p.D.Z.S.G.G.:.:.y.8.j m n b z p a i.y.X.u.G.B.h.D.D.%.:.( x.-X@XuXcX4XK . &           ",
"o           % . P.kXlX1X6X[.1.' =.p.C.S.G.M.9.i i 1.e.j b n e z 7 s 5.' i ' m.A.n.F.a.=.X.( J.;X8XtXuX_.E . O           ",
"            X . P.jXkX&X<X{.,.( t.*.%.A.b.{ | 5.9.5.<.J 8 t b 9 4 p [ 5.5.5.] o.n.A. .$.X.i J.-X<XuXkX%XU . *           ",
"            X . P.lXkX&X:X{.] / b.=.*.H.M.o.3.6.4.5.W j Z b e G g x v 0.5.x.' o.H.A. .b.4.i c.8X&XuXlX1XJ   *           ",
"            X   P.lXlX<X:X{.| ` b.n.-.C.n.t.7.` ` ' 2.j 4 9 C 9 3 p 5...` / X.b.C.C.a.n.X./ v.:X&XrXlX,XH   &           ",
"            X . T.lXgX*X:X[.| { *.B.C.F.S.F.A.$.O.t.0.s h w e C p a 6.$.$.$.A.F.h.Z.F.n. .` c.:X@XrXlX%XK   &           ",
"            X . W.zXgX<X-X[.3.{ =.Z.Z.d.f.g.p.&.-.u.8.d h 9 e z p u 7.*.a.@.Z.f.d.d.D.>. .) J.#X<XtXzX'.H . &           ",
"            -   Y.kXhX:X-X{.| { @.g.f.g.F.F.%.*.*.u.r.d 6 r e r 5 s 7.n.@.@.g.F.Z.D.d.>.+.) J.-X<XrXlXXXZ . &           ",
"            O . l.iXhX<X-X[...{ %.p.F.f.g.F.a.@.-.y.0.s h r r F h u 6.t.=.@.C.Z.Z.V.V.#.O.) J.-X@X9XbX0XH . &           ",
"            X . w.+XkX6X6X].3.{ =.#.C.C.f.F.p.@.p.$.j.u 6 9 C e 8 p 6.n.#.+.h.f.V.A.A.=.O.( x.@X+XuXlX1XK . &           ",
"            X   w.3XgX<X6X{...{ @.#.C.F.f.f.p.#.;.$.j.a p 7 e C h a 6.*.>.+.d.h.C.A.M.u.O.( J.:X<XwXxX9XH   *           ",
"            X . k.uXkX,X-X[...{ @.g.g.g.p.h.p.@.$.b.8.x f r w M 4 a 0.*.&.+.h.g.Z.V.A.-.O.( c.:X&XrXbX9XH   =           ",
"            X . P.kXkX6X6X|.1.{ @.p.a.M.a.M.A.X.y.j.e.x f r B D h s 0.i.y.$.H.p.C.B.p.;.O.( J.@X<XrXdXoXH . O           ",
"            X   W.gXsX2X@X{.3.{ $.a.M.N.m.x.8.<.<.R K F P D D D Z J R W <.2.x.j.N.M.n.-.O.) x.:X7XiXiXXXH   O           ",
"            X . L.yXgXtX8X{.1.' 7.m.j.5.<.c p p 5 7 N I n q M l b U h x z 0 x c 1.5.m.b.:./ c.:X<XtXxX0XK . *           ",
"            X   P.dXhXwX*X{.3.] 8.W x < p p g z Z U P I m g G B B F Z H Y ! z 7 7 x W <.3.[ c.*X+XrXxX0XH . &           ",
"            -   T.lXlX&X&X{.,.d p 5 Z S Z C S b m P m m C M G A D B C g w Y U G T l 8 p k k v.*X7XiXiXXXU . @           ",
"      o   o o   T.lXgX2X2X Xx + z U T I m A A C M C A A A b C A B N M C C G G M A I A m 5 + z.*X*XuXlX1XK   *           ",
".     o o   X   T.lXgX*X1XXXH : S S C A A C m A D A m N A b A A M B D G z C C N n N A I h . Y.2X&XtXbXqXL   @       o   ",
".           X . T.uXaX2X2X.XZ * S C b m A A A m A C C C A m A C A C C C z M C A A V n S g . L.&X+XtXbX1XL   &           ",
"        o     . T.2XaXtX9X.XJ : C S C C C C A A C C C C A e S C B B B C C C S C N A A S g . l.2X*XuXbX=XK   @           ",
"    o   o   o . T.kXxX7X,XXXJ # G l M G m e z C l l G C C e C C M M C Z M z C M I m m I g . L.0X,XwXlX0XE   #           ",
"            & . R.kXaX+X7XOXx , G F G D F F G G D D F G G C F P F F F G G G F F m S m P J . Y.2X&X7XbX1XL   ;           ",
"      .     . . T.zXkX<X3X_.f   @ = % % % = = % 1 % % X o X 1 1 = & @ O @ @ * & = 2 = : * . w.2X&XuXbX9XK . #           ",
"o         & . R _.yX7X<X,X$XP.P.I.I.I.I.I.I.I.I.I.I.I.I.I.I.(.E.U.E.E.E.E.W.W.E.U.U.U.E.P.R..X*X2X2XyX1Xk.: # X         ",
"        = . z '.oX.X XOX XOXOXoX$X$X$X$X$X$X=X$X$X+X$X&X&X$XoX$X%X4X4X4X%X%X%X%X%X%X%X%X%XoX%X.X X X.XXX%Xk.o & o .     ",
"      X   3 `.fXyXuXuXuXtXuXfXiXrXpXtXtXtXeXtXtXeXeXtXuXtXtXtXsXrXyXyXiXyXyXuXfXqXfXyXyXqXeXsXuXuXuXwXyXdX4X! . X o     ",
"    o O . '.fXfXsXaXgXuXuXsXdXuXuXuXuXuXsXyXsXsXsXsXuXaXsXsXsXsXuXyXiXiXsXdXdXdXsXfXdXsXsXsXsXsXwXuXsXsXfXhXqXE o X     ",
"      .   L.'.'.). X X).^._._.!.).).~.).).). X).).).).).).).).).Q.Q.Q./.!.~.).!.)..X.X.X X). X).~.~.).!.(.`.'.!   &     "
};
