/* XPM */
static char *i11674121957[] = {
/* columns rows colors chars-per-pixel */
"60 60 220 2 ",
"   c #020101",
".  c #020101",
"X  c #020101",
"o  c #020101",
"O  c #020101",
"+  c #020101",
"@  c #020101",
"#  c #020101",
"$  c #020101",
"%  c #020101",
"&  c #020101",
"*  c #020101",
"=  c #020101",
"-  c #020101",
";  c #020101",
":  c #020101",
">  c #020101",
",  c #020101",
"<  c #020101",
"1  c #020101",
"2  c #020101",
"3  c #020101",
"4  c #020101",
"5  c #020101",
"6  c #020101",
"7  c #020101",
"8  c #020101",
"9  c #020101",
"0  c #020101",
"q  c #242A3E",
"w  c #2D3235",
"e  c #2D353B",
"r  c #2D393E",
"t  c #303136",
"y  c #1D2240",
"u  c #1A3B58",
"i  c #2D2D4C",
"p  c #292647",
"a  c #302B42",
"s  c #302648",
"d  c #2C3443",
"f  c #2D3C43",
"g  c #2C3D4A",
"h  c #263649",
"j  c #303A42",
"k  c #313849",
"l  c #2D3953",
"z  c #31355A",
"x  c #2D4047",
"c  c #2D434C",
"v  c #2B4A4F",
"b  c #30444E",
"n  c #30494E",
"m  c #264153",
"M  c #2C4552",
"N  c #2D4B54",
"B  c #2E455C",
"V  c #2D4C5A",
"C  c #22445F",
"Z  c #304A53",
"A  c #314C5A",
"S  c #304657",
"D  c #2E525D",
"F  c #34545F",
"G  c #2B4E65",
"H  c #304A65",
"J  c #2D5463",
"K  c #2C5A64",
"L  c #2F596C",
"P  c #30596E",
"I  c #2F5D74",
"U  c #2B5C7B",
"Y  c #305278",
"T  c #2B6878",
"R  c #326472",
"E  c #386976",
"W  c #2A737A",
"Q  c #416973",
"!  c #265283",
"~  c #28698C",
"^  c #31688F",
"/  c #2B7684",
"(  c #3C7F88",
")  c #2B699C",
"_  c #297698",
"`  c #1C7BB3",
"'  c #1C77BD",
"]  c #487E87",
"[  c #2E8C8E",
"{  c #2A8B98",
"}  c #288698",
"|  c #28929E",
" . c #258EA1",
".. c #2C8AA6",
"X. c #2398A8",
"o. c #2B92B5",
"O. c #1BB4B9",
"+. c #31A2A8",
"@. c #28ADB4",
"#. c #2BADBD",
"$. c #2CBDBB",
"%. c #27B7BF",
"&. c #548B92",
"*. c #4A979F",
"=. c #5D9BA3",
"-. c #609CA4",
";. c #50B7B6",
":. c #68AFB1",
">. c #62A6A9",
",. c #1986CA",
"<. c #109BDC",
"1. c #1AA2CD",
"2. c #1DB8CC",
"3. c #2ABCC7",
"4. c #2CAAC3",
"5. c #09ACED",
"6. c #10A4E0",
"7. c #02ACFD",
"8. c #01BDF5",
"9. c #02B3FD",
"0. c #01BCFC",
"q. c #08B7FA",
"w. c #07BAE5",
"e. c #1BC9C8",
"r. c #18D1CC",
"t. c #0EDFDC",
"y. c #19D2D6",
"u. c #20CECD",
"i. c #3ACECE",
"p. c #23D2D7",
"a. c #32D6D7",
"s. c #1BD0E3",
"d. c #01C4FC",
"f. c #04CCFA",
"g. c #07C8F5",
"h. c #11C4F9",
"j. c #12CDF8",
"k. c #00D4F5",
"l. c #01DCF7",
"z. c #03D2FC",
"x. c #03DCFE",
"c. c #14D7F9",
"v. c #0FCCE9",
"b. c #2AD0FA",
"n. c #0BE1EC",
"m. c #1FECE5",
"M. c #01FCEE",
"N. c #0AF9EE",
"B. c #01E1F4",
"V. c #00EBF5",
"C. c #00EBFA",
"Z. c #05E6FD",
"A. c #01F6F4",
"S. c #01FEF5",
"D. c #0BFDF5",
"F. c #01F5FA",
"G. c #01FEFA",
"H. c #0CFFF9",
"J. c #0EF6FA",
"K. c #13FEF6",
"L. c #1DFEF5",
"P. c #13FFFA",
"I. c #16F8F9",
"U. c #13E6FB",
"Y. c #20E4E3",
"T. c #26F2ED",
"R. c #36F2ED",
"E. c #3FEAF9",
"W. c #23FEF5",
"Q. c #2CFCF4",
"!. c #24FFF8",
"~. c #2DFEFC",
"^. c #24F6F3",
"/. c #31FDF6",
"(. c #3BFDF6",
"). c #36FFFA",
"_. c #38FFFC",
"`. c #35E8E4",
"'. c #57D8D8",
"]. c #63C9C9",
"[. c #76C9CF",
"{. c #6FCCD1",
"}. c #79DADB",
"|. c #4ADFF3",
" X c #59D6FB",
".X c #48EAE7",
"XX c #48F5EF",
"oX c #5DE2FA",
"OX c #42FEF6",
"+X c #43FFFA",
"@X c #4AFBF6",
"#X c #53F7F2",
"$X c #5AFBF5",
"%X c #5BFEFC",
"&X c #58F8F5",
"*X c #66E2E0",
"=X c #75EDFB",
"-X c #6CFDF6",
";X c #6BFEFA",
":X c #61FCFE",
">X c #74FDF6",
",X c #74FEFC",
"<X c #7DFEFB",
"1X c #79F6FC",
"2X c #75EAF0",
"3X c #80DEE0",
"4X c #87E9EB",
"5X c #88E6FE",
"6X c #85FEFC",
"7X c #8CFEFC",
"8X c #8AF8F8",
"9X c #9BF5FD",
"0X c #93FEFD",
"qX c #9BFEFD",
"wX c #95F7F9",
"eX c #A3FCFD",
"rX c #ABF8FE",
"tX c #A1F1FC",
"yX c #B3F8FD",
"uX c #BAF9FF",
/* pixels */
"@ @ @ @ @ @ @ @ @ @ @ @ @ @ @ @ @ @ @ @ @ @ @ @ @ @ @ @ @ @ o & @ @ @ @ @ @ @ @ @ @ @ @ @ @ @ @ @ @ @ @ @ @ @ @ @ @ @ @ ",
"@ @ @ @ @ @ @ @ @ @ @ @ @ @ @ @ @ @ @ @ @ @ @ @ @ @ @ @ @ o @ @ @ @ @ @ @ @ @ @ @ @ @ @ @ @ @ @ @ @ @ @ @ @ @ @ @ @ @ @ ",
"@ @ @ @ @ @ @ @ @ @ @ @ @ @ @ @ @ @ @ @ @ @ @ @ @ @ @ @ @ @ @ @ @ @ @ @ @ @ @ @ & o @ @ @ @ @ @ @ @ @ @ @ @ @ @ @ @ @ @ ",
"@ @ @ @ @ @ @ @ @ @ @ @ @ @ @ @ @ @ @ @ @ @ @ @ @ @ @ @ @ @ @ @ @ @ @ @ @ @ @ @ @ o @ @ @ @ @ @ @ @ @ @ @ @ @ @ % o @ @ ",
"@ @ @ @ @ @ @ @ @ @ @ @ @ @ @ @ @ @ @ @ @ @ @ @ @ @ @ @ @ @ @ @ @ @ @ @ @ @ @ @ @ @ @ @ @ @ @ @ @ @ @ @ @ @ @ @ @ @ @ @ ",
"@ @ @ @ @ @ @ @ @ @ @ @ @ @ @ @ @ @ @ @ @ @ @ @ @ @ @ @ @ @ @ @ @ @ @ @ @ @ @ @ @ @ @ @ @ @ @ @ @ @ @ @ @ @ @ @ @ @ @ @ ",
"@ @ @ @ @ @ @ @ @ @ @ @ o % @ @ @ @ @ @ @ @ @ @ @ @ @ @ @ @ @ @ @ @ @ @ @ @ @ @ @ @ @ @ @ @ @ @ @ @ o @ @ @ @ @ @ @ @ @ ",
"@ @ @ @ @ @ @ @ @ @ @ @ @ @ @ @ @ @ @ @ @ @ @ @ @ @ @ @ @ @ @ @ @ @ @ @ @ @ @ @ @ @ @ @ @ @ @ @ @ @ @ @ @ @ @ @ @ @ @ @ ",
"@ @ @ @ @ @ @ @ @ @ @ @ @ @ @ @ @ @ @ @ @ o @ @ @ @ @ @ @ @ @ @ @ @ @ @ @ @ @ @ @ @ @ @ @ @ @ @ @ @ @ @ @ @ @ @ @ @ @ @ ",
"@ @ @ @ @ @ @ @ @ @ @ @ @ @ @ @ @ @ @ @ @ @ @ @ @ @ @ @ @ @ @ @ @ @ @ @ @ @ @ @ @ @ @ @ @ @ @ @ @ @ @ @ @ @ @ @ @ @ @ @ ",
"@ @ @ @ @ @ @ @ @ @ @ @ @ @ @ @ @ @ @ @ @ @ @ @ @ @ @ @ @ @ @ @ @ @ @ @ @ @ @ @ @ @ @ @ @ @ @ @ @ @ @ @ @ @ @ @ @ o @ @ ",
"@ @ @ @ @ @ @ @ @ @ @ @ @ @ @ @ @ @ @ % o @ @ @ @ @ @ @ @ @ @ @ @ @ @ @ @ @ @ @ @ @ @ @ @ @ @ @ @ @ @ @ @ @ @ @ @ @ @ @ ",
"@ @ @ @ @ @ @ @ @ @ @ @ @ @ @ @ @ @ @ @ @ @ @ @ @ @ @ @ @ @ @ @ @ @ @ @ @ @ @ @ @ @ @ @ @ @ @ @ @ @ @ @ @ @ @ @ @ @ @ @ ",
"@ @ @ @ @ @ @ @ @ @ @ @ @ @ @ % @ @ @ @ @ @ @ @ @ @ @ @ @ @ @ @ @ @ @ @ @ @ @ @ @ @ @ @ @ @ @ @ @ @ @ @ @ @ @ @ o @ @ @ ",
"@ @ @ @ @ @ @ @ @ @ @ @ @ @ @ o @ @ @ @ @ @ @ @ @ @ @ @ @ @ @ @ @ @ @ @ @ @ @ @ @ @ @ @ @ @ @ @ @ @ @ @ @ @ @ @ % @ @ @ ",
"@ @ @ @ @ @ @ @ @ @ @ @ o @ @ @ @ @ @ @ @ @ @ @ @ @ @ @ @ @ @ @ @ @ @ @ @ @ @ @ @ @ @ @ @ @ @ @ @ @ @ @ @ @ @ @ @ @ @ @ ",
"@ @ @ @ @ @ @ @ @ @ @ @ @ @ @ @ o @ @ @ @ @ @ @ @ o @ % o @ % @ 3 @ @ @ @ @ @ @ @ @ @ @ @ @ @ @ @ @ @ @ @ @ @ @ @ @ @ @ ",
"@ @ @ @ @ @ @ @ @ @ @ @ @ @ @ @ % @ @ @ @ @ @ @ o @ @ @ @ o # #   O @ @ @ @ @ @ @ @ @ @ @ @ @ @ @ @ @ @ @ @ @ @ @ @ @ @ ",
"@ @ @ @ @ @ @ @ @ @ @ @ @ @ @ @ @ @ @ @ @ @ @ @ % @ @ @ @ # @   ' !   : @ @ @ @ @ @ @ @ @ @ @ @ @ @ @ @ @ @ @ @ @ @ @ @ ",
"@ @ @ @ @ @ @ @ @ @ @ @ @ @ @ @ @ @ @ @ @ @ @ @ @ @ @ @ # #   ,.7.)   5 @ @ @ @ @ @ @ @ @ @ @ @ @ @ @ @ @ @ @ @ @ @ @ @ ",
"@ @ @ @ @ @ @ @ @ @ @ @ @ @ @ @ @ @ @ @ @ @ @ @ o @ @ @ :   ,.7.7.`   5 @ @ @ @ @ @ @ @ @ @ @ @ @ @ @ @ @ @ @ @ @ @ @ @ ",
"@ @ @ @ @ @ @ @ @ @ @ @ @ @ @ @ @ @ @ @ @ @ @ @ @ @ @ 5   ` 9.7.9.,.  5 @ @ @ @ @ @ @ @ @ @ @ @ @ @ @ @ @ @ @ @ @ @ @ @ ",
"@ @ @ @ @ @ @ @ @ @ @ @ @ @ @ @ @ @ @ @ @ @ @ @ @ @ 3   U 9.9.7.9.<.  * @ @ @ o @ @ @ @ @ @ @ @ @ @ @ @ @ @ @ @ @ @ @ @ ",
"@ @ @ @ @ @ @ @ @ @ @ @ @ @ @ @ @ @ @ @ @ @ @ @ @ @ #   <.0.q.8.0.5.3 O = @ @ @ @ @ @ @ @ @ @ @ @ @ @ @ @ @ @ @ @ @ @ @ ",
"@ @ @ @ @ @ @ @ @ @ @ @ @ @ @ @ @ @ @ @ @ @ @ @ @ 5 . ~ d.0.0.0.0.8.G   : @ @ @ @ @ @ @ @ @ @ @ @ @ @ @ @ @ @ @ @ @ @ @ ",
"@ @ @ @ @ @ @ @ @ @ @ @ @ @ @ @ @ @ @ @ @ @ o @ @ 3 . <.f.d.h.h.d.d._   5 @ @ @ @ @ @ @ @ @ @ @ @ @ @ @ @ @ % o @ @ @ @ ",
"@ @ @ @ @ o @ @ @ @ @ @ @ @ @ @ @ @ o @ @ @ @ @ # @ 3 w.j.0.5X Xd.f.1.. 5 @ o @ @ @ @ @ @ @ @ @ @ @ @ @ @ @ @ @ @ @ @ @ ",
"@ @ @ @ @ @ @ @ @ @ @ @ @ @ @ @ @ @ @ @ = @ @ # 3   v g.f.b.yX5Xf.j.g.M   3 @ % @ @ @ @ @ @ @ @ @ @ @ @ @ @ @ @ @ @ @ @ ",
"@ @ @ @ @ @ @ @ @ @ @ @ @ @ @ @ @ o o @ # # * 3 6 + V j.f. XuXeXk.f.x.X.  0 @ @ @ @ @ @ @ @ @ @ @ @ @ @ @ @ @ @ @ @ @ @ ",
"@ @ @ @ @ @ @ @ @ @ @ @ @ @ @ @ @ = @ * * 4 4 6 6 6 w s.l. XyXyXoXk.c.g.0 4 4 3 @ @ @ @ @ @ @ @ @ @ @ @ @ @ @ @ @ @ @ @ ",
"@ @ @ @ @ @ @ @ @ @ @ @ @ @ @ @ @ = * 4 4 6 6 w w f   2.Z.|.rXrXwXk.c.B. .  e 4 3 * # @ @ @ @ @ @ @ @ @ @ @ @ @ @ @ @ @ ",
"@ @ @ @ @ @ % o @ @ @ @ @ @ @ @ * 3 4 9 9 w e f f c & } Z.l.wXrXeX=XB.Z.v.e 0 w 6 3 3 # % @ @ @ @ @ @ @ @ @ @ @ @ @ @ @ ",
"@ @ @ @ @ @ @ @ @ @ @ @ @ @ # # 4 4 w w e r f & x S c d s.Z.=XeXeX9XE.B.U.X.  x w 0 6 3 = @ @ @ @ @ @ @ @ @ @ @ @ @ @ @ ",
"@ @ @ @ @ @ @ @ @ @ @ @ @ @ # 3 4 0 t e f j K | g x D a  .C.XX9X9XeX8XV.V.n.V w r w 7 4 3 = @ @ @ @ @ @ @ @ @ @ @ @ @ @ ",
"@ @ @ @ @ @ @ @ @ @ @ @ @ # 3 6 6 e r f M d W F.y.J J L g y.F.1XqXwXqX1XV.J.O.  n d w 0 6 3 = @ @ @ @ @ @ @ @ @ @ @ @ @ ",
"@ @ o @ @ @ @ @ @ @ @ @ # * 6 0 e f f c N a  .A.G.e.z T H { A.#X9XwXwXqX&XA.J.T e x r w 6 6 * = @ @ @ @ @ @ @ @ @ @ @ @ ",
"o % @ @ @ @ @ @ @ @ @ @ * 3 6 e r f M M J i r.G.A.A./ I T Y t.D.6X0X7X0X7X^.S.u.> N f r w 6 4 = @ @ @ @ @ @ @ @ @ @ @ @ ",
"@ @ @ @ @ @ @ @ @ @ @ = 3 6 w r f c N J S / M.D.D.S.} U ^ Y 3.G.-X0X7X7X0X>XS.D.W d c f e w 6 3 = @ @ @ @ @ @ @ @ @ @ @ ",
"@ @ @ @ @ @ @ @ @ @ @ 3 4 6 w f x M V K z e.H.M.S.N.| ^ _ ^ @.S.@X7X7X7X6X7X@XG.u.< N x f t 6 4 * # @ o @ @ @ @ @ @ @ @ ",
"@ @ @ @ @ @ @ @ @ @ @ 3 6 w e f c V J B { K.S.$X(.S..._ } ^ #.S./.6X7X7X7X0X6XS.D.W g n f d 7 4 * = @ o @ @ @ @ @ @ @ @ ",
"@ @ @ @ @ @ @ @ @ @ * 4 6 w f x N V L H Y.H.I.7X-XG.4.) ..) p.P.L.<X7X6X7X7X7X$XG.$.1 S g r w 6 8 * @ @ @ @ @ @ @ @ @ @ ",
"@ @ @ @ @ @ @ @ @ = * 4 w e f c S K l @.W.S.%X0X,XS.T.4.o.3.L.L.W.6X7X7X6X6X7X<XK.m.A M b j e 9 4 * $ @ @ @ @ @ @ @ @ @ ",
"@ @ @ @ @ @ @ @ @ @ 4 6 w e x M V G T T.P.(.7X7X6XQ.!.!.^.!.W.W.(.6X7X6X7X7X7X7X+XP.[ d n x r 0 4 3 # @ o @ @ @ @ @ @ @ ",
"@ @ @ @ @ @ @ @ @ * 4 0 e f x N K i 3.).W.,X0X6X6X(.^./.~././.D.$X7X7X7X6X7X7X7X-XP.$.< D f r w 6 3 # @ @ @ @ @ @ @ @ @ ",
"@ @ @ @ @ @ @ @ # = 4 6 e f c N G I R.W.$X0X7X7X0X,XK.Q././.L.OX7X7X7X7X7X7X7X6X,X~.a.p N x f e 6 4 # # o @ @ @ @ @ @ @ ",
"@ @ @ @ @ @ @ @ @ * 5 w w f c D i +._.(.7X6X7X6X6X7X-X+X(.OX$X7X7X7X7X7X7X7X7X7X7X+X`.B N c j e 0 4 = @ @ @ @ @ @ @ @ @ ",
"@ @ @ @ @ @ @ @ @ 3 4 0 r f c D p i.).-X7X7X7X0X7X7X0X6X6X7X0X7X7X7X7X6X7X7X7X7X7X+XR.K M c f w 0 4 3 @ @ @ @ @ @ @ @ @ ",
"@ @ @ @ @ @ @ @ @ * 6 0 r f c V B .X+X6X0X7X7X7X7X0X0X7X0X7X7X7X0X7X7X7X7X0X7X7X0X%XXXP M c f e w 4 * @ @ @ @ @ @ @ @ @ ",
"@ @ @ @ @ @ @ @ @ * 4 w e f M M I XX%X7X0X7X7X0X7X7X7X7X7X7X7X7X7X0X7X0X7X8X7X0X7X%X.XD M c r w 0 4 * @ @ @ @ @ @ @ @ @ ",
"@ @ @ @ @ @ @ @ @ * 4 0 e f c M R #X;X7X7X7X0X0X0X0X0X7X0XwX0XwX7X0X0X0X0X0X7X0X6X%X.XB N x f w 6 4 = @ @ @ @ @ @ @ @ @ ",
"@ @ @ @ @ @ @ @ @ * 4 6 e r c g R &X>X0X0X0X0X0X0X0X0X0X0X0X0X0X0X0X0X0X0X0X7XwX6X%X'.p A f j w 6 4 # @ @ @ @ @ @ @ @ @ ",
"@ @ @ @ @ @ @ @ @ = 4 6 t j c M K &X-XqX0X0X0X0X0X0X0X0X0X0X0X0X0X0X0X0X0XwX0XqX1X&X;., N g r w 6 4 # @ @ @ @ @ @ @ @ @ ",
"@ @ @ @ @ @ @ @ @ = 3 6 w r x N i '.,X0XqX0X0XqX0XqX0XqX0XqX0XqX0XqX0XqX0XqX0X0X;X;X[ d M f e 0 4 3 = @ @ @ @ @ @ @ @ @ ",
"@ @ @ @ @ @ @ @ @ @ * 4 6 e f Z ; ;.,XwXqXqXqXqXqXqXqXqXqXqXqXqXqXqXqXqXqXqXqX<X,X*Xi A x f e 6 4 3 @ @ @ @ @ @ @ @ @ @ ",
"@ @ @ @ @ @ @ @ @ @ # 3 6 w e x h E >X6XqXqXqXqXqXqXqXqX7X7X7X0XqXqXqXqXqXqX6X>X<X*.q N f r w 6 3 = @ @ @ @ @ @ @ @ @ @ ",
"@ @ @ @ @ @ @ @ @ @ @ 3 6 w e f Z ; ].7X8XeXeXeXeXqX7X6X<X<X<X<X<X6X7X7X7X<X<X7X].2 S c f e 0 4 3 # @ @ @ @ @ @ @ @ @ @ ",
"@ @ @ @ @ @ @ @ % @ @ # 3 6 w f n c V 2X7X6X0X0X7X6X6X6X6X6X6X6X7X6X6X6X6X6X7X}.m N M f r w 6 3 @ @ @ @ @ @ @ @ @ @ @ @ ",
"@ @ @ @ @ @ @ @ @ @ @ # 3 6 0 e j n e Q 4X0X7X7X7X7X0X0X0X0XwX0X7X7X7X0X0X0X{.l N M f f w 0 3 3 # @ @ @ @ @ @ @ @ @ @ @ ",
"@ @ @ @ @ @ @ @ @ @ @ @ * 4 6 w e f n q J [.wX0XqXqX0XwX4X}.4X4X0XqXqX0X4X=.y M M f f e w 6 4 * @ @ @ @ @ @ @ @ @ @ @ @ ",
"@ @ @ @ @ @ @ @ @ @ @ @ @ * 4 6 w e r n f - Q =.:.>.&.R C u u J ] =.-.] h 2 A M g f e w 6 4 = @ @ @ @ @ @ @ @ @ @ @ @ @ "
};
