/* XPM */
static char *i21674121958[] = {
/* columns rows colors chars-per-pixel */
"60 60 235 2 ",
"   c #020101",
".  c #020101",
"X  c #020101",
"o  c #020101",
"O  c #020101",
"+  c #020101",
"@  c #020101",
"#  c #020101",
"$  c #020101",
"%  c #020101",
"&  c #020101",
"*  c #020101",
"=  c #020101",
"-  c #020101",
";  c #020101",
":  c #020101",
">  c #020101",
",  c #020101",
"<  c #020101",
"1  c #020101",
"2  c #020101",
"3  c #020101",
"4  c #020101",
"5  c #020101",
"6  c #020101",
"7  c #020101",
"8  c #020101",
"9  c #020101",
"0  c #020101",
"q  c #302224",
"w  c #312A29",
"e  c #2E302F",
"r  c #2D2E32",
"t  c #2B2439",
"y  c #2C2635",
"u  c #2D3235",
"i  c #2D353B",
"p  c #2E393E",
"a  c #303133",
"s  c #303338",
"d  c #302D36",
"f  c #2D2847",
"g  c #2C3442",
"h  c #2D3C43",
"j  c #2D3E4A",
"k  c #2C344C",
"l  c #313D43",
"z  c #303249",
"x  c #2F2F51",
"c  c #2F3B54",
"v  c #2D3454",
"b  c #303957",
"n  c #2D4146",
"m  c #2D434C",
"M  c #2D484E",
"N  c #30444B",
"B  c #324147",
"V  c #2D4552",
"C  c #2D4A55",
"Z  c #2D4459",
"A  c #2D4D5A",
"S  c #274B59",
"D  c #334C54",
"F  c #314658",
"G  c #2D515E",
"H  c #31535F",
"J  c #2E4D63",
"K  c #294664",
"L  c #2D5464",
"P  c #2E556B",
"I  c #2D5A6B",
"U  c #27556F",
"Y  c #325866",
"T  c #2E5773",
"R  c #2C5D72",
"E  c #2E5A7B",
"W  c #31577B",
"Q  c #314B6C",
"!  c #3B6668",
"~  c #2D657C",
"^  c #2A6677",
"/  c #35717A",
"(  c #447478",
")  c #456C71",
"_  c #2D5C83",
"`  c #2F5385",
"'  c #2C6A83",
"]  c #2C6D89",
"[  c #2E648C",
"{  c #2C738B",
"}  c #237F8E",
"|  c #2B6996",
" . c #2E7594",
".. c #287C99",
"X. c #317491",
"o. c #226BA2",
"O. c #4E7B80",
"+. c #29828C",
"@. c #2B8896",
"#. c #29929D",
"$. c #3A8E92",
"%. c #2488A5",
"&. c #2796A6",
"*. c #1FAEBC",
"=. c #1DB1B5",
"-. c #3AA3A5",
";. c #24A7B7",
":. c #29B6BA",
">. c #39BAB9",
",. c #5A9597",
"<. c #52898C",
"1. c #439CA0",
"2. c #51AFAE",
"3. c #4AB0B1",
"4. c #67AAA9",
"5. c #6EB9BB",
"6. c #1197D5",
"7. c #1791D2",
"8. c #12A8D2",
"9. c #0FBBDF",
"0. c #1AAEC8",
"q. c #24BBC4",
"w. c #099DEC",
"e. c #09A8EA",
"r. c #10A1E2",
"t. c #00ABFE",
"y. c #06A8F9",
"u. c #01B3FC",
"i. c #02BCFC",
"p. c #15BAFB",
"a. c #0FB3EF",
"s. c #5BBDC0",
"d. c #46BEFD",
"f. c #1DC5C5",
"g. c #16C9D8",
"h. c #17D7D8",
"j. c #01D8DA",
"k. c #28D8D7",
"l. c #30D0D4",
"z. c #16E1DE",
"x. c #09C9EA",
"c. c #08D7EC",
"v. c #00C1F7",
"b. c #01C5FB",
"n. c #0DC3FC",
"m. c #00CCF9",
"M. c #07CCF8",
"N. c #15C6FB",
"B. c #01D2F2",
"V. c #01DBF5",
"C. c #02D5FB",
"Z. c #02DCFB",
"A. c #0DDAF5",
"S. c #12D8F9",
"D. c #35D3FB",
"F. c #3BC0F9",
"G. c #09E6E8",
"H. c #01E4F6",
"J. c #0BE4F3",
"K. c #01EBF5",
"L. c #02E4FC",
"P. c #01ECFB",
"I. c #0DEFFB",
"U. c #12E7F5",
"Y. c #02F4F3",
"T. c #02FEF4",
"R. c #0BFEF4",
"E. c #02F3FC",
"W. c #00FEFA",
"Q. c #0BFEFA",
"!. c #0BF4F4",
"~. c #13FEF4",
"^. c #1CFFF4",
"/. c #13FFFB",
"(. c #1AFEF9",
"). c #0FF2EB",
"_. c #29E7E4",
"`. c #23FFF5",
"'. c #2BFDF5",
"]. c #25FFFA",
"[. c #2BFFF9",
"{. c #33FDF5",
"}. c #3CFEF5",
"|. c #33FEF9",
" X c #39FFFB",
".X c #32F3F8",
"XX c #33ECF1",
"oX c #5CDEDC",
"OX c #7CD6D8",
"+X c #74C7CA",
"@X c #56D3FB",
"#X c #68D3FC",
"$X c #72D7FE",
"%X c #49E5F8",
"&X c #43FDF6",
"*X c #43FFFC",
"=X c #4AFEFA",
"-X c #4CF9F7",
";X c #55FEF6",
":X c #5CFDF6",
">X c #53FEFA",
",X c #5BFFFB",
"<X c #56F0FA",
"1X c #5AE2FA",
"2X c #66E3FA",
"3X c #6FFFF6",
"4X c #63FDFA",
"5X c #6CFEFA",
"6X c #67F6F7",
"7X c #75FEFB",
"8X c #7CFEFC",
"9X c #76F9F6",
"0X c #76E9EC",
"qX c #82DDDB",
"wX c #84E0DF",
"eX c #88DFFB",
"rX c #86EAEB",
"tX c #98EFFF",
"yX c #8BF5FB",
"uX c #85FEFC",
"iX c #8CFEFC",
"pX c #83FBF7",
"aX c #96F5FE",
"sX c #9CF6FE",
"dX c #94FEFC",
"fX c #9BFDFD",
"gX c #87EFF0",
"hX c #A6EEFC",
"jX c #A3F5FE",
"kX c #ABF5FD",
"lX c #A2FEFE",
"zX c #A9FDFE",
"xX c #B2F5FE",
"cX c #BAF6FE",
"vX c #B5F8FE",
/* pixels */
"$ $ $ $ $ $ - $ $ $ $ $ $ $ $ $ $ $ $ $ $ $ $ $ $ $ $ $ $ $ $ + $ $ & $ + $ $ $ $ $ $ $ $ $ $ $ $ $ $ $ $ $ $ $ - $ $ $ ",
"$ $ $ $ $ $ $ $ $ $ $ $ + $ $ $ $ $ $ $ $ $ - $ $ $ - $ $ $ $ $ $ + $ $ $ $ $ $ $ $ $ $ $ $ $ $ $ $ $ $ $ $ $ $ $ $ $ $ ",
"$ $ $ $ $ $ $ $ $ $ $ $ $ $ $ $ $ $ $ $ $ + $ $ $ $ $ $ $ $ $ $ $ $ & $ $ $ $ $ $ $ $ $ $ $ $ $ $ $ $ $ $ $ $ $ $ $ $ $ ",
"$ $ $ $ $ $ $ $ & $ $ $ + # $ $ $ $ $ $ $ $ $ $ $ $ $ $ $ $ $ $ $ $ $ $ $ $ $ $ $ $ $ $ - $ $ $ $ $ $ $ $ $ $ $ $ $ $ $ ",
"$ $ $ $ $ $ $ $ $ $ $ $ $ $ $ $ $ $ $ $ $ $ $ $ $ $ $ $ $ + $ $ $ % $ % $ $ $ $ $ $ $ $ $ $ $ + $ $ $ $ $ $ $ $ $ $ $ $ ",
"$ + $ $ - $ $ $ $ $ $ $ $ $ $ $ $ $ $ $ $ $ $ $ $ $ $ $ $ $ $ $ & + % $ $ $ $ $ $ $ $ $ $ $ $ $ $ $ + $ & + $ $ $ $ $ $ ",
"$ $ $ $ $ $ $ $ & + $ $ $ $ $ $ $ $ $ $ $ $ $ $ $ $ $ $ $ $ $ $ + 1 O % $ & $ $ $ $ $ $ $ $ $ $ $ $ $ $ $ $ $ $ $ $ $ $ ",
"$ $ $ $ $ $ $ $ $ $ $ $ $ $ $ $ $ $ $ $ $ $ $ $ $ $ $ $ $ $ % % . 7.o.. 9 + $ $ $ $ $ $ $ $ $ $ $ $ & $ $ $ $ $ $ $ $ + ",
"$ $ $ $ $ $ $ $ $ $ $ $ $ $ $ $ $ $ - : $ $ $ $ $ + $ $ $ + 1 . o.t.y.K . 1 $ $ $ $ $ $ $ $ $ $ & $ $ $ $ $ $ $ $ $ $ $ ",
"$ $ $ $ $ $ $ $ $ $ $ $ $ $ $ $ $ $ $ $ $ $ $ $ $ $ $ $ $ 9 . K y.y.t.7.o 1 $ $ $ $ $ $ $ $ $ $ $ $ $ $ $ $ $ $ $ $ $ $ ",
"$ $ $ $ $ $ + $ $ $ $ $ $ $ $ $ $ : $ $ $ $ $ $ $ $ $ $ 9 . 9 w.t.y.t.u.o.o 9 & $ $ $ $ $ $ $ $ # + $ $ $ $ $ $ $ $ $ $ ",
"$ $ $ $ $ $ $ $ $ & $ $ $ $ $ $ + $ $ $ $ $ $ $ $ $ & 9 . $ r.u.a.t.y.u.e.% @ % $ $ $ $ - $ $ $ $ $ $ $ $ $ $ $ $ $ $ $ ",
"- $ - $ $ $ $ $ $ $ $ $ $ $ $ $ - $ $ $ $ $ $ : : % y . i r.u.p.t.d.t.y.i.| . 9 - $ $ $ $ $ $ $ $ $ $ $ $ $ $ $ $ $ $ $ ",
"$ $ $ $ $ $ $ $ + $ $ $ $ $ $ $ $ $ : $ * ; : ; 9 d . U e.i.p.t.$XhXu.i.i.6.. 9 $ $ $ $ $ $ $ $ $ $ $ $ $ $ + $ $ $ $ $ ",
"$ $ $ $ $ $ $ $ $ $ $ $ $ $ + $ $ $ ; $ > 7 ; e ; o ..i.p.i.u.#XcXcXF.i.b.a.7 $ ; $ $ $ $ $ $ $ $ $ $ $ $ $ $ $ $ $ $ $ ",
"$ $ $ $ $ $ $ $ $ $ & $ & $ & $ ; 7 ; 8 8 8 i O 8 7.N.i.i.n.eXcXxXxX@Xi.p.u.S @ 7 ; % $ $ $ $ $ $ $ $ $ $ $ $ $ - $ $ $ ",
"$ $ $ $ $ $ $ $ $ $ $ $ $ $ ; ; ; 8 8 8 0 i . T 9.b.v.n.$XjXcXxXxXvX#Xv.N.v.L O 0 7 7 % $ $ $ $ $ $ $ $ $ & $ $ $ $ $ $ ",
"$ $ $ $ $ $ $ $ $ $ $ $ ; ; ; 8 8 0 0 r l X ..n.n.N.$XjXvXxXkXxXkXxX@Xv.N.b.L + u 8 8 7 ; ; % $ $ $ $ $ $ $ $ $ $ $ - $ ",
"$ $ $ $ $ $ $ $ $ $ $ : ; 7 8 0 0 u u p o %.M.m.@XjXxXkXkXkXkXkXkXxX@Xb.M.x.V 0 u 0 8 8 7 7 ; $ $ $ $ $ $ $ $ $ $ $ $ $ ",
"$ $ $ $ $ $ $ $ $ $ ; q 8 8 0 0 u u h . %.C.m.D.kXkXjXkXjXkXkXjXjXjXD.m.C.9.8 g i u u u 8 8 7 ; $ $ $ $ $ $ $ $ $ $ $ $ ",
"$ $ $ $ $ $ $ $ $ ; 7 7 0 e u i i j O } C.S.m.2XzXjXkXjXkXjXkXjXkXtXB.C.Z.0.X m p p i u 0 0 8 7 ; $ $ $ $ $ $ $ $ $ $ $ ",
"$ $ $ $ $ $ $ $ : 7 8 8 0 u u p j u Y B.C.S.V.2XkXjXjXjXjXhXjXjXkX0XC.S.Z.%.q V j h i i u e 8 8 7 ; $ $ $ $ $ $ + $ $ $ ",
"$ $ $ $ $ $ $ % 7 8 0 0 u u p p m q 0.Z.V.A.V.%XsXjXjXjXsXjXsXjXkX1XV.S.V.^ m V m j h p i i e 0 8 7 ; $ $ - $ $ $ $ $ $ ",
"$ $ $ $ $ $ $ ; 8 0 0 u i p n M g ^ L.H.Z.Z.V.S.aXsXsXsXjXjXsXsXsXU.Z.Z.g.j A C V M m j h i a u 0 8 7 : $ $ $ $ $ $ $ $ ",
"$ $ * $ $ $ ; 8 0 0 u u h m n C y &.L.H.H.L.J.H.yXjXaXaXsXsXaXjX9XZ.U.K.;.b L H A C V m l h i i u 0 8 7 $ $ $ $ - $ $ $ ",
"$ $ $ $ $ ; 7 8 0 r i i m p U G t *.E.H.J.U.J.H.yXfXfXdXsXaXsXsX%XL.U.H.} J I Y Z A C V m m p i u r 8 7 ; $ $ $ $ $ $ $ ",
"$ $ $ $ * ; 7 8 0 i p n u R 6.L f *.I.%XL.K.H.<XfXaXdXaXaXaXfXyXK.H.P.A.E ~ I ~ &.Z L V V j h g u u 0 8 ; % $ $ $ $ $ $ ",
"$ $ $ $ ; q 8 0 u i h j p 8.e.L k ;.P.pX6X-X6XaXaXaXdXaXdXaXdX6XK.).E.h.T ~ ~ T G.&.k L V M m h p u r 0 7 ; % $ $ $ $ $ ",
"$ $ $ $ ; 8 8 a i p m w @.v.a.~ F @.Y.8XfXiXdXaXaXyXiXaXiXiXyX.XY.!.W.f.E { ~ T G.K.I G L V m h h i u 0 8 ; % $ $ $ $ $ ",
"$ $ $ ; ; 8 0 u i p m u 8.v.B.%.J ' G.4XaXuXiXiXiXiXiXiXiXiX7XY.!.Y.W.g._ X.' { G.W.f.x L A V m h i u 0 8 8 ; $ $ $ $ $ ",
"$ $ $ : 7 0 r u i l j S x.B.B.0.J W j.*XiXiXiXiXiXiXiXiXuXaX,XY.R.Y.Q.h.X. .' %.T.T.T.@.b L C m j i u u 0 8 7 $ $ $ $ $ ",
"$ $ % : 7 0 u u p n j L c.V.H.x.' T q.T.8XiXuXuXiXuXuXuXiXuX{.T.R.T.T.!.%.| ` h.T.T.T.h.v L C V m h i u r 8 7 ; $ $ $ $ ",
"$ $ % 7 7 0 u i h m D g g.P.L.L.@.` &.R.,XiXuXuXuXuXiXuXiX8X~.T.R.T.R.T.z.&.f.T.R.-XT.T.+.c G V m h i u e 0 8 ; $ $ $ $ ",
"$ $ ; ; 0 u i i j m S z #.E.E.E.@.' X.).(.8XiXiXuXuXuXiXiX7XT.R.R.R.R.R.Q.R.Q.R.T.7X}.W.f.f L C m j h i u 0 8 ; : $ $ $ ",
"$ $ : 9 8 u i p j m S G c =.E.*._ X.| k.W.6XuXuXuXuXuXiXiX8XT.~.R.~.~.~.~.~.~.R.R.uX4XW._.L G C M m p i u 0 8 ; ; $ - $ ",
"$ : ; 7 0 r i h j M V J L J ~ E [ X.[ q.W.&XuXuXuXuXuXuXuXpX'.~.^.^.(.~.~.^.~.Q.{.iX3XT.^.@.c G V m n i u r 8 q % $ $ $ ",
"$ : ; 8 0 u i h n V A H I R T ' X. .| ;.^.^.8XdXuXiXuXuXiXiX-XT.^.^.^.~.^.^.`.T.;XiX8X'./.:.f H C c h p i 0 9 7 ; $ $ $ ",
"$ : 7 7 e u i h m V A L I P +.{ ]  .| q.].T.3XuXuXuXiXuXiXiX7X~.`.`.].].`.].`.~.8XiXuX=XQ.k.v G C m j i u r w 8 ; $ $ $ ",
"$ % ; 0 0 u p h m V A J I Q _.#._ ..[ l.[.R.4XiXiXuXiXuXuXiXiX5XT.].'.'.'.`.T.:XuXiXiX;XQ._.L A C m j p i 0 8 8 > $ $ $ ",
"$ % 7 8 e u h h m V A L Q +.|.l._ ` &.'.{.`.;XiXiXiXuXiXuXuXiXiX5X{.~.(.^.`.4XuXuXiXiX4X/..X/ V C M h p i u 0 q ; $ $ $ ",
"$ ; ; 8 0 u i h m V A I v :. X|._.l.XX|.{.].;XiXiXiXiXiXiXiXpXdXiXuX5X5X7XpXiXdXiXiXiX3X`.{.@.z A N B p i 0 8 8 % $ $ $ ",
"$ $ 7 8 0 u i h n V C I v l. X}. X X}.}.}.[.,XiXiXiXiXpXiXiXiXiXiXiXdXdXiXiXiXiXiXiXiX8X'. X-.f A m j i u u 8 7 ; $ $ $ ",
"$ $ 7 8 r i i h n V A G Y XX*X}.}.}.}.}.&X{.3XiXiXpXiXiXpXdXpXiXiXiXiXuXuXiXiXuXiXiXiX7X{.*X:.4 A m h i i e 8 7 % $ $ $ ",
"$ $ ; 8 8 u i h m V A F / {.5X5X|.=X&X=X}.=XuXdXiXdXiXiXdXiXiXdXiXiXiXiXiXdXiXiXiXiXdX8X}.=X>.3 A m h i u 0 8 8 % % $ + ",
"$ $ ; 8 r r i l j V G k $.&X8XdX,X}.*X&X;XpXdXiXdXiXiXdXiXiXiXiXiXiXdXiXdXiXiXiXdXiXdX8X}.=Xq.2 A m h i i 0 8 7 % $ $ $ ",
"$ % ; 8 8 r u p j m G f -.=XpXiXdXuX8XuXdXdXiXiXdXiXiXdXdXdXdXdXdXdXdXiXiXiXdXdXiXiXdX8X=X>X3.2 D n h i r 0 8 ; $ $ $ $ ",
"$ $ % 7 8 0 u i h n D t -.>XiXaXiXdXdXdXdXdXdXdXiXdXdXiXdXiXiXiXiXdXdXiXdXiXdXdXdXiXdX7X=X,X3.3 V j p u r 8 8 ; $ $ $ $ ",
"$ $ % ; 8 0 r i h n G 4 1.,XuXdXdXdXdXdXdXdXdXdXdXdXdXdXdXdXdXdXdXdXdXdXdXdXdXdXdXdXdX7X>X,X1.2 M j i u r 0 7 ; % $ $ $ ",
"$ $ $ ; 8 8 e a p h C 5 -.,XuXfXdXfXdXdXdXdXdXdXdXfXdXdXdXdXfXfXdXdXdXdXfXdXdXdXdXdXdX5X,X,X$.5 N h i u 0 8 ; % $ $ $ $ ",
"$ $ $ ; 7 8 0 i i h M t $.4XuXfXfXdXfXdXdXfXdXdXfXdXdXfXdXdXgXfXfXdXdXfXdXfXdXdXfXdXdX4X4X6XY h n i s u 0 8 ; $ $ $ $ $ ",
"$ $ $ $ % 7 0 r i i n g ! 4X8XfXfXdXfXfXfXdXfXfXfXfXdXdXfXdXfXfXdXfXfXfXfXfXfXfXfXfXiX4X5XoX5 m h i u 0 7 7 % $ - $ $ $ ",
"$ $ $ $ % 7 8 r i i h n g oX7XfXfXfXfXfXfXfXfXfXfXfXfXfXfXfXfXfXfXfXfXfXfXfXfXfXfXfXuX5X7X2.# M p u e 8 8 ; = $ $ $ $ $ ",
"$ $ $ $ % ; 8 0 r i i M   +X3XyXlXfXlXlXfXlXfXlXfXlXlXlXfXlXlXfXlXfXfXlXfXlXfXfXlXdX7X8X3XY i h i u 0 8 ; ; $ $ $ $ $ $ ",
"$ $ $ $ $ ; 7 8 r u i j y ! 8X8XfXfXfXlXfXlXfXlXlXlXfXlXlXlXfXlXlXlXlXfXlXlXlXlXlXuX7X8X5.  m p i r 0 7 q $ $ $ $ $ $ $ ",
"$ $ $ $ $ $ ; 8 8 r u i m   +X8XgXzXlXfXlXfXlXlXlXlXlXlXlXlXlXlXlXlXlXlXfXzXfXlXdX8XpX0Xn i i u r w 8 ; % $ + $ $ $ $ $ ",
"$ $ $ $ $ - % 7 8 8 e u p i l 0XiXfXzXzXzXzXzXzXzXlXzXlXzXzXzXzXzXzXlXzXzXzXfXfXpXuXpX/ 1 n i u 0 8 8 ; $ $ $ $ $ $ $ $ ",
"$ $ $ $ $ $ $ ; ; 8 w r u p 9 ! rXdXdXzXzXzXzXzXzXzXzXzXlXfXfXlXlXzXzXzXlXfXiXiXdXrX( # n u u 0 8 8 ; $ $ $ $ $ $ $ $ $ ",
"$ $ $ $ $ $ $ % ; 8 8 0 u r l 1 N OXdXdXlXzXzXzXzXlXfXdXdXdXdXdXgXfXdXdXdXuXdXdXOXD # M r u 0 8 9 ; ; $ $ $ $ $ $ $ $ $ ",
"$ $ $ $ $ $ + $ % ; 7 8 0 u r p u   ,.wXfXfXfXfXlXfXdXrXOXOXOXrXdXfXfXfXdXaXqX<.  u l u u 0 8 7 7 ; $ $ + $ $ $ - $ $ $ ",
"$ $ $ $ $ $ $ $ $ % ; ; q 8 u r u p   # O.4.+X+X5.,.) l < , , g ! ,.4.5.4.) X   n i u 0 0 8 8 ; ; : $ $ $ $ $ $ $ $ $ $ "
};
