/* XPM */
static char *i11i1674121959[] = {
/* columns rows colors chars-per-pixel */
"60 60 236 2 ",
"   c #020101",
".  c #020101",
"X  c #020101",
"o  c #020101",
"O  c #020101",
"+  c #020101",
"@  c #020101",
"#  c #020101",
"$  c #020101",
"%  c #020101",
"&  c #020101",
"*  c #020101",
"=  c #020101",
"-  c #020101",
";  c #020101",
":  c #020101",
">  c #020101",
",  c #020101",
"<  c #020101",
"1  c #020101",
"2  c #020101",
"3  c #020101",
"4  c #020101",
"5  c #020101",
"6  c #020101",
"7  c #020101",
"8  c #020101",
"9  c #020101",
"0  c #020101",
"q  c #2E322F",
"w  c #2C2C32",
"e  c #2D3334",
"r  c #2D353A",
"t  c #2D3B3D",
"y  c #323435",
"u  c #2F1E40",
"i  c #2D3C42",
"p  c #2C3E4A",
"a  c #2D3740",
"s  c #313C46",
"d  c #283E5D",
"f  c #2F2F50",
"g  c #2D4145",
"h  c #2E434D",
"j  c #2C4653",
"k  c #2E4A55",
"l  c #2C4B5A",
"z  c #2A4058",
"x  c #314954",
"c  c #2C545D",
"v  c #38565B",
"b  c #344444",
"n  c #2B4B61",
"m  c #2F4E6B",
"M  c #2D5463",
"N  c #2D5B6B",
"B  c #2C566C",
"V  c #305565",
"C  c #2A5C7B",
"Z  c #295673",
"A  c #2E4B70",
"S  c #2A6163",
"D  c #266D6D",
"F  c #2A6374",
"G  c #2C6A7D",
"H  c #2D6679",
"J  c #346678",
"K  c #2C727C",
"L  c #446B68",
"P  c #2D6382",
"I  c #2B6987",
"U  c #2D728B",
"Y  c #267788",
"T  c #2F6F93",
"R  c #267A9B",
"E  c #307C94",
"W  c #1E7AA6",
"Q  c #1F7BBA",
"!  c #2779A9",
"~  c #4B7D83",
"^  c #1D7BC3",
"/  c #26818B",
"(  c #278A98",
")  c #358E9C",
"_  c #1D98AA",
"`  c #1A88B6",
"'  c #1C96BB",
"]  c #1C9BBB",
"[  c #1F81A8",
"{  c #2789A4",
"}  c #229EA5",
"|  c #2597A8",
" . c #2D8AB3",
".. c #2B96B5",
"X. c #339FAB",
"o. c #00A5B1",
"O. c #1BAABB",
"+. c #1FA3A8",
"@. c #20B3AD",
"#. c #29A3B6",
"$. c #30AAB5",
"%. c #4A8189",
"&. c #548F91",
"*. c #5898A1",
"=. c #64A6A9",
"-. c #69B7BB",
";. c #1C86CB",
":. c #019FCC",
">. c #1598C7",
",. c #159ED4",
"<. c #2E9CC5",
"1. c #19B6C9",
"2. c #14A9D2",
"3. c #0EB0DE",
"4. c #17BCD4",
"5. c #2DA5C9",
"6. c #27B0C0",
"7. c #2DB6D8",
"8. c #03A8E2",
"9. c #01BBEC",
"0. c #03B6EA",
"q. c #02ADFD",
"w. c #07A3F8",
"e. c #03BDF4",
"r. c #00B3FC",
"t. c #02BBFC",
"y. c #0BB8F9",
"u. c #11AAE6",
"i. c #0B95EE",
"p. c #45BFC4",
"a. c #44BFFB",
"s. c #19C5CA",
"d. c #00C1DD",
"f. c #13C6D8",
"g. c #00D5D8",
"h. c #17D8D6",
"j. c #3ECFD4",
"k. c #2DCFD2",
"l. c #02C2EC",
"z. c #0DC8E9",
"x. c #05D9E7",
"c. c #1FD4EF",
"v. c #02C5F3",
"b. c #02CBF4",
"n. c #02C3FC",
"m. c #01CCFB",
"M. c #0ECCFF",
"N. c #18C9FB",
"B. c #00D3F5",
"V. c #02DBF6",
"C. c #02D5FB",
"Z. c #0ADEFF",
"A. c #06DAFA",
"S. c #18D3EC",
"D. c #34CDE8",
"F. c #24C7F3",
"G. c #34CBF2",
"H. c #28D7F9",
"J. c #25CFE9",
"K. c #0AE7EA",
"L. c #01FCEF",
"P. c #01E3F4",
"I. c #0AE3FF",
"U. c #04EBFE",
"Y. c #09EEFD",
"T. c #04E9F8",
"R. c #01F4F5",
"E. c #01FDF4",
"W. c #01F3FD",
"Q. c #02FDFA",
"!. c #0BF7F8",
"~. c #18FCF7",
"^. c #16EDE9",
"/. c #27E5E6",
"(. c #38E9E8",
"). c #30F3EF",
"_. c #21EAFE",
"`. c #2CFAF3",
"'. c #24FEFD",
"]. c #2AFFF9",
"[. c #28F7F4",
"{. c #32FDF6",
"}. c #35FFF9",
"|. c #3BFAF7",
" X c #4FCCD2",
".X c #41D2D7",
"XX c #79CCCF",
"oX c #6FD9D9",
"OX c #45D7E8",
"+X c #53C8FE",
"@X c #48D6F3",
"#X c #55DBF5",
"$X c #57DAF8",
"%X c #66D7FB",
"&X c #72DCFE",
"*X c #63CEFC",
"=X c #52E6E4",
"-X c #47E1F7",
";X c #5CE5F7",
":X c #44FFFD",
">X c #47FBF7",
",X c #5CFDF6",
"<X c #53FEFB",
"1X c #5BFFFE",
"2X c #57F8F6",
"3X c #63E9F7",
"4X c #64EBFB",
"5X c #6EECF9",
"6X c #64E5F9",
"7X c #77EDFB",
"8X c #6DFDF7",
"9X c #62FFFA",
"0X c #6CFEFB",
"qX c #67F6FB",
"wX c #75FFF7",
"eX c #74FDFB",
"rX c #7CFEFB",
"tX c #7AF6F9",
"yX c #6DECEA",
"uX c #82D9DB",
"iX c #86E6FE",
"pX c #93EFFD",
"aX c #91E7FE",
"sX c #85F6FC",
"dX c #8BF5FD",
"fX c #84FEFB",
"gX c #8CFEFC",
"hX c #88F8F6",
"jX c #93F1FE",
"kX c #9BF2FD",
"lX c #94FEFD",
"zX c #9BFEFD",
"xX c #85E4E0",
"cX c #A2FEFE",
"vX c #A8FDFE",
"bX c #A7F3FE",
/* pixels */
"; ; ; ; ; ; ; ; ; ; - ; ; ; ; ; ; ; ; ; ; ; ; ; ; ; 9 X S K.D + 6 % ; ; ; ; ; ; ; ; ; ; ; ; ; ; ; ; ; ; ; ; ; ; ; ; ; ; ",
"; ; ; ; ; ; ; ; ; ; ; ; ; ; ; ; ; ; % ; ; ; ; ; ; ; < + D ~.Y.S X < ; ; ; ; ; ; ; ; ; ; ; ; ; ; ; ; ; ; ; ; ; ; ; ; ; ; ",
"; ; ; ; ; ; ; ; ; ; ; ; ; ; ; ; ; ; ; ; ; ; ; % ; % q + o.<X0Xg.@ 6 ; ; % ; ; > ; ; ; ; ; ; ; ; ; ; ; ; ; ; ; ; ; ; ; ; ",
"; ; ; ; ; ; ; ; ; ; ; ; ; ; ; ; ; ; ; ; ; ; ; ; ; : $ < x.qXsXY.( + 0 ; ; ; ; ; ; ; ; ; ; ; ; ; ; ; ; ; ; ; ; ; ; ; ; ; ",
"; ; ; ; ; ; ; ; ; ; ; ; ; ; ; ; ; ; ; ; ; ; ; ; ; q X O._.7XsX_.4.4 e ; ; ; ; % ; ; ; ; ; ; ; ; ; ; ; ; ; ; ; ; ; ; ; ; ",
"; ; ; ; ; ; ; ; ; ; ; ; ; ; ; ; ; ; ; ; ; ; ; % 8 X Y P.;X7X;XP.A./ o 5 ; ; ; ; ; ; ; ; ; ; ; ; ; ; ; ; - ; ; ; ; ; ; ; ",
"; ; ; ; ; - ; ; ; ; ; ; - ; ; ; ; ; ; ; ; ; ; < . c B.-X7X5X4Xc.V.V.F X < ; ; ; ; ; ; ; ; ; ; ; ; ; ; ; ; ; ; ; ; ; ; ; ",
"; ; ; ; ; ; ; ; ; ; ; ; ; ; ; ; ; ; ; ; ; ; ; $ , d.H.6X4X4X5X4Xc.C.1.X 6 ; ; ; ; ; ; ; ; ; ; ; ; ; ; ; ; ; ; ; ; ; ; - ",
"; ; ; ; ; ; ; ; ; ; ; ; ; ; ; ; ; > ; ; ; ; 6 X O.C.#X3X3X3X;X6X@Xb.z.g o : ; ; ; ; ; ; ; ; ; ; ; ; ; ; ; ; ; ; ; ; ; ; ",
"; ; ; ; ; ; ; ; ; ; ; ; ; ; ; ; ; ; ; ; ; 5 X F b.G.%X#X#X#X#X#X@Xl.l.M X < ; ; ; ; ; ; ; ; ; ; - ; ; ; ; ; ; ; - ; ; ; ",
"; - ; ; ; ; ; ; ; ; ; ; ; ; ; ; ; ; ; ; % 6 X >.b.@X#XF.b.v.G.#XD.9.l.l X < % ; ; ; ; ; ; ; ; ; ; ; ; ; ; ; ; ; ; ; ; ; ",
"; ; ; ; ; ; ; ; ; - ; ; ; ; ; ; ; ; ; ; ; < X 2.e.@XF.:.( ..0.G.F.9.3.; ; ; ; ; ; ; ; ; ; ; - ; ; ; ; ; ; ; ; ; ; ; ; ; ",
"; ; ; ; ; ; ; ; ; ; ; ; ; ; ; ; ; ; 1 ; : : X >.e.G.` X X X U 0.0.e.W X 7 ; ; ; - ; ; ; ; ; ; ; ; ; ; ; ; - ; ; ; ; ; ; ",
"; ; ; ; ; ; ; - ; ; ; ; ; ; ; - ; ; ; ; ; 5 X W 0.8.z X w w X >.e.>.o ; ; ; ; ; ; ; ; ; ; ; ; ; ; ; ; ; ; ; ; ; ; ; ; ; ",
"; ; ; ; ; ; ; ; ; ; ; ; ; ; ; ; ; ; ; ; ; : o r 8.8.w o : 2 X R ` X # : ; ; ; ; ; ; ; ; ; ; ; ; ; ; ; ; ; ; ; ; ; ; ; ; ",
"; ; ; ; ; ; ; ; ; ; ; ; ; ; ; ; ; ; ; ; ; - 2 X Z 8.I X 5 X : $ X ; : ; ; ; ; ; ; ; ; ; ; ; ; ; ; ; ; ; ; ; ; ; ; ; ; ; ",
"; ; ; ; ; ; ; ; ; ; ; ; ; ; ; ; > ; ; ; ; ; % 5 X d Z O & d # X w 2 - ; - ; ; ; ; ; ; ; ; ; ; ; ; ; ; ; ; ; ; ; ; ; ; ; ",
"; ; ; ; ; ; ; ; ; ; ; ; ; ; ; ; ; ; ; % ; ; ; ; 5 X X w + ^ i.A X 3 , - ; ; ; ; ; ; ; ; ; ; ; ; ; ; ; ; ; - ; ; ; ; ; ; ",
"; ; ; ; ; ; ; ; ; ; ; ; ; ; ; ; ; ; ; ; % ; ; ; % ; , 7 X ;.q.q.W X 5 ; ; ; ; ; ; ; ; ; ; ; ; ; ; ; ; ; ; ; ; ; ; ; ; ; ",
"; ; - ; ; ; ; ; ; ; - ; ; ; ; ; ; ; ; ; ; ; > ; ; ; 5 & : i.q.q.q.Q + 5 ; ; % ; ; ; ; ; ; ; ; ; ; ; ; ; ; ; ; ; ; ; ; ; ",
"; ; ; ; ; ; ; ; ; ; ; ; ; ; ; ; > ; ; ; ; ; % - - 5 ; + ;.q.q.q.q.r.W X 7 % ; ; ; ; ; ; ; ; ; ; ; ; ; ; ; ; ; ; ; ; ; ; ",
"; ; ; ; ; ; ; ; ; ; ; ; ; ; ; ; ; 1 ; ; ; ; : % 7 X X ,.t.y.r.+X+Xr.q.A X 2 ; ; ; ; ; ; ; ; ; ; ; ; ; ; ; ; ; ; ; ; ; ; ",
"; ; ; ; ; ; ; - ; ; ; ; ; ; ; ; ; ; ; ; ; ; % 7 X n u.t.y.y.r.*XaXr.n.,.X 5 ; ; ; ; ; ; ; ; ; ; ; ; - ; ; ; ; ; ; ; - ; ",
"; ; ; ; ; ; ; ; ; ; ; ; ; ; ; ; ; ; ; ; ; % 6 X C e.n.t.t.F.r.%XbX+Xt.y.B + 5 ; ; ; ; ; ; ; ; ; ; ; ; ; ; ; ; ; ; ; ; ; ",
"- ; ; ; ; ; ; ; ; ; ; ; ; ; ; ; ; ; ; ; ; 5 X k e.n.v.N.&Xn.t.aXbX&Xe.M.W X 7 ; ; ; ; ; ; ; ; ; ; ; ; ; ; ; ; ; ; ; ; ; ",
"; ; ; ; ; ; ; ; ; ; ; ; ; ; ; ; ; % ; ; - 5 + 2.m.n.n.iXkX*XiXkXkX7Xt.M.' + 6 ; ; ; ; ; ; ; ; ; ; ; ; ; ; ; ; ; - ; ; ; ",
"; ; ; ; ; ; ; ; ; ; ; ; ; ; ; ; ; % ; ; 5 + F m.M.n.%XkXjXkXjXpXkX$Xv.C.{ X 6 ; ; ; ; ; ; ; ; ; ; ; ; ; ; ; - ; ; ; ; ; ",
"; ; ; ; ; ; ; ; ; ; ; ; ; ; ; ; ; ; ; ; 7 X ' C.b.H.jXkXkXpXpXjXiXb.C.b.j o 5 $ ; ; ; ; ; ; ; ; ; ; ; ; ; ; ; ; ; ; ; ; ",
"; ; ; ; - ; ; ; ; ; ; ; ; ; ; ; ; ; ; ; 6 X 4.Z.B.6XjXpXdXpXpXjX@XB.I._ + X & : % ; ; ; ; ; ; ; ; ; ; ; ; ; ; ; ; ; ; ; ",
"; ; ; ; ; ; ; ; ; ; ; ; ; ; ; ; ; ; ; ; 5 X 4.Z.B.7XdXdXdXpXjX7XV.I.z.% X Y a o : ; ; ; ; ; % ; ; ; ; ; ; ; ; ; ; ; ; ; ",
"; ; ; ; ; ; ; ; ; ; ; ; ; ; ; ; ; ; ; ; 5 X 4.U.V.7XdXdXdXdXdX5XV.I._ X X f.O.+ 8 ; ; - ; ; ; ; ; ; ; ; ; ; ; ; ; ; ; ; ",
"; ; ; ; ; ; ; ; ; ; ; ; ; ; ; ; ; % : ; e + 1.Y.P.5XdXdXsXsXgX;XP.Y./ : X 4.U./ X 6 ; ; ; ; ; ; ; ; ; ; ; ; ; ; ; ; ; ; ",
"- ; ; ; ; ; ; ; ; - ; ; ; ; ; ; ; ; ; 5 & + } Y.P.;XgXsXrXsXgX;XT.Y.( r 7 | W.K.c + < ; ; ; ; ; ; ; ; ; ; ; ; ; ; ; ; ; ",
"; ; ; ; ; ; ; ; ; ; ; ; ; ; ; - ; ; 5 X W I S K.R.|.sXsXsXsXsXtXR.W.s.u + } R.W.s.+ 6 % ; ; ; ; ; ; ; ; ; ; ; ; ; ; ; ; ",
"; ; ; ; ; ; ; ; ; ; ; ; ; ; ; ; ; 5 X ! v.' * h.Q.R.eXsXtXsXrXsX>XR.!.s.} K.R.R.K.q & : ; ; ; ; ; ; ; ; ; ; ; ; ; ; ; ; ",
"; ; ; ; ; ; ; ; ; ; ; ; ; ; ; ; < X F l.l.l.P ( !.R.2XfXrXrXrXrXtX!.E.Q.Q.Q.}.R.K.g $ < ; ; ; ; ; ; ; ; ; ; - ; ; ; ; ; ",
"; ; ; ; - ; ; ; ; ; ; ; ; ; ; ; 8 + ] C.B.B.7.A h.Q.{.rXrXeXrXrXfX8X[.E.L.{.8XE.h.O e ; ; ; % ; ; ; ; ; ; ; ; ; ; ; ; ; ",
"; ; ; ; ; ; ; ; ; ; ; ; ; ; ; ; e + 1.P.( 4.4.P 6.E.E.8XrXrXrXrXeXrXrX9X9XrXwXE.@.= t < ; ; ; % - ; ; ; ; ; ; ; ; ; ; ; ",
"; ; ; ; ; ; ; ; ; ; ; ; ; ; ; < y + } f.u {  .! ..~.E.,XrXrXeXrXrXrXwXrXrXrX8XL.K i t 8 < ; ; ; ; ; ; ; ; ; ; ; ; ; ; ; ",
"; ; ; ; ; ; ; ; ; ; ; ; ; ; ; < r p N ( P ) ) ..../.E.<XfXrXrXrXrXrXrXrXwXfX1Xg.z c g w < ; ; ; ; ; ; ; ; ; ; ; ; ; - ; ",
"; ; ; ; ; ; ; ; ; ; ; ; ; ; < 6 i k N m s.#.{ ..<./.E.>XrXrXrXrXrXrXrXwXrXrX|.} m N h r 7 ; ; ; ; ; ; ; ; ; ; ; ; ; ; ; ",
"; ; ; ; ; ; ; ; ; ; ; ; ; ; < e i c l X.'.....5.5./.!.>XfXfXrXrXrXrXfXfXrXeX^.E J N k i 0 ; ; > ; ; ; ; ; ; ; ; ; ; ; ; ",
"; ; ; ; ; ; ; ; ; ; ; % ; ; 5 e h M B /.'.k. .<.7.[.~.2XrXrXfXfXfXfXfXrXfX<X^.I I N l b e < > ; ; ; ; ; ; ; ; ; ; ; ; ; ",
"; ; ; ; ; ; ; ; ; ; ; ; ; ; 6 r x V Y {.{.`.k.D.).{.~.wXfXfXfXrXfXrXfXrXrX}./.T U N M h e 6 ; ; ; ; ; ; ; ; - ; ; ; ; ; ",
"; ; ; ; ; ; ; ; 1 ; ; ; < < 6 t k V I ).<X<X~.`.].'.9XfXfXfXrXfXfXfXfXfXeX].(.E U F M h r 5 1 ; ; ; ; ; ; ; ; ; ; ; ; ; ",
"; ; ; ; ; ; ; ; ; ; ; ; ; < 8 i x F Z k.<XfXwX,X,XeXgXfXfXhXgXfXhXfXfXgXwX}.|.) U F M h r 5 : ; - ; ; ; ; ; ; ; ; ; ; ; ",
"; ; ; ; ; ; ; ; ; ; ; ; ; < 8 t x N C X.|.rXgXfXgXgXfXfXgXfXgXgXfXgXfXfXfX<X:X$.P H M x r 6 ; ; ; ; ; ; ; ; ; ; ; ; ; ; ",
"; ; ; ; ; ; ; ; ; ; ; ; ; < 8 i x V G T (.9XgXgXfXgXfXgXgXfXhXhXgXfXgXhXgXrX:XOXP H M h r 6 < ; ; ; ; ; ; ; ; ; ; ; ; - ",
"; ; ; ; ; ; ; ; ; ; ; ; ; 5 8 t j V G I j.9XgXgXgXgXgXgXgXgXgXgXgXhXgXgXgXgX8X>X) B M h e 0 ; ; ; ; ; ; ; ; ; ; - ; ; ; ",
"; ; ; ; ; ; ; ; ; ; ; ; ; < 8 r h M J C .X0XgXgXgXgXlXgXgXgXgXgXgXlXgXgXgXlXfX1Xp.d M s e 5 < ; ; ; ; ; ; ; ; ; ; ; ; ; ",
"; ; ; ; ; ; ; ; ; ; ; ; ; < 6 e h c F P =XfXlXlXlXlXgXlXlXlXgXgXlXlXgXlXlXlXlX0X=Xk k g 8 5 ; ; ; ; ; ; ; ; ; ; ; ; ; ; ",
"; ; ; ; ; ; ; ; ; ; ; ; ; < 5 8 i c n ) 0XgXlXlXlXlXlXlXlXlXzXlXlXlXlXlXlXlXlXfX2XF h t 8 5 > ; ; ; ; ; ; ; ; ; ; ; ; ; ",
"; ; ; ; ; ; ; ; ; ; ; ; ; : 5 8 r l f  XfXzXlXzXlXlXzXzXlXzXlXzXzXlXzXlXzXzXzXgX8XJ r r 6 : ; ; ; ; ; ; ; ; ; ; ; ; ; ; ",
"; ; ; ; ; ; ; ; ; ; ; ; ; ; < 6 e g l yXgXzXzXzXzXzXzXlXzXlXzXcXzXlXzXzXlXzXzXgXwXJ w y 5 ; ; ; ; ; ; ; ; ; ; ; ; ; ; ; ",
"; ; ; ; ; ; ; ; ; ; ; ; ; ; : 5 e r l yXlXzXzXzXzXcXcXzXzXcXzXzXzXzXzXcXzXzXcXfXyXV 8 8 < ; ; ; ; ; ; ; ; ; ; ; ; ; ; ; ",
"; ; ; ; ; ; ; ; ; ; ; ; ; ; ; : 6 t * oXfXcXcXcXcXcXcXcXcXcXzXlXzXvXcXcXcXvXlXrXyX7 e < < ; ; ; ; ; ; ; ; ; ; ; ; ; ; ; ",
"; ; - ; ; ; ; ; - ; ; ; ; ; ; : 6 e   &.fXlXvXvXcXvXcXvXvXzXgXfXfXlXzXvXzXlXfXdX-.  e < 1 : ; ; ; ; ; ; ; ; ; ; ; ; ; ; ",
"; ; ; ; ; ; ; ; - ; ; ; ; ; ; ; < 5 y   -.lXzXvXvXvXvXcXlXgXgXgXgXgXgXgXgXgXlXsXb : 6 ; ; ; ; ; ; ; ; ; ; ; ; ; ; ; ; ; ",
"; ; ; ; ; ; ; ; ; ; ; ; ; ; ; ; ; 5 6 y   =.dXzXcXzXzXzXlXzXlXgXlXzXlXzXzXlXxXL . q ; ; % ; % < ; ; ; ; ; ; ; ; ; ; ; ; ",
"; ; ; ; ; ; ; ; ; ; ; ; ; ; ; ; ; ; < 6 y   v =.XXuXuXXX-.*.~ ~ %.&.=.=.=.~ O . 6 : ; ; ; ; % ; ; ; ; ; ; ; ; ; ; ; ; - "
};
