/* XPM */
static char *i12i1674121959[] = {
/* columns rows colors chars-per-pixel */
"60 60 239 2 ",
"   c #020101",
".  c #020101",
"X  c #020101",
"o  c #020101",
"O  c #020101",
"+  c #020101",
"@  c #020101",
"#  c #020101",
"$  c #020101",
"%  c #020101",
"&  c #020101",
"*  c #020101",
"=  c #020101",
"-  c #020101",
";  c #020101",
":  c #020101",
">  c #020101",
",  c #020101",
"<  c #020101",
"1  c #020101",
"2  c #020101",
"3  c #020101",
"4  c #020101",
"5  c #020101",
"6  c #020101",
"7  c #020101",
"8  c #020101",
"9  c #020101",
"0  c #020101",
"q  c #2E322C",
"w  c #31322E",
"e  c #2C2634",
"r  c #2D2E32",
"t  c #2C293A",
"y  c #2D3335",
"u  c #2D3539",
"i  c #2C3A3C",
"p  c #303738",
"a  c #2A2E44",
"s  c #2C3A46",
"d  c #303C46",
"f  c #2F3657",
"g  c #313D55",
"h  c #2D4144",
"j  c #2D434C",
"k  c #2E4E4D",
"l  c #31454A",
"z  c #2E4A55",
"x  c #2B4B5C",
"c  c #2C4558",
"v  c #2C535C",
"b  c #2C5655",
"n  c #355A5B",
"m  c #314D59",
"M  c #2C4C64",
"N  c #2C4B67",
"B  c #2D5463",
"V  c #2C5B6D",
"C  c #285B66",
"Z  c #305065",
"A  c #2A5474",
"S  c #27547D",
"D  c #305371",
"F  c #2D4B6C",
"G  c #2B6165",
"H  c #2A656D",
"J  c #30606A",
"K  c #2C6475",
"L  c #2A6676",
"P  c #297479",
"I  c #306879",
"U  c #40605F",
"Y  c #43716F",
"T  c #436A69",
"R  c #275B82",
"E  c #2B6788",
"W  c #297585",
"Q  c #2F7394",
"!  c #257895",
"~  c #206791",
"^  c #1C7DAE",
"/  c #2779AD",
"(  c #206EB0",
")  c #217FB3",
"_  c #2169A4",
"`  c #178197",
"'  c #2A8796",
"]  c #358B91",
"[  c #289496",
"{  c #22A09D",
"}  c #1B8BBB",
"|  c #1993B8",
" . c #1389B0",
".. c #2988A9",
"X. c #2598A7",
"o. c #2C96B6",
"O. c #1CB4B8",
"+. c #38B0AF",
"@. c #24BABE",
"#. c #22A7AE",
"$. c #559699",
"%. c #4F8994",
"&. c #59AFAE",
"*. c #42BAB8",
"=. c #68AFB5",
"-. c #61ABAA",
";. c #1797C7",
":. c #0B9FD8",
">. c #1698D2",
",. c #168AC5",
"<. c #00A4C0",
"1. c #1DA5CB",
"2. c #19B9CC",
"3. c #02ADDC",
"4. c #01A7D9",
"5. c #19A5D9",
"6. c #02B5DC",
"7. c #1DB2D2",
"8. c #2ABBC9",
"9. c #109FE5",
"0. c #05ACE9",
"q. c #01B6E7",
"w. c #01B9ED",
"e. c #05B3EA",
"r. c #13B8EC",
"t. c #01ACFC",
"y. c #03ABF9",
"u. c #00BDFE",
"i. c #05BAF6",
"p. c #19B8FE",
"a. c #24BAED",
"s. c #1BC7C9",
"d. c #10D5CE",
"f. c #1BD8D8",
"g. c #19C5DD",
"h. c #22C7C7",
"j. c #24CCD0",
"k. c #26D6DB",
"l. c #34C2C4",
"z. c #11E4DA",
"x. c #28E2DF",
"c. c #07C8E8",
"v. c #15C9E9",
"b. c #00C4FC",
"n. c #02CBFC",
"m. c #07CAF6",
"M. c #16C7F8",
"N. c #00D6F4",
"B. c #01D3FC",
"V. c #02DCF8",
"C. c #1AD9FB",
"Z. c #15DBE4",
"A. c #2FC0EF",
"S. c #3FC7EF",
"D. c #28C6F7",
"F. c #2CD4F4",
"G. c #24D9F8",
"H. c #3AD3F5",
"J. c #38C2F1",
"K. c #03EDE5",
"L. c #19E8E2",
"P. c #01F6EF",
"I. c #19F5EC",
"U. c #00E5F6",
"Y. c #01EBFB",
"T. c #05E5F7",
"R. c #01F3F4",
"E. c #00FEF4",
"W. c #0CFEF3",
"Q. c #01FDFC",
"!. c #07F6F8",
"~. c #1BFEF5",
"^. c #1BFFFB",
"/. c #13FFF7",
"(. c #25E8E7",
"). c #3AEDEB",
"_. c #25F4EB",
"`. c #3AE2F7",
"'. c #24FEF5",
"]. c #2CFDF5",
"[. c #29FEFA",
"{. c #34FDF5",
"}. c #3BFEF5",
"|. c #35FFF9",
" X c #3AFFFB",
".X c #30EDF1",
"XX c #5ADEDB",
"oX c #50CECF",
"OX c #79CBCB",
"+X c #6EE2DF",
"@X c #51CDEF",
"#X c #4DCFF1",
"$X c #54D4F4",
"%X c #5DDAF8",
"&X c #4DD5F7",
"*X c #64DDF6",
"=X c #64DDF9",
"-X c #67D4F8",
";X c #74D1FA",
":X c #51E3E0",
">X c #57E3FA",
",X c #45FFF6",
"<X c #43FEFA",
"1X c #4DFFFC",
"2X c #48F1F6",
"3X c #54FFFC",
"4X c #5BFFFB",
"5X c #57FBF5",
"6X c #51EFF1",
"7X c #7BECEC",
"8X c #6DE3F6",
"9X c #66E1FB",
"0X c #7BE3FC",
"qX c #73E7FA",
"wX c #64F6F4",
"eX c #63FEFA",
"rX c #6CFEFB",
"tX c #66FEF7",
"yX c #75FFFC",
"uX c #7CFEFB",
"iX c #75F8F9",
"pX c #6AF2EE",
"aX c #81D7D6",
"sX c #84E0DF",
"dX c #8AE6E7",
"fX c #90EFEB",
"gX c #87E9F9",
"hX c #93EEFC",
"jX c #8CF5FC",
"kX c #83FDFB",
"lX c #8BFEFC",
"zX c #89F6F7",
"xX c #93F4FC",
"cX c #9CF3FD",
"vX c #93FEFD",
"bX c #9AFEFD",
"nX c #A3FEFE",
"mX c #A9FEFE",
"MX c #A9F3FF",
/* pixels */
"= = = = = = = = = = = = = = = = = = = = = = = - X h X.H X X 7 = = = = = = = = = = = = = = = = = = = = = = = = = = = = = ",
"= = = = = = = = = = = = = = = = = = = = = = = = 5 X ' T.2.C X 5 = = = = = = % = = = = = = = = = = = = = = = = = = = = = ",
"= = = = = = = = = = = = = = = = = = = = = = = = = 5 X 6.iXF.` + 5 = = = = = = = = = = = = = = = = = = = = = = = = = = = ",
"= = = = = = = = = = * = = = = = = = = = = = = ; = 8 + | qXgXN.! X 6 = = = = = = = = = = = = = = = = = = = = = = = = = * ",
"= = = = = = = = = = = = = = = = = = = = = = = = = = # 6.8XgX9Xc.m o = = = = = = = = = = = = = = = = = = = = = = = = = = ",
"* = = = = = = = = = = = = = = = = = = = % = = = 7 X W C.qXqX0XG.| X 6 = = = = = = = = = = = = = = = = = = = = = = = = = ",
"= = = = = = = = = = = = = = = = = = = = = = = - = o 3.&X8X8X8X&X3.6 = - % = = = = = = = = = = = = = = = = = = = = = = = ",
"= = = = = = = = = = = = = = = = = = = = = % = 6 +  .D.*X=X*X9X$Xw.v X , = = = = = = = = = = = = = = = = = = = = = = = = ",
"= = = = = = = = = = = = = = = = = = = = = = - X c q.#X%X$X$X%X@Xw.V X - = = = = = = = = = = = = * = = = = = = = = = = = ",
"= = = = = = = = = = = = = = = = = % = = = = 7 X  .D.@Xr.w.q.#X#Xw.x X , = = = = = = = = = = = = = = = = = * = = = = = = ",
"= = = = = = = = = = = = = = = = = = = = = - o s 0.A.a.0.9.w.e.a.4.5 = = = = = = = = = = = = = = = = = = = = = = = = = = ",
"= = = = = = * = = = = = = = = = = = = % = = X x 0.e.1.c u ! 5.r.^ X 7 % = = = = = = = = = = = = = = = = = = = = = = = = ",
"= = = = = = = = = = = = = = = = = = = = - a % # 4.0.F X r X } :.% # - = = = % = = = = = = = = * = = = = = = = = = = = = ",
"= = = = = = = = = = = = = = = = = < - o u ;.3 X R 0.S X 7 o M s X - % = = = = = = = = = = = = = = = = = = = = = = = = = ",
"= = = = = = = = = = = = = = = * = = - + v w.! X + ~ ~ X - % o o , = = = = = = = = = = = = = = = = = = = = = = = = = = = ",
"= = = = = = = = = = = = = = = = = = 5 X E b.c.v X + o - # t # 3 = = = = = = = * = = = = = = = = = = = = = = = = = = = = ",
"= = * = = = = = = = = = = = = = = = , X K N.N.v.8 * , 6 + ( _ + 7 = = = = = = = = = = = = = = = = = = = = = = = = = = = ",
"= = = = = = = = = = = = = = = = = = - = # c.Y.Y.O.+ 8 e X ( t.S X e $ = = = = = = = = = = = = = = = = = = = = = = = = = ",
"= = = = = = = = = = = = = = = = = % = 6 X P T.Q.2.X y X + R t.y.A X 7 = = = = = = = = = = = = = = = = = = = = = = = = = ",
"= = = = = = = = = = = = = = = = = = = * 0 X k #.b X X F 7 # 9.t.t.A X 9 % % = = = = = = = = = = = = = = = = = = = = = = ",
"= = = = = = = = = = = = = = = = = = = = % 6 X + & + ) >.+ + ,.p.p.y.N + 5 $ = = = = = = = = = = = = = = = = * = = = = = ",
"= = = = = = = = = = = = = = = = = = = = % = , i + ! b./ X X ^ D.;Xt.0.d X 5 = = = = = = = = = = = = = = = = = = = = = = ",
"= = = = = = = = = = = = = = = = = = = = = ; 7 X E u.u.} + + >.u.gX;Xb.5.X - = = = = = = = = = = = = = = = = = = = = = = ",
"= = = = = = = = = = = = = = = = = = ; = = , + s i.b.b.b.| >.M.u.0XMXD.b...+ 6 ; = = = = = = = = = = = = = = = = = = = = ",
"= = = = = = = = = = = = = = = = = = = = = 7 X 1.n.D.n.b.n.n.M.b.0XMXgXb.M.a X , = = = = = = = = = = = = = = = = = = = = ",
"= = = = = = = = = = = = = = = = = = = = 5 X L n.D.qXn.m.m.m.m.n.hXMXhXS.n...+ 7 = = = = = = = = = = = = = = = = = = = = ",
"= = = = * = = = = = = = = = = = = = = = 7 X 1.B.9XcXH.n.n.B.n.=XcXxXcX8XB.7.X 6 = = = = = = = = * = = = = = = = = = = = ",
"= = = = = = = = = = = = = = = = = = = = # 8 v.B.gXcXjX>XC.F.=XxXcXxXcXqXB.v.= = ; = = = = = = = = = = = = = = = = * = = ",
"= = = = = = = = = = = = = = = = = = = 5 + H N.G.jXxXxXxXxXxXxXxXjXxXcXqXV.v.7 # - = = = = = = = = = = = = = = = = = = = ",
"= = = = = = = = = = = = = = = = = = = 7 X ' U.`.xXxXxXxXxXxXjXxXxXjXxX>XV.g.X 5 = = = = = = = = = = = = = = = = = = = = ",
"= = = = = = = = = = = = = = = = = = = , X W Y.`.jXjXjXjXjXjXjXjXjXjXxX`.Y.#.+ 8 = * = = = = = = * = = = = = = = = = = = ",
"= = = = = = = = = = = = = = = = = = = , X G U.G.zXjXzXjXkXjXjXjXzXjXiXT.T.H + 8 = = = = = = = = = = = = = = = = = = = = ",
"= = = = = = = = = = * = = = = = = = = , , 8 Z.Y.iXzXjXlXzXzXlXkXkXjX2XY.2.+ i X - = = = = % = = = = = = = = = = = = = = ",
"= = = = = = = = = = = = = = = = = ; , 1 i + @.R.2XzXkXkXkXzXkXzXgXiXR.!.P u y G u ; = = = = = = = = = = = = = * = = = = ",
"= = = = = = = = = = = = = = = = = = , 8 i u P !.R.iXkXkXzXuXuXkXlX6XQ.s.f v 2 f.{ + q $ = = = = = = = = = = = = = = = = ",
"= = = = = = = = = = = = = = = = ; - 8 p z v f h.Q..XuXuXuXkXuXkXuX].Q.#.Z H m K.P.G + 6 * < % = = = = = = = = = = = = = ",
"= = = = = = = = = = = = = = = = = 6 y j d J J Q I.Q.5XkXuXuXuXuXrXE.W...I I M f.Q.z.5 $ < = = = = = = = = = = = = = = = ",
"= = = = = = = = = = = = = = = = , r d v [ D W E 8.Q.'.iXuXuXuXkXtXE.W.X.Q ! F d.<X~.O.+ 6 = % = = = = = = = = * = = = = ",
"= = = = = = = = = = = = = = = = 6 u k g L.h.E ..o.I.E.4XkXuXiXkXtXE.^.k.Q E W K.eX3XK.5 - , = = = = = = = = = = = = = = ",
"= * = = = = = = = = = = = = = 1 q s x f k./.o...o.(.!.'.uXuXkXuXiXW.W.~.(.j.(.E.rXyXR.k o < = ; = = = = = = = = = = = = ",
"= = = = = = = = = = = = = = = 7 u j V F k.^.j./ o.(.'.E.tXkXuXuXkXtXE.W.^.^.E.{.uXyXL.8 8 = = < = = = = = = = = = = = = ",
"= = = = = = = = = = = = = = = 8 i c B I (.^._.8.k.'.'.W.5XkXkXkXuXkXtX}.~.~.,XuXkX4Xs.X i , = = = = = = = = = = = = = = ",
"= = = = = = = = = = = = = = , q j x Z ' [.}.[.'.[.[.]./.5XkXkXkXkXkXkXkXyXyXkXkXiX[.[ 2 i , = = = = = = = = = = = = = = ",
"= = = = = = = = = = = = = - , y d B c @.<XrX'.}.{.[.{.'.4XlXkXkXkXuXkXkXkXkXkXkX<X_.J d i 7 < % = = = = = = = = = = = = ",
"= = = = = = = = = = = = = = 7 y d Z D (.eXlX<X]. X|.{.[.uXkXkXkXkXkXkXkXkXkXkX4X].).B z i 7 , ; = = = = = = = = = = = = ",
"= = = = = = = = = = = = = , 6 y z M ] |.yXlXuX,X{.|.,XyXlXlXkXlXlXkXlXkXlXlXkX,X X).K j i 6 < = = = = = = = = = = = = = ",
"= = = = = = = = = = = = = , 6 y z a l.3XlXlXkXkXuXuXlXlXkXkXkXkXlXkXlXlXlXkXlX3X}.<X] a d 8 , = = = = = = * = = = = = = ",
"* = = = = = = = = = = = = , 6 i z Z ).rXlXlXlXlXlXlXlXlXvXkXvXlXlXlXlXlXlXlXlXuX<X1X+.4 h 6 , = = = = = = = = = = = = = ",
"= = = = = = = = = % = = = , 6 i e ] 3XkXlXlXvXlXlXlXlXlXlXlXlXlXlXlXlXlXlXlXlXlXtX1XoX2 s 6 , = = = = = = = = = = = = = ",
"= = = = = = = = = < = = = , 6 i & *.4XlXvXlXvXvXlXvXvXvXvXvXvXvXvXvXlXvXvXvXvXvXkX3X:Xe i 6 , = = = = = = = = = = = = = ",
"= = = = = = = = = = = = = - 5 i O oXrXlXvXvXvXlXvXvXvXvXvXvXvXvXvXvXvXvXvXvXvXvXvXtX6Xl r 7 , = = = = = = = = = = = = = ",
"= = = = = = = = = = = % = = , u & XXrXvXvXvXvXvXbXvXvXvXvXvXvXvXvXvXvXbXvXvXvXvXvXyXwXn 3 7 < = = = = = = = = = * = = = ",
"= = = = = = = = = = = = = - , w X XXyXvXbXbXbXvXbXbXbXvXvXbXbXbXvXbXbXvXbXbXvXbXvXuXwXn * 6 = = = = = = = = = = = = = = ",
"= = * = = = = = = = = = = = = y . oXyXvXbXbXbXbXbXbXbXbXbXbXbXbXbXbXbXbXbXbXbXbXbXyXpXl - , = = = = = = = = = = = = = = ",
"= = = = = = = = = = = = = = = q . $.yXkXnXbXnXnXbXbXnXnXbXbXbXbXbXbXbXnXbXbXbXbXlXyX+X. 8 < = = = = = = = = = = = = = = ",
"= = = = = = = = = = = = = = = , 6 q 7XkXbXnXnXbXnXbXnXnXnXnXbXnXnXnXmXnXnXnXnXnXkXkX&.  y = = = = = = = = = = = = = = = ",
"= = = = = = = = = = = = = = = = 8 . $.lXkXnXmXnXnXnXmXnXbXvXjXlXvXbXnXnXmXnXvXlXlXdXy , < = = = = = = = = = = = = = = = ",
"= = = = = = = = = = = = = = = = = y   =.vXlXbXmXmXmXmXvXlXlXlXkXzXkXvXvXvXlXlXvXzXI . 6 = = = = = = = = = = = = = = = = ",
"= = = = = = = = = = = = = = = = = , q   &.xXvXvXbXbXvXbXvXvXvXvXbXbXvXvXvXbXvXdXU . w % = = = = = = = = = = = = = = = = ",
"= = = = = = = = * = = = = = = = = % , q   T OXfXhXfXsXOX=.$.%.$.=.OXdXfXdXaX$.. . w * = = = % = = = = = = = = = = = = = "
};
