/* XPM */
static char *i13i1674121959[] = {
/* columns rows colors chars-per-pixel */
"60 60 244 2 ",
"   c #020101",
".  c #020101",
"X  c #020101",
"o  c #020101",
"O  c #020101",
"+  c #020101",
"@  c #020101",
"#  c #020101",
"$  c #020101",
"%  c #020101",
"&  c #020101",
"*  c #020101",
"=  c #020101",
"-  c #020101",
";  c #020101",
":  c #020101",
">  c #020101",
",  c #020101",
"<  c #020101",
"1  c #020101",
"2  c #020101",
"3  c #020101",
"4  c #020101",
"5  c #020101",
"6  c #020101",
"7  c #020101",
"8  c #020101",
"9  c #020101",
"0  c #020101",
"q  c #320731",
"w  c #2C1B3B",
"e  c #1F2F2F",
"r  c #2D2423",
"t  c #2C2A26",
"y  c #2D242A",
"u  c #2D2B2B",
"i  c #27262B",
"p  c #302524",
"a  c #302729",
"s  c #312B2B",
"d  c #2D2C33",
"f  c #2C2935",
"g  c #2C3134",
"h  c #2D343A",
"j  c #2D3A3C",
"k  c #27393D",
"l  c #313B3C",
"z  c #323438",
"x  c #30302F",
"c  c #2D3B44",
"v  c #2D3C4A",
"b  c #2D3545",
"n  c #313B43",
"m  c #303747",
"M  c #2D2648",
"N  c #2C3F60",
"B  c #2D4144",
"V  c #2E484E",
"C  c #2E424E",
"Z  c #31424A",
"A  c #2C4553",
"S  c #2C4A54",
"D  c #2C4C5B",
"F  c #2C425E",
"G  c #304958",
"H  c #2C5359",
"J  c #34565B",
"K  c #2C504C",
"L  c #2E4F60",
"P  c #2B5464",
"I  c #2C5C6A",
"U  c #315764",
"Y  c #2D5E73",
"T  c #2C5875",
"R  c #305F73",
"E  c #2C647C",
"W  c #2C6876",
"Q  c #2A7576",
"!  c #33616D",
"~  c #2C5885",
"^  c #315F81",
"/  c #13708B",
"(  c #2D6483",
")  c #2C6B86",
"_  c #306D88",
"`  c #2F738E",
"'  c #297889",
"]  c #277896",
"[  c #2B6F8F",
"{  c #2D7FA7",
"}  c #2177B1",
"|  c #2363A1",
" . c #467D82",
".. c #378589",
"X. c #2E8F96",
"o. c #189DB7",
"O. c #158EB7",
"+. c #2988A7",
"@. c #2892AA",
"#. c #228AB8",
"$. c #2698B8",
"%. c #3085AE",
"&. c #26A6AD",
"*. c #39B6B7",
"=. c #3AABAF",
"-. c #4A8B8F",
";. c #558D8C",
":. c #4A9397",
">. c #5AB3B2",
",. c #49A8A9",
"<. c #67AFB3",
"1. c #21C4BF",
"2. c #1A89C6",
"3. c #1A9BC4",
"4. c #1993C4",
"5. c #129BD1",
"6. c #2998C1",
"7. c #339FD0",
"8. c #04A3C7",
"9. c #1BA3CB",
"0. c #15A8CA",
"q. c #17B7C6",
"w. c #17ABD8",
"e. c #04BDDB",
"r. c #11AFDA",
"t. c #2CB7DB",
"y. c #2EAACC",
"u. c #14B8E5",
"i. c #03AAFD",
"p. c #03B4FC",
"a. c #04BBF9",
"s. c #14BDF9",
"d. c #0DB0E4",
"f. c #28ABE3",
"g. c #2EBCE5",
"h. c #51BFC0",
"j. c #47BBF8",
"k. c #04C7DC",
"l. c #1ACED4",
"z. c #22C7C6",
"x. c #27DAD7",
"c. c #31CBD2",
"v. c #0BC2EA",
"b. c #14C7E2",
"n. c #16DBE3",
"m. c #02C4F2",
"M. c #01CBF3",
"N. c #02CCFD",
"B. c #05C4FC",
"V. c #13CAFC",
"C. c #01D4F4",
"Z. c #02D3FE",
"A. c #01DBFB",
"S. c #07DDF8",
"D. c #13DDFA",
"F. c #13D4F6",
"G. c #01D5E1",
"H. c #2DC5ED",
"J. c #22CFE0",
"K. c #30C4E6",
"L. c #2DCCF6",
"P. c #29C9F5",
"I. c #29D9F8",
"U. c #35D5F7",
"Y. c #2FD0F4",
"T. c #15E6E8",
"R. c #07F7EE",
"E. c #14F6EB",
"W. c #01E4F4",
"Q. c #00ECF2",
"!. c #01E5FA",
"~. c #09EBF8",
"^. c #03F5F5",
"/. c #02FDF4",
"(. c #04F3FE",
"). c #03FFFA",
"_. c #0CFAF5",
"`. c #13FDF5",
"'. c #1AFEF5",
"]. c #16FEFB",
"[. c #1AF6F9",
"{. c #1DE5F2",
"}. c #29E4F6",
"|. c #3AE2F8",
" X c #24FEF4",
".X c #2DFEF5",
"XX c #24FEFA",
"oX c #2CFEFA",
"OX c #24F4F3",
"+X c #34FEF5",
"@X c #3AFEF5",
"#X c #34FDFA",
"$X c #3CFDFA",
"%X c #3EF7F2",
"&X c #2AEEEB",
"*X c #54CCCB",
"=X c #7DCBCC",
"-X c #7FD6D6",
";X c #7BD0CD",
":X c #46CAF7",
">X c #44D6F8",
",X c #57DAF9",
"<X c #45E6F9",
"1X c #5AE3FA",
"2X c #42FEF6",
"3X c #4BFFFC",
"4X c #47FBFC",
"5X c #54FEFB",
"6X c #5CFEF9",
"7X c #57FBF7",
"8X c #68E3FA",
"9X c #77E9FA",
"0X c #64FCF6",
"qX c #64FDFD",
"wX c #6CFEFB",
"eX c #67F5FA",
"rX c #73FCF6",
"tX c #7CFBF6",
"yX c #73FEFB",
"uX c #7CFDFB",
"iX c #76F2F8",
"pX c #74E7E6",
"aX c #8DD8FD",
"sX c #89EAE9",
"dX c #91EFEF",
"fX c #8AEBFA",
"gX c #95E6FF",
"hX c #8CFCF7",
"jX c #84F2FC",
"kX c #8CF1FD",
"lX c #85FEFC",
"zX c #8CFEFC",
"xX c #86F8F5",
"cX c #94F4FD",
"vX c #9BF6FD",
"bX c #93FEFC",
"nX c #9BFDFD",
"mX c #A2EEFC",
"MX c #A4F5FE",
"NX c #A9F4FD",
"BX c #A3FEFE",
"VX c #AAFCFF",
"CX c #B1F5FE",
"ZX c #BBFAFF",
/* pixels */
"> > > > > > > > > > > > > > & 1 > > > > > > > > & > > > > 5 : Q K < 5 & > , > > > > > > > > > > > > > > > > > > > > 2 > ",
"> > > > > > > > > > > > > > > > > > > > > > > > > > : , > t O l.z.# u & > 1 > > > > > > > > > > > > > > > > > : > > > > ",
"> > > > > > > > > > > > > > > > > > > > > > > > > > > 1 r : H ^.).Q O u % , > & > > > > > > > > > > > > > > > > > > > > ",
"> > > > > > > > > > > > > > > > > > > > > > > > > 2 > & u o q.eX1XG.$ r > > > > > > > > > > > > > > > > > > > > > > > > ",
"> > > > > > > > > > > > > > > > > > > > : > > > > > > t # W W.MXMX[.&.# t = > > > > > > > > > > > > > > > > > > > > > > ",
"> > > > > > > > > > > > > > > > > > > > > > > > > > > 5 s G.1XVXMX9XA.H : r , > > > > > > > > : > > > > > > > > > > > > ",
"> > > > > > > > > > > > > > > > > > > > > > > > > & t # o.}.nXnXnXvX|.q.# y & > > > > > > > > > > > > > > > > > > > > > ",
"> > > > > > > : > : > > > > > > > > > > > > > > : r O J C.9XcXkXcXcXiXA.' o t > > > > > > > > > > > > > > > > > > > > > ",
"> > > > > > > : > > > > > > > > > > > > > > > > > u # o.}.kXjXkXkXjXfX<Xe.3 0 > > > > > > > > > > > > > > > > > > > > > ",
"> > > > > > > > > > > > > > > > > > > > > > > > > 2 < e.1X9X,X,X8X9X9X9XC.W o t > > > > > > > > : > > > > > > > > > > > ",
"> > > > > > > > > > > > > > > > > > > > > > > > > O g v.>XF.M.m.C.U.9X9XI.O.o t > > > > > > > > > > > > > > > > > > > > ",
"> > > > > > > > > > > > > > > > > > > > > > > > > r O w.M.m.@.j @.m.:X8XU.8.# y & > > > > > > > > > > > > > > > > > > > ",
"> > > > > > > > > > > > > > > > > > > > > > > > > y o ] N.0.o @ # o.N.,XU.8.# i : > > > > > > > > > > > > > > > > > > > ",
"> > > > > > > > > > > > > > > > > > > > > > > > > > 4 # 3.] @ h - D e.:XP.O.# u & : > > > > > > > > > > > > > : > > > > ",
": > > > > > > > > > > > > > > > > > : > > > > > & > , < 9 d > & , @ 8.H.a.] # y > > > > > > > > > > > > > > > > > : > > ",
"> > > > > > > > > > > > > > : > > > > > > > > > > > > f o ; , & y o 4.a.d.k @ 3 > > > > > > > > > > > > > > > > > & > > ",
"> > > > > > > > > > > > > > > > > > > > > > > > : < 0 # | ~ o 9 i o #.a.] X y > > > > > > > 4 > > > > > > > > > > > > > ",
"> > > > > > > > > > > > > > > > > > > > > > > > 3 > # } i.~ # y r o 2.5.% 9 > > > > > > & > 2 > > > > > > > > > > > > > ",
": > > > > > > > > > > > > > > > > > > > > > > , y # 2.i.i.T o y % i 2.F ; , > > > > > > > & > > > > > > > > > > > > > > ",
"> > > > > > > > > > > > > > > > > 1 2 > > > , y o 2.p.i.p.| # u * b A # , & > > 2 4 & > > , > > > > > > > > > > > > > : ",
"> > > > > > > > > > > > > > > > > & > > > 2 y o } p.i.j.p.2.o f 5 5 * 5 > , , > 2 > : & > > > & > > > : : > > > > > > > ",
"> > > > > > > > > > > > > > > > > > > > > i @ T s.i.aXgXp.f.4 u u t a 6 , * O y > > > > & > > > > > > > > > > > > > > > ",
"> > > > > > : > > > > > > > > > > & > > p t , f.a.:XZXgXp.s.) % h u t u 4 v v o u , & > > > > > > > > > > > > > > > > > ",
"> > > > > > > > > > > > > > > > & 5 , r d # [ B.p.gXZXmXs.a.w.% c h g g y c 4.] o y 9 = > > & > > > > > > > > > > > > > ",
"> > > > > > > > > > > > > > > > > 5 u t h # 9.N.V.NXCXCX,Xa.V.{ O C h h l 0 I B.3.@ , 5 > > > > > > > > > > > > > > > > ",
"> > > > > > : > > > > > > > > 4 5 u o g j a u.N.:XNXNXCXgXm.V.a.Y u S c h c # O.Z.0.O > 3 > > > > > > > > > > > > > > > ",
"> > > > > > > > > > > > > > , 5 h # +.3.% v b.N.:XMXMXNXNX,XM.F.v.P a A S V s / >XI.0.# y & > > > > > > > > > > > > > > ",
"> > > > > > > > > > > > > > > u o +.Z.u.4 c u.Z.Y.MXNXMXNXMXY.Z.D.v.' y d n # / ,X9XZ.' # t > 2 > > > > > > > & > > > > ",
"> > > > > > > > > & > > > > d # { Z.N.N.] # q.A.C.kXNXMXvXVXcXI.Z.D.F.0.' W ' k.U.vX|.e.2 5 > > > > > > : > > > > > > > ",
"> > > > > > > > > > > > & r : P N.M.N.N.s.G X.D.C.1XMXvXMXvXvXcX<XC.A.!.~.F.F.S.1XMX8XA.I o r > > > > > > > > > > > > > ",
"> > > > > > > > > > > > > d o 3.Z.B.N.N.Z.6.v b.!.!.cXvXcXnXvXvXcXiX|.}.S.W.D.|.kXMX8X!.X.o y > > > > > > > > > > > > > ",
"> > > > > > > > > > > > 5 u O u.N.N.N.v.N.9.v @.~.W.<XbXvXcXvXvXnXMXcXjX9XiXjXbXvXbX<X!.X.# u = > > > > > > > > > > > > ",
"> > > > > > > > > 2 > > r d O w.Z.N.#.R ] ] _ ^ t.^.W.eXvXcXbXcXcXzXcXnXvXvXnXvXvXeX~.(...o t > > > > > > > > > > > > > ",
": > > > > > > > > > > 4 5 z + +.Z.3.5 I R E ] ] +.n.[.Q.rXbXzXvXbXcXcXzXzXcXzXtX7XQ.n.q.j 5 p 4 > > > > > > > > > > > > ",
"> > > > > > > > > & > 5 a u j t u.w.G _ ( @.@.+.%.$.Q.^.~.tXbXzXzXhXzXhXhXzXrX^.Q.T.v # g a r 4 > > > > > > > > > > > > ",
"> > > > > > : > : > 2 5 t d c B P 6.) [ ^ n.T.%.6.$.t.R.^. XxXzXxXzXkXzXlXzXiXR.`.Q.Q b B d t , 2 > > > > > > > > > > > ",
"> > > > > > > > > > > 4 s h B D P P ) _ +.R.).l.6.y.7.K._./.+XlXzXlXlXzXlXlXzX#X/.).z.8 V g u 5 4 2 > > > > > > > > > > ",
"> > > > 2 > > > > > 5 y x c G H W E ` _ z.)._.E.7.y.t.f.{.`./.5XzXlXlXlXlXzXlXyX/.`.R.W b l u 5 2 > > > > > > > > > > > ",
"> > > > > > > > > & > u h Z D P Y _ [ X.E.)._._.g.t.g.g.H.E.`./.yXlXlXzXlXlXlXzX2X/.].z.q S z t 2 > > > > > > > > > > > ",
"> > > > > > > > > > 5 u l C P Y ( ` [ x.'. X_.`.g.t.H.L.L.OX'./.5XxXlXlXlXlXlXlXtX X`.E.I c j a 5 > > 2 > > > > > > > > ",
"> > > > > > > > 2 , r g n S P R _ ( y./.6X2X/.OXt.K.H.L.L.[.'.`.XXtXzXlXlXlXlXlXzX6X/.XX&.q B g 5 > > > > > > > > > > > ",
"> > > > > > > > & 4 p h v D I ( ( @.`.2XxX+X`..XK.g.L.L.I.XX XXX_.yXzXzXlXlXzXzXzXlX$X].x.w V g r > > > > > > > > > > > ",
"> > > > > > > > 2 4 t j Z D R W ` &XXXuXlX+XXXXXOXY.Y.}..X X.X.X`.yXlXlXzXlXzXlXlXhXwX_.&XJ c h r 5 > > > > > > > 2 > > ",
"> > > > > > > > , 5 u j Z D I T x.].rXzXzX3X X+X.X+X.X+X.X.X#X+X XuXzXlXlXlXlXlXzXlXlX2X X' d j u 5 3 > > & > > > > > > ",
"> > > > > > > 2 5 5 d l S U N *.XXqXzXzXzXtXoX@X@X+X+X#X@X+X@X'.5XzXzXzXlXzXzXzXlXzXzX0XoXX.q B u 5 4 4 & > > > > > > > ",
"> > > > > > > > 5 r d c S L ..#X5XzXzXzXzXbXwX.X@X2X2X@X.X#X#X5XlXzXhXzXlXzXzXzXzXzXzXrX#X=.8 V u 5 2 > > > > > > > > > ",
"> > > > > > > 2 5 a u c S M c.4XxXzXzXzXzXzXzXyX2X+X@XqXwXqXtXhXzXzXzXzXzXzXzXzXzXzXzXlX$X*.; B u y 4 > > > > > > > > > ",
"> > > > > > > > 3 t g j v W %XqXbXzXzXzXzXhXzXbXlXwX5X6XuXbXbXzXbXzXhXzXbXzXzXbXzXzXzXlX3X,.; Z u y , > > > > > > > > > ",
"> > > > > > > 2 5 t u Z 8 X.3XuXbXbXzXzXbXzXzXbXbXbXhXxXzXzXzXhXzXhXzXzXbXbXhXzXbXzXbXtX3X*.+ B u y , > > > > > > > > : ",
"> > > > > > > > 4 t u B $ *.5XlXzXbXbXzXzXbXbXhXbXbXbXbXbXzXbXbXbXzXbXhXbXzXbXbXzXbXbXuX7X,.o B u t 4 > > > > > > > > > ",
"> > > > > > > > 5 5 u j O *X6XzXbXbXbXbXbXbXbXbXbXbXbXbXbXbXbXbXbXbXbXbXbXbXbXbXbXbXzX0X7X..; l t y > > > > > > > > > > ",
"> > > > > > > 2 2 y t c o >.6XzXnXbXbXnXbXbXnXbXbXbXbXnXbXbXbXnXbXnXnXbXbXbXnXnXbXnXuXqXeXH d g t 5 > > > & > > > > > > ",
"> > > > > > > > > 4 u l   >.wXlXnXnXnXbXnXnXnXbXnXnXnXbXnXbXbXnXnXbXnXbXnXnXbXbXnXzX0XwX*X; l t p 5 > > > > > > > > > > ",
"> > > > > > > > > 5 r z   :.yXuXnXnXnXBXnXnXnXbXnXbXnXnXnXnXnXnXnXnXnXnXnXnXnXnXzXyXyXyX,.o j t 5 4 > > > > > > > > > > ",
"> > > > > > > > > 4 4 u i B pXyXhXBXnXnXBXnXnXBXBXnXnXBXBXnXnXnXnXBXnXBXBXBXnXbXyXyXuXpXk g x t 3 > > > > > > > > > > > ",
"> > > > > > > > > > > 5 l   >.lXxXBXBXnXBXBXnXBXBXBXnXBXBXbXlXlXlXzXzXbXbXzXlXuXuXlXuX-.X j a r 5 > & > > > > > > > > > ",
"> > > > > > > > > > 2 5 s d g sXlXxXnXBXVXBXBXVXBXVXBXBXzXlXlXlXlXlXuXlXlXlXlXuXlXlX<.  j a r 5 > > > > > > > > > > > : ",
"> > > > > > > > > > & > , d < ! sXzXzXbXnXBXVXBXBXnXbXzXzXzXzXzXzXhXzXzXzXzXkXbXxX<.  j t y 4 > > > > > > > > > > > > > ",
"> > > > > > : > 4 > > > > 4 g @ J ;XbXbXbXbXbXbXvXMXbXbXzXcXcXbXbXnXbXbXnXbXbX-X .  z u 5 5 > > > > > > > > > > > > > > ",
"> > > > > > > > & > > > > 4 > x & . ;.=XdXnXnXbXsXsX<.,.-. . .;.<.=XsXdXsX=X;.e X j u 5 r > > > > > > > > > > > > > > > "
};
