/* XPM */
static char *i14i1674121959[] = {
/* columns rows colors chars-per-pixel */
"60 60 242 2 ",
"   c #020101",
".  c #020101",
"X  c #020101",
"o  c #020101",
"O  c #020101",
"+  c #020101",
"@  c #020101",
"#  c #020101",
"$  c #020101",
"%  c #020101",
"&  c #020101",
"*  c #020101",
"=  c #020101",
"-  c #020101",
";  c #020101",
":  c #020101",
">  c #020101",
",  c #020101",
"<  c #020101",
"1  c #020101",
"2  c #020101",
"3  c #020101",
"4  c #020101",
"5  c #020101",
"6  c #020101",
"7  c #020101",
"8  c #020101",
"9  c #020101",
"0  c #020101",
"q  c #2D322D",
"w  c #30302E",
"e  c #2D2E32",
"r  c #312C30",
"t  c #2D3334",
"y  c #2D353C",
"u  c #2E3A3C",
"i  c #2F3837",
"p  c #313333",
"a  c #33383B",
"s  c #2A1C40",
"d  c #2A2842",
"f  c #2D3D44",
"g  c #2B3A46",
"h  c #313943",
"j  c #313743",
"k  c #2B3D58",
"l  c #363255",
"z  c #303E63",
"x  c #0D364A",
"c  c #2D434B",
"v  c #2C4649",
"b  c #31444C",
"n  c #2E4552",
"m  c #2D4955",
"M  c #2C455C",
"N  c #2D4D5A",
"B  c #324D5A",
"V  c #2C525D",
"C  c #2B5D5E",
"Z  c #345157",
"A  c #10536B",
"S  c #2B4965",
"D  c #2D5564",
"F  c #2E556C",
"G  c #2D5B6A",
"H  c #335C69",
"J  c #2C5C76",
"K  c #305D70",
"L  c #2C6373",
"P  c #2E677A",
"I  c #296A7A",
"U  c #326379",
"Y  c #296968",
"T  c #497C7D",
"R  c #265889",
"E  c #0C7392",
"W  c #2D6B84",
"Q  c #296887",
"!  c #2B748B",
"~  c #2C7B91",
"^  c #297699",
"/  c #32769B",
"(  c #316A85",
")  c #1D79B8",
"_  c #237BA7",
"`  c #537F80",
"'  c #188691",
"]  c #27858B",
"[  c #288397",
"{  c #398C97",
"}  c #1D8BB8",
"|  c #0393BC",
" . c #1D99B7",
".. c #1291A6",
"X. c #2D85A0",
"o. c #2D8CAB",
"O. c #2B86AB",
"+. c #3187A3",
"@. c #269BAA",
"#. c #2B93B2",
"$. c #2D9CBB",
"%. c #2896BB",
"&. c #3193B0",
"*. c #2E91AD",
"=. c #00A9AE",
"-. c #15ABBB",
";. c #39B7B9",
":. c #2CA7B4",
">. c #48838A",
",. c #439E9F",
"<. c #538288",
"1. c #5F9FA7",
"2. c #43A4A7",
"3. c #56A9AB",
"4. c #58BCBC",
"5. c #65ADAE",
"6. c #6DBDBC",
"7. c #1895CA",
"8. c #1896D3",
"9. c #168AD5",
"0. c #2C9EC3",
"q. c #319DC6",
"w. c #00AAC7",
"e. c #16A1C9",
"r. c #00B8C2",
"t. c #19B5C8",
"y. c #1BACD6",
"u. c #08B4D6",
"i. c #14AAD6",
"p. c #2DADCC",
"a. c #2BA3CA",
"s. c #30A6C8",
"d. c #2DAFD1",
"f. c #2DB3D3",
"g. c #2DBCDC",
"h. c #2DB8D6",
"j. c #0D9EEF",
"k. c #04ADE6",
"l. c #03B5E4",
"z. c #01B1EE",
"x. c #05B8E7",
"c. c #00BAFF",
"v. c #05BAF8",
"b. c #11ADE4",
"n. c #33BCE6",
"m. c #74BFC5",
"M. c #01C6DC",
"N. c #13C7DB",
"B. c #01D4CE",
"V. c #2AC1DA",
"C. c #34CCD4",
"Z. c #01C3ED",
"A. c #06C7E6",
"S. c #08D7EB",
"D. c #18D8E7",
"F. c #01C4F4",
"G. c #01CBF2",
"H. c #01CDFE",
"J. c #02C0FE",
"K. c #02D5F3",
"L. c #00D5FB",
"P. c #01DAFC",
"I. c #0AD9F4",
"U. c #2DC5E7",
"Y. c #27DBE8",
"T. c #37DAEA",
"R. c #2AC0FF",
"E. c #32C5FD",
"W. c #23D2FF",
"Q. c #32D3FD",
"!. c #02E9E3",
"~. c #1EF0ED",
"^. c #01E3F6",
"/. c #00E3FB",
"(. c #01EBFB",
"). c #00E8F6",
"_. c #1AE4F9",
"`. c #01FEF4",
"'. c #01F4FD",
"]. c #08FAF6",
"[. c #13FCF5",
"{. c #1DFEF5",
"}. c #1FFFFB",
"|. c #1AEFEB",
" X c #2AE7E8",
".X c #3CE7E6",
"XX c #2AE8F5",
"oX c #3AECF7",
"OX c #2AFEF5",
"+X c #24FFF9",
"@X c #29FCF6",
"#X c #33FEF5",
"$X c #3BFCF4",
"%X c #33FEFA",
"&X c #3BFEFB",
"*X c #39F5F3",
"=X c #3BF4EC",
"-X c #4DDAD9",
";X c #74CBCD",
":X c #71DDDF",
">X c #65DCD8",
",X c #44DFFE",
"<X c #5BDAFB",
"1X c #58D1EE",
"2X c #68D4FD",
"3X c #5FEFE5",
"4X c #5EEAF9",
"5X c #43FFFA",
"6X c #4CFEF9",
"7X c #49FBF5",
"8X c #54FEFB",
"9X c #5AF7FD",
"0X c #4EEFE9",
"qX c #67E8FC",
"wX c #73E7FD",
"eX c #6DFEF6",
"rX c #64FFFD",
"tX c #6CFEFC",
"yX c #69F3F9",
"uX c #75FDFB",
"iX c #7CFEFC",
"pX c #78F6F7",
"aX c #81D5D8",
"sX c #85DEE2",
"dX c #90EEEE",
"fX c #8EEEFD",
"gX c #99ECFC",
"hX c #84FEFC",
"jX c #8CFEFC",
"kX c #8AF4FA",
"lX c #94F6FC",
"zX c #9CF5FC",
"xX c #94FEFD",
"cX c #9BFEFD",
"vX c #94F6F7",
"bX c #8DE8E9",
"nX c #A4F6FD",
"mX c #A4FEFE",
"MX c #ABFDFE",
"NX c #AFF5FC",
"BX c #BBF8FF",
"VX c #A5ECFE",
/* pixels */
"- - - - - - - - - - - - - - - - - - - - - - - - - - : O t Y @ ; - - - % : % - - - - - - - - - - - - - - - - - - - - - - ",
"- - - - - - - - - - - - - - - - - - - - - - - - > > < o C ^.u @ ; - - - - - - - - - - - - - - - - - - - - - - - - - - - ",
"- - - - - - - - - - - - - - - - - - - - - - > - - $ 6 @ @.'.@.@ 8 - - - - - - - - - - - - - - - - - - - - - - - - - - - ",
"- - - - - - - - - - - - - - - - - - - - - - - - : : O t S./.A.o < - % - - - - - - - - - - - - - - - - - - - - - - - - - ",
"- - - - - - - - - > $ - - - - - - - - - - - - - - 8 o X.I.G.K.V o < - - , - - - - - - - - - - - - - - - - - - - - - - - ",
"- - - - - - - - - - : - - - - - - - - - - - - - - 7 o  .L.G.G.L o 5 - : - - - - - - - - - - - - - - - - - - - - - - - - ",
"- - - - - - - - - - - - - > - - - - - - - - - - - 7 o ..e.7.Z.J o 5 - - - - - - - - - - - - - - - - - - - - - - - - - - ",
"- - - - - - - - - - - - - - - - - - - - - - - - - ; o S t g k.g @ ; % - - - - , - - - - - - - - - - - - - - - - - - - - ",
"- - - - - - - - - - - - - - - - - - - - - - - - - - ; o y z ^ 3 % - - - - - - - - - - - - - - - - - - - - - - - - - - - ",
"- - - - - - - - - - - - - - - - - - - - - - - - - - 3 o R ) o 3 - - - - - - - - - - - - - - - - - - - - - - - - - - - - ",
"- - - - - - - - - - - - - - - - - - - - - - - - - - 7 o ) 9.o 7 % - - > - - - - - - - - - - - - - - - - - - - - - - - - ",
"- - - - - - - - - - - - - - - - - - - > - - - - - - ; o j.8.o 7 , % - : - - - - - - - - - - - - - - - - - - - - - - - - ",
"- - - - - - - - - - - - - - - - - - - - - - - - : 5 @ R c.9.@ 5 - ; - - - - - - - - - - - - - > - - - - - - - - - - - - ",
"- - - - - - - - - - - - - - - - - - - - - - - - > ; @ j.c.7.o 7 & O ; $ - - - - - - - - - - - - - - - - - - - - - - - - ",
"- - - - - - - - - - - - - - - - - - - - - - - - 9 o _ c.R.) @ - M M o 5 % - % - - - - - - - - - - - - - - - - - - - - - ",
"- - - - - - - - - - - - - - - - - - - - - > : , O a z.2X<XE @ O M 7.o ; - - - % - - - - - - - - - - - - - - - - - - - - ",
"- - - - - - - - - - - - - - - - - - - - - - % 7 @ w.E.VXn.S o 3 O v._ @ 8 % - - - - - - - - - - - - - - - - - - - - - - ",
"- - - - - - - - - - - - - - - - - - - - - - 5 o Q v.gXgXz.* ; 5 o k.F.r O ; , : - - - - - - - - - - - - - - - - - - - - ",
"- - - - - - - - - - - - - - - - - - - - , ; % * k.2XBX<Xw.o e 5 & l.L.} @ 5 , - - - - - - - - - - - - - - - - - - - - - ",
"- - - - - - - - - - - - - : - - - - - - % 8 @ | Q.NXVXH.Q o t e ; n.W.x.0 $ - - - - - - - - - - > - - > - - - - - - - - ",
"- - - - - - - - - - - - - - - - - > - % ; o F H.fXNXwXZ.b e j w x 1X2XH.I o 5 - - - - - - - - - $ - - - - - - - - - - - ",
"- - - - - - - - - - - - - - - - - % - - 7 @ w.4XNXnX,Xu.& b f t A <XkXP.[ o 5 - - - - - - - - - : - - - - - - - - - - - ",
"- - - - - - - - - - - - - - - - - - - 5 o L L.zXNXzXP.%.7 m N r ..qXzXP.[ @ 6 , - - - - - - - - - - - - - - - - - - - - ",
"- - - - - - - - - - - - - - - - - - - 6 @ w.4XnXnXvXP.:.= D B h M.fXlXK.K - 8 - - - - - - - - - - - - - - - - - - - - - ",
"- - - - - - - - - - - - - - - - : - - O u K.kXmXnXfXP.S.~ S H t.XXzXkXM.e f 8 < % - : % - - - - - - - - - - - - - - - - ",
"- - - - - - - - - - - - - - - - > - 5 @ E oXzXzXnXzXXX^._.D.D./.wXnX4Xw.5 y p 6 < - - - - % - - - - - - - - - - - - - - ",
"- - - - - - - - - - - - - $ - - - > 7 @ =.yXzXzXzXzXpX/.^.(./.yXcXvX_.Q U -.# p < % - - - - , - - - - - - - - - - - - - ",
"- - - - - - - - - - - - - - - - - - 8 @ r.tXzXxXxXlXzXjXyXyXpXzXcX9XM.l ] '.] @ 8 % - - - - % - - - - - - - - - - - - - ",
"- - - - - - - - - - - - - - - - - % 8 @ =.uXcXlXxXlXlXxXzXzXlXcXpX(.@.S -.'.N.@ w : - - - : > - - - - - - - - - $ : - - ",
"- - - - - - - - - - - - - - - - - - 8 @ =.rXxXxXxXlXjXlXxXjXlXhX`.D./ W N./.S.V % < - - > : - - - - - - - - - - > - - - ",
"- - - - - - - - - - - - - - - - % - < @ ' 7XxXlXjXjXjXjXjXjXxX7X`.V./ #.K.K.K.L & 6 - - : - - - - - - - - - - - - - - - ",
"- > - - - - - - - - - - - - - - 6 O ] @.o !.iXkXjXjXkXjXjXxXpX`.].p.O.y.G.G.Z.N 6 5 % - $ > > - - - - - - - - - - - - - ",
"- - - - - - - - - - - - - - - > 8 @ t.S.@ @.OXhXjXhXjXhXhXjXeX`.[.f.#.x.F.F. .i f 5 - - - - - - - - - - - - - - - - - - ",
"- - - - - - - - - - - - - - - - 5 @ N.(.[ @ B.%XhXjXjXhXhXjXeX`.[.g.s.b.x.b.W V f 6 - - - - - - - - - - - - - - - - - - ",
": $ - - - - - - - - - - - - - - % , M.K.A.L U !.OXiXjXjXjXjXuX`.].Y.q.y.x.O.P K m t ; - - - - - - - - - - - - - - - - - ",
"- > - - - - - - - - - - - - - - ; @ u.Z.K.y.W +.!.[.uXjXhXjXjX#X`.[.h.0.8.+.~ U D j 5 - - - - - - - - - - - - - - - - - ",
"- - - - - - - - - - - - - - - > 5 o } v.x.z.#.+.q.|.`.uXjXhXjXeX`.{.~.p.$.&.[ ( F c 8 5 - - , % - - - - - - - - - - - - ",
"- - - - - - - - - - - - - - : $ ; < c i.z.z. .&.$.f.{.`.iXjXhXjXrX`.[. Xs.#.[ ! K m y 6 : - - - - - - - - - - > - - - - ",
"- - - - - - - - - - - - - - - - 5 t y D } 7.o.$.p.d.T.}.+XhXjXhXjXtX[.{.XX$.+.[ I V f t < - - - - - - - - - - - - - - - ",
"- - - - - - - - - - - - - - - - 5 u m V U [ o.0.f.g.U.OX[.6XjXjXjXjXuXOX+X Xo.^ W D c u 6 - % 1 : $ > - - - - - - - - - ",
"- - - - - - - - - - - - - $ - ; e f N K W X.&.s.f.g.U.@X#XOXhXjXjXhXjXhX#X+X X^ ! G N f t : - - - - - - - - - - - - - - ",
"- - - - - - - - - : - - - - : 5 t c D S :.p.*.s.f.U.U.*X#X+XeXjXjXjXjXjXiX$X*XC.J L N c t 5 - - - - - - - - - - - - - - ",
"- - - - - - - - - - - - - - - 6 y n D J =XC.#.p.g.U.U.&X&XOXrXxXjXhXjXjXjXiX#X&X&.G D m y 6 - - - - - - - - - - - - - - ",
"- - - - - - - - - - - - - - < 8 f N k ;.&X=Xp.a.d.U.=X5X5X#XeXxXxXjXjXjXjXxXeX#X.XK G m f 6 1 - - - - - - > - - - - - - ",
"- - - - - - - - - - - - - - 5 w g N F .X8X6X7XT.T.*X5X5X7X$XiXjXjXjXjXjXxXjXjX7X5X&.M V u 8 ; - - - - - - - - - - - - - ",
"- - - - - - - - - - - - - - < t c g { 5XiXeX$X8X6X6X6X6X7X6XjXxXvXjXxXxXjXjXxXuX5X-Xk D v 8 < : - - - - - - - - - - - - ",
"- - - - - - - - - - - - - , 5 p v d ;.8XjXjX8X5X6X8X8X6X7XhXxXvXjXjXjXxXxXxXxXjX8X7XL m f w 5 > - - - - - - - - - - - - ",
"- - - - - - - - - - - - - - 5 e m d -XtXxXxXjXeX8X6X8XrXhXxXxXxXxXxXvXjXjXxXxXcXeX6X{ g b w < : - - - - - - - - - - - - ",
"- - - - - - - - - - - - - 1 5 t f n 0XiXxXxXcXxXjXjXjXxXcXxXxXxXxXxXxXxXxXvXxXcXhX8X2.d g 8 < : > - - > - - - - - - - - ",
"- - - - - - - > - - - - - - 5 8 y B 0XhXcXxXxXxXxXcXcXxXcXxXxXcXxXxXxXxXxXxXxXcXjXrX2.4 v 8 < > - - - - - - - - - - - - ",
"- - - - - - - - - - - - - < 5 8 t B 4XhXcXcXcXcXxXcXcXxXxXcXcXxXcXcXcXxXcXxXcXcXjXrX,.4 f 6 < - - - - - - - - - - - - - ",
"- - - - - - - - - - - - - - < 6 y j 3XjXcXcXcXcXcXcXcXcXcXcXcXxXcXcXxXcXcXcXxXcXxXtX>.4 y 5 < - - - - - - - - - - - - - ",
"- - - - - - - - - - - - - - < 6 u = >XhXcXcXcXmXcXcXcXcXcXcXcXmXcXcXcXmXmXcXcXmXjXyXH t q 5 : - - - - - - - - - - - - - ",
"- - - - - - - - - - - - - - , < u   4.hXmXcXcXcXmXcXcXmXmXcXcXcXmXmXcXcXmXxXcXmXjX>X3 h 8 1 , - - - - - - - - - - - - - ",
"- - - - - - - - - - - - - - - ; 8 X T iXcXMXmXmXmXmXmXmXmXmXmXmXmXmXmXmXmXmXmXvXhX3.X u < 1 - % - - - - - - - - - - - - ",
"- - - - - - - - - - - - - - : - 5 p X :XjXmXmXmXmXmXMXmXmXmXmXmXmXcXmXmXmXMXmXvXpXZ e 8 < : 1 - - - - - - - - - - - - - ",
"- - - - - - - - - - - - - - - - < w X T hXxXMXMXmXMXmXMXMXmXxXjXhXxXxXxXcXxXjXjX3.  a 5 1 - - - - - - - - - - - - - - - ",
"- - - - - - - - - - - - - - - - , < i   5.xXxXmXMXMXMXMXcXjXjXjXjXhXjXjXjXjXxX;X  p 5 < % - - - - - - - - - - - - - - - ",
"- - - - - - - - - - - - - - - - - 1 < i   5.xXcXmXmXmXcXlXxXxXxXcXcXxXxXcXxX6.+ e 5 < , - - > , - - - - - - - - - - - - ",
"- - - - - - - - - - - - - - - - - : : < t   <.aXvXcXdXsXm.5.>.>.3.;XbXdXaX<.  w 8 < ; - - - - % - - - - - - - - - - - - "
};
