/* XPM */
static char *i15i1674121960[] = {
/* columns rows colors chars-per-pixel */
"60 60 239 2 ",
"   c #020101",
".  c #020101",
"X  c #020101",
"o  c #020101",
"O  c #020101",
"+  c #020101",
"@  c #020101",
"#  c #020101",
"$  c #020101",
"%  c #020101",
"&  c #020101",
"*  c #020101",
"=  c #020101",
"-  c #020101",
";  c #020101",
":  c #020101",
">  c #020101",
",  c #020101",
"<  c #020101",
"1  c #020101",
"2  c #020101",
"3  c #020101",
"4  c #020101",
"5  c #020101",
"6  c #020101",
"7  c #020101",
"8  c #020101",
"9  c #020101",
"0  c #020101",
"q  c #2E2D33",
"w  c #2B2E3F",
"e  c #312F32",
"r  c #2D3334",
"t  c #2E363A",
"y  c #2E3A3C",
"u  c #2B3A37",
"i  c #313535",
"p  c #31363B",
"a  c #2D3443",
"s  c #2C3E45",
"d  c #2C3A4B",
"f  c #303C42",
"g  c #343041",
"h  c #2C3450",
"j  c #2C3E52",
"k  c #2D3E5A",
"l  c #343C55",
"z  c #2D424B",
"x  c #2D4243",
"c  c #30464F",
"v  c #334747",
"b  c #2D4A53",
"n  c #2D4C5A",
"m  c #2B4556",
"M  c #2C5259",
"N  c #35585A",
"B  c #3E605F",
"V  c #2C4B67",
"C  c #334762",
"Z  c #2E5464",
"A  c #2D5A6A",
"S  c #29576A",
"D  c #315164",
"F  c #2D5E74",
"G  c #295B79",
"H  c #325B77",
"J  c #1A657C",
"K  c #2B636E",
"L  c #2C6375",
"P  c #2B6A7B",
"I  c #2A6778",
"U  c #2A7073",
"Y  c #326E7A",
"T  c #457577",
"R  c #285282",
"E  c #1E6A8A",
"W  c #197D9C",
"Q  c #296A86",
"!  c #2C768C",
"~  c #2B7B94",
"^  c #297697",
"/  c #296894",
"(  c #1A7DA4",
")  c #2175A3",
"_  c #009191",
"`  c #2C828F",
"'  c #288999",
"]  c #37989D",
"[  c #249093",
"{  c #1886A8",
"}  c #0893AA",
"|  c #1091B0",
" . c #2A85A5",
".. c #2798AA",
"X. c #2A88B1",
"o. c #2998BA",
"O. c #3493A4",
"+. c #12A8B5",
"@. c #31ACBE",
"#. c #26B3BE",
"$. c #29ACB6",
"%. c #488181",
"&. c #58999B",
"*. c #548A8C",
"=. c #48A6A5",
"-. c #5DB2B1",
";. c #66AAAC",
":. c #72BABC",
">. c #6DB5B4",
",. c #1A8EC7",
"<. c #1995C4",
"1. c #1D97C8",
"2. c #128BDC",
"3. c #2E9CC5",
"4. c #1BB6C6",
"5. c #05A2D7",
"6. c #15ABDA",
"7. c #0CB0CD",
"8. c #2CA7C9",
"9. c #2FA6D0",
"0. c #2BB8CE",
"q. c #1199E3",
"w. c #05A9E3",
"e. c #13A7E5",
"r. c #00B4EE",
"t. c #03B9E9",
"y. c #01ADFD",
"u. c #03A3F8",
"i. c #01B5FC",
"p. c #01BAFC",
"a. c #06BAF4",
"s. c #13BFF7",
"d. c #19B1E2",
"f. c #23BBEC",
"g. c #01C3CC",
"h. c #09D9DB",
"j. c #1AD0DB",
"k. c #33CFCE",
"l. c #29D5D9",
"z. c #39D7D6",
"x. c #18C7E7",
"c. c #03D6EB",
"v. c #14DAE5",
"b. c #02C1F0",
"n. c #02C4FC",
"m. c #01CAFC",
"M. c #06C9F7",
"N. c #19CCF5",
"B. c #00D5F5",
"V. c #01DCF5",
"C. c #00D3FA",
"Z. c #01DDFB",
"A. c #09D0F7",
"S. c #16D6FB",
"D. c #0CCAEA",
"F. c #29C7E6",
"G. c #2ED4E3",
"H. c #35D6E9",
"J. c #26C9F4",
"K. c #36C9F4",
"L. c #2ADBF7",
"P. c #38D6F7",
"I. c #18F3EB",
"U. c #01E4F6",
"Y. c #01ECF5",
"T. c #01EDFD",
"R. c #07E6F8",
"E. c #14E5F4",
"W. c #17EAF5",
"Q. c #02FDF5",
"!. c #08FAF7",
"~. c #1AFCF6",
"^. c #17FEF6",
"/. c #13EDE8",
"(. c #2FE3F5",
"). c #3BE3F9",
"_. c #24FEF6",
"`. c #2BFEF9",
"'. c #2AFBF4",
"]. c #33FCF5",
"[. c #3BFEF5",
"{. c #34FFFC",
"}. c #3BF6F9",
"|. c #2AE9E4",
" X c #43C1C0",
".X c #53D8D8",
"XX c #52CDCC",
"oX c #7AD0CF",
"OX c #7ED8D8",
"+X c #65C8C5",
"@X c #52C7FD",
"#X c #49D7F8",
"$X c #58D9F4",
"%X c #45CFF4",
"&X c #70DCF7",
"*X c #40F3ED",
"=X c #48E3F7",
"-X c #5AE8FB",
";X c #4DFDF6",
":X c #43FEFB",
">X c #4AFEFC",
",X c #43FEF7",
"<X c #53FEFC",
"1X c #5AFEFF",
"2X c #57FAF7",
"3X c #5CE8E9",
"4X c #66E1F8",
"5X c #6BE5FA",
"6X c #69E6F9",
"7X c #74EBFB",
"8X c #7CECFA",
"9X c #73E6F9",
"0X c #62FFFD",
"qX c #6BFDFF",
"wX c #68F8F9",
"eX c #75FEFB",
"rX c #7BFEFB",
"tX c #7AF4F7",
"yX c #64EFEC",
"uX c #83D9DA",
"iX c #83ECFD",
"pX c #96E9FD",
"aX c #8AFEF7",
"sX c #84F2FA",
"dX c #8BF4FA",
"fX c #85FEFC",
"gX c #8CFEFC",
"hX c #86F7F5",
"jX c #9DF7FC",
"kX c #94FEFD",
"lX c #9BFDFD",
"zX c #96F7FE",
"xX c #8BE5E6",
"cX c #A5F4FE",
"vX c #ACF7FE",
"bX c #A3FDFE",
"nX c #AAF9FD",
"mX c #B7F8FF",
"MX c #A9ECFC",
/* pixels */
"= = = = = = = = = = = = = = = = = = = = = < X U h.3X.X_ + e q - = = = ; = ; = = = = = = = = = = = = = = = = = = = = = = ",
"= = = = = = = = = = = = = = = = = = = = = = < u +.{.kXfXg.q s r < = = = = = = = = = = = = = = = = = = = = = = = = * = = ",
"= = = = = = = = = = = = = = = = $ ; = = = = < X i Y.T.cXgXg.g b r < = = = = = = = = = = = = = = = = = = = = = = = = = = ",
"= = = = = = = = = = = = = = * = = = = = = = 2 + K I.T.:XnXwX+.l n q = = = ; = = = = = = = = = = = = = = = = = = = = = = ",
"= = = = = = = = = = * = = = = = = = = = = = < o ' T.W.U.sXbX(.^ Z z 5 = = ; = = = = = = = = = = = = = = = = = = = = = = ",
"= = = = = = = = = = = = = = = = = = = = = = 9 + 4.T.E.U.-XlXqX7.H n 8 = 1 $ = = = = = = = = = = = = = = = = * = = = = = ",
"= = = = = * = = = = = = = = = = = = = = = = @ c c.-X(.V.=XzXdX).W Z y = = = = = = = = = = = = = = = = = = = = = = = = = ",
"= = = = = = = = = = = = = = = = = = = = = 8 + } ).sXL.B.6XiXdXwX7.C v = = = = = = = = = = = = = = = = = = = = = = = = = ",
"= = = = = = = = = = = * = = = * $ * = = - o t D.7XiX6X-X8X8X8XtXj.Z a = = = = = = = = = = = = = = = * = = = = = = = = = ",
"= = = = = = = = = = = = = = = = = = = * 7 X } -X8X7X8X8X9X9X7X7XP.Q i 7 = = = = = = = = = = = = = = = = = = = * = = = = ",
"= = = = = = = = = = = = = = = = = = = - # 5 F.5X4X9X6X5X9X6X6X9XP.{ & 6 = = = = = = = = = = = = = = = = = = = = = = = = ",
"= = = * = = = = = = = = = = = = = = = 5 X J #X4X4X$XJ.N.K.4X4X4XP.| + 5 = = = = = = * = = = = = = = = = = = = = = = = = ",
"= = = = = = = = = = = = = = = = = = = 5 X W #X4X#Xt.b.t.b.F.$X$XJ.| + 7 = = = = = = = = = = = = = = = = = * = = = = = = ",
"= = = = = = = = = = = = = * = = = = = 5 X E J.$XK.t.~ F  .t.%X$Xb.Q + < = $ = = = = = = = = = = = = = = = = = = = = = = ",
"= = = = = = * = = = = = = = = = = = = - @ q d.%XJ.( % D i { J.K.5.1 = - = = = = = = = = = = = = = = = = = = = = = = = * ",
"= = = = = = = = = = = = = = = = = = = = 5 . G f.f.m r z z j 9.s.Q + 7 = = = * = * = = = = = = = = = = = = = = = = = = = ",
"= = = = = * = = = = = = = = = = = = = = = 7 + E 5.a = 8 a X <.5.X < = = = = = = = = = = = = = = = = = = = = = = * = = = ",
"= = = = = = = = = = = = = = = = = = = = = $ 7 + / m @ h % X ) ^ + 7 = = = = = = = = = = = = = = = = = * = = = = = = = = ",
"= = = = = = = = = = = = = = = = = = = = = * - < o - o 2.R X S k X - = = = $ = = = = = = = = = = = = = = = = = = = = = = ",
"= = = = = = = = = = = = * = = = = = = $ ; = = = 5 o a u.u.h X 4 = = = = = = = = = = = = = = = = = = = = = = = = = = = = ",
"= = = = = = = = = = = = = = = = = = = = = $ = * 7 X / y.y.q.@ # = = = = = = = = = = = = = = = = = = = = = = = = = = = = ",
"= = * = = = = = = = = = = = = = = $ = = = 1 * - 5 X q.y.y.i.,.X 7 $ = = = = = = = = = = = = = = = = = = = = = = = = = = ",
"= = = = = = = = = = = = = = = = $ = = = = $ $ 8 X X.p.i.i.i.p.) X 7 $ = = = = = = = = = = = = = = = = = = * = = = = = = ",
"= = = = = = = = = * = = = = = = = = = = = = 7 X Q i.@X@Xi.a.p.p.V X 7 = = = = = = = = = = = = = = = = = = = = = = = = = ",
"= = = = = = * = = = = = = = = = = $ = = # 7 X m r.s.MX@Xp.s.p.n.e.+ : = = = = = = = = = = = = = = * = = = = = = = = = = ",
"= = = = = = = = = = = = = = = = = = = = : = X d.n.pXmXJ.n.n.n.n.m. .+ 8 = = = = = = = = = = = = = = = = = = = = = = = = ",
"= = = = = = = = = = = = = = = = = = = $ 8 X 3.m.&XmXMXN.m.m.M.n.m.b.r o = = = = = = = = = = = = = = = = = = = = = = = = ",
"= = = = = = = = = = = = = = = = = = = 5 X ! C.#XvXmXcXN.m.A.m.P.A.C.| X 8 ; ; = = = = = = = = = = = = = * = = = = = = = ",
"= = = = = = = = = = = = = = = = = = = # 5 D.m.pXvXnXcXP.C.S.M.5X#Xm.x.8 @ = = = = = = = = = = = = = = = = = = = = = = = ",
"= = = = = = = = = = = = = = = = = = 8 X ..U.#XnXcXcXcX=XB.S.C.9XiXB.S.' X 8 < = = = = = * = = = = = = = = = = = = = * = ",
"= = = = = = = = = = = = = = = = = = $ = x.V.7XnXcXjXcX8XV.(.V.iXzXV.Z.4.+ - # = * * = = = = = = * = = = = = = = = = = = ",
"= = * = = = = = = = = = = = = = = 5 X K R.Z.dXbXjXjXjXjX-XV.V.dXcX).U.v.# U x X = = = = = = = = = = = = = = = = = = = = ",
"= = = = = = = = = * = = = = = = = < + K U.U.dXbXzXjXlXjXjXtXsXzXjX-XT.E.x [ 4.+ 6 = = = = = $ = = = = = = = = = = = = = ",
"= = = = = = = = = = = = = = = = = - 8 X j.Y.tXjXzXzXzXzXzXlXlXzXlX6XT./.I I T.[ X 5 ; = = = = = = = = = * = = = = = = = ",
"* = = = = = = = = = = = = = = = - < t O [ !.-XkXzXzXzXkXkXdXkXzXlX-XY.!.U P V.c.b + : = = = = = = = = = = = = = = = = = ",
"= = = = = = = = = = $ = = = = = - 8 y b l h.~.hXaXgXkXgXgXkXdXzXgX}.Q./.F ' Z.C.+.+ 6 ; = = = = = = = = = = = = = = = = ",
"= = = = = = = = = = = = = = = = 7 r z Z m $.Q.wXgXgXgXgXgXgXaXgXrXQ.Q.v.C $.B.M.7.o 5 - = = = = = = = = = = = = * = = = ",
"= = = = = = = = = = = = = = = < r s b A F ' Q.].fXaXfXgXfXgXfXgX;XQ.!.#.F 6.b.a.6.6 7 = = = = 1 = = = = = = = = = = = = ",
"= = = = = = = * = = = = = = = 6 p c D H Q ` I.Q.eXgXfXfXfXfXgXrXQ.Q.I. .~ 6.r.r.<., r = = = = = * = = = = = = = = = = = ",
"= = = = = = = = = = = = = = < 0 s n A P ~  .I.Q.<XaXfXgXfXfXgX<XQ.I.8.X.' 1.r.w.P f u 7 $ = = = = = = = = = = = = = = = ",
"= = = = = = = = = = = = = = 6 r v Z L ! / 8.^.Q.[.fXfXfXfXgXfX'.^.G.3.@. . .1.^ M b y 8 - = = = = = = = = = = = = = = = ",
"= = = = = = = = = = = = = = 8 y b A P ~ ~ |._.^.[.fXfXgXfXgXeX!._.0.9.3.o. .~ P A n s 8 - = = = = = = = = = = = = = = = ",
"= = = = = = = = = = = = = - 8 x b A ! / 0._.'.!.;XgXgXfXfXaXeX~._.H.9.8.o.~ l.' Z Z z t 5 = = = = = = = = = = = = = = = ",
"= = = = = = = = = = = = = 5 r s C F Q O.'.].'._.rXaXfXfXgXaXfX[._.'.0.9.X.8.`.k.V S c q 6 - = = = = = = = = * = = = * = ",
"= = = = = = = = = = = = = 5 p z D F Q |.{.`.{.rXgXfXgXfXfXgXgX0X~.].}.G.G.].`.].` n b p 6 < = = = = * = = = = = = = = = ",
"= = = = = = = = = = = = < 5 r z A V k.{.].[.eXgXgXaXgXaXgXgXgXaX<X`.].{.{.[.,X{.k.h n t 6 < = = = = = = = = = = = = = = ",
"= = = = = = = = = = = = = 5 t b m ] :X[.,XfXgXgXgXgXgXgXgXgXaXgXgXqX;X,X;XrXrX{.*XL m f 6 < = $ = = = = = = = = * = = = ",
"= = = = = = = = = ; = = < 6 r b h z.>X,XrXkXgXkXgXgXgXgXgXgXgXkXgXkXgXfXgXkXgX<X>X] 4 x 8 < = ; = = = = = = = = = = = = ",
"= = = = = = = = = $ = = < 5 t w Y ;X>XeXaXgXgXgXaXkXaXgXgXaXgXaXgXgXgXkXkXkXkXwX>X X3 x 8 - = = = = = = = = = = = = = = ",
"= = = = = = = = = = = = = 5 t > ] <X2XkXkXkXkXkXkXkXkXkXkXkXgXkXkXkXkXgXaXgXkXeX<XXX3 x 6 < = = = = = = = = = = = = = = ",
"= = = = = = = = = = = = 1 5 u X =.1XeXkXkXkXkXkXkXaXkXkXkXkXkXkXkXkXkXkXkXkXlXrX1X.X3 u 7 < = = = = = = = = = = = = = = ",
"= = = = = = = = = = = = = 5 r X =.1XfXlXkXkXkXkXkXkXkXlXkXkXkXkXkXlXkXkXkXkXkXfX1X.XX p < - = $ = = = = = = = = = = = = ",
"* = = = = = = = 1 = ; = = < 0 X %.0XfXlXkXkXlXlXkXkXlXkXlXkXlXlXkXkXlXlXlXkXlXfXqXXXX r < = = = = = = = = = = = = = = = ",
"= = = = = = = = = = = = = ; 6 6 u yXrXlXlXlXlXlXlXlXlXlXlXlXlXlXlXlXlXlXlXlXlXeXqX=.. r - = = = = = = = = = = = = = = = ",
"= = = = = = = = = = = = = $ < r . -.eXaXbXlXlXlXlXlXlXlXlXlXbXlXbXlXlXlXlXlXkXeXtXB # 8 = = = = = = = = = = = = = = = = ",
"= = = = = = = = = = = = = = ; 8 - N tXaXlXbXlXbXbXbXbXlXbXbXlXbXbXbXlXbXbXlXaXrX+X  p ; = = $ = = = = = = = = = = * = = ",
"= = = = = = = = = = = = = = = < p . &.fXgXzXbXbXbXnXbXnXbXbXbXbXbXbXbXnXlXfXfXtXv = 6 = = = = = = = = = = = = = = = = = ",
"= = = = = * = = = = = = = = = - - u   ;.gXgXkXlXlXlXlXkXkXgXgXkXkXkXlXaXgXkXdXT X r = = = = = = = = = = = = = = = = = = ",
"= = = = = = = = = = = = = = = = = 5 r   *.dXkXkXkXkXkXlXkXkXkXlXlXkXkXlXlXOXB . r = = = = = = = = = = = = * = = = = = = ",
"= = = = = = = = = = = = * = = = = 1 < r . x >.OXxXxXOX:.;.&.&.>.oXuXuX:.%.  . 0 1 = = = = $ = = = = = = = = = = = = = = "
};
