/* XPM */
static char *i31674121958[] = {
/* columns rows colors chars-per-pixel */
"60 60 242 2 ",
"   c #020101",
".  c #020101",
"X  c #020101",
"o  c #020101",
"O  c #020101",
"+  c #020101",
"@  c #020101",
"#  c #020101",
"$  c #020101",
"%  c #020101",
"&  c #020101",
"*  c #020101",
"=  c #020101",
"-  c #020101",
";  c #020101",
":  c #020101",
">  c #020101",
",  c #020101",
"<  c #020101",
"1  c #020101",
"2  c #020101",
"3  c #020101",
"4  c #020101",
"5  c #020101",
"6  c #020101",
"7  c #020101",
"8  c #020101",
"9  c #020101",
"0  c #020101",
"q  c #2D2925",
"w  c #2D2429",
"e  c #2D2B2B",
"r  c #22202D",
"t  c #302625",
"y  c #2D312F",
"u  c #2D2E32",
"i  c #2B2938",
"p  c #2D3235",
"a  c #2D353B",
"s  c #2D3A3E",
"d  c #31343A",
"f  c #313A3D",
"g  c #302B31",
"h  c #2B2A46",
"j  c #2B3543",
"k  c #2D3C43",
"l  c #2D3E4A",
"z  c #2C304D",
"x  c #303D43",
"c  c #313C49",
"v  c #2B3C55",
"b  c #2D365A",
"n  c #2D3554",
"m  c #262952",
"M  c #301244",
"N  c #2D4046",
"B  c #2D434C",
"V  c #2A494E",
"C  c #31444D",
"Z  c #314749",
"A  c #2E4552",
"S  c #2C4A55",
"D  c #2C445D",
"F  c #2D4B5A",
"G  c #334B51",
"H  c #314655",
"J  c #2E525D",
"K  c #325258",
"L  c #2C4C64",
"P  c #2B4564",
"I  c #314A64",
"U  c #2D5263",
"Y  c #2D546B",
"T  c #2D5C6B",
"R  c #295968",
"E  c #325867",
"W  c #2D5570",
"Q  c #2C5C73",
"!  c #285977",
"~  c #314874",
"^  c #2A646F",
"/  c #2E6273",
"(  c #2D637B",
")  c #2B697B",
"_  c #306477",
"`  c #29737C",
"'  c #357A7F",
"]  c #426A6A",
"[  c #437577",
"{  c #2E5C86",
"}  c #265581",
"|  c #2C6B87",
" . c #2A768A",
".. c #347B8B",
"X. c #28779C",
"o. c #306C91",
"O. c #2674A3",
"+. c #1C7DC4",
"@. c #26888E",
"#. c #2A8994",
"$. c #348493",
"%. c #29949A",
"&. c #39888F",
"*. c #1F86A5",
"=. c #1C9EBD",
"-. c #1C87B5",
";. c #2394A2",
":. c #2497AC",
">. c #3B9CA5",
",. c #1DA7B7",
"<. c #1CB5BB",
"1. c #23A6A8",
"2. c #23B5B7",
"3. c #32AFB3",
"4. c #518586",
"5. c #509396",
"6. c #639D9E",
"7. c #51AFAD",
"8. c #65AAA9",
"9. c #69B2B3",
"0. c #72B8B7",
"q. c #1891CA",
"w. c #219ACC",
"e. c #19A7C7",
"r. c #1BBBC3",
"t. c #15A8D2",
"y. c #14BCD5",
"u. c #1496E4",
"i. c #029EEB",
"p. c #0CA4E9",
"a. c #02BAEB",
"s. c #00A3FC",
"d. c #02ACFD",
"f. c #06A8FA",
"g. c #01B5F6",
"h. c #01BCFB",
"j. c #06B6FA",
"k. c #14B9FD",
"l. c #19B1F3",
"z. c #3AB0F8",
"x. c #42BEC1",
"c. c #70BEC2",
"v. c #1CCACA",
"b. c #16D6CF",
"n. c #15C4D8",
"m. c #1BD4D3",
"M. c #35C7C6",
"N. c #2FD5D1",
"B. c #18E0DD",
"V. c #2DE2DD",
"C. c #12C4E7",
"Z. c #0ED9E7",
"A. c #18DBE2",
"S. c #02CBF6",
"D. c #01C4FB",
"F. c #02CAFB",
"G. c #07C2F7",
"H. c #17C3F8",
"J. c #01D4F4",
"K. c #00D4FB",
"L. c #05DAF8",
"P. c #19D2FA",
"I. c #13D5FA",
"U. c #06C7E8",
"Y. c #24C8FA",
"T. c #33C9F9",
"R. c #2AD5F9",
"E. c #08EAEB",
"W. c #17E8E7",
"Q. c #03F6ED",
"!. c #01E4F4",
"~. c #02EDF5",
"^. c #03E7FC",
"/. c #09E9FB",
"(. c #16E3FB",
"). c #02F4F5",
"_. c #02FDF3",
"`. c #0CFFF4",
"'. c #01FCFB",
"]. c #0AFEF9",
"[. c #13FEF4",
"{. c #1BFEF5",
"}. c #13FFFA",
"|. c #1BFFFB",
" X c #14F1F5",
".X c #14F5ED",
"XX c #21ECE6",
"oX c #24F4ED",
"OX c #25FDF4",
"+X c #2DFCF4",
"@X c #29FCFA",
"#X c #39FCF8",
"$X c #35EEF4",
"%X c #52D4D3",
"&X c #76C6C8",
"*X c #79DBDA",
"=X c #62D0CF",
"-X c #62E3DF",
";X c #58C6FE",
":X c #42D8FA",
">X c #59D8F9",
",X c #6DD5F3",
"<X c #55EBE8",
"1X c #58E6FA",
"2X c #41FDF5",
"3X c #4BFEF6",
"4X c #44FEFC",
"5X c #4BFEFB",
"6X c #53FDF5",
"7X c #54FEFA",
"8X c #5DFEFA",
"9X c #5CF5F6",
"0X c #48ECF1",
"qX c #6CEDE9",
"wX c #66E5F9",
"eX c #79E7FA",
"rX c #63FEFA",
"tX c #6BFEFB",
"yX c #69FCF6",
"uX c #74FDFC",
"iX c #7DFEFC",
"pX c #79F5F8",
"aX c #7EECEB",
"sX c #8FDEEE",
"dX c #87EBEB",
"fX c #92EBFE",
"gX c #9AE7FD",
"hX c #8EF5FC",
"jX c #84FEFB",
"kX c #8BFDFC",
"lX c #88FBF8",
"zX c #94F6FD",
"xX c #9CF5FD",
"cX c #93FEFC",
"vX c #9CFEFD",
"bX c #90F0EE",
"nX c #A4EBFE",
"mX c #A3F4FE",
"MX c #ABF5FE",
"NX c #A3FEFE",
"BX c #A9FFFF",
"VX c #BAF8FF",
/* pixels */
"; ; ; ; ; ; ; ; ; ; ; ; ; ; ; ; ; ; ; ; ; ; ; ; ; ; ; ; ; ; ; ; > ; ; ; ; ; ; ; ; ; ; ; ; ; ; ; ; $ ; ; ; ; ; ; ; ; ; ; ",
"; ; ; ; ; ; ; ; ; ; $ ; ; ; ; ; $ ; ; ; ; ; $ ; ; > ; ; ; ; ; $ 7 0 $ ; ; ; ; ; ; ; ; ; ; ; ; ; ; ; ; ; ; ; ; ; ; ; ; ; ",
"; ; ; ; > ; ; ; ; ; ; ; ; ; ; ; ; ; ; ; ; ; ; ; ; ; ; ; % ; & 8 O # t % < ; ; ; ; ; ; ; ; ; ; ; ; ; ; ; ; ; ; ; ; ; ; ; ",
"; ; ; ; ; ; ; ; ; ; ; ; ; ; ; ; ; ; ; ; ; ; ; ; ; ; ; ; ; ; 7 O z h O 7 ; ; % ; ; ; ; ; ; ; ; ; ; ; ; ; ; ; ; ; ; ; ; ; ",
"; ; ; ; ; ; ; ; ; ; ; ; ; ; ; ; ; ; ; ; ; ; ; ; ; ; ; % ; ; i + +.u.+ @ : ; ; ; ; ; > ; ; ; ; ; ; ; ; > ; ; ; ; ; ; $ ; ",
"; ; ; ; ; ; ; ; > ; ; ; ; ; ; ; ; ; ; ; ; ; ; ; ; ; ; > % i + } s.f.+.+ 0 > , ; ; ; ; ; ; ; ; ; ; ; ; ; ; ; ; ; ; ; ; ; ",
"; ; ; ; ; ; ; ; ; ; ; ; ; ; ; ; ; ; ; ; ; ; ; ; ; ; ; ; i o v i.f.z.s.O.o u & : ; ; ; ; ; ; ; ; ; ; ; ; ; ; ; ; ; ; ; ; ",
"; ; > ; ; ; ; ; ; ; ; ; ; ; ; ; ; > ; ; ; ; > ; ; > : e o z u.k.s.gX;Xs.D o w $ ; ; ; ; ; ; ; ; ; ; ; ; ; ; ; ; ; ; ; ; ",
"% ; ; ; ; ; ; ; ; ; ; ; ; ; ; ; ; ; ; ; ; ; ; ; $ 1 i + v p.d.l.s.nXnXf.w.+ w ; % ; ; ; % ; ; ; ; ; ; $ ; ; ; ; ; ; > ; ",
"; ; ; ; ; ; ; ; ; ; ; ; ; ; ; ; ; ; ; % ; ; ; & w 0 o ! p.h.d.k.d.gXVX;Xd.o.o i $ % ; ; ; ; ; ; ; ; ; ; ; ; ; ; ; ; ; ; ",
"; ; ; ; ; ; ; ; ; ; ; ; ; $ ; > ; ; ; : ; : # e # o X.g.h.g.j.k.d.gXVXgXd.w.o 0 1 ; ; ; ; ; ; ; ; ; ; ; ; ; ; ; ; ; ; ; ",
"; ; ; ; ; ; ; $ ; ; ; > ; ; ; ; ; ; ; ; ; # u o o -.h.h.h.h.k.h.h.gXVXgXh.j.Q o u $ ; ; ; , ; ; ; ; ; ; ; ; ; > ; ; $ ; ",
"; ; ; ; ; ; ; ; ; ; > ; ; ; ; ; ; ; ; % % i o a t.D.D.h.h.h.k.h.T.nXVXnXk.D.O.o i > ; ; ; : ; ; ; ; ; ; ; ; ; ; ; ; ; ; ",
"; ; ; ; ; ; ; ; ; ; ; ; ; ; ; ; % ; ; ; u o R l.D.h.G.G.h.D.Y.h.;XMXMXxXH.F.w.o 0 : ; ; ; % ; % ; ; > ; ; ; ; ; ; ; ; ; ",
"; ; ; ; ; ; ; ; ; ; ; ; ; ; ; ; ; ; ; e + ! H.F.T.Y.D.D.D.F.H.D.,XMXMXgXD.F.e.+ : : ; > ; ; ; : ; ; ; ; ; ; ; ; ; ; ; ; ",
"; ; ; ; ; ; ; ; ; ; ; ; ; ; ; ; ; ; w X ^ H.F.T.gXT.D.F.F.H.F.D.fXMXMXfXD.I.t.o 1 7 > ; % ; ; ; ; ; ; ; ; ; ; ; ; ; ; ; ",
"; ; ; ; ; ; ; ; ; ; ; ; % ; ; ; ; 0 o A C.K.S.fXmXP.F.S.S.R.D.>XmXnXMXeXD.P.,.o w : ; ; ; ; ; % ; ; ; ; ; ; ; ; ; ; ; ; ",
"; ; ; ; ; ; ; ; ; ; ; ; ; ; ; : 0 : o e.I.S.wXMXmX:XF.P.I.F.R.fXmXmXmXwXF.I.*.o p ; ; > ; ; ; ; ; ; ; ; ; ; ; ; ; ; ; ; ",
"; ; ; ; ; ; ; ; ; % ; ; ; ; : 1 w o R I.K.R.fXmXmXeXF.J.K.:XzXMXxXmXmXT.K.I.) o a ; ; ; % , % ; ; ; ; ; ; ; ; ; ; ; ; ; ",
"; ; ; ; ; ; ; ; : ; ; ; : 1 0 0 p o ;.(.S.1XmXxXxXxXeX1XeXxXmXxXvXmXhXL.^.C.p & y 1 1 ; 1 ; ; ; ; ; ; ; ; ; ; ; ; ; ; > ",
"; ; ; ; ; ; ; ; ; % ; 1 0 1 e e p o ,./.J.wXvXxXzXmXxXvXmXxXzXxXzXmXeXJ./.e.+ k a q 0 0 : : % ; ; ; ; ; ; ; $ ; ; ; ; ; ",
"; ; ; ; ; ; ; ; ; ; 1 1 2 p e 2 s o ,./.L.wXvXzXxXzXzXzXzXzXzXxXzXxX1X!.I.@.+ B o p e 1 1 : : ; ; ; > ; ; ; ; ; ; ; ; ; ",
"; ; ; ; ; ; ; ; ; : 1 0 p 3 s Y k o ;./.!.1XxXzXzXzXzXzXzXzXzXzXxXkX(.^.Z.B e B ^ : r p t 0 1 ; ; ; ; ; ; ; ; ; ; ; ; ; ",
"; ; ; ; ; ; ; ; 1 1 q u y O q.-.2 w  .(.!.0XzXzXzXhXzXzXzXzXhXzXxXpX!.~.r.o S + v.,.o u e 0 0 : ; ; ; ; ; ; ; ; ; ; ; ; ",
"; ; ; ; ; ; ; : 0 0 e a O O.h.q.y c S A.^.$XlXzXkXhXhXkXhXhXhXhXcX9X!.).%.4 R + e.'.%.o a e q 1 ; ; ; ; ; ; ; ; ; % ; ; ",
"; ; ; ; $ ; ; : q q s O ^ a.a.a. .k h 2.'.~.pXcXhXkXkXhXhXkXkXkXzX$X~./.` l E 4 <.).E.S 0 d t q : ; ; ; ; ; ; ; ; ; ; ; ",
"; ; ; ; ; ; : 0 q p a # =.K.U.J.t.A n @. X~.9XcXkXhXjXhXhXkXkXhXpX X).A.L T T 9 v.).'.1.+ s e e 0 1 ; ; ; ; ; ; ; ; ; ; ",
"; ; ; ; ; 1 2 r e a e c y.J.S.J.U.T L / W.'.$XlXkXjXkXjXjXkXjXkXuX).'.W.D I M ^ E.'._.v.o N y e q 0 ; ; ; ; ; ; ; ; ; ; ",
"; ; ; ; ; 1 q e u k g V n.^.y.;.1.Q W W m.'.).uXjXlXjXlXjXjXjXhXrX_._._.r.`  .b.'.Q._.b.- N p u q q 1 ; ; ; ; ; ; > ; ; ",
"; ; ; ; 1 1 q e p k s 6 n.^.T 9 L Q ( W v.`._.yXjXiXjXjXjXjXiXkX6X_.Q._._.E.Q._._._.'.b.= B p d e q 0 ; ; ; ; ; ; ; ; ; ",
"; ; ; ; 1 0 e u p k S + ;.Z._ U ( ( | ! v.}._.6XjXjXiXjXjXjXiXjX6X_.`._.`._._._._._.'.v.- V s a y e 0 1 ; ; ; ; ; ; ; ; ",
"; ; ; ; 1 0 e p a k B A c 1.%.I { ( | { v.}._.2XjXjXiXjXiXjXiXkX6X_.`.[._.{._.#X2X_._.2.4 V j a e e q 1 : ; ; ; ; ; ; ; ",
"; ; ; 1 0 q u p s k C F F F Q ( ( | | o.W.|._.#XjXjXiXjXjXjXiXjXrX_.[.[.[._._.tX8X_.[.#.i A k s p u q 0 : ; ; ; ; ; ; ; ",
"; ; ; 1 0 e p p k N V A U Y L Q | o.{ :.[.{._.3XjXjXiXjXjXiXjXjXiX#X_._._.OXtXkX6X_.W.Y H C l s a p e 0 : ; ; ; ; ; ; ; ",
"; ; 1 1 q e p d k v H J U P 1.$.~ { X.XX[.OX_.8XjXjXjXjXjXjXjXjXjXiXrX8XrXjXjXjX3X'.v.h J A l k a p e t 1 : ; , ; ; % ; ",
"; ; 1 1 q u p a k B S U I W XXoX3.2.XX|.+X}.OXuXjXjXjXjXiXjXjXiXjXjXkXlXkXjXjXjX+X].>.z J S B k a p e e 0 : ; ; ; ; ; ; ",
"; ; : 1 e y p x k A A T n #.oX@X{.@X@X+X{._.yXkXjXjXjXjXkXiXjXjXjXjXjXjXjXjXkXyX}.oX` L J S C N s p u q 1 1 , ; ; ; ; ; ",
"; ; 1 0 e g p k B A S T n %.OX#XOX`.{.].@XrXkXjXjXjXjXjXjXkXjXjXjXkXjXjXjXjXjX6X}.V.Y U U H A k s p p q 0 1 ; ; ; ; ; ; ",
"; ; 1 0 e p p k N A F T v ...X7XuX6X3X8XuXkXjXjXjXjXkXjXjXjXkXkXjXiXjXjXjXkXiX2X@XN.P U U S A N s a y e t 1 ; ; ; > ; ; ",
"; ; 1 0 e p a k B A S Y Q Y V.5XjXkXjXlXkXjXkXlXjXjXjXkXkXjXjXjXlXkXkXjXjXkXuX+X@XM.P Y U F A B x a u e 1 1 ; ; ; ; ; ; ",
"% 1 1 0 e p a s l A F U / b 3.@XuXkXlXkXlXjXkXjXjXkXjXkXkXjXlXkXjXjXjXkXjXkXrXOX4XM.P T F F A N k a y e t : : ; ; ; ; ; ",
"; ; 1 0 e p a k N A F U / P &.+XrXkXkXkXkXjXjXkXlXjXkXkXlXkXjXkXkXkXkXjXkXkXrX#X4XM.P Y U F H B s p p q q 1 ; ; ; ; ; ; ",
"; ; 1 1 q u a s N A F L Q W ..$X8XkXkXkXkXkXkXkXkXkXkXkXkXlXkXkXkXjXkXkXkXkX6X#X4XN.Y E R S A k s a u e 1 1 ; ; ; ; $ ; ",
"; ; : 0 e u a a l A F U T I ..2XrXkXkXkXkXkXkXkXkXkXkXkXkXkXkXkXkXkXkXkXkXkX3X4X5X0X_ I J F B c s p p q 0 1 ; ; ; ; ; ; ",
"; ; 1 1 q u p x k B F F / b >.5XyXkXcXlXkXlXcXkXcXkXcXkXkXkXkXkXkXcXkXkXkXkX8X3X7X5X#.v J S B k k p e e 0 : ; ; ; ; ; ; ",
"; ; : 0 e e p s l C F F / m 7.5XuXcXkXcXkXcXcXkXkXcXkXcXcXcXcXcXcXcXkXkXcXcXuX3X7X7Xx.h U A A k a p u q 0 ; ; ; ; ; ; ; ",
"; ; : 1 t e p a k N A J U P <X5XlXcXkXcXcXcXcXcXcXcXcXcXcXkXcXcXkXcXcXcXkXcXkXrX7X8X<XA S H l k a p e q : ; ; ; ; ; ; ; ",
"; ; ; 1 t q p p j B B U v ) <X8XkXcXcXcXcXcXcXkXcXkXcXcXcXkXcXcXcXcXcXcXcXcXcXiX7X8X8X..j H k s p y e 0 1 : ; > ; ; ; ; ",
"; ; ; : 1 q e p s k k J h &.9XtXkXcXvXcXcXcXcXvXcXcXvXcXvXcXcXcXcXcXcXvXcXcXvXcXtX8XtX7.5 A s a p e q 1 1 ; ; ; ; ; ; ; ",
"; ; ; : 1 q e p d f N J 9 5.rXyXcXvXcXcXvXcXcXcXcXcXcXcXvXcXvXcXcXvXcXvXcXcXvXvXiXrXtX%X= A k p p e 0 1 ; ; ; ; ; ; ; ; ",
"; ; ; ; 1 0 e y p k k K 5 &.yXtXkXvXvXcXvXvXvXcXvXvXcXvXcXvXvXcXvXcXvXcXvXcXcXvXkXtXuX<Xr C a p u e 0 1 ; ; ; ; ; ; ; ; ",
"; ; ; ; : 0 q e p a k S j R qXtXlXvXvXvXvXvXvXvXvXvXvXvXvXvXvXvXvXvXvXvXvXvXvXvXcXuXuXqXc j a p e q 1 : ; ; ; ; ; ; ; ; ",
"; ; ; ; ; 1 0 q p p a k S 5 =XiXuXcXNXvXvXvXNXvXvXvXvXNXvXvXvXvXvXvXvXNXvXNXvXvXcXuXiXqXs p p y q 0 1 ; ; ; ; ; ; ; ; ; ",
"; ; ; ; ; : 1 0 e p d a K   5.uXiXlXNXNXNXvXNXvXNXvXNXvXNXvXNXvXNXNXNXvXNXvXNXNXcXuXiX*XX N e e 0 1 1 ; ; ; ; ; ; ; ; ; ",
"; ; ; % ; ; 1 1 0 u p a k B 8 *XkXiXkXBXNXNXNXNXNXNXNXBXNXBXNXBXNXNXNXNXNXNXBXvXkXpXkX8.  s e e 0 1 ; ; ; ; ; ; ; ; ; ; ",
"; ; ; ; ; : ; 1 q q e p p Z = [ jXkXlXcXBXNXBXNXNXBXBXNXcXcXvXBXBXBXNXNXBXBXNXcXiXkXaXZ w p q 0 1 ; ; ; ; ; ; ; ; ; ; ; ",
"; ; ; ; ; ; ; : 1 0 q u p p C   5.kXcXjXlXvXBXBXBXBXvXzXjXjXkXhXvXNXBXBXNXNXlXkXcXdX[ X p e 0 1 ; ; ; ; ; ; ; ; ; ; ; ; ",
"; ; ; ; ; ; ; ; : 1 q q e p a N   5.dXvXcXcXzXcXcXcXcXcXcXvXzXcXcXcXvXcXcXcXcXcX&XK X d q 0 1 1 : ; ; ; ; ; ; ; ; % ; ; ",
"; ; ; ; ; ; ; ; ; 1 0 t w u p d s   G 9.bXNXvXvXvXvXcXsXc.9.9.&XdXvXvXvXvXvXsX4.X X d q 0 1 1 , ; ; ; ; ; ; ; ; ; ; ; ; ",
"; ; ; ; ; ; ; % ; , : 1 q q e e p s 7   Z 5.0.&X0.6.^ 8 . . .   x 4.6.9.6.E   X p d q 0 1 1 , % ; ; ; ; ; ; ; ; ; ; ; ; "
};
