/* XPM */
static char *i41674121958[] = {
/* columns rows colors chars-per-pixel */
"60 60 238 2 ",
"   c #020101",
".  c #020101",
"X  c #020101",
"o  c #020101",
"O  c #020101",
"+  c #020101",
"@  c #020101",
"#  c #020101",
"$  c #020101",
"%  c #020101",
"&  c #020101",
"*  c #020101",
"=  c #020101",
"-  c #020101",
";  c #020101",
":  c #020101",
">  c #020101",
",  c #020101",
"<  c #020101",
"1  c #020101",
"2  c #020101",
"3  c #020101",
"4  c #020101",
"5  c #020101",
"6  c #020101",
"7  c #020101",
"8  c #020101",
"9  c #020101",
"0  c #020101",
"q  c #31003C",
"w  c #2D2523",
"e  c #2D2925",
"r  c #2C242B",
"t  c #2D2B2B",
"y  c #272A2F",
"u  c #302929",
"i  c #2D2D32",
"p  c #2D273A",
"a  c #2D3234",
"s  c #2E363B",
"d  c #2D393D",
"f  c #273133",
"g  c #303539",
"h  c #32393C",
"j  c #2D322E",
"k  c #2D1943",
"l  c #2E2845",
"z  c #2D3542",
"x  c #2D3C43",
"c  c #2D3D4A",
"v  c #2E364B",
"b  c #313B43",
"n  c #323048",
"m  c #2C3F53",
"M  c #302F54",
"N  c #2C4146",
"B  c #2D444C",
"V  c #2D494E",
"C  c #30454A",
"Z  c #2D4452",
"A  c #2D4A54",
"S  c #2B435E",
"D  c #2D4C5B",
"F  c #304D58",
"G  c #304556",
"H  c #2D515C",
"J  c #34525A",
"K  c #2C4A69",
"L  c #314860",
"P  c #2E5463",
"I  c #2C5A6B",
"U  c #2C5969",
"Y  c #355666",
"T  c #2A4B74",
"R  c #2A5C74",
"E  c #305E75",
"W  c #2B636A",
"Q  c #2B6B7B",
"!  c #2C6677",
"~  c #336979",
"^  c #2A767B",
"/  c #37797D",
"(  c #487B7A",
")  c #41686D",
"_  c #275784",
"`  c #277C84",
"'  c #256C8E",
"]  c #1974BA",
"[  c #237FBE",
"{  c #4D7E83",
"}  c #1B7DC4",
"|  c #298689",
" . c #268798",
".. c #269296",
"X. c #349697",
"o. c #1A9ABD",
"O. c #1F8DA8",
"+. c #2A95A9",
"@. c #1DABB7",
"#. c #22A1AA",
"$. c #25A7A8",
"%. c #24B6B7",
"&. c #32B8B8",
"*. c #32ACAD",
"=. c #4A989C",
"-. c #5B999B",
";. c #588E8E",
":. c #42B7B7",
">. c #4EB3B5",
",. c #6BBABA",
"<. c #69AAAE",
"1. c #1299CB",
"2. c #008FDE",
"3. c #2099D2",
"4. c #18A8C5",
"5. c #14B2D3",
"6. c #019DF4",
"7. c #0BBBE6",
"8. c #00A5FE",
"9. c #01ABFD",
"0. c #07ABF6",
"q. c #19A9F6",
"w. c #01B5F7",
"e. c #01BEF5",
"r. c #01B3FB",
"t. c #01BCFA",
"y. c #0DBDFD",
"u. c #16B8FD",
"i. c #13AFE2",
"p. c #27ABFC",
"a. c #27B6FC",
"s. c #14C8D8",
"d. c #18DFD7",
"f. c #0FD1D4",
"g. c #23C8C5",
"h. c #2ED5D2",
"j. c #0DE4DD",
"k. c #2FE4DE",
"l. c #09CBE4",
"z. c #0AD9EC",
"x. c #01C5F3",
"c. c #01CCF6",
"v. c #0ACDFF",
"b. c #03C5FF",
"n. c #16C7FE",
"m. c #01D3F6",
"M. c #02DCF5",
"N. c #02D4FC",
"B. c #02DCFC",
"V. c #0AD7FB",
"C. c #15DAF2",
"Z. c #33C7FA",
"A. c #38D8FC",
"S. c #24DEF5",
"D. c #08E6E9",
"F. c #15ECE4",
"G. c #06F9EE",
"H. c #16F2EA",
"J. c #01E3F5",
"K. c #02EBF5",
"L. c #02E2FC",
"P. c #00EBFB",
"I. c #0BE8F9",
"U. c #11EBF4",
"Y. c #17E8F6",
"T. c #02F3F4",
"R. c #01FDF4",
"E. c #0BFDF3",
"W. c #00F4FB",
"Q. c #01FDFB",
"!. c #0BF9F7",
"~. c #13F4F3",
"^. c #13FEF3",
"/. c #1BFEF4",
"(. c #14FFFA",
"). c #1BFFFA",
"_. c #24F8EF",
"`. c #23FDF5",
"'. c #2BFEF6",
"]. c #29FEFA",
"[. c #34FEF5",
"{. c #3AFDF5",
"}. c #33FFFC",
"|. c #3BF8F8",
" X c #2FECF1",
".X c #53C9C6",
"XX c #4FD1D1",
"oX c #53D1D2",
"OX c #4BC8C7",
"+X c #79C9CB",
"@X c #68D2D3",
"#X c #78D2D3",
"$X c #79CED1",
"%X c #79E0DD",
"&X c #4DC6FD",
"*X c #55CDFB",
"=X c #59D6FD",
"-X c #4DD6FA",
";X c #78D4FC",
":X c #6CD3FB",
">X c #58E3FC",
",X c #43FBF5",
"<X c #4AFEF6",
"1X c #42FFFC",
"2X c #4CFEFC",
"3X c #55FDF6",
"4X c #5DFDF7",
"5X c #52FFFC",
"6X c #5DFEF9",
"7X c #40E4E3",
"8X c #77EFFB",
"9X c #63FEFC",
"0X c #6BFEFC",
"qX c #67FBF7",
"wX c #73FEFB",
"eX c #7CFEFA",
"rX c #79FAF7",
"tX c #68E8ED",
"yX c #84DBDA",
"uX c #8EDAFD",
"iX c #8AEBFC",
"pX c #9AE4FD",
"aX c #8BF5FA",
"sX c #85FEFB",
"dX c #8BFEFC",
"fX c #87F9F6",
"gX c #93F5FC",
"hX c #9BF4FD",
"jX c #94FEFD",
"kX c #9BFEFD",
"lX c #86E5E7",
"zX c #A6EEFE",
"xX c #A4F3FE",
"cX c #ACF3FE",
"vX c #A3FEFE",
"bX c #AAFEFE",
"nX c #B7F6FE",
"mX c #C3FAFF",
/* pixels */
": : : : : : : : : : : : : : : : : : : : : : : : : ; : : : : : : < : : : : : : 3 : : : : : : ; : : : : : : ; : : : : ; : ",
": : : : : : : : : : : : : : : : : : : : : : : : % : : : % 8 r : % : : : < : : % : : : : : : : : : : : : : : : : : : : : ",
": : : : : : : : : : : : : : : ; : : : : : : : : : : : : 4 + O r 8 $ : : : : : : : : : : : : : : : : : : : : : : : : : : ",
": : : : : : : : : ; : : : : : : : : : : : : : : : : : > @ T _ @ ; r $ ; % : : : : : : : : : : : : : : : : : : : : : : : ",
": : : : : : ; : : : : : : : : : : : : : : : : : : : & r @ } 8.] * @ u $ : : : % : : : : : : : : : : : : : : : : : : : : ",
"; : : : : : : : : : : : : : : : ; : : : : : : : : % 8 & n 6.p.0.2.v @ i $ : : : : : : : : : : : : : : : : : : : : : : : ",
": : : : : : : : : : : : : ; : : : : : : : : : : : % i @ [ 9.p.uXa.6.K O r % : : : : : : : : : : : : : : : : : : : : : : ",
": : : : : : : : : : : : : : : : : : : : : : : ; % p @ _ 9.q.6.pXpX8.0.K O r % : : : : : : : : : : : : : : : : ; ; : : : ",
": : : : : : : : : : : : : : : : : : ; : : : : % i O S 0.9.p.8.;XmX:X9.p.s O 8 % : : : : : : : : : : : : : : : : : : : : ",
": : : : : : : : ; : : : : : : : : : : : : : $ p @ S 0.u.w.u.8.;XnXcXa.r.3.O r : : : : : : : : : ; : : : : : : : : : : : ",
": : : : : : : : : : : : ; : : : : : : : : % i O T w.y.w.y.a.r.uXnXnX;Xr.y.' @ y : : : : : : : : : : : : : ; : : ; : : : ",
": : : : : : : : : : : : : : : : : : $ > : i O ! t.y.w.&Xy.r.&XcXcXcXpXw.t.i.# $ 2 : : : : : : : : : : : : : : : : : : : ",
": : : : : : : : : : : : : : : : : : : % r @ ' t.n.w.*XcX;X:XzXcXcXcXcXZ.t.y.! O r : : : % : : : : : : : : : : : : : : : ",
": ; : : : : : : : : : : : : : : : : % r O R t.n.e.*XcXcXnXbXcXxXcXcXcX&Xt.b.O.@ r : : : : : : : : : : : : : : : : : : : ",
": : : : : : : : : : ; : : : : : : % w O i 7.v.x.Z.xXcXcXxXxXcXxXcXxXbX=Xt.v.5.O 2 : : : : : : : : : : : : : : % : : : : ",
": : : : : : ; : : : : : : : : % : : r @ o.N.x.b.iXcXxXxXxXcXxXxXxXxXcX=Xx.v.7.@ % > : < : : : : : : ; : : : : : : : : : ",
": : : : : : : : : : : : : : : : 2 r O D x.n.c.:XvXxXxXxXzXhXxXxXxXxXxX-Xc.V.7.3 & > : : : : : : : : : : : : : : : : : : ",
": : : : : : : : : : : % : : % 2 * w O O.B.m.m.iXxXxXxXhXhXzXhXxXhXxXgXZ.c.V.7.# % : : : : : : : : : : : : : : : : : : : ",
": : : : : : : : : : : : : ; 8 O S S @ 4.V.m.A.hXhXhXhXhXhXhXhXhXhXxXiXN.N.B.5.O 2 : : : : : : : : : : : : : : : : : : : ",
": : : : : : : : : : : : : > > O 1.' @ 4.B.m.A.hXhXhXhXhXxXhXhXhXhXhX>XB.C.B.@.O w : : : < : : : : : : : : ; : : ; : : : ",
": : : : : : : : : : : : : w O R e.1.O O.P.M.S.gXhXhXhXgXgXhXgXgXhXaXM.M.M.L...@ t : : : : : : : : : : ; : : : : : : : : ",
": : : ; : : : : : : : : : 2 O o.x.x.R H M.I.B.8XhXgXgXgXgXhXgXhXgX>XB.C.L.M.U O t 2 : : : : : : : : : : : : : : : : : : ",
": : : : : : : : : : : : 3 & 3 5.c.c.4.@ s.I.J. XdXhXgXgXgXgXgXhX8XM.U.J.P.s.+ e t e 2 > : : : : : : : : ; : : : : : : : ",
": : : : : : : : : : : : 2 O N l.M.M.l.O ` P.Y.J.qXgXdXgXgXgXaXdX XJ.I.P.P.#.O N t t e w 2 : : : : : : : : : : : : : : : ",
": : : : : : : : : : : : e * N J.z.5.s.r 8 s.T.K.J.8XgXaXgXdXgXqXJ.U.P.K.D.W , x a a t e w 2 > : : : : : : : : : : : : : ",
": : ; : : : : : : : : 2 e > : z.#.O  .s - #.W.U.K.|.dXaXdXaXaXY.W.K.K.T.s.- B x d a t t w w 3 : : : $ : : : : : : ; : : ",
": : : : : : : : : : > 2 w t O @.^ - d A p | T.T.T.T.rXdXfXdX4XK.~.T.T.Q...8 A c x z g i t t w > : : : : : : : : : : : : ",
": : : : : : : : : : 2 e t t a C V x Z A b Q K.R.~.T.9XaXsXfX|.W.~.T.Q.D.F A G Z N x x g i t w e > : : : : : : : : : : : ",
": : : : : : : ; : 2 w t i a x d c Z G P A ` R.T.!.R.3XsXsXwXW.R.R.G.Q.%.n I D G Z V c x a f t w 2 > : : : : : : : : : : ",
": : : : : : : : : 2 e i a s x B Z A D G 7 %.R.R.E.R.4XfXsXqXR.^.G.R.R...L I P P H B s c b a a e w 2 : : : : : : : : : : ",
": : : : : : : : 2 e t i g x B Z D D ! $.$.H.R.^.R.R.wXsXsX3XR.^.R.R.~.` E E U P H P W x N g a t e w > : : : : : : : : : ",
": : : : : : : > 2 e a g d c Z A D P I F.Q.R.^.R.R.qXsXeXsX3XR.^.E.E.!. .K ' ! Q q $.d.l c x s i t e > : : ; : : : : : : ",
": : : : : : : 2 e t a s x B B Z T Y ~ /.2X).R./.4XsXeXsXsX3XR./.E.E.E.d. .T K M ~ F.Q.| 0 C z a t t 2 : : : : : : : : : ",
": : : : : : 2 2 e t a d c p ^ %.k M g.!.eXrXqXwXsXsXsXeXsX4XR./.^.^.^.(.~.g.%.g.Y.(.E.g.= G b a a t e > : : : : : : : : ",
": : : : : : : e t i g h A 5 %.(.g.d.(./.wXdXsXsXsXsXsXeXsXeXR.)./././././.(.(./.Q.[.2Xd.p V c a a u e 2 : : : : : : : : ",
": : : : : : 2 e t a d x V v k.(.).`.^.`.eXsXsXsXsXeXsXsXsXeX<XR.]./.`./.`././.'.R.qX9Xj.n A N d a t e > 2 % : : : : : : ",
": : : : : : 2 e i a s V z Q _.[.`.'.^.,XsXsXsXdXsXsXsXsXsXdXwX/.^.'.`.`.`.].`./.].eX6Xj.l H N b s i u e > : : : : : : : ",
": : : : : : 2 t j g z V 0 | '.9X{.R.).wXsXsXsXfXsXsXsXsXsXsXdXwX'.^./.].`.]././.wXsX}.g.q J c x s a t e 2 : : : : : : : ",
": : : : : 3 w e a a x A l ` /.wXeX<X0XdXsXsXsXsXsXsXsXsXsXsXsXdXsX9X1X[.'.[.<XeXdXqX).&.k P B x s a t e 2 : : : : : : : ",
": : : : : 2 e t i d d C G F _.2XdXdXdXsXdXsXsXsXsXsXdXsXsXsXsXsXsXdXsXsXeXeXdXdXeX[.}.*.k H B c d a t e 4 > : : : : : : ",
": : : : < 2 w t a s x m H k &.}.0XdXsXsXsXsXsXsXdXsXsXdXdXfXsXdXdXsXdXdXdXdXsXdX6X].1X*.k P Z B z a t e 4 : : : : : : : ",
": : : : : 4 w t a d x V A S ~ |.2XfXdXdXfXdXdXsXsXfXdXsXsXsXdXfXsXdXsXsXdXfXsXsX{.|.2Xh.k P B c d s i t 2 2 : : : : : : ",
": : : : : 2 e t a s c B D P Z k.1XeXdXdXdXdXdXdXdXdXdXdXdXdXdXdXdXdXdXdXsXdXdXeX{.1X1Xk.Z D Z b x a i e 2 : : : : : : : ",
": : : : : 2 w t i s x Z A H K XX2XdXdXdXdXsXdXdXdXdXdXdXdXdXdXdXdXfXdXsXdXdXdXeX1X<X2X,X~ c G N d a t e 2 3 : : : : : : ",
": : : : : > e e a d b B A Z / ,X9XdXdXdXjXjXdXjXdXdXdXdXdXdXdXdXjXdXjXdXdXdXjXdX2X5X5X5XX.0 F x s a t e 2 : : : : : : ; ",
": : : : : 2 2 t j a d c D l X.2XwXjXjXdXfXdXdXdXdXjXdXjXjXdXjXdXdXdXjXdXdXdXdXdXqX<X5X5X&.5 F x s a t e 2 : : : : : : : ",
": : : : : : e e i s d c A 9 :.6XfXjXjXdXjXjXjXfXdXjXjXjXjXdXjXjXjXjXjXjXjXjXjXjXrX2X3X5XOX6 G c s a e w 2 : : : : : : : ",
"; : : : : : 2 w t a d x D 9 XX9XfXjXfXjXjXjXjXjXjXjXdXjXjXjXdXjXjXdXjXjXdXjXjXjXdX6X4X6XXX6 V d s t t w > : : : : : : : ",
": : : : : : > w t a s x V 9 XXwXjXjXjXjXjXjXjXjXjXjXjXjXjXjXjXjXjXjXkXjXjXjXjXjXjXqX6X9XoX5 B h a t e 2 : : : : : : : : ",
": < : : : : 2 2 e j s s V 5 oXeXkXjXkXjXjXjXjXkXkXjXjXkXjXkXkXjXjXjXjXjXjXkXjXjXjX0X9X0X.XO V d a t e 2 : : : : : : : ; ",
": : : : : : : 4 e t a s B + .XfXhXkXjXkXjXkXjXkXkXjXkXkXjXjXkXjXkXjXkXjXjXgXkXkXjXwX0X0X>.o A a t t 2 > 1 : : : : : % : ",
": : : : : : : : e e u a C o >.sXkXkXkXkXkXkXkXkXjXkXkXkXkXkXkXkXkXkXkXkXkXkXkXkXkXwX0XwX=.o V t t e 2 : : : : : : : : : ",
": : : : : : : 2 2 e y a x 8 / sXkXkXkXkXkXkXkXkXkXkXkXkXkXkXkXkXkXkXkXkXkXkXkXkXjXwXwXrXY r h t e 2 2 : < : : : : : : : ",
": : : : : : : : : e u a s x y %XkXvXkXvXkXvXvXkXkXvXvXkXvXvXvXkXkXvXkXvXkXvXvXvXdXeXsX@Xo C a t e 2 3 : : : : : : : : : ",
": : : : : : : : 2 2 2 j i c . =.dXvXvXvXvXvXvXvXvXvXvXvXkXkXkXvXvXvXvXvXvXvXvXkXsXeXsX( + d y e 2 > : : : : : : : : : : ",
": : % : : : : : : : e e y a d o @XjXkXvXvXvXvXbXvXvXvXkXdXsXfXdXjXvXvXbXvXvXjXsXeXdX,.. x i e e 2 : : : : : : : : : : ; ",
": : : : : : : : : : > 2 e t h y h #XjXjXvXbXbXvXbXkXdXdXdXdXdXdXdXdXjXjXdXdXdXdXjX#X= f a t 4 4 : : : : : : : : : : : : ",
": : : : : : : : : : : 2 2 t t h 8 s $XjXjXjXgXjXjXaXjXjXkXjXjXjXjXdXdXdXgXdXjXjX,.= y d w e 2 : : : : : : : : : : : : : ",
": : : : : : : : : : : 1 2 e t t h y   -.lXjXkXkXkXvXkXaX$X,.,.#XaXhXkXkXkXkXyX(   i j t e e 1 3 : : : : : : : : : : : : ",
": : : : : : : : : < : : : 2 2 e e g h   w ;.+XyXyX+X-.J X   . X ) <.+XyX,.( o o d j e e 2 2 % : : : : : : : : : : : : : "
};
