/* XPM */
static char *i51674121958[] = {
/* columns rows colors chars-per-pixel */
"60 60 235 2 ",
"   c #020101",
".  c #020101",
"X  c #020101",
"o  c #020101",
"O  c #020101",
"+  c #020101",
"@  c #020101",
"#  c #020101",
"$  c #020101",
"%  c #020101",
"&  c #020101",
"*  c #020101",
"=  c #020101",
"-  c #020101",
";  c #020101",
":  c #020101",
">  c #020101",
",  c #020101",
"<  c #020101",
"1  c #020101",
"2  c #020101",
"3  c #020101",
"4  c #020101",
"5  c #020101",
"6  c #020101",
"7  c #020101",
"8  c #020101",
"9  c #020101",
"0  c #020101",
"q  c #2D2B2B",
"w  c #302524",
"e  c #312B2C",
"r  c #312927",
"t  c #2D302E",
"y  c #2D2D32",
"u  c #2D243A",
"i  c #2D2534",
"p  c #302E31",
"a  c #2D3235",
"s  c #2D353B",
"d  c #2D3A3D",
"f  c #2F3837",
"g  c #323131",
"h  c #31383C",
"j  c #301A48",
"k  c #2D2842",
"l  c #2E3642",
"z  c #2D3C42",
"x  c #2D3D4A",
"c  c #303B42",
"v  c #30324B",
"b  c #2E3455",
"n  c #2B2E59",
"m  c #2D4145",
"M  c #2D434B",
"N  c #30454C",
"B  c #324043",
"V  c #2E4552",
"C  c #2C4A53",
"Z  c #2D445C",
"A  c #2D4D5B",
"S  c #314758",
"D  c #2C525D",
"F  c #2C595C",
"G  c #37565A",
"H  c #2C4E65",
"J  c #2D4469",
"K  c #2B4C69",
"L  c #304F63",
"P  c #2C5364",
"I  c #2D5B64",
"U  c #2C5B6B",
"Y  c #2D536A",
"T  c #2D5A73",
"R  c #2A5779",
"E  c #2A646E",
"W  c #2C6376",
"Q  c #2C6779",
"!  c #306873",
"~  c #2A7479",
"^  c #396264",
"/  c #4C7A7B",
"(  c #26827F",
")  c #28578B",
"_  c #1E769E",
"`  c #2E6582",
"'  c #257784",
"]  c #3C7F84",
"[  c #256A91",
"{  c #1E77A7",
"}  c #1E77B3",
"|  c #2379A4",
" . c #2172B4",
".. c #2A8A8C",
"X. c #27858C",
"o. c #278899",
"O. c #269599",
"+. c #379199",
"@. c #3E999C",
"#. c #3A878D",
"$. c #1E86B2",
"%. c #1E9FBE",
"&. c #2289A3",
"*. c #3097A2",
"=. c #24AAAF",
"-. c #20A4A6",
";. c #28ABB3",
":. c #34AFB0",
">. c #449598",
",. c #599A99",
"<. c #4D8E8A",
"1. c #52A8AA",
"2. c #4BB5B4",
"3. c #46AAA8",
"4. c #6CBABB",
"5. c #63B1B3",
"6. c #6DB3B2",
"7. c #22C1BD",
"8. c #1A87C6",
"9. c #1984CA",
"0. c #149ECB",
"q. c #1780D3",
"w. c #18B6CB",
"e. c #14B7D5",
"r. c #14A3CB",
"t. c #06BBEA",
"y. c #01A5FD",
"u. c #01ACFD",
"i. c #09A0F3",
"p. c #01B4FC",
"a. c #01BCFC",
"s. c #06BBF6",
"d. c #10A7E5",
"f. c #1BC6C9",
"g. c #13C8D8",
"h. c #17D9D5",
"j. c #2DDCD8",
"k. c #2ACFCA",
"l. c #15E4DB",
"z. c #0EE4DC",
"x. c #08D8E8",
"c. c #01C5F4",
"v. c #00CEF6",
"b. c #00C5FB",
"n. c #01CBFA",
"m. c #0CCAFA",
"M. c #14C3FA",
"N. c #16C9FA",
"B. c #02D4F5",
"V. c #01DAF6",
"C. c #01D4FA",
"Z. c #01DBFC",
"A. c #15D6F9",
"S. c #34CEF8",
"D. c #00EBEF",
"F. c #04F5EC",
"G. c #14F5EC",
"H. c #01E3F5",
"J. c #00EBF5",
"K. c #01E3FB",
"L. c #02EAFB",
"P. c #0CE8F5",
"I. c #14E5F5",
"U. c #13E5F6",
"Y. c #01F4F4",
"T. c #02FDF4",
"R. c #0BFDF5",
"E. c #01F3FC",
"W. c #01FEFB",
"Q. c #0FFFF8",
"!. c #0BF3F5",
"~. c #13FEF4",
"^. c #1CFEF4",
"/. c #14FFFA",
"(. c #1DFEF9",
"). c #15F0F4",
"_. c #19EAE4",
"`. c #38E9E4",
"'. c #28F6F1",
"]. c #23FFF6",
"[. c #2AFEF5",
"{. c #2AFEF9",
"}. c #33FEF5",
"|. c #3CFEF5",
" X c #33FEFB",
".X c #3BFEFC",
"XX c #33F0F6",
"oX c #2FF0ED",
"OX c #42CCCE",
"+X c #47DBDE",
"@X c #7AD1CF",
"#X c #68DBDB",
"$X c #78CFD0",
"%X c #42D8F9",
"&X c #7CDEE1",
"*X c #69DEFC",
"=X c #72D7FC",
"-X c #49EBE5",
";X c #51E8F8",
":X c #43FDF6",
">X c #4CFEF7",
",X c #43FEF9",
"<X c #4BFEFC",
"1X c #52FBF5",
"2X c #59FDF7",
"3X c #53FEF9",
"4X c #5BFFFA",
"5X c #51F6F0",
"6X c #6AECF9",
"7X c #63FEF5",
"8X c #64FEFC",
"9X c #6BFEFC",
"0X c #6FF5F4",
"qX c #7CFCF7",
"wX c #74FEFC",
"eX c #7CFEFB",
"rX c #75F5F7",
"tX c #7DECF7",
"yX c #81D7D8",
"uX c #8AE6E4",
"iX c #87E7FB",
"pX c #90E8FF",
"aX c #84FEFC",
"sX c #8CFEFC",
"dX c #89F7F9",
"fX c #93FEFC",
"gX c #9BFEFD",
"hX c #99F6FD",
"jX c #A4F6FD",
"kX c #ACF4FD",
"lX c #A3FDFE",
"zX c #ABFAFE",
"xX c #B1F6FE",
"cX c #B3F9FF",
"vX c #BEFAFF",
/* pixels */
"; ; ; ; ; ; ; ; > ; ; ; ; ; ; ; ; ; ; ; ; ; ; ; > > ; ; ; : 0 & > ; ; ; ; ; ; ; ; ; ; ; ; > ; ; ; ; ; ; ; ; ; ; ; ; ; ; ",
"; ; ; ; ; ; ; ; ; ; ; ; ; ; ; ; > ; ; ; ; ; ; ; : ; , ; : + + 0 : ; ; ; ; ; ; ; ; ; ; ; ; ; ; ; ; ; ; ; ; > ; ; > ; ; ; ",
"; ; ; ; ; ; ; ; ; ; ; ; ; ; ; ; ; ; ; ; ; ; ; ; ; ; : % 5 q.) # 8 < > , ; ; ; ; ; ; ; ; ; ; ; ; ; ; ; ; ; ; ; ; ; ; ; ; ",
"; ; ; ; ; ; ; ; ; ; ; ; ; ; ; ; ; ; ; ; ; ; ; ; > , 5 + J y.y. .+ < : ; ; ; ; ; ; ; ; ; ; ; ; ; ; ; ; ; ; ; ; ; ; ; ; ; ",
"; ; ; ; ; ; ; > ; ; ; ; ; ; ; ; ; ; ; ; ; ; ; > ; > 0 + } y.y.u.9.+ : 1 : * : * ; ; ; ; ; ; ; ; ; ; ; ; ; ; ; ; ; ; ; ; ",
"; ; ; ; ; ; ; ; ; ; ; ; ; ; ; ; ; ; ; ; ; ; ; ; ; 5 $ i i.u.y.y.u.9.+ 5 > > ; ; ; ; ; ; > ; ; ; ; ; ; ; ; ; ; ; ; ; ; ; ",
"> ; ; ; ; ; ; ; ; ; ; ; ; ; ; ; ; ; > ; ; ; ; ; ; 0 # 8.p.u.u.u.u.p.{ + i & > ; ; ; ; ; ; ; ; ; ; ; ; ; ; ; ; ; ; ; ; ; ",
"; ; ; ; ; ; ; ; ; ; > ; ; ; ; ; ; ; ; ; ; ; ; ; y + { p.u.p.u.p.u.p.p.R + 9 & : ; ; ; ; ; ; ; ; ; ; ; ; ; ; ; > ; ; ; & ",
"; ; ; ; ; ; ; ; ; > ; ; ; ; ; ; ; ; ; ; ; & : 0 + | a.p.p.p.p.p.p.p.p.d.+ : ; ; ; * * ; ; ; ; ; ; ; ; ; ; ; ; ; ; ; ; ; ",
"; ; ; ; ; ; ; ; ; ; ; ; ; ; ; ; ; * : ; > : 0 # | p.a.p.p.a.a.a.p.p.p.a._ # 0 & ; ; ; ; ; ; ; ; ; > ; ; ; ; ; ; ; ; ; ; ",
"; ; ; ; ; ; ; ; ; ; ; ; ; ; ; ; * ; ; > < 8 # $.a.a.a.a.a.a.a.s.a.a.a.a.d.$ ; < ; ; ; ; ; ; ; ; ; ; ; ; ; ; ; > ; ; > ; ",
"; ; ; ; ; ; ; ; ; ; ; ; ; ; ; ; ; * ; > 0 + $.b.a.b.a.a.a.m.s.a.m.a.s.a.b.[ + 0 ; ; ; ; ; ; ; ; ; ; ; ; ; ; ; ; ; ; ; ; ",
"; ; ; ; ; ; ; ; ; ; ; ; ; ; ; ; : ; ; 9 # | n.b.b.b.b.b.s.a.=X=Xa.M.b.b.b.0.+ 0 ; ; ; ; * ; ; ; ; ; ; ; ; ; ; ; ; ; ; ; ",
"; ; ; ; ; ; ; ; ; ; ; ; ; ; ; ; ; 1 8 + T b.n.b.c.b.b.n.S.a.iXvXS.b.M.b.n.t.y % 2 ; ; ; ; ; ; ; ; ; ; ; ; ; ; ; ; ; ; ; ",
"> ; ; ; ; ; ; > ; ; ; ; ; ; ; ; : % 0 + e.n.n.n.n.b.n.m.c.S.kXvXpXn.N.n.n.n.W + 8 ; * ; ; & ; ; ; ; ; ; ; ; ; ; ; ; ; ; ",
"; ; ; ; ; ; ; ; ; ; ; > ; ; ; ; + y + U n.v.v.n.n.v.n.N.b.pXvXxXcXS.n.N.n.C.&.+ q > ; ; , ; ; ; ; ; > ; ; ; ; ; ; ; ; ; ",
"> ; ; ; ; ; ; ; ; * > > ; & q + { { + &.C.C.C.C.C.n.A.c.6XcXxXxXcX*Xn.N.C.Z.%.# q & ; & ; ; ; ; ; ; ; ; ; ; ; ; ; ; ; ; ",
"; ; ; ; ; ; ; ; ; ; ; ; ; 8 + K t.0.+ &.C.V.C.C.C.A.V.%XkXkXkXkXcXtXV.A.B.Z.w.+ 0 ; ; ; ; ; ; ; ; ; ; ; ; ; ; ; ; ; ; ; ",
"; ; ; ; ; ; ; ; ; ; ; ; : : + r.c.t.i ' Z.C.V.V.V.V.C.hXkXkXzXjXcXiXV.A.V.Z.e.+ 9 ; ; > ; ; ; ; ; ; ; ; ; ; ; ; ; ; ; ; ",
"; ; ; ; ; ; ; ; ; ; ; ; 0 + E c.c.c.o.1 V.V.V.V.A.V.iXcXjXzXjXjXzXtXV.A.V.V.g.+ 8 & ; ; ; ; ; ; ; ; ; ; ; > ; ; > ; ; ; ",
"; ; ; ; ; ; ; ; : ; ; ; 9 + o.V.x.C.w.+ e.L.V.U.V.;XzXjXjXjXjXlXzX6XV.A.H.L.e.+ 9 & & ; ; ; ; ; ; ; ; > ; ; ; ; ; ; ; ; ",
"; ; ; ; ; ; ; ; * * > 1 9 # o.K.V.K.g.+ ' J.V.U.H.dXjXhXjXjXjXjXjX;XK.P.H.L.w.@ q * ; ; ; ; ; ; ; ; ; ; ; ; ; ; ; ; ; ; ",
"; ; ; ; ; ; ; ; ; ; > ; 8 + F L.J.L.f.# + g.L.P.K.dXlXgXgXjXgXjXhXI.H.P.H.L.%.+ a ; : ; ; ; ; ; ; ; ; ; > ; ; ; ; ; ; ; ",
"; ; ; ; ; ; ; ; ; * ; ; > q + =.W.E.~ @ + X.L.).J.6XjXgXhXhXhXlXrXJ.I.J.L.E.O.# a 1 : : ; ; ; ; ; ; ; ; ; ; ; ; ; ; ; ; ",
"; > ; ; ; ; ; ; > ; ; ; ; ; 1 + -.( + h g q x.!.J.XXfXfXhXhXgXhXXXJ.P.J.J.J.! + a 9 2 2 2 > ; ; ; ; ; ; ; ; ; ; ; ; ; ; ",
"; ; ; ; ; ; ; ; ; * ; ; ; 1 2 q # + z a M # f.E.J.Y.sXhXhXfXfX0XY.).Y.Y.W.l.5 s a y q 9 2 1 > > ; ; ; & ; ; ; ; ; ; ; ; ",
"; ; ; ; ; ; ; > ; * > > 2 8 9 q d z a d C @ f.W.!.Y.qXhXsXsXfX'.Y.Y.P.-.O.O.0 c s a t q 9 8 : * ; , ; ; ; ; ; ; ; > ; ; ",
"; ; ; ; ; ; ; ; ; : ; : 8 9 q a a h m C # ~ T.Y.R.F.eXfXfXhXwXY.R.T...# u u V z z z a a q 2 8 ; ; ; ; ; ; ; ; ; ; ; ; ; ",
"; ; ; ; ; ; ; ; * ; : 2 9 q a s d M l 3 O.F.T.T.T.T.qXsXdXfX2XT.Q.z.b U I A V M M l z a g q 9 2 : ; ; ; ; ; ; ; ; ; ; ; ",
"; ; ; ; ; ; ; ; , ; 1 8 q q a l N l D h.T.T.T.^.T.|.sXsXsXsX:XT.Q.l.Y U H P A A C F l l a t r 8 1 ; ; ; ; ; ; ; ; ; ; ; ",
"; ; ; ; ; ; ; ; ; : 2 9 t a h m c C l.W.R.T.~.T.T.qXsXsXsXsX}.T.~.T...J W T U S V l.~ 6 m a e 9 2 : ; ; ; ; ; ; ; ; ; ; ",
"; ; ; > ; ; ; ; ; 1 r q a d z C 3 f.T.~.R.~.T.}.eXsXsXsXsXsX}.T.^./.l.T J Y Z j 7.W.f.= M s y 9 9 : , ; ; ; ; ; ; ; ; ; ",
"; ; ; ; ; ; ; ; 1 8 q t s l M x E G./.~.~.T.2XsXsXsXsXsXsXsX:XT.^.~.R._.;.o.*.h./.~.G.I s l a y 9 2 1 ; ; ; ; ; ; ; ; ; ",
"; ; ; ; ; ; ; ; 1 8 q a s z C k ../.~.^.T.9XsXsXsXsXsXsXsXfX2XT.^.~.^.^./.~././.~.~.^...6 V a y r 8 : ; : ; ; ; ; ; ; ; ",
"; ; ; ; ; ; ; ; 2 8 q a d x C k O.].^.R.|.sXsXsXsXaXsXaXaXfXwXT.].^.(.^.^.^.^.^.^.^.(.O.4 M s a q 9 1 , ; ; ; ; ; ; ; ; ",
"; ; ; ; ; ; ; 2 8 q y s z M C v ..^.[.W.1XsXsXsXsXsXsXsXsXsXsX1XT.[.].^.].].].^.].].(...u C l s p q 8 : & ; ; ; ; ; ; ; ",
"> ; ; ; ; ; ; 2 9 q a s z V A Z ~ '.{.~.<XdXsXsXsXsXsXaXsXsXsXaX|.W.^.[.[.[.{.[.].].'.! M V l s a q 9 1 : ; ; ; ; ; ; ; ",
"; ; ; ; ; ; ; 2 9 q s d M V D P J j.{.[.|.sXsXsXaXsXsXsXsXsXsXsXsX7X|.[.].^.[.{.[.].`.Z D V z d a y 9 5 * ; ; ; ; ; ; ; ",
"; ; ; ; ; > 1 8 9 p a z x V A U b ;. X}.].eXsXsXsXsXsXsXsXsXaXsXsXsXaXaXaX7X].}.}. Xj.v P M M s g y 9 1 : ; ; * ; ; ; ; ",
"; ; ; ; ; ; ; 2 q y s z M C D P T Q `. X].7XsXsXsXsXsXsXsXsXsXsXsXsXsXsXsXsX4X[..X Xj.b D V M l a y q 2 : ; ; ; ; ; ; ; ",
"; ; ; ; > ; < 8 r y s z M Z A Y W J :..X X<XsXsXsXsXsXsXsXsXsXsXsXsXsXsXsXsXaX|.}..X`.Z H C x l a y r 2 1 ; ; ; ; ; ; ; ",
"; ; ; ; ; ; : 8 q y d z M C D U W R +.,X|.,XaXsXsXsXsXsXsXsXsXsXsXsXsXsXsXsXfX7X}.<X:X~ C C M z s a q 8 : ; ; ; ; ; ; ; ",
"; ; ; ; ; ; 1 9 q a s m x C P H W Q ) `.<X|.eXfXfXsXsXfXsXfXsXfXsXfXsXfXsXsXfXaX,X:X<X*.k A M z a a q 2 : ; ; ; ; ; ; ; ",
"; ; ; ; ; ; 1 2 q y s z V V I +.H ` R +X<X,XaXfXsXsXsXsXsXsXsXsXsXsXfXsXsXfXfXsX4X:X<XOX7 D m l s y q 8 : ; * ; ; ; ; ; ",
"; ; ; ; ; ; < 2 9 a s z C x W -X+.n +.1X>X5XdXfXfXfXsXfXsXsXfXsXfXsXfXsXsXfXfXfX7X>X3X-Xb C V d a y q 2 : ; ; , ; ; ; ; ",
"; > ; ; ; ; : 2 9 y a l C u #.3X5X+X5X4X:X7XfXfXfXsXsXfXfXfXfXfXsXfXfXfXfXsXsXfXwX<X3X1X! x N d a y 9 8 : ; ; ; ; > ; ; ",
"; ; ; ; ; ; : 2 9 y a d C 4 @.4X2X4X2X5X9XfXgXfXfXfXfXfXfXfXfXfXfXfXfXfXfXfXfXfXqX3X4X4X#.7 V d a q 9 1 ; ; > ; ; ; ; ; ",
"; ; ; ; ; , ; : 9 q a h M 4 3.4X7X2X2XaXfXfXfXfXfXfXfXfXfXfXfXfXfXfXfXfXfXgXfXfXaX4X4X4X>.4 M s a q 9 1 ; ; ; ; ; ; ; ; ",
"; ; ; ; ; ; ; : 8 q a a M = 2.8X8X8XsXgXfXfXgXfXfXfXgXfXgXfXfXgXfXfXfXfXgXfXfXlXaX4X8X8X@.4 N a a 9 2 : ; ; ; ; > ; ; ; ",
"; ; ; ; ; ; ; : 1 9 y a M O 2.9X8XwXgXfXgXfXfXgXgXfXfXgXgXfXgXgXgXgXfXgXgXfXfXgXeX7X8X9X>.= m a q 9 1 : ; ; ; ; ; ; ; ; ",
"; ; ; ; ; ; ; ; : 8 q y m O 1.wX9XaXlXgXgXfXgXgXgXgXgXgXgXgXfXgXfXgXfXfXgXgXgXlXwX9X9X9X] - m a q w 1 : ; ; ; ; ; ; ; ; ",
"; ; ; > ; ; ; ; 1 8 9 t B O >.wX9XaXgXlXgXgXgXgXgXgXgXgXgXgXgXgXgXgXgXlXgXfXlXfXwXwXwX0XG i h q 9 2 : ; ; ; ; ; ; ; ; ; ",
"; ; ; ; ; ; ; ; : 1 9 q d 5 ^ rXwXqXlXgXgXgXgXgXgXlXgXgXgXgXgXgXgXgXgXlXlXgXlXdXwXwXwX#X= z a 9 2 : ; ; ; ; ; ; ; ; ; ; ",
"; ; ; ; ; ; ; ; ; : 8 0 q d O #XaXqXfXlXlXgXlXlXlXgXlXgXgXlXlXlXlXgXgXlXgXlXgXqXeXqXaX1.O z q 9 2 : ; ; ; ; ; ; ; ; ; ; ",
"; ; ; ; ; ; ; ; ; ; 1 8 q h O <.aXaXaXgXlXlXlXlXlXlXlXlXlXfXfXfXlXlXlXlXlXgXdXaXaXaXqXM q a q 8 2 ; > ; ; ; ; ; ; ; > ; ",
"& ; ; ; ; ; ; ; ; ; : 2 8 q h . $XsXaXsXlXlXlXlXlXzXzXgXsXaXaXaXsXfXgXgXfXsXaXdXaXsX,.. c 9 0 2 1 ; ; ; ; ; ; ; ; ; ; ; ",
"; ; ; ; ; > ; ; ; , ; : 2 9 q q y &XaXaXsXfXlXlXlXgXfXsXsXsXsXsXsXaXsXsXsXsXsXsXfX4.. l r q 2 1 ; ; ; ; ; ; ; ; ; ; ; ; ",
"; ; ; ; ; ; ; ; ; ; ; ; 1 2 9 g 5 q $XfXfXdXfXsXfXsXsXfXfXfXfXfXfXfXsXsXsXfXfXsX5.. a t 9 2 ; ; ; ; ; ; ; ; ; ; ; ; ; ; ",
"; ; ; ; ; ; ; ; ; ; ; ; : : 2 8 t q . ,.uXgXgXfXjXhXgXdX@X4.4.yXgXgXgXgXlXfX@X/ X f e 9 w : ; ; ; ; ; ; ; ; ; ; ; ; ; ; ",
"; ; ; ; ; ; ; ; ; ; ; * ; : 1 2 2 q f . 0 ,.yXuXuXyX5.G X X   o / $X@XyX4./ . . h 9 8 1 1 ; ; , ; ; ; ; ; ; ; ; ; ; ; ; "
};
