/* XPM */
static char *i61674121958[] = {
/* columns rows colors chars-per-pixel */
"60 60 244 2 ",
"   c #020101",
".  c #020101",
"X  c #020101",
"o  c #020101",
"O  c #020101",
"+  c #020101",
"@  c #020101",
"#  c #020101",
"$  c #020101",
"%  c #020101",
"&  c #020101",
"*  c #020101",
"=  c #020101",
"-  c #020101",
";  c #020101",
":  c #020101",
">  c #020101",
",  c #020101",
"<  c #020101",
"1  c #020101",
"2  c #020101",
"3  c #020101",
"4  c #020101",
"5  c #020101",
"6  c #020101",
"7  c #020101",
"8  c #020101",
"9  c #020101",
"0  c #020101",
"q  c #302729",
"w  c #302020",
"e  c #2D322D",
"r  c #2D3729",
"t  c #313926",
"y  c #2D2E32",
"u  c #252B3B",
"i  c #2D3334",
"p  c #2D3A35",
"a  c #2D353A",
"s  c #2E3B3C",
"d  c #31383A",
"f  c #2C413B",
"g  c #2E4032",
"h  c #31403D",
"j  c #153A49",
"k  c #2D3D42",
"l  c #283C4A",
"z  c #273948",
"x  c #2D4343",
"c  c #2C4945",
"v  c #2E434A",
"b  c #2D4A4C",
"n  c #304344",
"m  c #31484A",
"M  c #2C544B",
"N  c #2D4454",
"B  c #2D4C52",
"V  c #2B4B5B",
"C  c #314A56",
"Z  c #2D5254",
"A  c #2E5A55",
"S  c #2E555B",
"D  c #2C5B5C",
"F  c #315659",
"G  c #30504B",
"H  c #2D615E",
"J  c #2C4F62",
"K  c #2C5664",
"L  c #2D5C63",
"P  c #2D5C6A",
"I  c #275366",
"U  c #305C64",
"Y  c #2E5C73",
"T  c #2D6466",
"R  c #2D636B",
"E  c #2D6C6B",
"W  c #2E6967",
"Q  c #2B6573",
"!  c #2D6C75",
"~  c #2D6D7A",
"^  c #2B637B",
"/  c #376E75",
"(  c #2D7374",
")  c #2D767C",
"_  c #306263",
"`  c #2A6988",
"'  c #316587",
"]  c #2C7584",
"[  c #2C7B85",
"{  c #2D7C89",
"}  c #2C748B",
"|  c #367D85",
" . c #256995",
".. c #22789B",
"X. c #307799",
"o. c #2376A7",
"O. c #2C8284",
"+. c #2A858A",
"@. c #318585",
"#. c #2E8B96",
"$. c #298996",
"%. c #318B96",
"&. c #2B9293",
"*. c #2B9A9A",
"=. c #2D939F",
"-. c #34939D",
";. c #1C92B8",
":. c #2883A8",
">. c #2A9AA7",
",. c #2895B7",
"<. c #3186AF",
"1. c #1EA3AE",
"2. c #2AA5A8",
"3. c #2EABB4",
"4. c #2DAABC",
"5. c #28A6B6",
"6. c #37AEB2",
"7. c #28B6B9",
"8. c #46888D",
"9. c #579595",
"0. c #508688",
"q. c #4BBEBD",
"w. c #53AEAE",
"e. c #62A2A4",
"r. c #65B5B9",
"t. c #1799C6",
"y. c #1697D9",
"u. c #269ACD",
"i. c #1ABACA",
"p. c #16B6D7",
"a. c #13A8CF",
"s. c #39BFCA",
"d. c #189CE7",
"f. c #06BBE8",
"g. c #02A6FD",
"h. c #01ACFE",
"j. c #0BADF6",
"k. c #01B2FC",
"l. c #01BBFC",
"z. c #08BBF6",
"x. c #15B6FB",
"c. c #10B2E3",
"v. c #6EBFC3",
"b. c #1DCDC8",
"n. c #18D9D6",
"m. c #18CCD5",
"M. c #28C7C7",
"N. c #2FD3D1",
"B. c #05C6E9",
"V. c #06D8ED",
"C. c #00C2F5",
"Z. c #02CDF5",
"A. c #01C5FB",
"S. c #00CDFB",
"D. c #0BCAF8",
"F. c #13C4FA",
"G. c #02D5F6",
"H. c #01DCF5",
"J. c #01D4FA",
"K. c #01DDFA",
"L. c #0BD6F9",
"P. c #18DAF8",
"I. c #13D9E2",
"U. c #28D9F9",
"Y. c #2ECDFB",
"T. c #0BECED",
"R. c #1AEBE6",
"E. c #14F5EA",
"W. c #01E4F5",
"Q. c #01EBF4",
"!. c #01E2FB",
"~. c #00EBFC",
"^. c #0BE9F6",
"/. c #13E4F6",
"(. c #14EAF6",
"). c #01F2F3",
"_. c #02FEF4",
"`. c #0BFDF3",
"'. c #02FEFB",
"]. c #0CFDF9",
"[. c #00F7FE",
"{. c #14FDF4",
"}. c #1CFEF4",
"|. c #16FEF8",
" X c #1CFFF9",
".X c #16F3F4",
"XX c #0CF2EF",
"oX c #38E7E6",
"OX c #3AF0EC",
"+X c #24FFF6",
"@X c #2BFEF5",
"#X c #2AFFFA",
"$X c #26FEF9",
"%X c #34FEF5",
"&X c #3DFEF5",
"*X c #34FEF9",
"=X c #3AFFFA",
"-X c #23F5EC",
";X c #41D4D7",
":X c #50CCCC",
">X c #6BC4C7",
",X c #77D0D0",
"<X c #42C6FC",
"1X c #55DCFD",
"2X c #67D7FC",
"3X c #75D3F6",
"4X c #59EDED",
"5X c #49E6FA",
"6X c #58E6FB",
"7X c #41FDF7",
"8X c #4DFEF6",
"9X c #44FFFA",
"0X c #4BFEFA",
"qX c #4AF7F5",
"wX c #55FEF7",
"eX c #54FEFB",
"rX c #5AFEFB",
"tX c #5DF7F8",
"yX c #4CEEE9",
"uX c #6BE7FA",
"iX c #77E8FC",
"pX c #62FDF7",
"aX c #64FEFB",
"sX c #6CFEFC",
"dX c #69F6F8",
"fX c #75FEFC",
"gX c #7BFEFA",
"hX c #6AEAE7",
"jX c #84D7D6",
"kX c #89E7E6",
"lX c #85ECFD",
"zX c #8EECFE",
"xX c #99EAFE",
"cX c #84FEFC",
"vX c #8BFEFC",
"bX c #86FBF9",
"nX c #95FEFC",
"mX c #9BFEFD",
"MX c #9AF0FD",
"NX c #A3FEFE",
"BX c #ABFEFE",
"VX c #A7F2FD",
"CX c #B7FCFC",
"ZX c #C0F9FF",
/* pixels */
"& & & & & & & & & & & & & = & & & & & & & & & # u @ * - & & & & & & # & & & # & & & & & & & & & & & & & & & & & & & & & ",
"& & & & & & & & & & & & & & & & & & = & & - < o t.` O y 7 7 < * & & & & & & & & & & & & & & & & & & & & & & & & & & & & ",
"& & & & & & & & & & & & & & & & & & & & & < O I z.a.y i a y 9 6 , & & & # & & & & & & & & & & & & & & & & & & & & & & & ",
"& & & & & & & & & & & & & & & & & & & & & 7 o t.B.C..., N k a y 8 < = & & & & & & & & & & & & & & & & & & & & & & & & & ",
"& & & & & & & & = = = & & & & & & & & & 6 @ V B.D.J.a.y m l N s i 6 w & & & & & & & & & & & & & & & & & = & & & & & & & ",
"& & & & & & & & & & & & & & & & & & & & 9 O $.K.V.K.i.a o.' p N k e 8 ; & & & & & & & & & & & & & & & & & & & & & & = & ",
"& & & & & & & & & & & & & & & & & & & & i o $.~.W.~.,.x y.g. .n N k 9 * & & & & & & & & & & & & = & & & & & & & & & & & ",
"& & & & & = & & & & & & & & & & & & & < i k N I.'.m.' ` d.g.g.o.f N i 7 & & & & & & & & & & & & & & & & & & & & & & & & ",
"& & & & & & & & & & & & & & & & & & - 6 a v l ] 5.} } o.j.g.g.h.o.r l 6 ; & & & & & & & & & & & & & & & & & & & & & & & ",
"& & & & & & & & & & & & & & & & & & * q d N Y ^ ' o.<.d.k.j.j.h.h.` 1 d < & & & & & & & & & & & & & & & & & & & & & & & ",
"& & = & & & & & & & & & & & & & & # ; y k V P ] :.<.u.h.h.g.h.j.k.j.J 7 q & & & & & & & & & # & & & & & & & & & & & & & ",
"& & & & & & & & & & & & & & & & = & < y l V Y X.X.u.l.x.h.2X3Xk.x.l.y.> 9 & & & & & & & & & & & & & & & & = & & & & & & ",
"& & & & & & & & & & & & & & & & & & < i k J ^ ' ,.k.l.x.k.lXCX<Xl.x.l.o.+ 8 & & & & & & & & & & & & & & & & & & = & & & ",
"& & & & & & & & & & & = & & & & & & w y v K Y o.l.l.l.F.l.xXCXxXl.x.l.z.l @ * & & & & & & & & & & & & & & & & & & & & & ",
"& & & & = & & & & & & & & & & & & & w i v N ` z.l.C.x.l.3XVXxXVX<XA.z.A.;.+ 8 # & & & & & & & & & & = & & & & & & & & & ",
"& & & & & & & & & & & & & & & & & = < i k V c.A.A.F.F.x.xXxXxXVX2XA.F.A.z.k o * & & & & & & & & & & & & & & & & & & & & ",
"& & & & & & & & & & & & & & & & & & * a $ :.J.A.A.F.D.uXMXzXzXxX3XA.D.D.S.:.+ 0 # & & & & & # & & & & & & & & & & & & & ",
"& & & & & & & & & & & # & & & & & & & y s f.J.A.J.S.Y.lXlXlXlXlXiXD.D.S.S.p.+ 6 & & & & & & , & & & & & & & & & & & & & ",
"& & & & & & & & & & & & & & & & & & 6 $ Q S.J.S.D.S.1XiXiX1XuXiX1XJ.D.Z.J.Z.N + < # & - & - & & & & & & & & & = & & & & ",
"& & & & & & & & & & & & , & & & & , e $ ] J.S.J.L.J.5XiXU.S.G.6XU.J.H.J.S.J.} O 7 & # & & & & & & & & & & & & & & & & & ",
"& & & & & & & & & & & & & & & & , 1 e 1 D G.J.H.G.J.U.6XU.H.L.L.J.H.J.G.J.K.>.+ a , - & & & & & = & & & & & & & & & & & ",
"& & & & & & & & & # & & & & & < 7 i r h : p.K.H.K.H.H.P.U.H.H.H.J.K.H.K.J.K.1.o a 7 & & & & & & & & & & & & & & & & = & ",
"& & & & & & & & & & & & & & # 7 > 1 s x t +.W.K.K.W.!.W.W.L.H.K.K.W.H.H.K.~.5.O p 7 2 , & & - & & & & & & & & & & & & & ",
"& & & & & & & & & & & & # & 7 @ ..I t c M t i.~.K./.W.uXiXK./.W.K.W.W.W.H.~.2.O f e 7 , & , & & & & & & & & & & & & & & ",
"& & & & & & & & & & & & & < $ k f.;.3 M M A W V.~./.W.6XCXuXQ./.W.W.W.W.W.~.+.: n r 9 1 , # & & & & & & & & & & & = & & ",
"& & & & & = & & & & & & # e o >.A.f.R M H E A 7.~.^.W.5XCXBX(.Q.^.Q.~.Q.Q.W.E f x p r 7 < & & & & & & = & & & & & & & & ",
"& & & & & & & & & & & & < 6 7 B.H.G.&.M E ( ( *.).(.Q.dXCXBXtXQ.(.).).T.'.m.b A c f i e 6 , & & & & & & & & & & & & & & ",
"& & # & & & & & & & & & 6 1 p V.~.W.O.H ( +.O.*.)..X).bXCXBXdXQ.XXT.2.&.n.2.S T M c p e 1 < & & & & & & & & & & & & & & ",
"& & & & & & & & & & & & < p + 1.[.b.c 2.O.@.| M.].).OXBXNXBXdX)..X7.+.%.@.O.( W D M x e 9 1 & & & & & & & & & & & & & & ",
"& & & & & & & & # , & , 1 r f e [ T E T.n.*.7.XX]._.nXBXNXBXtX_.E.6.2.*.&.+.) ( W F c f r < & & & & & & & & & & & & & & ",
"& & & & & & & & - & - < 7 p c A D L b.'._._._.`._.gXNXmXNXNXpX_.{.7.6.>.*.&.O.( E D Z x i 7 * & & & & & & & = & & & & & ",
"& & & & & & & & & & - < e s b T Z 2._._._._.E._.sXNXNXmXNXmXpX_.{.M.3.3.2.-.#.b.( W D b s 9 6 & & & & & & & & & & & & & ",
"& & & & & & & & & = & 7 e c S S +.{.`.`.`.{._.sXNXmXmXmXmXNXfX_.{.E.7.3.3.%.7.'.7.D T B f i 7 & & & & & & & & & & & & & ",
"& & & & & & & & = = , e f b D S n.].`.`.{._.pXmXmXmXmXmXnXNXnX`.`.{.R.7.3.3.E.].E.~ T D b f e , & & & & & & & & & & & & ",
"& & & & & & & & & & 6 i x Z S &.`.|.{.}._.8XmXmXmXmXmXmXmXnXNXgX_._.}..XR.|.`.{.{.*.L T Z s e < & & & & & & & & & & & & ",
"& & & & & & = & & & 7 i x A B 7.{.}.}.}._.vXmXnXmXnXmXmXmXnXmXnXbX%X{.+X|.}.}.}.{.2.R T Z n s < & & & & & & & & & & & & ",
"& & & & & & & & & , 7 s b D B M. X}.+X X}.vXNXmXmXnXnXmXmXmXmXnXpX%X X}.}.}. X}.+X*.Q E F c a 7 * & & & & & & & & & & & ",
"& & & & & & & & & & 9 s B T L *.$X+X+X+X_.bXvXpXgXmXnXnXmXnXnX7X_.+X#X$X+X@X+X+X-X%.~ E D b s 9 < & & & & & & & & & & & ",
"& & & & & & & & & < i x B L ! ~ N.#X@X@X@X=X@X_._.fXmXnXnXmXgX_.%X#X@X@X@X@X@X#XoX] ) Q D Z k i * & & & & & & & & & & & ",
"& & & & & & & & * 7 i x B T ( [ { M.@X=X@X@X@X&X+XwXnXnXnXnXgXE.%X@X@X@X@X%X@X*XM.] [ ! U B s i 6 * & & & = & & & & & & ",
"& & & & & & & & * 6 a x V R ~ { %.%.4.OX%X&X%X%X-X4XmXnXnXmXbX@X=X=X%X=X%X%X=X*XM.[ { ! L B x i 6 * & & & & & & & & & & ",
"& & & & & & & & , 6 i x Z P ! { %.,.2.u.OX=X=X&X@XpXmXnXnXnXnXwX@X7X&X%X%X=X%X=XN.] { ! P B x i 7 * & & & & & & & & & & ",
"& & & & & & & & < 7 y x Z R ~ O.%.-.3.6.oX7X&X7X&XbXnXnXnXnXmXbX8X@X@XwXsX&X9X7XqX$.] ! L B x i 7 < & & & & & & & & & & ",
"& & & & & & & * 6 7 i v Z P ~ [ -.M.>.u.oX7X0X=XpXmXnXnXnXnXnXmXnXgXgXnXnXwX&X9X9X6.~ ~ L Z x i 7 < * & & & & & & & & & ",
"& & & & & & & & < 6 i k Z L ~ ~ 6.qX>.5.qX0X8X8XnXnXmXnXnXnXnXnXmXmXmXnXmXbX&X0X0X;X^ / P B k i 7 < & & & & & & & & & & ",
"& & & & & & & & 6 7 i k C P ! ^ ;XeX;X;X0XwX7XbXnXnXnXmXmXnXnXmXnXnXmXnXnXnXrX0XeXyX[ R L b k 9 8 * & & & & & & & & & & ",
"& & & & & & & & * 7 y s b L Q ~ yXeXeXrXwX0XpXmXnXnXnXnXmXmXnXmXnXmXmXnXnXmXfX0XrXeX-.K L b s 9 7 < & & & & & & & & & & ",
"& & & & & & & & * 6 y a m K P ) 4XrXrXrXrXwXnXmXmXmXmXmXnXnXmXmXnXmXmXnXnXmXcX0XrXrX6.V D v a 9 8 * & & & & & & & & & = ",
"& & & & & & & & < 6 7 a v S P ~ 4XrXrXaXrXgXmXmXmXnXmXnXmXnXmXnXmXnXnXmXnXmXvXwXpXaXq.l I v a 9 6 * & & & & & & & & & & ",
"& & & & & & & & ; 6 q i k B L Q 4XsXaXaXpXnXNXmXmXmXmXmXmXmXNXmXmXmXmXmXmXmXnXpXaXaXq.z F k i 8 6 & & & & & & & & & & = ",
"& & & & & & & & & < 6 i s b K I hXsXsXaXfXmXnXmXmXmXmXmXmXmXmXmXmXmXNXmXmXNXnXaXdXsXq.z B a y 6 * * & & & & & & & & & & ",
"& & & & & & & & & < 6 9 i v S l :XfXfXsXvXNXmXNXmXNXmXNXmXmXmXmXmXmXmXNXmXmXvXsXfXdXw.5 m i 9 7 * & & & & & = & & & & & ",
"& & & & & & & & & * 6 q y d C j w.gXfXfXvXNXNXmXmXNXmXmXNXmXmXNXmXmXNXNXNXNXcXfXgXfX8.u x 9 7 6 & & & & & & & & & & & & ",
"& & & & & & & & & & < 6 9 d n l | gXgXfXvXmXNXNXNXNXNXNXNXNXNXNXNXNXNXmXNXNXgXfXcXdXD s a 9 6 < & & & & & & & & & & & & ",
"& & & & & & & & & & * 6 7 y s B z ,XcXfXcXNXNXNXNXNXNXNXNXNXNXNXNXNXNXNXNXnXgXbXcX>X  v i q 6 , & & & & & & & = & & = & ",
"& & & & & = & & - & & < 6 9 y v u 8.cXcXcXvXBXNXNXNXBXNXNXvXcXnXmXNXBXNXNXcXbXcXbX/ 0 d 9 6 < & & & & & & & & & & & & & ",
"& & & & & & & & & & & & < 7 9 i v 4 r.vXvXvXvXNXNXBXNXnXvXbXbXbXvXvXnXnXcXvXbXvXw.O s y 7 < & & & & & & & & & & & & & & ",
"& & & & & & & & & & & & * 6 7 y a v 4 v.nXnXvXvXnXnXnXnXnXNXnXnXnXvXvXvXnXnXnXr.O s 8 8 6 & & & & & & & & & & & & & & & ",
"& & & & & & & & & & & & & < 6 8 9 d v X 9.kXnXnXnXMXnXnXhXv.>XkXmXmXmXnXmXjX0.  s 0 7 6 < - & & & & & & & & & & & & & & ",
"& & & & & & & & = & & & & & * 6 7 9 i n . k e.jXkXkX,X0.j j j V e.jXjX,X9.5 O k 9 7 6 * & # & & & & & & & & & & & & & & "
};
