/* XPM */
static char *i71674121958[] = {
/* columns rows colors chars-per-pixel */
"60 60 241 2 ",
"   c #020101",
".  c #020101",
"X  c #020101",
"o  c #020101",
"O  c #020101",
"+  c #020101",
"@  c #020101",
"#  c #020101",
"$  c #020101",
"%  c #020101",
"&  c #020101",
"*  c #020101",
"=  c #020101",
"-  c #020101",
";  c #020101",
":  c #020101",
">  c #020101",
",  c #020101",
"<  c #020101",
"1  c #020101",
"2  c #020101",
"3  c #020101",
"4  c #020101",
"5  c #020101",
"6  c #020101",
"7  c #020101",
"8  c #020101",
"9  c #020101",
"0  c #020101",
"q  c #30292A",
"w  c #2D322F",
"e  c #2D2E31",
"r  c #2A2B38",
"t  c #2D3234",
"y  c #2D353A",
"u  c #2D3A3D",
"i  c #30353C",
"p  c #313B3D",
"a  c #303135",
"s  c #2C403F",
"d  c #322F49",
"f  c #2B3544",
"g  c #2D3C43",
"h  c #2C3D4B",
"j  c #313C42",
"k  c #313C49",
"l  c #2B3A56",
"z  c #30365A",
"x  c #2D4345",
"c  c #2D444B",
"v  c #2D494F",
"b  c #324142",
"n  c #2D4553",
"m  c #2C4A55",
"M  c #2A435B",
"N  c #2D4C5B",
"B  c #274859",
"V  c #304B57",
"C  c #2D525C",
"Z  c #2A5253",
"A  c #33545D",
"S  c #2C4D61",
"D  c #2E496C",
"F  c #2E5564",
"G  c #2D566A",
"H  c #2C5B69",
"J  c #2C4E79",
"K  c #2A5C77",
"L  c #335B67",
"P  c #2D6479",
"I  c #2D6779",
"U  c #366674",
"Y  c #306D73",
"T  c #265C8B",
"R  c #256A8B",
"E  c #2D6C8C",
"W  c #2D6686",
"Q  c #2B788B",
"!  c #2B6F96",
"~  c #2D7393",
"^  c #2D7D95",
"/  c #2E7B9A",
"(  c #23799F",
")  c #317D93",
"_  c #1F7FBC",
"`  c #1E79A8",
"'  c #2C7EA1",
"]  c #2268A6",
"[  c #288B8A",
"{  c #268089",
"}  c #258D95",
"|  c #29869A",
" . c #358793",
".. c #2C9299",
"X. c #3B838F",
"o. c #25A39F",
"O. c #1E99AD",
"+. c #1D89BC",
"@. c #1F8AAC",
"#. c #2C8CAB",
"$. c #2D86A7",
"%. c #2598AA",
"&. c #2B8DB3",
"*. c #2989B5",
"=. c #2B97B6",
"-. c #3091B7",
";. c #1DB8BC",
":. c #1DA9BA",
">. c #28A5A7",
",. c #3BA9B3",
"<. c #26B6B8",
"1. c #22ACAF",
"2. c #4F838A",
"3. c #558D8F",
"4. c #5B9A9C",
"5. c #499298",
"6. c #5DACB0",
"7. c #6BB5B9",
"8. c #56C0BE",
"9. c #188BCC",
"0. c #1BBAC4",
"q. c #17A9D3",
"w. c #33A9C1",
"e. c #26ACC2",
"r. c #0F98E7",
"t. c #0D9EEC",
"y. c #07B5E5",
"u. c #01ADFD",
"i. c #02A6FA",
"p. c #02B4FB",
"a. c #01BBFD",
"s. c #08B7F8",
"d. c #17BAEF",
"f. c #36BEFC",
"g. c #1ECBCA",
"h. c #15D5DB",
"j. c #09CCD7",
"k. c #24C6CB",
"l. c #2AC5C5",
"z. c #32CBD3",
"x. c #1BE5DE",
"c. c #05C6EC",
"v. c #03D8E5",
"b. c #01CDF6",
"n. c #01C4FB",
"m. c #0DC6FD",
"M. c #00CBFB",
"N. c #08CAF8",
"B. c #15C5FA",
"V. c #01D4F6",
"C. c #01DAF6",
"Z. c #01D3FC",
"A. c #00DBFC",
"S. c #09D4F8",
"D. c #13DAF9",
"F. c #26DBF8",
"G. c #37D8F7",
"H. c #3CCBF7",
"J. c #07E8E7",
"K. c #11ECE3",
"L. c #00FFEF",
"P. c #08F2EC",
"I. c #18F6ED",
"U. c #01E4F6",
"Y. c #03ECF4",
"T. c #01E4FE",
"R. c #02EBFB",
"E. c #0DE6F5",
"W. c #02F3F4",
"Q. c #01FDF4",
"!. c #0CFEF4",
"~. c #01F3FD",
"^. c #02FEF9",
"/. c #0CFBF7",
"(. c #15FEF4",
"). c #1BFEF4",
"_. c #13FFF9",
"`. c #1DFFFA",
"'. c #14E0F9",
"]. c #27EAE8",
"[. c #33E8E7",
"{. c #39E3FD",
"}. c #24FDF4",
"|. c #2BFEF5",
" X c #24FFFC",
".X c #29FFFB",
"XX c #2CF3F4",
"oX c #34FEF5",
"OX c #3CFEF6",
"+X c #35FFFA",
"@X c #3CFEFA",
"#X c #2BE8F6",
"$X c #4ED4D4",
"%X c #68C4C5",
"&X c #79CACB",
"*X c #7ED4D4",
"=X c #6CD8DA",
"-X c #40C0FD",
";X c #50D5FA",
":X c #74DBFD",
">X c #49E4E8",
",X c #58E9E8",
"<X c #49E9F8",
"1X c #56E9F5",
"2X c #42FEF6",
"3X c #4DFDF5",
"4X c #45FEF9",
"5X c #4CFEFA",
"6X c #45F4F6",
"7X c #5DFEF7",
"8X c #54FEFA",
"9X c #5CFEFA",
"0X c #51FEF6",
"qX c #6AECFA",
"wX c #64E9FB",
"eX c #7AEBFC",
"rX c #63FFF7",
"tX c #6CFFF7",
"yX c #64FEFB",
"uX c #6BFEFA",
"iX c #6DF6F9",
"pX c #73FEFD",
"aX c #7BFFFC",
"sX c #77F5F8",
"dX c #6EEBE9",
"fX c #88DFE0",
"gX c #85DAFD",
"hX c #88E8EA",
"jX c #8BEEFE",
"kX c #84E9FD",
"lX c #96ECFD",
"zX c #84FFF7",
"xX c #84FEFC",
"cX c #8BFEFC",
"vX c #89F5F5",
"bX c #94FEFD",
"nX c #9BFFFD",
"mX c #95F5FB",
"MX c #A3FEFE",
"NX c #A9FDFF",
"BX c #A6F2FD",
/* pixels */
"* * * * * * * * * * * * * * * * * * * * * * * * ; * * * = X X 3 @ * * * # * * * * * * * * * * * * * * * * * * * * * * * ",
"* * * * * * * * * * * * * * * * * * * * * * * * * @ @ 3 X ] T X 8 @ * * * ; * ; * * * * * * * * * * * * * * * * * * * * ",
"* * * * * * * * * * * * * * * * * * * * * * * * * * @ 8 X 9.i.D X 8 * * * * ; * * * * * * * * * * * * * * * * * ; * * * ",
"* * * * * * * * * * * * * * * * * * * * * * * * * * - = o r.i.t.M O 3 - * * * * * * * * * * * * * * * # * * * * - - @ * ",
"* * * * * * * * * * * * - @ * * * * * * * * * * * - 8 O T u.i.u.r.$ @ = # * * * * * * * * * * * * * * * * * * * * * * * ",
"* * * * * * * * * * * * * * * * - @ * * * * * * * = = O t.u.u.u.u.*.X 8 # * * * * * * * * * * * * * * * * * * * * * * * ",
"* * * * * * * * * * * * * * * * ; * * * * * * * * 8 X +.p.u.u.s.u.i.f o = * * # * * * * * * * * * * * * * * * * * * * * ",
"* * * * * * * * * * * * * * * * * * * * * * * * 9 X ' p.p.s.p.u.p.a.! O 7 * , - * * * * * * * * * * * * * * * * * * * * ",
"* * * * * * * * * * * * * * * * * * * * ; * @ 8 O R a.p.p.p.f.H.p.a.+.O 9 # - = * * * * * * * * * * * * * * * * * * * * ",
"* * * * * * * * @ - * * * * * * * * * * * * 7 O T a.a.a.d.a.gXgXp.B.9.O q = + + = * * * * * # * * * * * * * * * * * * * ",
"* * * * * * * * * * * * * * * * * * * * # 3 O M s.a.a.s.a.p.BXlXp.m.*.O e X ` M X = # # * * * * * * * * * * * * * * * * ",
"* * * * * * * * * * * * * * * * * * * = * = O y.M.n.c.B.a.:XBXgXa.m.R O * e y.+.O 6 < - * * # * * * * * * * * * * * * * ",
"* * * * * * * * * * * * * * * * * * * @ 9 X ( M.n.M.m.n.H.lXBX:Xn.B.c # X @.n.y.h X = * * * * * * * * * * * * * @ * * * ",
"* * * * * * * * * * * * * * * * # * * - - X y.Z.n.M.m.n.eXlXBX;XM.q.X o g c.c.b.Q X 7 * # * < # * * * * * * * * * * * * ",
"* * * * * * * * * * * * * * * * * * * 6 X K b.N.b.S.M.;XvXjXjXH.Z.q.X X I C.C.C.%.X 9 @ * * * * * * * * * * * * * * * * ",
"* * * * * * * * * * * * * * * * * ; * 7 X $.Z.b.b.S.M.1XjXjXeXB.C.=.X X H j.O.R.O.X 9 - # * * * * * * * * * * * * * * * ",
"* * * * * * * * * * * * * * * * * * * 7 X O.A.S.S.S.Z.qXeXeXeXM.A.| X 6 9 C X h.} X 7 - * * # * * * * * * * * * * * * * ",
"* * * * * * * * * * * * * * * * * * * 9 X %.A.Z.Z.D.V.1XeXqXqXS.A.} X e @ + X Q Z X > - * * * * * * * * * * * * * * * * ",
"* * * * * * * * * * * * * * * * * * * 9 O { A.F.G.A.V.F.wXiXqXF.A.| X t 6 6 6 X o , # * * * * * * * * * * * * * * * * * ",
"* * * * * * * * * * * * * * * * # * # 6 O Z C.'.vX{.C.A.{.wXwX<XT.:.X u > 7 = X 6 @ * * * * * * * * * * * * * * * * * * ",
"* * * * * * * * * * * * * * * * - * * > t X k.T.eXmX<XU.U.F.<X1X#Xv.8 9 x w u H X > * * * < < # * * * * * * * * * * * * ",
"* * * * * * * * * * * * * * * * * * > 0 t X Y U.<XmXmXsX#XU.U.E.E.R.0.X X O } v.6 % - @ * * * * * * * * * * * * * * * * ",
"* * * * * * * * * * * * * * * * ; , 7 9 t g X 0.~.eXbXmXvXwXY.R.E.Y.R.h.1.0.J.~.} X 7 * * * * - * * * * * * * * * * * * ",
"* * * * * * * * * * * * * * * * < > 7 w t u c u j.XXjXmXcXmXxX6XU.R.Y.W.~.R.Y.~.:.X w * * * # * * - @ * * * * * * * * * ",
"* * * * * * * * * * * * * * * * 0 0 e e x c i n C J.4XvXcXcXcXcXqXW.Y.W.Y.Y.Y.~.0.X t * * * * * * * * * * * * * * * * * ",
"* * * * * * * * * * * * * * * * 6 e t u g h.| k N I J.6XjXxXjXcXcXuXW.W.W.W.W.^.1.X y > * * * # * * * * * * * * * * * * ",
"* * * * * * * * * * * * * * * < 7 9 i h r J.W.G H M | Q.3XcXxXxXvXcX9XW.(.Q.P.^.[ X w 6 * ; * * * * * * * * * * * * * * ",
"* * * * * * * * * * * * * * > 6 9 y g j G P.^.>.D Q D k.^.iXxXcXxXxXaXQ.Q.W.Q.K.x w t > > * * * * * * * * * * * * * * * ",
"* * * * * * * * * * * * * * > 7 e y v 1 o.Q.Q.;.J ~ E %.^.}.xXaXxXxXaX).L.Q.^.1.& x t q , ; * * * * * * * * * * * * * * ",
"* * * * * * * * * * * * * * > 9 t g b M K./.^.g.W | ' #.I.Q.rXzXzXaXpXL.!.Q.x.M v g a 9 7 - * ; * * * * * * * * * * * * ",
"@ - * * * * * * * * * * * > 0 9 y v 4 g.^././.K.~ #.$.=.I.Q.0XxXzXxXrXQ.I.Q...M F g i e 6 = * * * * * * * * * * * * * * ",
"* * * * * * * * * * * * * < 7 w c 1 1./._.(.I._.k.-.-.h._.Q.oXxXzXxXOXQ._.g.D P F m g e 0 = * * * * * * * * * * * * * * ",
"* * * * * * * * * @ * * * > 9 u 5 [ ).).Q.7XOXQ._.I.I.(.(.Q.oXxXxXtXQ.(.I.) W P H S c u q 6 * * * * * * * * * * * * * * ",
"* * * * * * * * - - * * < > w x d K.).).).xX0XQ.}.(.(.(.).Q.3XzXxX5XQ. Xz.~ ) Q G F n h w 6 * * * * * * * * * * * * * * ",
"* * * * * * * * ; # * * * 7 u 5 [ `.}.!.OXxXaX).!.}.}.}.}.Q.uXcXaX).(.}.-.$.E 0.l.z F k y 9 > * * * * * * * * * * * * * ",
"* * * * * * * * ; ; * * * q x 1 <. X}.(.2XxXcXpX+X^./.^.`.uXcXzXyX/. X].-.-.~ <. X>.z V u e > * * * * * * * * * * * * * ",
"* * * * * * * * * * * * > t c 4 l..X|.}.|.zXzXcXxXuX7XrXaXcXxXcX0X(.|.].-.=./ l. X].F V c t 6 * * * * * * * * * * * * * ",
"* * * * * * * * * * * ; > i v 5 l..XXX[.`.9XcXxXcXcXcXcXcXzXxXxX2X}.oXXXw.*.$.#X|.oXQ l v i 7 * * * * * * * * * * * * * ",
"* * * * * * * * * * * * 6 y m d >.@X%.! [. XyXxXxXxXcXxXzXxXcXxXOXoXoX+X[.0.[.+XoXoX..h m u 9 = * * * * * * * * * * * * ",
"* * * * * * * * * * * = 9 u v F W z./ ' ,.OX|.4XxXcXcXxXcXzXcXzX2XoX+X+X+X+X4X+X+XoX..M m g 9 6 * * * * * * * * * * * * ",
"* * * * * * * * * * * > 9 j n F K ) | $.-.[.OX|.yXcXxXcXcXcXcXxX4XOXOXOXOXOXOX@XOXOX .M m g t 6 * * * * * * * * * * * * ",
"* * * * * * * * * * * 6 t u n H Y E / #.#.6X4X@X9XcXcXcXcXcXcXcXyX+X5X4X4X2XOX4X4XOX .S C g t 6 * ; * * * * * * * * * * ",
"* * * * * * * * * * < 6 t g m H P E | #.&.>X4XOXtXcXcXcXcXcXcXbXcX8XoXOXOX4X4X4X4X4X..D C h t 7 > ; * * * * * * * * * * ",
"* * * * * * * * * * < 6 9 g N H P ~ ' #.-.6X5X4XxXbXbXcXcXcXcXbXcXcXaXuXuX8X5X6X5X5X,.M C h t 7 > * * * * * * * * * * * ",
"* * * * * * * * * * > 6 t g m G P P | ' w.5X8X9XcXbXcXbXcXcXcXcXcXcXbXbXbXxX8X5X5X8Xz.l C g t 7 > * * * * * * * * * * * ",
"* * * * * * * * * * * 7 9 x V N Q ,.E $.>X9X3XaXbXcXbXbXbXbXbXbXbXbXcXbXbXcXzX8X8X9X$Xl C k t 7 > * * * * * * * * * * * ",
"* * * * * * * * * * > 6 w p V M  .9X>X1X9X8XrXbXbXcXcXbXbXbXbXbXbXbXbXbXbXbXbXuX9X9X,XN m k t 6 > * * * * - * * * * * * ",
"* * * * * * * * * * > 7 9 i n M X.9XyXyX9X9XzXnXbXnXbXbXbXbXbXbXbXbXbXbXbXbXnXxX9X9X,XF n u e 7 > * * * * @ * * * * * * ",
"* * * * * * * * * = = 7 9 y v h  .yXyXyXyXpXbXbXbXbXnXbXnXbXnXbXbXbXbXbXnXnXbXvXyXyX,XM n y 9 7 > * * ; * * * * * * * * ",
"* * * * * * * * * * * > 9 a h h X.uXuXuXuXxXnXnXnXbXbXnXbXnXbXnXbXnXnXnXnXbXnXbXuXyXdXh c y 9 0 , * * * * * * * * * * * ",
"# * * * * * * * * * - > 9 t g f Y uXpXuXpXbXnXnXnXnXnXnXnXnXnXnXnXnXnXnXnXnXnXnXpXpX$X5 c t 9 6 * * * * * * * * * * * * ",
"* * * * * * * * * * * > 7 q u g U pXpXuXxXMXnXnXnXnXnXnXnXnXnXnXnXnXnXnXnXnXnXbXuXpX%X& c 9 7 , * * * * * * * * * * * * ",
"* * * * * * * * * * * * > 9 w g m dXaXpXcXMXnXnXnXMXMXnXNXnXMXnXMXMXnXnXnXnXMXvXpXaX5.2 u q 7 > * * * * * * * * * * * * ",
"* * * * * * * * # * * * > 7 t s 2 =XxXpXcXMXMXMXMXMXMXMXnXnXMXMXnXMXMXMXMXMXNXzXaXsXV y a 9 > * * * * * * * * * * * * * ",
"* * * * * * * * * * * * = 0 q g . 6.cXxXxXMXMXMXMXMXNXnXNXMXMXMXMXMXMXMXMXNXnXzXcX%X. b q 7 < * * * * * * * * * * * * * ",
"* * * * * * * * * * ; * = > 6 t 6 U xXxXxXnXNXNXNXMXMXNXNXNXnXbXnXMXNXNXNXnXcXxXzXA e w 9 > = * * * * * * * * * * * * * ",
"* * * * * * * * * * @ - * * 6 7 p . %XbXxXcXNXNXNXNXNXNXNXbXcXcXcXcXbXnXnXcXcXcX4.  p 7 6 > # * * * * * * * * * * * * * ",
"* * * * * * * * * * * * * * = 6 9 9 u hXnXcXcXMXNXNXNXMXnXbXbXbXcXcXbXcXcXnXbX6.. j 9 6 > * # * * * * * * * * * * * * * ",
"* * * * * * * * * * * * * * = = 6 e - b *XnXnXnXnXnXbXbXmXhXhXvXnXnXMXnXnXhX2.. p 9 6 6 < # * * * * * * * * * * * * * * ",
"* * * * * * * * * * * * * * * * > , w 6   3.&XfXfX*X7.3.U C M F 2.7.&X&X4.r   j 7 7 , * * * ; ; * * * * * * * * * * * * "
};
