/* XPM */
static char *i81674121959[] = {
/* columns rows colors chars-per-pixel */
"60 60 242 2 ",
"   c #020101",
".  c #020101",
"X  c #020101",
"o  c #020101",
"O  c #020101",
"+  c #020101",
"@  c #020101",
"#  c #020101",
"$  c #020101",
"%  c #020101",
"&  c #020101",
"*  c #020101",
"=  c #020101",
"-  c #020101",
";  c #020101",
":  c #020101",
">  c #020101",
",  c #020101",
"<  c #020101",
"1  c #020101",
"2  c #020101",
"3  c #020101",
"4  c #020101",
"5  c #020101",
"6  c #020101",
"7  c #020101",
"8  c #020101",
"9  c #020101",
"0  c #020101",
"q  c #312C2B",
"w  c #302722",
"e  c #2C302F",
"r  c #2D2F31",
"t  c #2F2434",
"y  c #302930",
"u  c #2D3235",
"i  c #2F3837",
"p  c #2C353B",
"a  c #2E3A3D",
"s  c #303634",
"d  c #30393B",
"f  c #31322C",
"g  c #30403F",
"h  c #2E2E4B",
"j  c #2D3D43",
"k  c #2B3D4A",
"l  c #2C3443",
"z  c #303744",
"x  c #2C3953",
"c  c #323455",
"v  c #2F264D",
"b  c #2B3F62",
"n  c #2C4246",
"m  c #2C424A",
"M  c #2C4A4D",
"N  c #31444D",
"B  c #314045",
"V  c #2C4552",
"C  c #2D4A54",
"Z  c #2B4D5A",
"A  c #2A415C",
"S  c #2D515C",
"D  c #2B5E5D",
"F  c #36575D",
"G  c #324856",
"H  c #2B4A65",
"J  c #2C5463",
"K  c #2D596B",
"L  c #2E5864",
"P  c #3A5F68",
"I  c #2D5E72",
"U  c #275278",
"Y  c #315B71",
"T  c #2C6274",
"R  c #2D627B",
"E  c #2C697A",
"W  c #346577",
"Q  c #2B757B",
"!  c #337A7D",
"~  c #30656D",
"^  c #437679",
"/  c #255882",
"(  c #2D6484",
")  c #2D6C85",
"_  c #2E6C8C",
"`  c #266C85",
"'  c #2B7589",
"]  c #337487",
"[  c #236398",
"{  c #2A7696",
"}  c #327B99",
"|  c #1A75A2",
" . c #236FA0",
".. c #2179A9",
"X. c #437282",
"o. c #1C7AC4",
"O. c #288283",
"+. c #2A838E",
"@. c #229B9D",
"#. c #25809D",
"$. c #1C93B9",
"%. c #2D8CAC",
"&. c #2A86A8",
"*. c #2996AA",
"=. c #2D9DBE",
"-. c #2C96BB",
";. c #3094B4",
":. c #1BA7BF",
">. c #1DB1B5",
",. c #26A4AB",
"<. c #30A7B4",
"1. c #23B6B4",
"2. c #34ACB0",
"3. c #4B8A8F",
"4. c #549294",
"5. c #5A8C8D",
"6. c #5797A0",
"7. c #5AB9B9",
"8. c #46ADAF",
"9. c #69B2B8",
"0. c #1EC3BD",
"q. c #3AC1BD",
"w. c #1996C8",
"e. c #1698D5",
"r. c #1B81CB",
"t. c #2D9EC8",
"y. c #18A6CC",
"u. c #1AB3CB",
"i. c #0AA6D9",
"p. c #14A2DB",
"a. c #0FB7D2",
"s. c #2CA5C9",
"d. c #2DACD3",
"f. c #2FB8DC",
"g. c #01ABFD",
"h. c #01A4FF",
"j. c #04B3F7",
"k. c #00B4FC",
"l. c #01BCFD",
"z. c #02BDF5",
"x. c #02BBE9",
"c. c #70BFC3",
"v. c #1BC5CB",
"b. c #14C3DA",
"n. c #16D9D8",
"m. c #0DD4D7",
"M. c #29C3C9",
"N. c #2DDCDD",
"B. c #25D3D1",
"V. c #3CD5DA",
"C. c #35C6D3",
"Z. c #1DE1DD",
"A. c #05C7EC",
"S. c #02C4F4",
"D. c #02CBF5",
"F. c #02C4FB",
"G. c #02CCFC",
"H. c #0AC8F9",
"J. c #01D3F4",
"K. c #01DDF4",
"L. c #01D3FC",
"P. c #01DBFB",
"I. c #0CD6F9",
"U. c #10D9F9",
"Y. c #11CBEE",
"T. c #34D4F2",
"R. c #06E9E7",
"E. c #1AEFE7",
"W. c #13E8E1",
"Q. c #0BF7ED",
"!. c #13F3EB",
"~. c #12F0E5",
"^. c #0BE6F5",
"/. c #02EEF3",
"(. c #01E5FD",
"). c #01ECFD",
"_. c #08E6F5",
"`. c #01FEF4",
"'. c #0CFEF4",
"]. c #02FEFB",
"[. c #04F7F6",
"{. c #14FDF4",
"}. c #1DFEF4",
"|. c #19FDF8",
" X c #15E1FA",
".X c #2DF1EF",
"XX c #3FEEF1",
"oX c #22FEF4",
"OX c #2BFEF6",
"+X c #2DFFF9",
"@X c #26F8FC",
"#X c #35FEF5",
"$X c #3DFEF6",
"%X c #32FEFA",
"&X c #3CFEFC",
"*X c #3AF7F8",
"=X c #38E9E6",
"-X c #4CC9CA",
";X c #78CACC",
":X c #76DBDD",
">X c #67D1D1",
",X c #48D6F9",
"<X c #5BDBF8",
"1X c #4AE7F7",
"2X c #42FDF6",
"3X c #4BFEF5",
"4X c #43FEFB",
"5X c #4CFEFA",
"6X c #4AF2F2",
"7X c #53FDF6",
"8X c #5BFCF5",
"9X c #53FEFB",
"0X c #5BFEFB",
"qX c #56F5FB",
"wX c #4AE8E7",
"eX c #71EBE9",
"rX c #7AEBFC",
"tX c #64FDF6",
"yX c #64FEFB",
"uX c #6DFEFB",
"iX c #69F9F5",
"pX c #76FDF7",
"aX c #7BFEF6",
"sX c #73FEFC",
"dX c #7DFEFB",
"fX c #7CF5F9",
"gX c #6CE7F9",
"hX c #83D9DB",
"jX c #88E8EA",
"kX c #91ECEE",
"lX c #83FDF7",
"zX c #8CF5FC",
"xX c #83FEFB",
"cX c #8BFEFC",
"vX c #8AF6F6",
"bX c #94F5FD",
"nX c #99F3FD",
"mX c #94FEFD",
"MX c #9BFEFD",
"NX c #95FBF6",
"BX c #8BECFC",
"VX c #A2FEFE",
/* pixels */
"* * * * * * * * * * * * * * * * * * * * * * * * * * * * # t + o 0 * * * * * * * * * * * * * * * * * * * * * * * * * * * ",
"* * * * * * * * * * * * * * * * * * * * * * * * * & * = O x o.b + 5 & * * * * * * * * * * * * * * * * * * * * * * * & * ",
"* * * * * * * * * * * * * * * * * * & ; * * * * * * * & 7 o r.h.[ + 7 * & * * * * * * * * * * & * * * * * * * * * * * * ",
"* * * * * * * * * * * & * * * * * * * * * * * * * * * ; 2 + / g.g.[ + 7 ; * * * * * & * * * * * * * * * * * * & * * * * ",
"* * * * * * * * * * * * * * * * * * * * * * * * * * * * 5 o / h.h.g.H o 5 * * * * * * * * * * * * * * * * * * * * * * * ",
"* * * * * * * * * * * * * * * * * * * * * * * * * * * * 2 o / g.g.k.e.o 2 * * * * * * * * * * * * * * * * * * * * * * * ",
"* * * * * * * * * * * * * * * * * * * * * * & * * # * & 7 o  .k.g.k.g.H o 2 * * * * * * * * * * * * * * * * * * * * * * ",
"* * * * * * & * * * * * * * * * * * * * * * * * * * * & t + w.l.j.j.l...+ 8 & * * * * * * * * * * * * * * * * * * * * * ",
"* * * * * * * * * * * * * * & * * * * * * * * * * * > 5 o A j.l.k.k.l.w.o 8 * * * * * * * * * * * & * * * * * * * * * * ",
"* * * * * * * * * & * * * * * * * * * * * * * # * * = * o p.l.k.l.z.F.e.+ 2 * * * * * * * * * * * * * * * * * * * * * * ",
"* * & * * * * * * * * * * * * * * * , # * * * * * , , + w.F.z.l.l.l.G.p.+ 7 & * * * * * & * * * * * * * * * * * * * * * ",
"* * * * * * * * * * * * * * * * * # * # * * * # * , o w.F.l.F.F.F.z.G.e.o 8 * * * * * * * * * * * * * * * * * * * * * * ",
"* * * * * * * * * * * & * * * * * ; * * * * * = 5 + w.G.H.H.S.F.F.H.G.$.+ 0 # * * * * * * * * * * * * * * * * * * * * * ",
"* * * * * * * * * * * * * * * * * * * * ; * * 7 + $.I.H.F.G.H.F.F.G.G.{ o 5 * * * * * * * * * * * * * * * * * * * * * * ",
"* * * * * * * * * * * * * * * * # * * * * & 7 o { P.H.H.,X<XD.G.G.G.S.V o = * & * * * & * * * * * * * * * * * & & * * * ",
"* * * * & * * * * * * * * * * * ; * # , = = o Z G.I.G.,XnX,XD.I.G.P.a.o 6 * * * * * * * * * * * * * * * * * * * * * * * ",
"* * * * * * * * * * * * * * # - , = # * = 8 + y.I.J.T.nXbXL.G.J.L.P.&.o 8 # * * * * * * * * * & * > * * * * * * * * * * ",
"* * * * * * * * * * * * * * * = O + : # * , o b.I.J.rXnXrXJ.U.J.P.J.V o = * * * * * * * * * * * * & * * * * * * * * * * ",
"* * * * * * * * * * * * * * = o k | O : * * O m.P.T.zXbXgXK.U.K.P.u.o 5 * * * * * * * * * * * * * * * * * * * * * * * * ",
"* * * * * * * * * * * * * , O 5 i.e.+ 2 * 5 + b.(.1XzXzXrXK. XP.(.@.+ 6 * * ; # * * * * * * * * * * * * * * * * * * * * ",
"* * * * * * * * * * * * * = o y.z.i.* * * 8 o *.(.1XzXzXvX X(.K.(.+.o 5 * # * * * * * * * * * * * * * * * * * * * * * * ",
"* * * * * * * * * * * * 6 o { F.x.S.` o 5 , o S K.1XzXBXbX1X_.^.).@.o 8 * ; * * * * * * * * * * * * * * * * * * * * * * ",
"* * * * * * * * * * * * * $ a.D.A.D.y.+ 9 , i + a.@XzXlXzXfX(.^.).v.+ u , * * * * * * * * * * * * * * * * * * * * * * * ",
"* * * * * * * * * * # 5 o I J.D.J.P.A.; 5 6 i o ' /.fXzXlXzX6X/.^./.Q o i , , * * * * * * * * * * * * * * * * * & * * * ",
"* * * * * * * * * * * w o ' P.P.b.:.u.o r u u s M R.qXxXxXzXfX/./.[.m.= 8 8 , * * * * * & ; * * * * * * * * * * * * * * ",
"& * * * * * * * * * * 5 o ~ ).m.o + u 8 r u a B 3 m.oXfXzXdXxXqX/.!.].v.+ p 6 , * * * * * * * * * * * * * * * * * * * * ",
"* * * * * * * * * * , * * O ^.,.+ n + r l j k C 1 v.].iXzXxXlXdX}.[.[.].@.o i 5 , * # * * * & * * * * * * * * * & * * * ",
"* * * * * * * * # * * * 8 + ,.>.+ 5 O.M a m N H h B.].2XdXdXdXxXtX[.Q.].Q.D 2 r 5 = * * * * * * * * * * * * * * * * * * ",
"* * * * & * * * * * = * * * @ O.o D R.D z C J J J W.`.}.sXfXdXdXaXOX`.Q.].0.o a 8 , * * * * * * * * * * & * * * * * * * ",
"* * * * * * * * * * * # * * * O o 1.].1.o J L v ,.`.'.`.sXdXaXdXxX8X`.'.`.W.r p u 5 , * * > * * * * * * * * * * * * * * ",
"* & * * * * * * ; * * ; * * w u % W.].'.1.W R ,.Q.`.'.`.uXxXdXdXxXsX{.'.].~.M p i 8 , * * * * * * & * * * * * * * * * * ",
"* * * * * * * * * * * * = * 6 , M !.{.`.].!.!.'.'.{.{.`.pXxXsXdXsXaXOX`.{.Z.h m p 8 < , * * * * * * * * * * * * * * * * ",
"* * * * * * * * * * * * * , 6 8 k E.'.+XoX{.|.{.{.|.'.oXaXxXdXdXxXsX{.|.|.1.v S j r 5 , * * * * * * * * * * * * * * * * ",
"* * * * * * * * * * * * * , 8 a % B.].tX3X`.oX}.}.oX`.7XxXxXdXdXxX7X`.}.E.W I Z V d 8 , * ; * * * * * * * * * * * * * * ",
"* * * * * & * * * * ; # * 5 u n h +.`.0XpX%X`.'.`.`.2XdXxXsXdXxXuX{.}.}.*.( R L C k u 6 , * * * * * * * * * * * & * * * ",
"* * * * * * * * * & * * = 6 i n D c M.%XfXsX8X5X5XyXdXaXxXxXxXdX4X|.@XM.{ } E I J V a 7 , * * * & * * * * * * * * * * * ",
"* * * * * * * * * * ; * = 8 j C L T ' !.7XxXxXxXxXxXxXxXxXdXxXtX'.+XN.&.&.{ ' R K C k u , ; , # * * * * * * * * * * * * ",
"* * * * * * * * * * * * 5 p m Z K ) ( N.@XsXxXaXxXxXaXxXlXxXdX%X+X.Xt.-.*.} ' ' K J m a w * * # * * * * * * * * * * * * ",
"* * * * * * * * * * ; * 6 p V J I ) _ N.%X$XxXxXxXxXlXdXxXxX8XoX#XC.t.t.%.%._ <.,.c S a q , * * * * * * * * * * * * * * ",
"* * * & * * * * * * * , 8 j V J R ' } .X&XOXyXcXxXcXxXxXxXdX4X#X*Xf.d.s.-.%.{ <.*XT V n u , * * * * * * * * * * * * * * ",
"* * * * * * * * * # * , e j C K E ( <.&X$X%XuXcXcXcXxXcXcXxX#X2X*Xf.d.s.t.%.} 2.$XC.4 M r 5 * * * * * * * * * * * * * * ",
"* * * * * * * * * * * 5 s B S K ) ) V.4X2X4XsXcXxXxXxXcXcXsX#X$X2XT.d.d.-.;.{ =X2X2X] l a 6 = * * * * * * * * & * * * * ",
"* * * * * * * * * * , , p m J I I %.4X5X#XyXxXxXxXcXcXxXcXxX4X2X2XXXf.s.-...C.4X3X4Xq.1 n 8 = * * * * * * * * * * * * * ",
"* * * * * * * * * # , 6 u m S T U V.5X3X5XxXcXcXcXcXcXcXxXlXqX5X3X5XwX,XC.wX5X5X3X5XwXm a 8 , ; * * * * * * * * * * * * ",
"* * * * * * * * * * = 6 p m J Y ' 6X9X5XuXcXcXcXcXcXcXcXxXmXuX3X5X7X9X5X9X9X5X5X5X5X7X! - 8 , * * * * * * * * * * * * * ",
"* * * * * * * * * * = 6 u N J H 8.0X7X5XxXmXcXcXmXcXcXcXmXcXcX0X7X9X0X7X7X9X0X9XyX7X0X2.o p 6 * * * & ; * * * * * * * * ",
"* * * * * * * * * * , 8 u k S A -XyX7XuXmXcXNXcXcXmXNXmXmXcXcXxX7X7X0X0X7X0X7XyXcX0X0X8.o i , * * * * * * * * * * * & * ",
"* * * * * * * * * ; = 8 u m Z J wX0X0XxXmXmXcXmXmXcXNXcXcXmXmXNXxXyX0X0X0X9XyXcXmXtX8X-XX i , , * * * * * * * * * * * * ",
"* * * * * * * * * * , 5 e B V W tXyXtXMXmXmXmXmXNXmXmXmXNXmXmXmXMXmXxXsXsXxXmXmXmXuXyX-XX p w * * * * * * * * * * & * * ",
"* * * * * * * * * # , 6 u g j ! iXyXsXNXmXmXmXmXmXmXmXmXmXNXMXmXmXmXmXMXMXmXMXmXmXuXuX7.X i , * * * * * * * * * * * * * ",
"* * * * * * * * * * , 5 8 a l ] uXuXxXMXmXMXMXMXmXMXNXMXmXmXMXmXmXmXMXmXmXMXmXMXNXuXsX8.X u , * * * * * * * * * * * * * ",
"* * * * * * * * * * # , 6 u p ~ iXsXcXMXMXmXMXMXMXMXMXMXMXmXMXMXMXMXMXMXMXMXmXMXmXuXsX^ o r * * * * * * * * * * * * * * ",
"* * * * * * * & * * * = w u a j eXsXcXVXNXVXMXMXMXMXMXMXMXMXMXMXVXMXMXVXMXMXMXMXxXsXeXu 6 5 # , * * * * * * * * * * * * ",
"* * * * * * * * # , * , 5 y j . >XdXlXVXVXMXVXVXVXVXVXVXVXMXVXVXMXMXVXVXVXVXVXNXpXxX7.X i , # # * * * & * * * * * * * * ",
"* * * * * * * * * * * * , 5 i % 3.xXdXmXVXVXMXVXVXVXVXMXMXVXVXVXVXVXVXVXVXVXmXxXxXfXF O 6 , * * * * * * * * * * * * * * ",
"* * * * * * * * * * * * * 6 8 a 1 :XcXlXMXVXVXVXVXVXmXcXxXxXcXMXVXVXVXVXVXmXxXcXcX7.. f , # * * * * * * * * * * * * * * ",
"* * * * * * * & * * * * , , 6 u - ^ xXcXxXmXMXMXMXmXcXcXcXcXcXxXMXMXMXMXmXxXcXcX:XX r < = * * * * * * * * * * * * * * * ",
"* & * * * * * * * & * * * * , 8 a . 4.mXmXcXcXcXmXcXcXmXcXmXmXmXcXcXcXmXcXcXmXjXr - q = * $ * * * * * * * * * * * * * * ",
"* * * * * * * * ; * * * # ; , , 6 i . 5.NXMXmXMXmXmXMXmXbXkXvXmXMXmXmXMXmXMX;X5 * e = ; * , * # * * * * * * * & & * * * ",
"* * * * * * * * * * * # * # * , 5 6 i . F ;XkXNXkXhX;X6.X.P W 3.9.hXkXkXhX5.. 5 q = * * * * * * * * * * * * * * * * * * "
};
