/* XPM */
static char *i91674121959[] = {
/* columns rows colors chars-per-pixel */
"60 60 240 2 ",
"   c #020101",
".  c #020101",
"X  c #020101",
"o  c #020101",
"O  c #020101",
"+  c #020101",
"@  c #020101",
"#  c #020101",
"$  c #020101",
"%  c #020101",
"&  c #020101",
"*  c #020101",
"=  c #020101",
"-  c #020101",
";  c #020101",
":  c #020101",
">  c #020101",
",  c #020101",
"<  c #020101",
"1  c #020101",
"2  c #020101",
"3  c #020101",
"4  c #020101",
"5  c #020101",
"6  c #020101",
"7  c #020101",
"8  c #020101",
"9  c #020101",
"0  c #020101",
"q  c #2D332D",
"w  c #2C2D31",
"e  c #2D2839",
"r  c #302E31",
"t  c #2D3334",
"y  c #2E363B",
"u  c #2D3B3C",
"i  c #2F3836",
"p  c #313433",
"a  c #313539",
"s  c #303B38",
"d  c #310048",
"f  c #2A2F48",
"g  c #322B46",
"h  c #2E3C43",
"j  c #2B3649",
"k  c #2C3C5C",
"l  c #2C4246",
"z  c #2D434C",
"x  c #33494C",
"c  c #2D4451",
"v  c #2D4A53",
"b  c #2D4D5A",
"n  c #2E445C",
"m  c #304756",
"M  c #2C545C",
"N  c #395859",
"B  c #1E406E",
"V  c #2C4362",
"C  c #2B4D66",
"Z  c #2D5462",
"A  c #2B596A",
"S  c #2C5B74",
"D  c #2B4B74",
"F  c #2B6678",
"G  c #306773",
"H  c #27797D",
"J  c #2B6C6E",
"K  c #27827D",
"L  c #305C88",
"P  c #2C6C84",
"I  c #296484",
"U  c #2E738C",
"Y  c #277E88",
"T  c #256B9D",
"R  c #2A7797",
"E  c #1A6EB6",
"W  c #2779AB",
"Q  c #226DA7",
"!  c #477E83",
"~  c #0F7DCC",
"^  c #278988",
"/  c #278A97",
"(  c #399699",
")  c #308C89",
"_  c #1C86B5",
"`  c #1B8FB6",
"'  c #2D88AB",
"]  c #3083A2",
"[  c #2398A6",
"{  c #2788B3",
"}  c #2A97B9",
"|  c #1FBEB9",
" . c #25A1A6",
".. c #39A4A7",
"X. c #24BAB5",
"o. c #34B4BA",
"O. c #22A6B2",
"+. c #498686",
"@. c #528789",
"#. c #519496",
"$. c #4BACAB",
"%. c #59A6A6",
"&. c #51AFB1",
"*. c #43B1B0",
"=. c #62A7AA",
"-. c #6ABCBC",
";. c #1CCBBE",
":. c #25C1BD",
">. c #1B88C9",
",. c #0280D5",
"<. c #1092C9",
"1. c #2484C0",
"2. c #1AA6C9",
"3. c #1AB9C5",
"4. c #1AB7D2",
"5. c #13A8D3",
"6. c #25BEC4",
"7. c #029CF7",
"8. c #0B9AE6",
"9. c #12B6E6",
"0. c #01A4FF",
"q. c #01ABFF",
"w. c #0FA7FA",
"e. c #18AAFB",
"r. c #00BBF3",
"t. c #01BBFD",
"y. c #05B3FC",
"u. c #0EB0EC",
"i. c #2DAEFF",
"p. c #3BB8FC",
"a. c #37ADF4",
"s. c #53BFC1",
"d. c #42BBFF",
"f. c #1DC2C7",
"g. c #13C8DB",
"h. c #16C4D7",
"j. c #1BD9D5",
"k. c #17D9DB",
"l. c #0ECCDE",
"z. c #24CACC",
"x. c #38C8C7",
"c. c #2CD8DE",
"v. c #30CED8",
"b. c #1BE9DD",
"n. c #28E5DF",
"m. c #09C6EA",
"M. c #07D4EA",
"N. c #01CBF5",
"B. c #00C3FD",
"V. c #04CAF9",
"C. c #02D3F3",
"Z. c #01DCF6",
"A. c #01D3FB",
"S. c #01DBFB",
"D. c #0DDAFA",
"F. c #13CEF0",
"G. c #25D7F9",
"H. c #38D5F8",
"J. c #28CAF9",
"K. c #06E5EF",
"L. c #14F6EC",
"P. c #02E3F5",
"I. c #01EBF4",
"U. c #01E4FC",
"Y. c #01EBFB",
"T. c #0CE9F6",
"R. c #02F4F4",
"E. c #01FDF4",
"W. c #0BFEF3",
"Q. c #00FDFA",
"!. c #09FFFB",
"~. c #06F3F9",
"^. c #14FDF4",
"/. c #1CFDF5",
"(. c #13FFFA",
"). c #1DFFFA",
"_. c #17F4F2",
"`. c #0EEFF0",
"'. c #36EAE7",
"]. c #2DE4F7",
"[. c #24FDF5",
"{. c #23FFFB",
"}. c #2CFEF9",
"|. c #2AF9F4",
" X c #34FEF6",
".X c #3AFDF6",
"XX c #3CFFFA",
"oX c #39FAF9",
"OX c #22EFE8",
"+X c #48DCDB",
"@X c #53C8C8",
"#X c #75C3C3",
"$X c #72D0CF",
"%X c #7ECFD0",
"&X c #7DD4D5",
"*X c #6CD8DA",
"=X c #49CAFF",
"-X c #57C7FC",
";X c #4AD4FB",
":X c #56D7FF",
">X c #65CAFD",
",X c #69D7FE",
"<X c #77D9FC",
"1X c #45EDEB",
"2X c #5AE4FA",
"3X c #42FDF7",
"4X c #4DFEF7",
"5X c #43FEF9",
"6X c #4CFFFC",
"7X c #4DF7F7",
"8X c #53FEF6",
"9X c #5BFCF5",
"0X c #53FFFA",
"qX c #5BFEFA",
"wX c #54F6F6",
"eX c #4EEAF9",
"rX c #72EBFA",
"tX c #63FEF7",
"yX c #63FDFB",
"uX c #6BFFFC",
"iX c #6CFFF6",
"pX c #73FEFC",
"aX c #7CFEFB",
"sX c #76F7F8",
"dX c #76EEEC",
"fX c #83D1D3",
"gX c #82DCFD",
"hX c #87DFE0",
"jX c #86E6E7",
"kX c #81FFF7",
"lX c #88FFF7",
"zX c #84FEFB",
"xX c #8CFEFC",
"cX c #87F5FA",
"vX c #94F6FD",
"bX c #94FEFD",
"nX c #9BFEFD",
"mX c #9BF6F9",
"MX c #A3FEFE",
"NX c #AAFDFE",
/* pixels */
"& & & & & & & & & & & & & & & & & & & & & % # 6 o + D E ~ ~ ~ T e + 6 * % & & & & & % & & & & & & & & & & & & & & & & & ",
"& & & & & & & & & & & & & & & & % % & & & & 2 X f ,.7.e.i.i.7.7.7.Q + % * & & & & & & & & & & & & & & & & & & & & & & & ",
"& & & & & & & & & & & & & & & & & & & & & 6 . V 7.a.>XhXgXgX<Xd.w.0.>.X * & & & & & & & & & & & & % & & & & & & & & & & ",
"& & & & & & & & & & & & & & & & & & & & * @ j 8.w.d.d.d.>XgXgXgX,Xe.q.W + 8 & & & & & & & & & & & & & & & & & & & & & & ",
"& & & & & & & & & & & & & & & & & & & & * X V D @ < B ,.w.d.<X<X<X>X0.w.f o & * & & & & & & & & & & & & & & & & & & & & ",
"& & & & & & & & & & & & & & & & & & & # & * X X & ; X + 1.y.=X<X,X,Xe.t.T + 8 % & & & & & & & & & & & & & & & & & & % & ",
"& & & & & % & & & & & & & & & & & & & & & # * : & * 8 * X 8.e.,X,X,Xy.t._ o 8 & & & & & & & & & & & & & & & % & & & & & ",
"& & & & & & & & & & & & & & & & & & & & & & & & & & & 8 X { t.:X,X=Xy.t.>.+ 8 & & & & & % & & & & & & & & & & & & & & & ",
"& & & & & & & & & & & & & & & & & & & & & & & & & & & 8 + U t.=X:XB.r.t._ + 8 & & & & & & & & & & & & & & & & & & & & & ",
"& & & & & & & & & & & & & & & & & & & & & & & & & & & 8 X W B.;X:Xi.r.B.I X 6 & & & & & & & & & & & & & & & & & & & & & ",
"% & & & & & & & & & & & & & % & & & & & & & & & & & % 9 X 2.B.;X:XF.B.u.X & * & & & & & & & & & & & & % & & & & & & & & ",
"& & & & & & & & & & & & & & & & & & & & & & & & & # 6 X j r.J.;XJ.B.B.P X 6 & & & & & & & & & & & & & & & & & & & % & & ",
"& & & & & & & % & % & & & & & & & & & & & & % & % 6 * + 5.V.H.J.B.A._ + 8 & & & & & & % & & & & & & & & & & & & & & & & ",
"& & & & & & & & & & & & & & & & & & & & & & * # 8 o X 2.A.V.V.V.A.2.X 6 & # & & & & & & & & & & & & & & & & & & & & & & ",
"& & & & & & & & & & & & & & & & & & & & & & # 8 X w 4.A.V.N.V.S.9.X # : & & & & & & & & & & & & & & & & & & & % & & & & ",
"& & & & & & & & & & & & & & & & & & & & & % 7 + C m.S.C.A.A.A.A.H X 8 & & & & & & & & & & & & & & & & & & & & & & & & & ",
"& & & & & & & & & & % & & & & & & # & & # 8 X A C.S.C.H.Z.C.S.m.9 * & & & * & & & & & & & % & & & & & & & & & & & & & & ",
"& & & & & & & & & & & & & & & & # & & & 6 X b C.D.C.rX:XC.D.S.C.z X w & & & & & & & & & & & & & & & & & & & & & & & & & ",
"& & & & & & & & & & & & & & & % * * # * : X g.U.Z.2XvX].Z.Z.Z.U.3.X X 9 * # & & & & & & & & & & & & & & & & & & & & & & ",
"& & & & & & & & & & & & & & & * @ o & 7 + / U.Z.].vXvXZ.U.U.Z.Z.U.g.H + 6 : # = & & & & & & & & & & & & & & & & & & & & ",
"& & & & & & & & & & & # & & * X j D X 9 X h.T.P.sXmXcX].P.K.U.U.P.U.U.[ + 9 * & & & & & & & & & & & & & & & & & & & & & ",
"& & & & & & & & & & & & & # 6 X <._ X w : M.Y.P.cXvXvXeXP.T.I.P.I.P.Y.K.h 6 7 : & & & & & & & & & & & % & & & & & & & & ",
"& & & & & & & & & & & & & 8 X F m.2.. t * M.~.`.cXcXvXsXY.T.I.I.I.P.I.K.A & 9 6 , & & & & & & & & & & & & & & % & & & & ",
"& & & & & & & & & & & & & 8 X ` N.r.b 7 + f.~.I.sXxXcXxXeXI.`.I.R.I.~.I.Z 6 t 9 : & & & & & & & & & & & & & & & & & & & ",
"& & & & & & & & & & # , * & o h.C.C.R @ 5 ^ !.R.wXvXzXxXsXI.~.R.R.R.R.I.H 5 y 9 6 : & & & & & & & & & & & & & & & & & & ",
"& & & & & & & & & & & & & & = M.S.U.[ + c e k.R._.zXcXcXxX7XR._.R.R.R.E.3.+ l r 7 6 & & & & & & & & & & & & % & & & & & ",
"& & % & & & & & & & # # & 9 X h.Y.Y.[ X b g Y _.R.tXxXzXcXzX/.R.~.E.R.E.E.J w a 9 7 * & & & & & & & & & & & & & & & & & ",
"& & & & & & & & & & & > # 6 + H Q.`.v h v Z g z.Q.[.zXzXaXxXtXE.W.E.E.E.Q.X.$ l t 9 : & & & & & & & & & & & & & & & & & ",
"& & & & & & & & & & & & & & 6 X / K 5 v m Z A P L.E.9XzXzXzXzX3XE.W.E.E.E.j.1 l t 9 6 * - & & & & % & & & & & & & & & & ",
"& & & & & & & & & & & & & & & t X + z v C A F D j.Q.^.aXzXaXkXaX^.E.W.W.Q.X.3 v y t 7 * & & & & & & & & & & & & & & & & ",
"& & & & & & & % & & & & , & 9 X H ;.e b A F U L k.(.E.tXlXaXzXzXqXE.^.W.L.A v h h t 9 : & & & & & & & & & & & & & & & & ",
"& & & & & & & & & & & & & & q X X.!.^ n F P U R L.^.E.tXlXaXzXzXiXE.^.(.[ V A _ y t 9 6 & & & & & & & & & & & & & & & & ",
"& & & & & & & & & & & & & : 6 8 b.(.z.d F U L z.(.[.E.iXlXzXaXzXiXE.(.z.S G { r.F # y 6 & & & & & % & & & & & & & & & & ",
"& & & & & & & & & & & # & 9 X ^ )./._. .P U 6.^./.^.}.aXaXzXzXzXiXQ.[.' U U u.N.5.t t 9 : & & & & & & & & & & & & & & & ",
"& & & & & & & & & & & & # q + X.{./.)./.OXOX{.[.[.E.tXzXzXzXzXxXyXQ.c.W U } N.m.N.Y @ w : # & & & & & & & & & & & % & & ",
"& & % & & & & & & & & & # p X :.{.3XW.|.}.}.}.[.Q.6XlXzXzXzXzXlX9XW.v.' ] 2.S.D.S.2.o u : & & & & & & & & & & & & & & & ",
"& & & & & & & & # & & & & 9 X ) ).iXqX(.^.(.^.{.qXlXxXzXzXzXzXzX3X).c.{ ] 4.g.4.U.h.9 y 6 & & & & & & & % & & & & & & & ",
"& & & & & & & % & & & & & 9 u g n.qXxXaXtXqXiXaXzXxXzXlXzXzXzXzX.X}..X1.' } ] V F.g.$ l 7 & & & & & & & & & & & & & & & ",
"& & & & & & & & & & & & * 9 x e ( }.aXxXlXlXxXxXzXlXxXzXzXzXxXaX X X Xc.' R R U O. .4 l 7 : & & & & & & & & & & & & & & ",
"& & & & & & & & & & & & : t h b n n.XXzXxXzXxXzXxXzXzXxXxXlXxXpX X.X.X XoXx.'.'.F A b h q : & & & & & & & & & & & & & & ",
"& & & & & & & & & & & & : t z M k @X XqXxXlXlXxXxXzXlXxXxXzXlXlX.X.X3X5X.X5XXXXXo.k Z h t 6 & & & & & & & & & & & & % & ",
"& & & & & & & & & & & & 7 i z Z V 6.5XoXaXxXxXxXxXxXxXxXxXxXlXxXqX.X5X.X5X5X5X5X1XS M z t 6 & & % & & & & & & & & & & & ",
"& & & & & & & & & & & : 6 y z A V x.6X5XyXxXxXxXxXxXxXxXxXxXxXxXzX4XXX6X5X6X5X3X6X..f v y 6 : & & & & & & & & & & & & & ",
"& & & & & & & & & & # : 6 y c Z S 1X6X5XuXbXxXxXxXxXxXxXbXxXxXxXxXxX9X5X6X6X4X6X6X+Xj b i 9 : & & & & & & & & & & & & & ",
"& & & & & & & & & & = : 7 y v j ..0X6X8XlXbXxXxXbXxXxXxXxXxXbXxXxXbXxXiX6X8X0X4X4X7XG h y 7 6 & & & & & & & & & & & & & ",
"& & & & & & & & & & & : 7 y v f +XqX7XpXbXxXbXxXbXbXbXbXbXbXxXbXxXbXbXbXzXqX8XqXqXqX( 4 h 9 : & & & & & & & % & & & & & ",
"& & & & & & & & , & * 6 7 y j G 9XqXtXbXbXbXbXbXbXbXbXbXlXnXnXlXbXxXbXbXbXxXqXqXqXqX..$ u 9 7 & & & & & & & & & & & & & ",
"% & & & & & & & & & & : 7 u < ( yXqXzXbXbXbXbXbXbXbXbXbXbXnXbXbXbXbXbXbXbXbXxXtXqXyX@XX l 9 : & & & & & & & & & & & & & ",
"& & & & & & & & & & & : 8 u . *.yXiXbXnXbXbXnXbXbXbXbXnXbXbXbXnXnXbXbXbXbXbXnXaXqXuX@XX h 7 6 = & & & & & & & & & & & & ",
"& & & & & & & & & & # : 7 u . $.uXpXbXbXnXbXbXnXnXnXnXbXnXnXnXbXnXnXnXnXnXbXnXzXyXuX@X. u 7 : & & & & & & & & & & & & & ",
"& & & & & & & & & & & : 6 s . $.uXzXnXnXnXnXnXnXnXnXnXnXnXnXnXnXnXnXnXnXnXbXnXxXyXpXs.. u 6 : & & & & & & & & & & & & & ",
"& & & & & & & & & & & > 6 a X #.pXzXnXnXmXnXnXnXnXnXnXnXnXnXnXnXnXnXnXnXnXnXMXxXsXaX&.  s : & & & & & & & & & & & & & & ",
"& & & & % & & & & & & & 6 9 6 N sXaXnXnXMXnXnXMXnXnXnXnXMXnXnXnXnXnXnXMXnXnXMXzXpXpX+.. w : # & & & & & & & & & & & & & ",
"& & & & & & & & & & & & : 6 i . *XzXnXMXnXMXMXMXMXMXNXxXvXMXMXMXnXMXMXMXMXMXbXaXaXdXt 7 7 : & & & & & & & & & & & & & & ",
"& & & & & & & & & & & & & : p . +.zXxXMXNXMXMXMXMXMXMXMXzXxXMXMXNXMXMXMXMXMXlXaXxX-.  s : & & , & & & & & & & & & & & & ",
"& & & & & & & & & & & & & * 6 s   $XxXlXMXNXMXNXMXNXMXMXbXzXxXnXMXNXMXNXnXxXzXxXcXx * 7 : & & & & & & & & & & & % & & & ",
"& & & & & & & & & % & & = & : 9 6 h jXxXbXMXNXNXNXNXNXMXbXxXxXzXbXbXnXxXxXxXxXxX#.  p * & & & & & & & & & & & & & & & & ",
"% & & & & & & & & & & & & & & : p O N jXbXxXnXnXMXnXmXbXxXbXbXxXxXvXxXxXbXbXbX=.O a : * # & & & & & & & & & & & & & & & ",
"& & & & & & & & & & & & & & & * : a O y %XnXnXbXbXnXbXnXbXnXmXnXnXnXnXnXnXjX@.  t 6 : # & & & & & & & & & & & & & & & & ",
"& & & & & & & & & & & & & & & & * * p 6   @.#XhXjX&X#X=.@.! @.=.#XfXfX-.@.O   t : , & = & & & & & & & & & & & & & & & & "
};
