/* XPM */
static char *i10i1674121959[] = {
/* columns rows colors chars-per-pixel */
"60 60 239 2 ",
"   c #020101",
".  c #020101",
"X  c #020101",
"o  c #020101",
"O  c #020101",
"+  c #020101",
"@  c #020101",
"#  c #020101",
"$  c #020101",
"%  c #020101",
"&  c #020101",
"*  c #020101",
"=  c #020101",
"-  c #020101",
";  c #020101",
":  c #020101",
">  c #020101",
",  c #020101",
"<  c #020101",
"1  c #020101",
"2  c #020101",
"3  c #020101",
"4  c #020101",
"5  c #020101",
"6  c #020101",
"7  c #020101",
"8  c #020101",
"9  c #020101",
"0  c #020101",
"q  c #26232E",
"w  c #302424",
"e  c #2E302F",
"r  c #2E2D32",
"t  c #26273B",
"y  c #302B31",
"u  c #2D3235",
"i  c #2D353B",
"p  c #2D393D",
"a  c #313B3D",
"s  c #323238",
"d  c #2C2E4A",
"f  c #2D3C44",
"g  c #2B3C4E",
"h  c #313942",
"j  c #2B3C55",
"k  c #303E59",
"l  c #2D4146",
"z  c #2D434C",
"x  c #2D484F",
"c  c #31444C",
"v  c #30484C",
"b  c #2D4552",
"n  c #2D4A55",
"m  c #2D4C5B",
"M  c #2B4359",
"N  c #304D5D",
"B  c #2D515C",
"V  c #2B5154",
"C  c #2C4361",
"Z  c #2B4B64",
"A  c #2D5463",
"S  c #2A5B65",
"D  c #2D526B",
"F  c #2D5C6C",
"G  c #26546B",
"H  c #2C5E73",
"J  c #27567A",
"K  c #305D79",
"L  c #305771",
"P  c #2D6475",
"I  c #2C637A",
"U  c #2A6976",
"Y  c #3C6A76",
"T  c #2A717E",
"R  c #3C727E",
"E  c #2B6A85",
"W  c #2E738C",
"Q  c #287586",
"!  c #2C7B93",
"~  c #2A7998",
"^  c #307A97",
"/  c #326E84",
"(  c #1E79A5",
")  c #267BA2",
"_  c #216AA1",
"`  c #447D87",
"'  c #2D839C",
"]  c #268999",
"[  c #1B8BB6",
"{  c #1B94B6",
"}  c #1E90A8",
"|  c #2B8BA7",
" . c #3086A9",
".. c #2997AA",
"X. c #2183B0",
"o. c #2D8DB5",
"O. c #2B95B6",
"+. c #1EA2AF",
"@. c #1CA7BA",
"#. c #1DB0B8",
"$. c #34B6BB",
"%. c #23B0B8",
"&. c #569299",
"*. c #518B8A",
"=. c #4EAAAB",
"-. c #62A6AB",
";. c #1796CA",
":. c #1692D1",
">. c #2E9EC8",
",. c #309CCB",
"<. c #1AA9C7",
"1. c #1BB7C9",
"2. c #09A6D5",
"3. c #16ACD9",
"4. c #15B9DC",
"5. c #0AB3DA",
"6. c #2BA8C6",
"7. c #29B9C7",
"8. c #2DABD4",
"9. c #27B3D4",
"0. c #0B99E2",
"q. c #01ACE4",
"w. c #00AEEE",
"e. c #07A4E4",
"r. c #02B3EC",
"t. c #01BBEC",
"y. c #0FB4E4",
"u. c #15BBE7",
"i. c #03AAFA",
"p. c #02B4FD",
"a. c #02BDFD",
"s. c #01BBF4",
"d. c #26BBEB",
"f. c #4FBFC0",
"g. c #70BBC0",
"h. c #21C8C8",
"j. c #27C6D8",
"k. c #35CECE",
"l. c #08C9E6",
"z. c #04D3EE",
"x. c #1AD8E7",
"c. c #01C3F3",
"v. c #01CBF3",
"b. c #00C6FC",
"n. c #0CC5FB",
"m. c #01CCFA",
"M. c #0AC7F5",
"N. c #02D4F4",
"B. c #02DAF4",
"V. c #01D3FB",
"C. c #02DDFB",
"Z. c #0BD6F8",
"A. c #13D7F7",
"S. c #16C7EA",
"D. c #37C9EF",
"F. c #37C9F7",
"G. c #3FD7F4",
"H. c #25D1EE",
"J. c #02F7EF",
"K. c #19F6EB",
"L. c #01E4F5",
"P. c #01EBF3",
"I. c #01E3FD",
"U. c #00EAFD",
"Y. c #0BE9F6",
"T. c #14E4FB",
"R. c #01F3F3",
"E. c #02FDF4",
"W. c #0CFFF4",
"Q. c #01F1FB",
"!. c #00FEFC",
"~. c #0DF8F7",
"^. c #1CFEF4",
"/. c #1FFFF9",
"(. c #16FDF5",
"). c #10ECE8",
"_. c #26E8E8",
"`. c #25E3F9",
"'. c #25FEF6",
"]. c #2CFEF5",
"[. c #2CFFFA",
"{. c #23FBF7",
"}. c #33FEF5",
"|. c #3BFDF5",
" X c #33FFFA",
".X c #3BFFFC",
"XX c #3BF1F2",
"oX c #3AE9E4",
"OX c #59CBCA",
"+X c #48D5D3",
"@X c #7DD3D4",
"#X c #7EDEDC",
"$X c #70CFD0",
"%X c #40CCEF",
"&X c #4ED1EF",
"*X c #4AD4F5",
"=X c #54DAF4",
"-X c #5CDCF6",
";X c #57D9F8",
":X c #45CEF2",
">X c #64DCF7",
",X c #4DE3E1",
"<X c #5BE7F5",
"1X c #44FEF8",
"2X c #4BFEFD",
"3X c #47FDF7",
"4X c #5CFBF6",
"5X c #53FDFA",
"6X c #5EFEFA",
"7X c #50E5EE",
"8X c #64E2F6",
"9X c #62E3F9",
"0X c #6CE6F8",
"qX c #75EAFA",
"wX c #7DECFB",
"eX c #72E7FB",
"rX c #62FEFB",
"tX c #6DFEFB",
"yX c #6AFAF7",
"uX c #7AF4FF",
"iX c #73FEFB",
"pX c #7DFEFB",
"aX c #76F3F5",
"sX c #7BF4EF",
"dX c #81DDDC",
"fX c #87E8E9",
"gX c #82ECFE",
"hX c #97EEFF",
"jX c #8AF3F6",
"kX c #8DF5FC",
"lX c #84FEFB",
"zX c #8CFEFC",
"xX c #8AFAF6",
"cX c #93F6FD",
"vX c #9AF5FE",
"bX c #93FEFD",
"nX c #9BFFFC",
"mX c #A3FEFE",
"MX c #A3F6FE",
/* pixels */
"= = = = = = = = = = = = * = = = = = ; = $ = = % 7 o X V ] +.+.] l X 7 = = = = = = = = = = = = = = = = = = = = = = = = = ",
"= = = = = = = = = = = = = = = = % = = = = = $ 7 X 8 1.B.T.T.I.I.B.+.X - = = = = = = = = = = = = = * = = = = = = = = = = ",
"= = = = = = = = = = = = = = = = = = = = = = , X 0 l.U.B.A.eXwX9XZ.I.@.X 8 = = = = = = = = = = = = = = = * = = = = = = = ",
"= = = = = = = = = = = = = = = = = = = = = = 7 O 1.I.l.B.B.`.gXjX0Xz.z.S X 7 = * = = = = = = = = = = = = = = = = = = = = ",
"= = = = = = = = = = = = = = = = = = = = = , X S <.S f T S.N.<XuXgXG.N.| X 8 = = = = = = = = = = * = = = = = = = * = = = ",
"= = = = = = = = = = = = = = = = = = ; = = - @ i X O % O T z.=XqXqXG.N.] O 9 = = = = = = = = = = = = = = = = = = = = = = ",
"= = = = = = = = = = = = = = = = = = = = = * = o , 7 7 $ F v.-XqX8XN.y.z @ - = = = = = = = = = = = = = = = = = = = = = = ",
"= = = = = * = = = * = = = = = = = = = = % = = = = = 0 O { A.8XeX*Xm.+.X 0 % * = = = = = = * = = = = = = = = = = = = = = ",
"= = = = = = = = * = = = = = = = = = = = = = = = - 7 X ~ v.-X8X8X-Xv.<.: 9 = = = = = = = = = = = = = = = = = = = = = = = ",
"= = = = = = = = = = = = = * = = = = = = = = = = - X } c.*X9X-X9X<XS.5.p 7 = = = = = = = = = = = = = = = = = = = = = = = ",
"= = * = = = = = = = = = = = = = $ = = = = = = 7 X { v.D.-X-X-X>XD.c.y.f - = = = = = = = = = = = = = = = = = * = * = = = ",
"= = = = = = = = = = = = = = = = = = = = = = 7 O I c.t.*X=X=X=XD.t.c.~ , 7 = = = = = = = = = = = = = = = = = = = = = = = ",
"= = = = = = = = = = = = = = = = = = = = = = w X } c.r.:X=X*X:Xt.3.W g u = - = = = = = = = = = = = = = = = = = = = = = = ",
"= = = = = = = = = = = * = = = = = $ = = = = 7 X E s.t.u.&X&XH.q.P z b 7 $ = $ = = = = = = = = = = = = = = = = = = = = = ",
"= = = = * = = = = = = = = = = = = = = $ = = = - X ;.s.r.d.:Xd.2.l x u < = = = = = = = = = = = = = = = = = = = = = = = = ",
"= = = = = = = = = = = = = = = = = = = ; = = = = $ X ) r.w.u.d.r.E # r = = = % = * = = = = = = = = * = = = = = = = = = = ",
"= = = = = = = = = = = = = = = = < = = = = = = = < , X M ;.w.q.r.;.. 4 = = = = = = = = = = = = = = = = = = = = = = = = = ",
"= = = = = = = = = = = = = = = = = = = = = = = = = = 0 X X { w.q.e.g X - = = = = = = = = = = = = = = = % = = = = * = = = ",
"= = = = = = = = = = = = = = = = & = = = = = = = = = & 7 $ X :.w.e.g o - = = = = = = = = = = = = = = = * = = = = = = = = ",
"= = = = * = = = = = = = = = = = = = = = $ = % = = = - % 9 X E w.;.X 4 = = $ = = = = = = = = = = = = = = = = = = = = = = ",
"= = = = = = = = = = = = = = = = = = % < % = * % - 4 o * 4 X J e.M X , = $ = = = = = = = = = = = = = = = = = = = = = = = ",
"= = = = = = = = = = = = = = = = = = = = = = - = 4 X k : - X Z j X 7 $ = = = = = = = = = = = = = = = = = = = = = = = = = ",
"= = = = = = = = = = = = = = = = = = = = = = $ 9 X _ :.O 4 - . o 7 = = $ = = = $ = = = = = = = = = = = = = * = = = = = = ",
"= = * = = = * = = = = = = = = = = = = = ; = 7 X J i.0.X 4 * - 4 = = = = = = = = = = = = = = = = = = = = = = = = = = = = ",
"= = = = = = = = = = = = = = = = = = = = * - @ 4 0.p.i.C O 4 = = = = = = = = = = = = = = = = = = = = = = = = = = = = = = ",
"= = = = = = * = = = = = = = = = = = = = = 9 X ) p.i.p.;.O 9 = = = = = = $ = = = = = = = = = = * = = = = = = = = = = = = ",
"= = = = = = = = = = = = = = = = = = = - ; 9 X ;.a.a.p.a.X.X r 7 = - = = = - = = = = = = = = = = = = = = = = = = = = = = ",
"= = = = = = = = = = = = = = $ = = = - @ = 9 O 3.b.p.a.a.a.X.X 0 8 , 7 = = $ = = = = = = = = = = = = = = = * = = = = = = ",
"= = = = = = = = = = = = = % = = = = X i @ r X [ b.n.c.a.n.b.;.O 8 r 8 7 1 = = = * = = = = = = = = = = = = = = = = = = * ",
"= = = = = = = = = = = = = = * = 7 X ( [ X u + H n.b.>XF.b.n.V.3.u 7 i 8 8 , < % = = = = = = = = = * = = = = = = = = = = ",
"= = = * = = = = = = = = = = - 4 X G s.2.# u f < 4.b.0XhXv.m.M.V.u.x 0 p 0 0 w , = = = = = = = = = = = = = = = = = = = = ",
"= = = = = = = = = = = = = $ = 7 X <.c.t.H 8 n r 9.V.;XMXgXm.Z.Z.C.u.c l p u , 7 = = = = = = = = = = = = = = = = = = = = ",
"= = = = = = = = = ; = = = = , X n z.z.V...r B G x.C.wXvXvX9XV.A.B.I.<.s n f g 7 7 = = = $ = = = = = = = = = = = = = = = ",
"= = = = = = = = % = $ = $ = , O U B.N.B.<.z n 6.I.=XvXcXcXkX`.B.C.B.I.! u ) ;.# 0 , = = = = = = = = = = = = = = = = = = ",
"= = = = = = = = = = = = = = , o l B.L.U.1.d ..L.T.jXkXkXkXcX<XL.T.I.U.@.g 4.c.Q # 0 , = $ = = = = = = = = * = = = = = = ",
"* = = = = = = = = ; = & = = = u X #.!.Q.] K x.U.qXbXkXkXkXbXaXL.Y.L.Q.1.E z.C.<.O p < = = $ = < = = = = = = = = = = = = ",
"= = = = = = = = = = = = = = , r f h %...D | P.XXlXkXjXkXlXjXuXP.Y.J.Q.6.W ] %.1.> l 0 - $ = = = = * = = = = = = = = = = ",
"= = = = = = = = = = = = = < 8 p z A k H W ..P.5XzXpXlXlXlXzXyXR.~.R.J...^ L / T b l u 7 = = = = = = = = = = = = * = = = ",
"= = = = = = = * = = ; = = - y p n A U W ^ | J.3XlXlXlXlXlXzX4XR.~.E.x. .^ %.' N S b p 8 < $ = = = = = = = = = = = = = = ",
"= = = = = = = = = = = = = 8 u z B H / ! ' o.).^.iXlXpXpXpXpX1XE.E.E.6.O.) h.J.! m N f u , = = = = = = ; = = = = = = = = ",
"= = = = = = = = < = = = = 8 p n A I W ^ | o.).E.rXlXlXpXlXiXW.E.W.x.,.6.| 7.!.K.U N z i 7 $ = = = = = = = = = = = = * = ",
"= = = = = = = = $ = = = , e f n A E ! ' O.O._.E.|.lXpXpXlX4XE.^.(.j.8.6.o.j.W.~.h.d N p 0 , ; = = = = = = = = = = = = = ",
"= = = = = = = = = = = = , u f m L / ^  .O.>.{.(.^.pXlXlXpX}.W.(.(.j.8.6.o._.(.(.K.F n f e 7 = = = = = = = = = * = = = = ",
"= = = = = = = = = = = , 7 i z A P / ^ o.o.j.{.^.].pXlXlXyXW.'.^.{.H.8.,.j.(.^.{.{.T b c u 7 = = = = = = = = = = = = = = ",
"= = = = = = = = = = = - 8 i x A P W ^ ) 7.].'.E.4XlXlXlXrX(.'.'.[.'._._.'.[.'.{._.H N z e 8 = = = = = * = = = = = = = = ",
"= = = = = = = = = = = - 8 i x A H W ~ 7. X{.{.4XlXlXlXzXrX^.}.}.}. X X X].].}.[.k.k A z u 7 - = = = = = = = = = = = = = ",
"= = = = = = = = = = $ , 8 i z A P E $. X[.2XpXzXxXzXlXxXtX].|.}.|.|..X|.[.3X|. X+.Z A z u 8 , = = = = = = = = * = = = = ",
"= = = = = = = = = = = - 0 i z A H ! |.|.rXzXzXlXlXlXlXzXlX5X}.|.|.|.}.[.rXpX.XoXI F B l u 7 , = = = = = = = = = = = = = ",
"* = = = = = = = = = = , 8 u z S C $.1X4XzXzXzXzXxXzXzXzXzXlXyX3X1X1X5XiXzXtX.Xk.G I m f u 7 , ; = = = = = = = = = = = = ",
"= = = = = = = = = ; = < 8 u l B C +X2XpXbXlXzXzXbXxXzXzXzXzXzXzXlXlXzXbXzXrX2X+XZ F b f e 7 , = = = = = = = = = = = = = ",
"= = = = = = = = = = = , 8 r f n Z ,XrXbXbXzXzXbXzXzXzXbXzXzXzXzXbXzXzXzXbXiX5X,XG F n p 0 7 ; = = = = = = = = = = = = = ",
"= = = = = * = = = = = = , 0 p n m 7XiXbXbXzXbXzXbXzXbXzXbXbXzXbXbXbXbXzXbXbXrX<X/ b z i 8 , = = = = = = = = = = = = = = ",
"= * = = = = = = = = = = , 8 u x d ,XiXbXbXbXbXbXbXbXbXbXbXbXbXbXzXbXnXbXbXbXpXrX=.6 v 0 7 < < = = = = = = = = = * = = = ",
"= = = = = = = = = = = = , 7 r v 3 f.iXbXnXnXbXnXnXnXnXnXnXnXnXnXnXbXnXbXbXnXbXtXOX3 l 0 7 < = = = = = = = = = = = = = = ",
"= = = = = = = = = = = = = 7 8 h t ` tXlXmXbXnXnXbXzXzXnXnXnXnXnXnXnXnXnXnXnXnXiXOXX p 0 , = = ; = = = = = = = = = = = = ",
"= = = = = = = = = = = = = , 8 0 l 3 $XpXbXmXmXmXnXbXlXpXbXmXnXmXmXnXmXmXnXmXvXpX=.. p 7 < = = = = = = = = = = = = = = = ",
"= = = = = = = = = = = = = = 7 8 s i F xXlXzXbXmXnXmXmXbXlXzXnXmXmXmXmXmXmXmXbXaXc 8 0 , = = = = = = = = = = = = = = = = ",
"= = = = = = = = = = = = = = , 7 8 a 5 ` xXbXlXzXzXzXbXbXzXzXzXbXmXmXmXmXmXbXzX*.. u 8 = = = = = = * = = = = = * = = = = ",
"= = = = = = = = = = = = = = = - 8 8 p 2 Y dXbXnXnXbXbXbXnXjXkXbXbXnXmXmXnXfX&.. s , , = = = = = = = = = = = = = = = = = ",
"= = = = * = = = = = = = = = = ; , 8 8 a 5 5 &.$XfXfX@X-.` Y / &.-.@X#X@X-.a . a 7 , = = % = = = = = = = = = = = = = = = "
};
