/* XPM */
static char *player_front1674485722[] = {
/* columns rows colors chars-per-pixel */
"60 60 236 2 ",
"   c black",
".  c #000000",
"X  c #060608",
"o  c #1B0502",
"O  c #010113",
"+  c #070617",
"@  c #1B0A17",
"#  c #161517",
"$  c #0A1506",
"%  c #2C0001",
"&  c #250003",
"*  c #370100",
"=  c #261600",
"-  c #340919",
";  c #012300",
":  c #002A00",
">  c #013905",
",  c #12391E",
"<  c #152219",
"1  c #342511",
"2  c #000125",
"3  c #00002C",
"4  c #041827",
"5  c #1B1524",
"6  c #000034",
"7  c #02033B",
"8  c #1C1738",
"9  c #130E31",
"0  c #241B25",
"q  c #231925",
"w  c #351B24",
"e  c #231935",
"r  c #270023",
"t  c #072924",
"y  c #1B262A",
"u  c #143428",
"i  c #102E2B",
"p  c #27242A",
"a  c #352628",
"s  c #282833",
"d  c #332A34",
"f  c #342C3A",
"g  c #392838",
"h  c #2D3337",
"j  c #3C333B",
"k  c #36373A",
"l  c #36312D",
"z  c #540100",
"x  c #580000",
"c  c #50120E",
"v  c #680202",
"b  c #690F0B",
"n  c #5A2407",
"m  c #492717",
"M  c #512C0B",
"N  c #662914",
"B  c #752616",
"V  c #6C3307",
"C  c #542D28",
"Z  c #45393B",
"A  c #4D2F2E",
"S  c #6A362B",
"D  c #421D22",
"F  c #13470B",
"G  c #26481D",
"H  c #1D432D",
"J  c #2B4B28",
"K  c #334B31",
"L  c #36562D",
"P  c #734C11",
"I  c #594A39",
"U  c #794C38",
"Y  c #76533A",
"T  c #6F5032",
"R  c #7D692D",
"E  c #766433",
"W  c #736416",
"Q  c #00024A",
"!  c #1A1946",
"~  c #040957",
"^  c #281B44",
"/  c #373A44",
"(  c #292658",
")  c #342C52",
"_  c #130869",
"`  c #2D0A6D",
"'  c #15276F",
"]  c #2A2A6A",
"[  c #362867",
"{  c #272C72",
"}  c #2B3179",
"|  c #453143",
" . c #443371",
".. c #3D4446",
"X. c #3A4169",
"o. c #49474B",
"O. c #474B56",
"+. c #585554",
"@. c #534340",
"#. c #765953",
"$. c #756254",
"%. c #565962",
"&. c #534179",
"*. c #7C7574",
"=. c #746C72",
"-. c #6F4B7D",
";. c #810002",
":. c #8A1E1B",
">. c #8C3907",
",. c #8B5903",
"<. c #875512",
"1. c #8C741C",
"2. c #B27405",
"3. c #994A37",
"4. c #864E3C",
"5. c #8A7434",
"6. c #8D762D",
"7. c #A76B3A",
"8. c #A55D3C",
"9. c #C76B2E",
"0. c #903655",
"q. c #AF354B",
"w. c #855446",
"e. c #915344",
"r. c #8B654B",
"t. c #8D6E5F",
"y. c #B56F44",
"u. c #AA6F51",
"i. c #BD5367",
"p. c #957969",
"a. c #8A756A",
"s. c #AC7D6E",
"d. c #C66D53",
"f. c #C76569",
"g. c #C75447",
"h. c #9B851C",
"j. c #B7840B",
"k. c #9B822F",
"l. c #A88E29",
"z. c #D49426",
"x. c #978374",
"c. c #BB8769",
"v. c #BB8D7A",
"b. c #A78F7E",
"n. c #D98A4D",
"m. c #CE8975",
"M. c #D69376",
"N. c #CC9071",
"B. c #E79967",
"V. c #D8A377",
"C. c #E7A278",
"Z. c #F5B072",
"A. c #F9B859",
"S. c #0A0383",
"D. c #373988",
"F. c #32378E",
"G. c #3C009B",
"H. c #472D81",
"J. c #473787",
"K. c #593592",
"L. c #4900A8",
"P. c #6A37AB",
"I. c #6022AC",
"U. c #3A419B",
"Y. c #3A4096",
"T. c #3B45A9",
"R. c #3C4AAD",
"E. c #3648A1",
"W. c #3D4CB4",
"Q. c #3F53B4",
"!. c #4F4C9F",
"~. c #704893",
"^. c #6F6D8D",
"/. c #404EB8",
"(. c #4355B9",
"). c #464EA1",
"_. c #7747B7",
"`. c #7049AB",
"'. c #7700CF",
"]. c #4465C4",
"[. c #466ACA",
"{. c #486ED0",
"}. c #8151BA",
"|. c #932ED2",
" X c #9153CD",
".X c #B16DE5",
"XX c #A465D7",
"oX c #6ABCD4",
"OX c #6FC4D6",
"+X c #898786",
"@X c #B89A86",
"#X c #AD9280",
"$X c #AC99B0",
"%X c #BDB8BB",
"&X c #BAACAF",
"*X c #D29287",
"=X c #CBAA92",
"-X c #D7A894",
";X c #D7AA93",
":X c #EAB99A",
">X c #F8BC98",
",X c #E7AC91",
"<X c #D7BAA6",
"1X c #E6B9A2",
"2X c #BEC1BB",
"3X c #FAC29B",
"4X c #D2C3B2",
"5X c #E8C3AA",
"6X c #F8C9AC",
"7X c #EAC9B9",
"8X c #FFDABB",
"9X c #FAD5BB",
"0X c #F3C5B1",
"qX c #B496CE",
"wX c #BDB6D2",
"eX c #BD8BE7",
"rX c #C6B0CA",
"tX c #BDCAD0",
"yX c #BFD1E1",
"uX c #D8D4CC",
"iX c #D2C7D8",
"pX c #F9DAC4",
"aX c #E5D4CF",
"sX c #FFE5C9",
"dX c #FEE8D5",
"fX c #F9F6DB",
"gX c #E5E4C0",
"hX c #D5C8E5",
"jX c #D8D1E8",
"kX c #E9D8FB",
"lX c #FDF6E4",
"zX c #ECE8F2",
"xX c #FFFEFF",
"cX c #F8F9F9",
"vX c #F3EBF8",
"bX c #DDE0CE",
/* pixels */
"                                                                                                                        ",
"                                                                                                                        ",
"                                                                                                                        ",
"                                                                                                                        ",
"                                                                                                                        ",
"                                                    # # X   # # X   # $ .                                               ",
"                                            X 5 . k %./ < # ..%.... o...$                                               ",
"                                          X k %./ h ... 4 / . h / O O.h s s # X                                         ",
"                                      . h ..p / ! ] `  .=.-.^.X._  .! . X ..%.h $                                       ",
"                                    k O.+ p 9 [ K. X XkXxXxXxXjXI._.K.[ ^ # O.p O.k                                     ",
"                                    s O.s 6 K.XX.X|.hXcXzXxXzXxXiXG._._.K.) # $ # .                                     ",
"                                    # h s H. X.X}.Q rXjXwXxXwXhXiXS._.P._.H.y y +                                       ",
"                                      # i `..X XP.'.$XlXcXcXcXfXwXG.I.`.J._ O.l .                                       ",
"                                      X [ _.XX.XeX.XwXiXeXgX$X%X$X`.^.`  .J.! .                                         ",
"                                      4 ; X `.|.iXvXqXlXvX'.kXlX$XzXrXL._. .; 4                                         ",
"                                      X i F ) I.-.4XcXbX$X|.$XbXcX4X~.[ ; > u O                                         ",
"                                        , F > : : . . . . : X . . . ; > H F t O                                         ",
"                                        < F G J J L L K J u J K L L L G , t i                                           ",
"                                      . O 4 . . . : J G G J J G K : . X 4 u F F t                                       ",
"                                    S S . a t.x.x.T . . . . . . . I x.t.A t , F u                                       ",
"                                    p.,X3.u.3X8XdXaX+Xx.p.x.p.x.+XaXsX3Xr.. K G u                                       ",
"                                    x.8Xn.M.V.C.1XaX9X9XsXpXsX8XpXaX*XB.s.O . . .                                       ",
"                                    b.sX,XN.C.*X*.x #.<X6X7X6X<X#.x a.;XB.u.x.=X$.                                      ",
"                                    t.<X1XC.n.uXOX. oXtXZ.sXZ.tXoX. OXbXd.C.:X9Xa.                                      ",
"                                      X S N.7.8XuX. tXlX,XpX1XlXiXX 4X8X7.c.T .                                         ",
"                                    p A   . 4.6X5Xp.&XpXpXpX>XpX&Xp.4X3X4.X o                                           ",
"                                  o @ e g 4 B M.9XdX6X2.-X6X9.d.6XdX8X*XB i ^ ^ X                                       ",
"                                # q ] Y.F.D.% 3.N.;X8XpXu.V s.9X8X;XM.3.& } ).D.{ D m                                   ",
"                                @ o D.W.W.(.' D x >.N.:X@X. v.1XM.>.z D ' (.W.W.J.O n                                   ",
"                              @ q ] F./.].[./.] 4 ) v z v e.v z v | 4 ] /.[.].Q.U.] w m                                 ",
"                              @ o D././.].{.].(.).] ; Q 6 3 3 h ; ] ).(.].{.].R.W.J.. n                                 ",
"                              5 [ U.R.T.T.].[.{.{.F.X k.6.6.k.Q = F.{.{.].].R.R.R.F.] w                                 ",
"                              @ D./.R.R.T.(.{.[.E.) 8 R E E R ! k ) E.].{.Q.T.R.R.W.D.@                                 ",
"                            e ) D.W.T.T.R.R.(.(.F.= Q 6.5.R k.7 %.M F.Q.(.Q.R.R.T.W.D.) 8                               ",
"                            e Q ~ !.Q.Q.W.T.T.U.! 1 C 1.W E 6.) a . ! E.T.T././.(.).~ ~ e                               ",
"                          0 + P 2.Q } ] D.Q.(.F.o I C A S r 2 . +XtXI S.(.Q.D.] _ Q ,.V 5 q                             ",
"                          0 3 <.z.j.P * s { { ] j k 4 3 r U r.V %X%X$.X.{ { ^ X j.2.j.<.2 0                             ",
"                            O P 2.,.T A j = = = f Z 7 h.h.9 Y V *.*.*.+.. = j A 7.,.,.P +                               ",
"                              z r.@X. . . d s d d Z 6 R 5.6 4 2 h O.+./ e d . . X v.$.&                                 ",
"                              n 1XdX=X5X#X. a 0 5 # 0 2 2 a a a 1 X . @ a . b.5X;XdX:XV                                 ",
"                              T ,XdX5X:X0X. | d a d d p a 6 6 6 6 j d d Z . 0X1X5XdX:XU                                 ",
"                              x m.sX;Xv a.. j j j j Z l 2 l.k.k.l.7 Z j j O *.v ;XsXM.z                                 ",
"                                e.6X8Xy.. Z d f f j j d 2 E E E E 8 j j d Z . y.8X6Xe..                                 ",
"                                  w.p.#.+ y g j j j j a p 7 e 8 8 j j j f 0 O #.p.w.*                                   ",
"                                        N c g g d f Z p q j j j j f d g h c N                                           ",
"                                        N 1 O 4 5 f j 0 0 f d d f f 0 4 4 D N                                           ",
"                                        * 3.d.b c 5 q q q q q q 0 t c b B b n                                           ",
"                                        b n.A.;.V w               m z g.A.n.b                                           ",
"                                        % V P n B M               m N B P V %                                           ",
"                                      U M.V.m.0.X C               C o 0.m.V.M.U                                         ",
"                                      S :.f.i.d.N.. l           l . N.d.i.f.:.S                                         ",
"                                    % p.sX*Xm.<X8.N..           . N.8.<X*X*XsXp.%                                       ",
"                                    b.6Xq.f.v *X<X& p           y o 1X@X;.f.q.0X#X                                      ",
"                                    r v.dX7X1XuX% 4               4 & aX1X<XdX*Xr                                       ",
"                                      w +.@.@.O..                   . o.@.o.+.w                                         ",
"                                                                                                                        ",
"                                                                                                                        ",
"                                                                                                                        ",
"                                                                                                                        ",
"                                                                                                                        "
};
