/* XPM */
static char *player_left1674157820[] = {
/* columns rows colors chars-per-pixel */
"60 60 59 1 ",
"   c #020101",
".  c #0B0200",
"X  c #040802",
"o  c #0C0A02",
"O  c #020309",
"+  c #0A0B0A",
"@  c #0A070A",
"#  c #120300",
"$  c #120C02",
"%  c #170A04",
"&  c #161203",
"*  c #1A1202",
"=  c #1A140B",
"-  c #1E1A0D",
";  c #15120B",
":  c #1A1512",
">  c #1D1B14",
",  c #171814",
"<  c #0D0B12",
"1  c #221B0D",
"2  c #261A02",
"3  c #241C14",
"4  c #221A17",
"5  c #1E2119",
"6  c #292300",
"7  c #372C01",
"8  c #26221A",
"9  c #2B231B",
"0  c #2C2A1E",
"q c #747474",
"w c #973C23",
"e c #966600",
"r c #9D5427",
"t c #99423C",
"y c #AE424A",
"u c #996B4A",
"i c #C36072",
"p c #BF8200",
"a c #DFBD00",
"s c #E7A820",
"d c #EC855C",
"f c #CC8665",
"g c #E4A47C",
"h c #FFC95A",
"j c #402E82",
"k c #3C49AD",
"l c #7141B2",
"z c #466AC9",
"x c #A966DD",
"c c #5686AE",
"v c #57CEE4",
"b c gray71",
"n c #C4B59F",
"m c #F9D5BA",
"M c gainsboro",
"N c #E5E6C7",
"B c #FAECE7",
"V c #F2F7F8",
"C c white",
/* pixels */
"                                                            ",
"                                                            ",
"                                                            ",
"                                                            ",
"                                                            ",
"                                                            ",
"                      ... ...  ..                           ",
"                     .00=+0=++=0X ...                       ",
"                    .=00+;0+;0+00+00+...                    ",
"                  ..0X0;X++X=;X+++;0+00+.                   ",
"                 .0X;;X++777777777++X;0+0.                  ",
"                 .0;X0+77jlxxxxxxj77+;+==.                  ",
"                 .;;X;7jlxCNCNllllj77XX=.                   ",
"                  .;X7lxxCxClCjlllllj70+.                   ",
"                  ..7lxxxNCCCNljjjlll7=.                    ",
"                   .$xCxNCxxNnllxxxll$$.                    ",
"                   $#$nCnNNCnllllll$$#$.                    ",
"                   $4#$$$$$$$$$$$$$##4$.                    ",
"                   O*44###4444####444*$.                    ",
"                   OO*44444###4444##*$%.                    ",
"                    OOOOO********$$**$%.                    ",
"                    &mmmmOOOOOO$$*$##4$.                    ",
"                    &mmmmmBBmmmOOOO*##4$                    ",
"                    &gmmmgttfgmggmmO##4$                    ",
"                     &mmm&&vvgmgmmmO*#4$                    ",
"                     &mmmc&VVmmggmftOOO$                    ",
"                     &mmm66Vmmgggtt& %ll7                   ",
"                    &mBmfmmmmmmmgf&&o%l%l%                  ",
"                   o&gmgmmmmmmmgftt88o% %                   ",
"                  okz&&&tgmmmmgfttkkk8o                     ",
"                  okzzk8@ttttttt8kzkk8o                     ",
"                 okzzzk8o@@@@@,8kzzzkk8o                    ",
"                 okzzkkkoa:a-:okzzzkkk8o                    ",
"                o8zzkkk8o:::-9okzzkkkkk8o                   ",
"                okzkkkko@a:a-9okzkkkkkk8o                   ",
"               ookkkkk8o1@::-9o8kkkkkkk88o                  ",
"               o88kkkko:@1@a-99okkkkk88ooo                  ",
"                oo888ko:-@u@@::o888oooo,@                   ",
"                 @o@oo---a@uuMbqoooesp5,                    ",
"                   @@@@@---@@buq11,,,e5,                    ",
"                    &f@@@@@@@qqq@@f@-,5,                    ",
"                    &f@-::@-a:a:&gmm@-,,                    ",
"                    &t--::@-::::&tmmB@@@                    ",
"                     &--::@-a:a:&tmmmf@                     ",
"                     @--::@-::::@mmmf&                      ",
"                     @---:@-:::::@@@&                       ",
"                      @@--@-:::---@@                        ",
"                       ,@@@@@@@@@@>,                        ",
"                       ,>dw<,,,,,ww,                        ",
"                       ,rhr<,,<rdrw,                        ",
"                       ,,,,>, ,<dw<,                        ",
"                     &&ygmg,, ,,,,,2@                       ",
"                    yiyg32gg3yif3ggf&                       ",
"                    &ym3mm2t&&ty3322&                       ",
"                    @@@@@@@&iy3mm2ff@                       ",
"                           3ggm2gf2@                        ",
"                            @@@@@@@                         ",
"                                                            ",
"                                                            ",
"                                                            "
};
