/* XPM */
static char *palyer_right1674157820[] = {
/* columns rows colors chars-per-pixel */
"60 60 61 1 ",
"   c #020101",
".  c #0B0200",
"X  c #040802",
"o  c #0C0A02",
"O  c #020309",
"+  c #0A0B0A",
"@  c #0A070A",
"#  c #120300",
"$  c #120C02",
"%  c #170A04",
"&  c #161203",
"*  c #1A1202",
"=  c #1A140B",
"-  c #1E1A0D",
";  c #15120B",
":  c #1A1512",
">  c #1D1B14",
",  c #171814",
"<  c #0D0B12",
"1  c #221B0D",
"2  c #261A02",
"3  c #241C14",
"4  c #221A17",
"5  c #1E2119",
"6  c #292300",
"7  c #372C01",
"8  c #26221A",
"9  c #2B231B",
"0  c #2C2A1E",
"q c #4B444C",
"w c #4A5057",
"e c #747474",
"r c #973C23",
"t c #966600",
"y c #9D5427",
"u c #99423C",
"i c #AE424A",
"p c #996B4A",
"a c #C36072",
"s c #BF8200",
"d c #DFBD00",
"f c #E7A820",
"g c #EC855C",
"h c #CC8665",
"j c #E4A47C",
"k c #FFC95A",
"l c #402E82",
"z c #3C49AD",
"x c #7141B2",
"c c #466AC9",
"v c #A966DD",
"b c #5686AE",
"n c #57CEE4",
"m c gray71",
"M c #C4B59F",
"N c #F9D5BA",
"B c gainsboro",
"V c #E5E6C7",
"C c #FAECE7",
"Z c #F2F7F8",
"A c white",
/* pixels */
"                                                            ",
"                                                            ",
"                                                            ",
"                                                            ",
"                                                            ",
"                                                            ",
"                          ..  ... ...                       ",
"                      ... Xw=++=w+=ww.                      ",
"                   ...+ww+ww+w;+w;+ww=.                     ",
"                  .+ww+w;+++X;=X++X;wXw..                   ",
"                 .w+w;X++999999999++X;;Xw.                  ",
"                 .==+;+99lvvvvvvxl99+wX;w.                  ",
"                  .=XX99lxxxVAVAvvxl9;X;;.                  ",
"                  .+w9lxxxxxAlAxAvvvx9X;.                   ",
"                   .=9xxxlllVAAAVxvvvx9..                   ",
"                   .$$xxvvvxMVvvAVvAvv$.                    ",
"                   .$#$$xxxxxMAVVMAMx$#$                    ",
"                   .$5##$$$$$$$$$$$$$#5$                    ",
"                   .$*555####5555###55*O                    ",
"                   .%$*##5555###55555*$O                    ",
"                   .%$**$$********OOOOO                     ",
"                   .$5##$*$$OOOOOONNNN&                     ",
"                   $5##*OOOONNNCCNNNNN&                     ",
"                   $5##ONNjjNjhuujNNNj&                     ",
"                   $5#*ONNNjNjnn&&NNN&                      ",
"                   $OOOuhNjjNNZZ&bNNN&                      ",
"                  9xx% &uujjjNNZ88NNNN&                     ",
"                 %x%x%o&&hjNNNNNNNNhjCN&                    ",
"                  % %o00uuhjNNNNNNNhjNj&                    ",
"                   @o0zzzuuhjNNNNju&&&&zo                   ",
"                  @>o0zzcz0uuuuuuuu0zcczo                   ",
"                  @o0zzcccz0<@@@@@o0zccczo                  ",
"                   o0zzzccczo:-d:dozzzcczo                  ",
"                  o0zzzzzcczoq-:::o0zzzcc0o                 ",
"                  o0zzzzzzczoq-d:d-ozzzzczo                 ",
"                 o00zzzzzzz0oq-:::-o0zzzzzoo                ",
"                 ooo00zzzzzo2@-d:d-:ozzzz00o                ",
"                  @<oooo000o@2@:::-:oz000oo                 ",
"                   <6sftooo-:@7@@d---oo@o@                  ",
"                   <6t<<<@----@77@@Be@@@                    ",
"                   <6<-@h@@@@@@@@ppmeh&                     ",
"                   <<-@NNj&:d:d-@@@eeh&                     ",
"                   @@@CNNu&::::-@::--u&                     ",
"                    @hNNNu&:d:d-@::--&                      ",
"                     &hNNN@::::-@::--@                      ",
"                      &@@@:::::-@:---@                      ",
"                       @@---:::-@--@@                       ",
"                       <,@@@@@@@@@@<                        ",
"                       <rr<<<<<1rg,<                        ",
"                       <rygy1<<1yky<                        ",
"                       <1rg1< <,<<<<                        ",
"                      @3<<<<< <<jNji&&                      ",
"                      &hjj4hai4jj34jiai                     ",
"                      &3344iu&&u3NN4Ni&                     ",
"                      @hh3NN4ia&@@@@@@@                     ",
"                       @3hj3Njj4                            ",
"                        @@@@@@@                             ",
"                                                            ",
"                                                            ",
"                                                            "
};
