/* XPM */
static char *palyer_back1674157819[] = {
/* columns rows colors chars-per-pixel */
"60 60 45 1 ",
"   c #020101",
".  c #0B0200",
"X  c #040802",
"o  c #0C0A02",
"O  c #020309",
"+  c #0A0B0A",
"@  c #0A070A",
"#  c #120300",
"$  c #120C02",
"%  c #170A04",
"&  c #161203",
"*  c #1A1202",
"=  c #1A140B",
"-  c #1E1A0D",
";  c #15120B",
":  c #1A1512",
">  c #1D1B14",
",  c #171814",
"<  c #0D0B12",
"1  c #221B0D",
"2  c #261A02",
"3  c #241C14",
"4  c #221A17",
"5  c #1E2119",
"6  c #292300",
"7  c #372C01",
"8  c #26221A",
"9  c #2B231B",
"0  c #2C2A1E",
"q c #99423C",
"w c #AE424A",
"e c #C36072",
"r c #BF8200",
"t c #E7A820",
"y c #EC855C",
"u c #CC8665",
"i c #E4A47C",
"p c #FFC95A",
"a c #402E82",
"s c #3C49AD",
"d c #7141B2",
"f c #466AC9",
"g c #A966DD",
"h c #F9D5BA",
"j c #FAECE7",
/* pixels */
"                                                            ",
"                                                            ",
"                                                            ",
"                                                            ",
"                                                            ",
"                          ..X  ... ...                      ",
"                      ....77=++77=+7=+                      ",
"                     .+77+7=+7;+7+;7+;...                   ",
"                   ..7+7;+++X;;+;X++X=77+.                  ",
"                  .7X;X++55555555557++;7+7.                 ",
"                  .7;X+55ddddgggggg557;+==.                 ",
"                  .;;X5dddda5555agggg5XX=.                  ",
"                   .;5ddda55adda555ggg57+.                  ",
"                   ..5dddddddggggdddgg5=.                   ",
"                   .5daaaaddddggggggggd5.                   ",
"                   .5a5ddddggggggggggda5.                   ",
"                    55dddddddggggggdda55.                   ",
"                    $ddddddgggggggggadg$                    ",
"                   &$$dddggggggggggaa5$$&                   ",
"                  &u$#$dddddddgggg55$$#$u&                  ",
"                  &iO3#$$$$$$$$$$$$$#33$i&                  ",
"                  &iO*33333######3333#*$i&                  ",
"                  &iuO**#3333333333#**#3$&                  ",
"                   &&uOOO$*******$OOO*##3$                  ",
"                   oo&q%%OOOOOOOOO5%O$*#3$                  ",
"                  o6so&ui%%%%5g5%iiiuO*#3$                  ",
"                 o6sssoquiii%gag5%iuqoOO$$o                 ",
"                 o6ssfsoqqii%g5ag5%qosfss6o@                ",
"                o6ssfffsooo%ga%5a5%osfffss6o@               ",
"                o6sssffffss%55%%5%sffffsss6o@               ",
"               o6sssssffffss%%ss%fffffsssss6o@              ",
"               o6sssssffffffssffffffffsssss6o               ",
"              o66ssssssffsffffffffsffssssss66o              ",
"              o666ssssssffsffffffsffssssss666o              ",
"             o666666sssssffsffffsffsssss666666o             ",
"              oo66666ssssssssssssssssss66666oo              ",
"               ,ooo666666ssssssssss666666ooo,               ",
"               ,rtooooo66666666666666ooooorr,               ",
"               ,9,,,&@oooooooooooooooo@&,,,4,               ",
"               ,,jhhq@:::::-::::-:::::@qhhj,,               ",
"               @uhhhi@:::::-::::-:::::@ihhhu@               ",
"               &qhhhh@:::::@::::@:::::@hhhhq&               ",
"                &uhi@-:::::@::::@-::::-@@hu&                ",
"                 &&@--::::-@----@-::::--@&&                 ",
"                   @@-----@8@@@@8@-----@@                   ",
"                     @@@@@0<,  ,<0@@@@@                     ",
"                     &,,,,,,    ,,,,,,                      ",
"                      ,>y8>,    ,>80>,                      ",
"                     &,0p0<,    ,<yp8,&                     ",
"                    &q,,,,>,    ,>,,,,q&                    ",
"                    12qih2,,    ,,2hiq21                    ",
"                    &uwew211    112wewu&                    ",
"                    @uij2hu&    &uh2jiu@                    ",
"                     @q211q@    @q112q@                     ",
"                      @@@@@      @@@@@                      ",
"                                                            ",
"                                                            ",
"                                                            ",
"                                                            ",
"                                                            "
};
