/* XPM */
static char *Y2FydG9vbi1zZWFtbGVzcy10ZXh0dXJlLWNvbG9yLWZhbnRhc3ktY29iYmxlLXN0b25lLWdyb3VuZC1wYXZlbWVudC1zb2Z0LXNoYXBlZC1yb2Nrcy1hcy1iYWNrZ3JvdW5kLWlsbHVzdHJhdGVkLTE5MDM5NDY2My4_[] = {
/* columns rows colors chars-per-pixel */
"60 60 256 2 ",
"   c #02344A",
".  c #023A53",
"X  c #062E50",
"o  c #003C65",
"O  c #034559",
"+  c #114959",
"@  c #034B66",
"#  c #07556A",
"$  c #145869",
"%  c #025A7C",
"&  c #075875",
"*  c #185977",
"=  c #164B6B",
"-  c #265E76",
";  c #2A566C",
":  c #0A647A",
">  c #1A657B",
",  c #186169",
"<  c #256678",
"1  c #2C727E",
"2  c #366576",
"3  c #045C83",
"4  c #165B82",
"5  c #0A6687",
"6  c #166787",
"7  c #18748B",
"8  c #0A6B92",
"9  c #1A6C95",
"0  c #0A7799",
"q  c #197897",
"w  c #0E768A",
"e  c #266985",
"r  c #336B88",
"t  c #267589",
"y  c #3B758C",
"u  c #237D9D",
"i  c #297697",
"p  c #357A97",
"a  c #286D95",
"s  c #087CA4",
"d  c #197BA5",
"f  c #267AA3",
"g  c #387DA5",
"h  c #357AB4",
"j  c #205A80",
"k  c #437A98",
"l  c #497590",
"z  c #467DA6",
"x  c #10879B",
"c  c #28869B",
"v  c #388699",
"b  c #38959D",
"n  c #1986A8",
"m  c #1A93AC",
"M  c #1988B4",
"N  c #0B97B9",
"B  c #1996B9",
"V  c #0B89B1",
"C  c #2483A4",
"Z  c #2B83A5",
"A  c #2284AC",
"S  c #248BAC",
"D  c #2D8BAD",
"F  c #2888A8",
"G  c #3384A4",
"H  c #348CAC",
"J  c #3C8CAB",
"K  c #3687A7",
"L  c #2494AB",
"P  c #2A92A7",
"I  c #3794AB",
"U  c #2B8CB3",
"Y  c #268AB6",
"T  c #388BB6",
"R  c #2D9CB5",
"E  c #2B95BA",
"W  c #2B9DBC",
"Q  c #2598B7",
"!  c #3593B4",
"~  c #339AB5",
"^  c #3493BB",
"/  c #349DBB",
"(  c #3B9CBC",
")  c #3C96B6",
"_  c #2AA3BA",
"`  c #33A2BC",
"'  c #38A5BA",
"]  c #3AA5AD",
"[  c #1AA6B8",
"{  c #46859A",
"}  c #4689A6",
"|  c #4794A8",
" . c #468DB8",
".. c #429BBB",
"X. c #4697B7",
"o. c #5598B6",
"O. c #5693A9",
"+. c #45A3BD",
"@. c #4AA5BC",
"#. c #55A6BC",
"$. c #58B2BD",
"%. c #6EA5B9",
"&. c #6A9DB3",
"*. c #1998C7",
"=. c #1491C5",
"-. c #2C9BC4",
";. c #2C9CCC",
":. c #2598C6",
">. c #339BC3",
",. c #3C9CC3",
"<. c #379ACA",
"1. c #289CD4",
"2. c #379CD5",
"3. c #2C8CC2",
"4. c #1BA6C7",
"5. c #1AAAD4",
"6. c #0FAFC8",
"7. c #24A3C3",
"8. c #2BA4CC",
"9. c #2DABCC",
"0. c #26A7C7",
"q. c #33A3C4",
"w. c #3BA4C3",
"e. c #35ABC4",
"r. c #33A2CC",
"t. c #3BA4CB",
"y. c #34ABCB",
"u. c #3CAACC",
"i. c #3BACC4",
"p. c #27B2CD",
"a. c #39B3C9",
"s. c #23A4D5",
"d. c #2CA4D4",
"f. c #2DACD4",
"g. c #2CA5DB",
"h. c #2BAADC",
"j. c #25A9DA",
"k. c #34A4D3",
"l. c #3BA4D3",
"z. c #34ABD4",
"x. c #3CACD3",
"c. c #34A4DC",
"v. c #3BA6DB",
"b. c #34ABDB",
"n. c #3CACDC",
"m. c #29B5D8",
"M. c #33B4D5",
"N. c #3BB3D3",
"B. c #34B4DB",
"V. c #3CB3DB",
"C. c #34BBDC",
"Z. c #3BBADB",
"A. c #3ABAD4",
"S. c #2CABE2",
"D. c #2DA4E1",
"F. c #34ACE2",
"G. c #3BACE3",
"H. c #33A9E6",
"J. c #2DB4E3",
"K. c #2CB9E8",
"L. c #34B4E3",
"P. c #3CB3E3",
"I. c #3CBBE4",
"U. c #3BB4EB",
"Y. c #3DBCEB",
"T. c #34B9E8",
"R. c #39BBF3",
"E. c #469BC5",
"W. c #539DC2",
"Q. c #4596C9",
"!. c #44A3C4",
"~. c #43ABC5",
"^. c #4CAAC4",
"/. c #43A4CB",
"(. c #4BA3CB",
"). c #44ACCD",
"_. c #4BABCB",
"`. c #4BA4C3",
"'. c #54A9C3",
"]. c #56A8C9",
"[. c #4BB3CC",
"{. c #46B3CB",
"}. c #56B5C9",
"|. c #43ABD3",
" X c #4BACD3",
".X c #43ACDB",
"XX c #48A6D6",
"oX c #53ADD3",
"OX c #56AAD8",
"+X c #43B3D4",
"@X c #4AB3D4",
"#X c #43BAD4",
"$X c #45B4DB",
"%X c #4CB4DA",
"&X c #44BBDB",
"*X c #4BBCDB",
"=X c #4CBBD4",
"-X c #53B3D3",
";X c #5CB4D3",
":X c #53B4DB",
">X c #54BCDC",
",X c #5CBBDC",
"<X c #58B9D6",
"1X c #63B9D8",
"2X c #6BADCA",
"3X c #43ABE6",
"4X c #4BB5E3",
"5X c #43BBE3",
"6X c #4CBCE3",
"7X c #45B4EC",
"8X c #44BCEC",
"9X c #4BBCEB",
"0X c #45B4E6",
"qX c #53BCE3",
"wX c #58BAE5",
"eX c #4CBBF3",
"rX c #46BAF3",
"tX c #55BDF6",
"yX c #63BBE4",
"uX c #38C2DA",
"iX c #3BC3E3",
"pX c #38C6E7",
"aX c #3AC5F3",
"sX c #2DC2EA",
"dX c #49C3DA",
"fX c #58C3DB",
"gX c #51C4C9",
"hX c #69C7D9",
"jX c #78C1DF",
"kX c #44C4E4",
"lX c #4BC3E3",
"zX c #44C4EC",
"xX c #4DC3EC",
"cX c #44CCEB",
"vX c #4CCAEB",
"bX c #4ACBE5",
"nX c #5BC4EB",
"mX c #57C7E8",
"MX c #5BD5EB",
"NX c #44C3F3",
"BX c #4AC3F3",
"VX c #49C9F6",
"CX c #56C8F6",
"ZX c #58D4F8",
"AX c #49D2F3",
"SX c #66C7E8",
"DX c #77C9EA",
"FX c #66D3EB",
"GX c #73D3EC",
"HX c #65CAF7",
"JX c #67D7FB",
"KX c #75D6F9",
"LX c #6BE2FF",
"PX c #77E7FF",
"IX c #85B5CC",
"UX c #85D0ED",
/* pixels */
"&.%.2XhXc x _ 7.d.8.P.CXZXI.7.4.5.K.j.K.eXrXY.cXJX@Xg k X l IX .>X9XHXHXtX3X3X3XH.H.D.I.&Xt. X4XxXNXzX*.B AXz.A.Z.A.x.N.",
"IX%.{ c x L A.0.5Xb.k.9XCXxXB.m.5.sXR.H.G.G.L.CXJXE T z ; = l W.wXqXCXHXtX3Xv.:.D.1.d.I.B.W q.u.0.pXVX:.0 5X&XN.N.N.+X*X",
"  . O v ~.e.&XvXVX8XF.P.U.Y.I.pXK.R.T.F.8XrX9XxX$XA K 4 * * e p OX,X@XqXHXv.M c.:.1.1.0Xn.:.9.M.I.9.bXMXn /...[.~.~.).=X",
"l < 7 1X<X+XkXJXCXCXBXH.g.h.J.T.Y.R.U.rXeX9X4X|.XX/.T 6 g X.H K v `.<X).t.V.b.:.3.3.Y 2.d.N 0.m.A.0.#X<X5 ..X.K X.) +.+.",
"} e # @.R JXLXZXCXVXVXU.D.j.S.S.H.R.rXR.c.;.<.<.XX-XU !.wXwX:XSX| 7 K {.` x.*XM M 3.Y 2.:.V 4.0.A.a.fXhX& p W.o. .o.1XDX",
"o.v 5 (.w.JXJX8XVXNXrXU.R.K.K.j.H.1.g.1.:.:./.Q.(.E.n 6XJXZXCXKXGXX.: 7 !._.t.|.Y d A 2.d.M *.0.R ] hX1X$ . - k p v I @.",
"X.J 7 A /.lXCXZXNXU.H.H.R.R.R.R.H.1.=.1.8.$XwXW.(.( W lXZXLXJXtX-XGXH @ 6 ..Q.OX3.M d E -.n Y ~ c gXhX| - 2 } z p i 7 5 ",
"u oX! 8  XnXCX.XU.H.S.K.H.K.R.rXrXD.D.U.V.6XyXOX .f 6XVXVXNXtXHXu.R `. .@ o g W.DX XE ' ( F T `.@.b t $ g o.1XUXGXDXFXFX",
",XKXKXq q HX.X4Xn.b.c.F.S.5.S.R.D.rXJ.J.iX6X:XE.f ,.6XCXVXVXCXeXv.r.U )  .a a a W.OX].X.'.yX} p $   > a t o.;X<X@X=XdXdX",
"6XJXwXHX8 3.wX4Xl.;.:.:.1.g.R.rXU.s.s.pXI.4XSXOX3 U 6XCX8XrXtX7X8Xk.M Y T g g a e * e p { > y p o.p p 6 9 ..~ u.y.M.M.M.",
"9X6X4XHXQ.9 HXHX:X.Xd.:.:.g.g.g.g.*.f.NXf.N.nX<.% 3.wXeXG.rXCXtXeXH.d M Y U T i p z = X r k 2X#.].2X} 3 f !.M q.uXpXpXpX",
"9Xx.qX<.HX9 f yXSXwX+X8.-.l.v.2.:.8.n.Z.z.4XwXn 3 d 3X9XG.rXtXrX7XU.1.;.-.Y D a r z ; l 2Xo.i p p W. .6 F |.q.8.iXpXpXpX",
"Z.8X$X/.SX9 X f (.<X,X+Xx.t.3.d M -.E -.2..Xl.s s M k.$XG.P.0XF.U.rXI.Z.V.y.! 9 } * z 2Xg a q Z 8 K X.f d ,.t.8.4.m.C.sX",
"Y.zX9XXXOX9 a a 3 q q n F >.<.,.<.|./.Q.<.Y :.8.L.d.;.2.2.n.vXVXT.8XB.L.6X>X!.9 4 a IXW.i K ! q D ! !.! 9 n >.-.B 0.L.iX",
"NXzXBXXX(.9 UXW.].X.q % % 8 f U /.OXyXyX3.f b.VXVXI.b.;.-.x.cXcX6.T.M.$XqXyX].i % W.yXT E.>.A Y ` / w.!.D d A >.-.x.zXAX",
"T.zX9XwX3. .1XW.'.+.( ' ,./ Y d d 9 h Q.f A 4Xz.4.m.8Xn.k.z.M.B N K.pXlXfX,X].f 5 wX%X3Xl.;.3.^ Q m R @X XF f <.>.l.bXvX",
"NXzXBX$Xf ,.OXE.,.S Q x.&X5XaXrXCX7Xf X 7 '.w.q.4.s.P.0X;.d f n N p.cXdXfX{.].f 9 :X.Xk.n.8./.%X>.Q L >.>Xw.n ~ ).).*XmX",
"iXL.vX%Xd ,./.A S Q $XkXf.4.s.D.U.CXtX9 6 }.;X[.Q d.Y.8Xl.^ p 7 M B.kXuX` i.;Xa f wX|.;.f.n.3X<.l.;.-.t.qX!.n / ).+X&XmX",
"vXqXwXwXf XX:X<.E r.Y.L.4.*.D.D.7X2.wX1X: @.'.~.Q d.V.P..X(.J 9 f $X*X*X` }.1X4 T XXk.d.B.8X4X<.l.2.l.x.qX).Y ` =X%X&X*X",
"mX>X,X:Xd (.,XXXl.k.P.H.*.*.H.U.CX3.U yX6 v #.`.q.r.;.d.+X XX.G A /.w.u.( ]. .a Q.^ <.BX8XL.G.l.v.k.v..X9X%XE Q %X#X#X+X",
"( ( ..T 8 H ,.Y :.-.0XNXD.=.D.3XeXXXU ;Xt > '.@.w.>.Y -.XX!.H J  .T f Z  .X.4 z  .T .XBXL.j.c.G.3XG.3XXX9XnX<.S y.y.y.q.",
") ! f 5 5 D /.<.E =.h.rXU.D.H.3X3X|.) ;Xv # v | E.<.-.<.+X,.K ) Q.T Z J #.g = }  .OXCXB.=.s.c.G.7X7X7Xn.qXnXl.n / W _ _ ",
"-XE.C % ! |.nXxXV.*.*.h.H.3X3X3XqX)._.;Xi O > i ) ].XX|. X~ F ! K T G I | e p z  .OXtX1.V 5.H.c.4X7XeX.X.XHX>.w ` w.>.~ ",
"qX%XE 8 nXnXxXz.B.B.B.g.3.1.Q.<.t.).SXI   O @ : 4 H ! C A q 5 q 5 9 5 5 % . O.}  .(.9X;.=.5.1.G.U.8XeXl.t.>X~ 5 !.+.' I ",
"nX4X-.n ZXxXzXzXiXC.B.b.;.^ 3.(.+Xu.F 5 c | i * H E.( ( (.( U !.1X).nX[.7 O p o. .E.x.h.s.g.v.3XeXV.&XmXu.).-X# c @.'.#.",
"CXvXQ M JXZXAXL.M.C.B.&X@X<.T h 5 8 ` ,X;X<X].i u X.....E.) ! @XmXnXmX}.gX7 > | g ^ r.d.d.g.3XeXBXZXCX6X@X-X' & : t | $.",
"ZXZXn V vXZXZXkXC.M.Z.lX@XU 9 8 M E t.:X,X_.].,Xf ..(.!.E.! ^ -X,.Y R _ }.| c @.G ! >.z.b.F.3XeX9XZXCXqXFXfXc : > t t | ",
"=XnX0 w.nXmXvXZ.kXB.Z.V.M 3 8 U Y r.k.x.qX@X|.SXH !.].(.`.E.E.wX4XE _ R [.I > { } H -.z.V.G..X3X6X$XmXSXKXoX: 7 c t > > ",
"fXfX5 +.nX@X%X*XZ.B.Q s n t.XX<.-.:.x.9X9XnXnXu.E ( ..E._.oXOXyXQ.wX:X).SX#.= o.X.T ^ 8.z.b.3X3X0Xv.wXwX/.f 5 G X.@.'.@.",
"#.b O v }.'./.).q.s V V.CX.Xl.4X9X4XG.b.P.VXvX$X~ ~ ! ! ) E.E.Q.3XOXOXE.| t X - 2X(.t.-.:.z.v..X2.XX4X3.8 5 H }.+.<XhX[.",
"< , O v o.} u q 3 3XLX9X1.c.3Xc.c.eXG.g.NXVXI.vXy.t.' ! f h T T h 9 i J > e r r } (.%Xu.8.d.v.G.XXXX3.d 8 A -XFXfXfX%X~.",
"y 1 # $ * & 6 f wX9XI.L.D.D.D.c.c.F.BXNXD.h.L.f.$X*X%XE.Z g  .Q.h h f T T `.W.W.* J <X@Xr.y.XXQ.OXOX9 9 ^ ,.:X,XGXmXdX+X",
"gX'.| 6 X a '.SXqX8XT.J.j.S.S.5.h.s.I.ZXrX=.1.VXBXLXx.@X`.i 6 r g Q.OXQ.2.3.T h Q.q 6 '.hX}.}.}.2Xy 4 G H ` #XdXMXZXbXZ.",
"].oX(.} & } ].;X+X5XY.K.S.j.S.S.h.j.U.CXtX1.1.BXrXVXlXqX!.% * p  .Q.<.2.1.1.1.3.^ OXK * { | { O.l = e } P P i.a.&XdX#XN.",
"t. XoX;X6 X.;X!.|.Z.8XT.S.S.S.H.g.S.G.eXtXG.2.7XCXI.5XmX/ & K ].oX|.2.2.S.T.P.v.XXW. .r ; + O + X . j } K I @XmX,XSXwX-X",
"x.$X_.;X7 X.;X( x.0XY.T.S.S.S.H.D.U.G.3XtXG.2.7X9XkXN.mXR 5 hXSX@X8XBXaXR.R.Y.7XwXf } &.l + + + r j 4 6 5 q ( ~.E.OX1X;X",
"&XlXi.,XC H ;X,.|.V.L.S.D.D.g.D.K.R.H.rXtXv.<.nX4XlXdXmXQ q.SX*Xn.Y.VXaXaXsXK.I.qXE.g k { 2 2 O.o.W.oXoX!.U 8 @ & 5 6 6 ",
"B.Z.Q :X! u _.~ r.z.h.g.s.j.D.1.H.H.U.tXCXXX<.nXnX*XnXe.m JX|.N.5XI.T.R.sXK.K.L.qX..t y 2 + l &.1XwXqX%X+X+X|.t.^  .T i ",
"0.9.n ).!.6 ! S M :.s.5.s.j.h.c.H.H.R.eXwXXX,.!.<X).~.n >.nXx.$X4X3XL.T.sXK.K.S.+Xq > O.< O O.2XL 7.0.0.B.bXAXJXJXHXwX(.",
"*.:.n t.-X% D C 0 B :.5.5.j.h.J.K.R.BXCX4Xx.w.I q ) q A mXt.4Xn..Xv.b.L.K.K.K.J.N.+.: t 1 O { o.e.m.p.p.C.iXI.8X9XxX4X|.",
"*.M Y /.1X% u F W B N =.5.5.j.m.K.aXVXI.&X*X[.) u I & u HX:X3X4X4Xl.8.j.J.J.m.9.=X+.> v $ # { X.e.4.p.p.p.m.m.*.1.1.g.H.",
"s V n S E.% H `.x.8.4.4.6.*.5.m.aXaXL.f.N.>X=X+.`.6 @  .SX(.XX.Xn.I.I.K.m.f.M.N.FXX.t k # * } I i.7.0.m.uXsXB.j.s.1.1.D.",
":.z.>.F H & c _.W _ 4.4.6.4.m.C.0.h.M.N.N.=X=X[.G @ @  .yXyX(.x.z.I.pXpXm.sXZ.=X+.t K k @ r } v ! ` q.A.&XB.F.7XH.D.D.G.",
"B.kX$X( +.5 q _.L B B 4.4.4.p.m.z.y.x.#XdXfX}.@.: 6 6 9 ;XDXt.+XM.uXuXpXpXcXlX[.c y O.{ = r O.X.! !.t.|.lX5XP.9X7X7X7XeX",
"N 4.0.i.hXI u hXP Q B 7.9.M.&X&X@X).+XmXMXgXI q X.'.X.5 c ]./ e.7.4.4.[ p.a./ F p } k 2 - > K X.E._./.x.mXZXvXlX9X9XtXHX",
"N N B _ hX] : ^.SXmX*X&XdXmXMXFX].].'.~.~ P P +.;X#.].K w R ` L m m m m n n q i r y < $ r 6 q C !  X%X%X$XkXxXAXCXCXHXLX",
"6.6.0._ MXI   w ~.~.>.m n n A C p i 7 & . O w ,X`.K @.@.P L R m / E / ` ~ H J O.e < { { $.' Q _ S U y.&XM.p.iXZXAXZXJXPX",
"6.6.uXa.GX@.  : x n m L L ! ! I e i I '.' n L ~.+.+.! ! ' L m Q / D D ~ ....X.'.y # #.}.<Xa.e.&Xq.0 0 y.Z.uXiXkXbXMXMXJX",
"pXpXuXuXhXb O I ' a.uXA.i.-X=XI x ~.dXbXMXbXa.m ).>./.qXt.8.M.9.Q n S .._.+.X.@.: ) }._.u.N.x.$XJX( q M a.A.dXbX#X+XmXSX",
"cXMXMXfX$.1 , #.[ [ 6._ q.=XdXL W Z.kXcXkXcXA.7.m <.%X%Xk.N.C.M.y.` ` !...X.#.@.7 {.MXdX6X&Xb.x.:XyX Xn n a.dXa.+X' [.SX",
"L P c c 2 . y #.L [ 4.4.0.#Xa.m C.pXpXpXcXAXdXZ.0 ^ :X,.U / Q q.q.a._.-X+.X.}.) w [.mXdXvXvXn.n.wXSX%Xn 0 m a.+X~.i._.,X",
"> * $ , + + l %.] e.p.p.y.Z.m.N T.aXaXpXaXpXZ.#XS F 1X;X!.^.R / L q.` ^.+.X.$.7 7 [.dXN.5X5XB.P.4X|.x.$XM._ Q e./ ~.[.^.",
"{ y { 1 2 ; ; &.@.a.0._ y.Z.0.N L.NXNX5XkXZ.N.+Xn # ~ hXgXgXa._ R R S ] +.+.I : x [.dXN.N.V.z.P.x.l.n.dXcXbX#X+X` ' ..+.",
"| 1 1 , 2 2   2 | }.{._ Y M Q 0.L.NXNXY.cXxXlX>XA O 5 ' R ] a.' e.e.i.{.}.@.c : P @.gXdXZ.Z.L.8X0XV.N.z.M.kXMXLXFX@.c H ",
"b , , , 1 { 2   > | -X..D d A r.m.aXpXI.bXvX=Xw.q 3 6 7 : 7 c L _ _ a.' ' b : c ~ R a.dXZ.I.5XI.b.z.I.VXcXkXkXmXPXSXH a ",
"x x c b 1 | O.+ O e v | X.X.D L 8.C.C.9.N.u.n 5 / GXGXfX<X~.a._ n x x w : # # @.~.L _ N.8.z.L.d.P.Y.NXcXcXcXbX#X>XGX'.6 ",
"x x x _ c ] $.1 # > < # # O : : % % % 5 5 @ 3 `.fX*X=XdXcXcXcXpXcXuX#X{.{.P @ @.=X' _ _ Q B d.8X8XT.NXcXcXzXkX&X>X-X].6 ",
"x N _ ' Q ] [.b O < 1 , w c b L ( ( H D u 5 u wX).+XM.uXpXsXuXm.uXm.a.dXfXfXw P gXe._ a.9.B *.I.VX8XNXVXpXkXvXdXSX1XX.> ",
"0.f.uXkXA.a.gX$., , 1 w ] a.bXgXfXMX=Xw.D 7 c fX@X&XkXvXAXAXaXpXm.m.0.y.=XnX~.x =X' _ y.y.:.W d.U.b.h.m.f.f.N.N.mX;Xu G ",
"L.I.xXvXbXuXdXfX1 , , b gXgXuXuXdXMXdX~.R 7 q ' [.+X*XVXZXAXVXT.m.C.0.7.W =X>XL ` i._ _ 7.z.z.*.d.=.V N N N :.W ).].6 2X"
};
